M48
; DRILL file {KiCad 7.0.10} date Mon Jan  8 21:03:18 2024
; FORMAT={-:-/ absolute / inch / decimal}
; #@! TF.CreationDate,2024-01-08T21:03:18-06:00
; #@! TF.GenerationSoftware,Kicad,Pcbnew,7.0.10
; #@! TF.FileFunction,Plated,1,2,PTH
FMAT,2
INCH
; #@! TA.AperFunction,Plated,PTH,ViaDrill
T1C0.0100
; #@! TA.AperFunction,Plated,PTH,ComponentDrill
T2C0.0295
; #@! TA.AperFunction,Plated,PTH,ComponentDrill
T3C0.0315
; #@! TA.AperFunction,Plated,PTH,ComponentDrill
T4C0.0374
; #@! TA.AperFunction,Plated,PTH,ComponentDrill
T5C0.0394
; #@! TA.AperFunction,Plated,PTH,ComponentDrill
T6C0.0433
%
G90
G05
T1
X4.111Y-4.511
X4.88Y-4.79
X4.94Y-4.42
X5.09Y-4.33
X5.129Y-4.62
X5.17Y-4.662
X5.19Y-4.4636
X5.21Y-4.64
X5.44Y-4.141
X5.48Y-4.175
X5.5056Y-4.6716
X5.78Y-4.9441
X5.7892Y-5.2808
T2
X4.506Y-4.349
X4.556Y-4.399
X4.606Y-4.349
T3
X4.338Y-4.559
X4.338Y-4.859
X4.4008Y-5.098
X4.4008Y-5.365
X4.438Y-4.559
X4.438Y-4.859
X4.4501Y-4.071
X4.4992Y-5.098
X4.4992Y-5.365
X4.538Y-4.559
X4.538Y-4.859
X4.5486Y-4.071
X4.638Y-4.559
X4.638Y-4.859
X4.738Y-4.559
X4.738Y-4.859
X4.79Y-4.15
X4.79Y-4.36
X4.838Y-4.559
X4.838Y-4.859
X4.8779Y-5.1
X4.938Y-4.559
X4.938Y-4.859
X5.038Y-4.559
X5.038Y-4.859
X5.07Y-5.1
X5.138Y-4.559
X5.138Y-4.859
X5.19Y-4.15
X5.19Y-4.36
X5.238Y-4.559
X5.238Y-4.859
X5.338Y-4.559
X5.338Y-4.859
X5.359Y-5.035
X5.359Y-5.174
X5.438Y-4.559
X5.438Y-4.859
X5.538Y-4.559
X5.538Y-4.859
X5.638Y-4.559
X5.638Y-4.859
X5.759Y-5.035
X5.759Y-5.174
X5.7808Y-4.35
X5.8792Y-4.35
X5.9278Y-5.038
X6.0262Y-5.038
T4
X4.021Y-4.3651
X4.021Y-4.4636
X4.021Y-4.562
X4.021Y-4.6604
X4.021Y-4.7589
X4.021Y-4.8573
X4.021Y-4.9557
X4.021Y-5.0541
X4.7831Y-5.403
X4.8816Y-5.403
X4.98Y-5.403
X5.0784Y-5.403
X5.1769Y-5.403
X5.2753Y-5.403
X5.378Y-4.021
X5.4764Y-4.021
X5.5749Y-4.021
X5.6733Y-4.021
X5.7717Y-4.021
X5.8701Y-4.021
T5
X5.7216Y-5.404
X5.82Y-5.404
T6
X5.8858Y-4.6654
X5.8858Y-4.8425
X6.1417Y-4.6654
X6.1417Y-4.8425
M30
