M48
; DRILL file {KiCad 7.0.1} date Thu Apr 20 23:53:06 2023
; FORMAT={2:4/ absolute / inch / keep zeros}
; #@! TF.CreationDate,2023-04-20T23:53:06-05:00
; #@! TF.GenerationSoftware,Kicad,Pcbnew,7.0.1
; #@! TF.FileFunction,MixedPlating,1,2
FMAT,2
INCH
; #@! TA.AperFunction,Plated,PTH,ViaDrill
T1C0.0100
; #@! TA.AperFunction,Plated,PTH,ComponentDrill
T2C0.0295
; #@! TA.AperFunction,Plated,PTH,ComponentDrill
T3C0.0315
; #@! TA.AperFunction,Plated,PTH,ComponentDrill
T4C0.0374
; #@! TA.AperFunction,Plated,PTH,ComponentDrill
T5C0.0394
; #@! TA.AperFunction,Plated,PTH,ComponentDrill
T6C0.0433
; #@! TA.AperFunction,NonPlated,NPTH,ComponentDrill
T7C0.0866
%
G90
G05
T1
X041110Y045110
X048800Y047900
X049400Y044200
X050900Y043300
X051290Y046200
X051700Y046620
X051900Y044636
X052100Y046400
X054400Y041410
X054800Y041750
X055056Y046716
X057800Y049441
X057892Y052808
T2
X045060Y043490
X045560Y043990
X046060Y043490
T3
X043380Y045590
X043380Y048590
X044008Y050980
X044008Y053650
X044380Y045590
X044380Y048590
X044501Y040710
X044992Y050980
X044992Y053650
X045380Y045590
X045380Y048590
X045486Y040710
X046380Y045590
X046380Y048590
X047380Y045590
X047380Y048590
X047900Y041500
X047900Y043600
X048380Y045590
X048380Y048590
X048779Y051000
X049380Y045590
X049380Y048590
X050380Y045590
X050380Y048590
X050700Y051000
X051380Y045590
X051380Y048590
X051900Y041500
X051900Y043600
X052380Y045590
X052380Y048590
X053380Y045590
X053380Y048590
X053590Y050350
X053590Y051740
X054380Y045590
X054380Y048590
X055380Y045590
X055380Y048590
X056380Y045590
X056380Y048590
X057590Y050350
X057590Y051740
X057808Y043500
X058792Y043500
X059278Y050380
X060262Y050380
T4
X040210Y043651
X040210Y044636
X040210Y045620
X040210Y046604
X040210Y047589
X040210Y048573
X040210Y049557
X040210Y050541
X047831Y054030
X048816Y054030
X049800Y054030
X050784Y054030
X051769Y054030
X052753Y054030
X053780Y040210
X054764Y040210
X055749Y040210
X056733Y040210
X057717Y040210
X058701Y040210
T5
X057216Y054040
X058200Y054040
T6
X058858Y046654
X058858Y048425
X061417Y046654
X061417Y048425
T7
X040453Y040453
X040453Y054035
X061909Y040453
X061909Y054035
T0
M30
