%TF.GenerationSoftware,KiCad,Pcbnew,7.0.10*%
%TF.CreationDate,2024-01-08T21:03:24-06:00*%
%TF.ProjectId,epaper_board_layout,65706170-6572-45f6-926f-6172645f6c61,V01*%
%TF.SameCoordinates,Original*%
%TF.FileFunction,Copper,L1,Top*%
%TF.FilePolarity,Positive*%
%FSLAX46Y46*%
G04 Gerber Fmt 4.6, Leading zero omitted, Abs format (unit mm)*
G04 Created by KiCad (PCBNEW 7.0.10) date 2024-01-08 21:03:24*
%MOMM*%
%LPD*%
G01*
G04 APERTURE LIST*
%TA.AperFunction,ComponentPad*%
%ADD10O,1.700000X2.000000*%
%TD*%
%TA.AperFunction,ComponentPad*%
%ADD11R,1.300000X1.300000*%
%TD*%
%TA.AperFunction,ComponentPad*%
%ADD12C,1.300000*%
%TD*%
%TA.AperFunction,ComponentPad*%
%ADD13C,1.600000*%
%TD*%
%TA.AperFunction,ComponentPad*%
%ADD14R,1.600000X1.600000*%
%TD*%
%TA.AperFunction,ComponentPad*%
%ADD15O,1.600000X1.600000*%
%TD*%
%TA.AperFunction,ComponentPad*%
%ADD16O,1.950000X1.700000*%
%TD*%
%TA.AperFunction,ComponentPad*%
%ADD17C,2.000000*%
%TD*%
%TA.AperFunction,ComponentPad*%
%ADD18O,1.700000X1.950000*%
%TD*%
%TA.AperFunction,ComponentPad*%
%ADD19C,1.500000*%
%TD*%
%TA.AperFunction,ViaPad*%
%ADD20C,0.508000*%
%TD*%
%TA.AperFunction,Conductor*%
%ADD21C,0.508000*%
%TD*%
%TA.AperFunction,Conductor*%
%ADD22C,0.152400*%
%TD*%
%TA.AperFunction,Conductor*%
%ADD23C,0.254000*%
%TD*%
G04 APERTURE END LIST*
%TO.P,J4,1,Pin_1*%
%TO.N,VCC*%
%TA.AperFunction,ComponentPad*%
G36*
G01*
X144478000Y-138011600D02*
X144478000Y-136511600D01*
G75*
G02*
X144728000Y-136261600I250000J0D01*
G01*
X145928000Y-136261600D01*
G75*
G02*
X146178000Y-136511600I0J-250000D01*
G01*
X146178000Y-138011600D01*
G75*
G02*
X145928000Y-138261600I-250000J0D01*
G01*
X144728000Y-138261600D01*
G75*
G02*
X144478000Y-138011600I0J250000D01*
G01*
G37*
%TD.AperFunction*%
D10*
%TO.P,J4,2,Pin_2*%
%TO.N,GND*%
X147828000Y-137261600D03*
%TD*%
D11*
%TO.P,Q1,1,D*%
%TO.N,VREF*%
X116992400Y-110464600D03*
D12*
%TO.P,Q1,2,G*%
%TO.N,Net-(Q1-G)*%
X115722400Y-111734600D03*
%TO.P,Q1,3,S*%
%TO.N,VCC*%
X114452400Y-110464600D03*
%TD*%
D13*
%TO.P,C2,1*%
%TO.N,Net-(U1-XTAL2{slash}PB7)*%
X114280000Y-136271000D03*
%TO.P,C2,2*%
%TO.N,GND*%
X111780000Y-136271000D03*
%TD*%
%TO.P,C4,1*%
%TO.N,VREF*%
X113033800Y-103403400D03*
%TO.P,C4,2*%
%TO.N,GND*%
X115533800Y-103403400D03*
%TD*%
%TO.P,C5,1*%
%TO.N,RTS*%
X153065800Y-127965200D03*
%TO.P,C5,2*%
%TO.N,~{RESET}*%
X150565800Y-127965200D03*
%TD*%
D14*
%TO.P,U1,1,~{RESET}/PC6*%
%TO.N,~{RESET}*%
X110185200Y-123418600D03*
D15*
%TO.P,U1,2,PD0*%
%TO.N,RXD*%
X112725200Y-123418600D03*
%TO.P,U1,3,PD1*%
%TO.N,TXD*%
X115265200Y-123418600D03*
%TO.P,U1,4,PD2*%
%TO.N,unconnected-(U1-PD2-Pad4)*%
X117805200Y-123418600D03*
%TO.P,U1,5,PD3*%
%TO.N,unconnected-(U1-PD3-Pad5)*%
X120345200Y-123418600D03*
%TO.P,U1,6,PD4*%
%TO.N,unconnected-(U1-PD4-Pad6)*%
X122885200Y-123418600D03*
%TO.P,U1,7,VCC*%
%TO.N,VCC*%
X125425200Y-123418600D03*
%TO.P,U1,8,GND*%
%TO.N,GND*%
X127965200Y-123418600D03*
%TO.P,U1,9,XTAL1/PB6*%
%TO.N,Net-(U1-XTAL1{slash}PB6)*%
X130505200Y-123418600D03*
%TO.P,U1,10,XTAL2/PB7*%
%TO.N,Net-(U1-XTAL2{slash}PB7)*%
X133045200Y-123418600D03*
%TO.P,U1,11,PD5*%
%TO.N,/atmega328p/~{CS_REF}*%
X135585200Y-123418600D03*
%TO.P,U1,12,PD6*%
%TO.N,CS_SD*%
X138125200Y-123418600D03*
%TO.P,U1,13,PD7*%
%TO.N,BUSY_FRAME*%
X140665200Y-123418600D03*
%TO.P,U1,14,PB0*%
%TO.N,RST_FRAME*%
X143205200Y-123418600D03*
%TO.P,U1,15,PB1*%
%TO.N,DC_FRAME*%
X143205200Y-115798600D03*
%TO.P,U1,16,PB2*%
%TO.N,CS_FRAME*%
X140665200Y-115798600D03*
%TO.P,U1,17,PB3*%
%TO.N,MOSI*%
X138125200Y-115798600D03*
%TO.P,U1,18,PB4*%
%TO.N,MISO*%
X135585200Y-115798600D03*
%TO.P,U1,19,PB5*%
%TO.N,SCLK*%
X133045200Y-115798600D03*
%TO.P,U1,20,AVCC*%
%TO.N,VCC*%
X130505200Y-115798600D03*
%TO.P,U1,21,AREF*%
%TO.N,unconnected-(U1-AREF-Pad21)*%
X127965200Y-115798600D03*
%TO.P,U1,22,GND*%
%TO.N,GND*%
X125425200Y-115798600D03*
%TO.P,U1,23,PC0*%
%TO.N,unconnected-(U1-PC0-Pad23)*%
X122885200Y-115798600D03*
%TO.P,U1,24,PC1*%
%TO.N,unconnected-(U1-PC1-Pad24)*%
X120345200Y-115798600D03*
%TO.P,U1,25,PC2*%
%TO.N,unconnected-(U1-PC2-Pad25)*%
X117805200Y-115798600D03*
%TO.P,U1,26,PC3*%
%TO.N,unconnected-(U1-PC3-Pad26)*%
X115265200Y-115798600D03*
%TO.P,U1,27,PC4*%
%TO.N,unconnected-(U1-PC4-Pad27)*%
X112725200Y-115798600D03*
%TO.P,U1,28,PC5*%
%TO.N,unconnected-(U1-PC5-Pad28)*%
X110185200Y-115798600D03*
%TD*%
D13*
%TO.P,C1,1*%
%TO.N,Net-(U1-XTAL1{slash}PB6)*%
X114280000Y-129489200D03*
%TO.P,C1,2*%
%TO.N,GND*%
X111780000Y-129489200D03*
%TD*%
%TO.P,R2,1*%
%TO.N,VCC*%
X131826000Y-110744000D03*
D15*
%TO.P,R2,2*%
%TO.N,Net-(Q1-G)*%
X121666000Y-110744000D03*
%TD*%
D13*
%TO.P,R1,1*%
%TO.N,/atmega328p/~{CS_REF}*%
X131826000Y-105410000D03*
D15*
%TO.P,R1,2*%
%TO.N,Net-(Q1-G)*%
X121666000Y-105410000D03*
%TD*%
%TO.P,J3,1,Pin_1*%
%TO.N,VREF*%
%TA.AperFunction,ComponentPad*%
G36*
G01*
X102858400Y-129224800D02*
X101408400Y-129224800D01*
G75*
G02*
X101158400Y-128974800I0J250000D01*
G01*
X101158400Y-127774800D01*
G75*
G02*
X101408400Y-127524800I250000J0D01*
G01*
X102858400Y-127524800D01*
G75*
G02*
X103108400Y-127774800I0J-250000D01*
G01*
X103108400Y-128974800D01*
G75*
G02*
X102858400Y-129224800I-250000J0D01*
G01*
G37*
%TD.AperFunction*%
D16*
%TO.P,J3,2,Pin_2*%
%TO.N,GND*%
X102133400Y-125874800D03*
%TO.P,J3,3,Pin_3*%
%TO.N,MOSI*%
X102133400Y-123374800D03*
%TO.P,J3,4,Pin_4*%
%TO.N,SCLK*%
X102133400Y-120874800D03*
%TO.P,J3,5,Pin_5*%
%TO.N,CS_FRAME*%
X102133400Y-118374800D03*
%TO.P,J3,6,Pin_6*%
%TO.N,DC_FRAME*%
X102133400Y-115874800D03*
%TO.P,J3,7,Pin_7*%
%TO.N,RST_FRAME*%
X102133400Y-113374800D03*
%TO.P,J3,8,Pin_8*%
%TO.N,BUSY_FRAME*%
X102133400Y-110874800D03*
%TD*%
D17*
%TO.P,SW1,1,1*%
%TO.N,~{RESET}*%
X156000000Y-123000000D03*
X149500000Y-123000000D03*
%TO.P,SW1,2,2*%
%TO.N,GND*%
X156000000Y-118500000D03*
X149500000Y-118500000D03*
%TD*%
D13*
%TO.P,C3,1*%
%TO.N,VCC*%
X146832000Y-110490000D03*
%TO.P,C3,2*%
%TO.N,GND*%
X149332000Y-110490000D03*
%TD*%
%TO.P,R3,1*%
%TO.N,VCC*%
X136118600Y-131419600D03*
D15*
%TO.P,R3,2*%
%TO.N,~{RESET}*%
X146278600Y-131419600D03*
%TD*%
%TO.P,J1,1,Pin_1*%
%TO.N,GND*%
%TA.AperFunction,ComponentPad*%
G36*
G01*
X120642000Y-137961200D02*
X120642000Y-136511200D01*
G75*
G02*
X120892000Y-136261200I250000J0D01*
G01*
X122092000Y-136261200D01*
G75*
G02*
X122342000Y-136511200I0J-250000D01*
G01*
X122342000Y-137961200D01*
G75*
G02*
X122092000Y-138211200I-250000J0D01*
G01*
X120892000Y-138211200D01*
G75*
G02*
X120642000Y-137961200I0J250000D01*
G01*
G37*
%TD.AperFunction*%
D18*
%TO.P,J1,2,Pin_2*%
X123992000Y-137236200D03*
%TO.P,J1,3,Pin_3*%
%TO.N,VCC*%
X126492000Y-137236200D03*
%TO.P,J1,4,Pin_4*%
%TO.N,RXD*%
X128992000Y-137236200D03*
%TO.P,J1,5,Pin_5*%
%TO.N,TXD*%
X131492000Y-137236200D03*
%TO.P,J1,6,Pin_6*%
%TO.N,RTS*%
X133992000Y-137236200D03*
%TD*%
D19*
%TO.P,Y1,1,1*%
%TO.N,Net-(U1-XTAL2{slash}PB7)*%
X128778000Y-129540000D03*
%TO.P,Y1,2,2*%
%TO.N,Net-(U1-XTAL1{slash}PB6)*%
X123898000Y-129540000D03*
%TD*%
%TO.P,J2,1,Pin_1*%
%TO.N,CS_SD*%
%TA.AperFunction,ComponentPad*%
G36*
G01*
X135751200Y-102858400D02*
X135751200Y-101408400D01*
G75*
G02*
X136001200Y-101158400I250000J0D01*
G01*
X137201200Y-101158400D01*
G75*
G02*
X137451200Y-101408400I0J-250000D01*
G01*
X137451200Y-102858400D01*
G75*
G02*
X137201200Y-103108400I-250000J0D01*
G01*
X136001200Y-103108400D01*
G75*
G02*
X135751200Y-102858400I0J250000D01*
G01*
G37*
%TD.AperFunction*%
D18*
%TO.P,J2,2,Pin_2*%
%TO.N,SCLK*%
X139101200Y-102133400D03*
%TO.P,J2,3,Pin_3*%
%TO.N,MOSI*%
X141601200Y-102133400D03*
%TO.P,J2,4,Pin_4*%
%TO.N,MISO*%
X144101200Y-102133400D03*
%TO.P,J2,5,Pin_5*%
%TO.N,VREF*%
X146601200Y-102133400D03*
%TO.P,J2,6,Pin_6*%
%TO.N,GND*%
X149101200Y-102133400D03*
%TD*%
D14*
%TO.P,D1,1,K*%
%TO.N,VCC*%
X136118600Y-127889000D03*
D15*
%TO.P,D1,2,A*%
%TO.N,~{RESET}*%
X146278600Y-127889000D03*
%TD*%
D20*
%TO.N,GND*%
X125476000Y-112268000D03*
X123952000Y-121666000D03*
X147046000Y-134132000D03*
%TO.N,~{RESET}*%
X146812000Y-125580000D03*
%TO.N,CS_SD*%
X139192000Y-106045000D03*
%TO.N,MOSI*%
X138176000Y-105180900D03*
%TO.N,CS_FRAME*%
X131318000Y-118414300D03*
%TO.N,DC_FRAME*%
X139842350Y-118658750D03*
X132334000Y-117856000D03*
%TO.N,RST_FRAME*%
X131826000Y-113374800D03*
%TO.N,BUSY_FRAME*%
X104419400Y-114579400D03*
X130276600Y-117348000D03*
%TO.N,/atmega328p/~{CS_REF}*%
X129286000Y-109982000D03*
%TD*%
D21*
%TO.N,GND*%
X123952000Y-117271800D02*
X123952000Y-121666000D01*
X147046000Y-134132000D02*
X147808000Y-134132000D01*
X125425200Y-115798600D02*
X125425200Y-112318800D01*
X147828000Y-134112000D02*
X147828000Y-137261600D01*
X147066000Y-134112000D02*
X147046000Y-134132000D01*
X147808000Y-134132000D02*
X147828000Y-134112000D01*
X125425200Y-112318800D02*
X125476000Y-112268000D01*
X125425200Y-115798600D02*
X123952000Y-117271800D01*
%TO.N,VCC*%
X145465800Y-108966000D02*
X130556000Y-108966000D01*
X125425200Y-123418600D02*
X125425200Y-120878600D01*
X125425200Y-120878600D02*
X130505200Y-115798600D01*
X130505200Y-109270800D02*
X130505200Y-110744000D01*
X136118600Y-125755400D02*
X136144000Y-125730000D01*
X131826000Y-110744000D02*
X130505200Y-110744000D01*
X136144000Y-125730000D02*
X144830800Y-125730000D01*
X130556000Y-108966000D02*
X130505200Y-109016800D01*
X136118600Y-127889000D02*
X136118600Y-125755400D01*
X127562000Y-139246000D02*
X143764000Y-139246000D01*
X136118600Y-134086600D02*
X136118600Y-131419600D01*
X118491000Y-108966000D02*
X116992400Y-110464600D01*
X140208000Y-134112000D02*
X136144000Y-134112000D01*
X136144000Y-134112000D02*
X136118600Y-134086600D01*
X130505200Y-110744000D02*
X130505200Y-115798600D01*
X126492000Y-138176000D02*
X127562000Y-139246000D01*
X143764000Y-138043600D02*
X144546000Y-137261600D01*
X144830800Y-125730000D02*
X146812000Y-123748800D01*
X146812000Y-123748800D02*
X146812000Y-110312200D01*
X136118600Y-131419600D02*
X136118600Y-127889000D01*
X130556000Y-109220000D02*
X130505200Y-109270800D01*
X130454400Y-108966000D02*
X118491000Y-108966000D01*
X126492000Y-137236200D02*
X126492000Y-138176000D01*
X140309600Y-137261600D02*
X140208000Y-137160000D01*
X146812000Y-110312200D02*
X145465800Y-108966000D01*
X144546000Y-137261600D02*
X140309600Y-137261600D01*
X130505200Y-109016800D02*
X130505200Y-115798600D01*
X140208000Y-137160000D02*
X140208000Y-134112000D01*
X143764000Y-139246000D02*
X143764000Y-138043600D01*
D22*
%TO.N,~{RESET}*%
X150565800Y-127965200D02*
X146354800Y-127965200D01*
D23*
X146920000Y-125580000D02*
X149500000Y-123000000D01*
D22*
X146354800Y-127965200D02*
X146278600Y-127889000D01*
D23*
X149500000Y-123000000D02*
X156000000Y-123000000D01*
X146278600Y-127025400D02*
X146812000Y-126492000D01*
D21*
X146278600Y-127889000D02*
X146278600Y-127025400D01*
D23*
X146278600Y-127889000D02*
X146278600Y-131419600D01*
X146812000Y-125580000D02*
X146920000Y-125580000D01*
X146812000Y-126492000D02*
X146812000Y-125580000D01*
%TO.N,RXD*%
X127508000Y-134366000D02*
X128992000Y-135850000D01*
X112725200Y-125501400D02*
X113868200Y-126644400D01*
X118872000Y-127584200D02*
X118872000Y-133096000D01*
X113868200Y-126644400D02*
X117932200Y-126644400D01*
X117932200Y-126644400D02*
X118872000Y-127584200D01*
X128992000Y-135850000D02*
X128992000Y-137236200D01*
X120142000Y-134366000D02*
X127508000Y-134366000D01*
X112725200Y-123418600D02*
X112725200Y-125501400D01*
X118872000Y-133096000D02*
X120142000Y-134366000D01*
%TO.N,TXD*%
X120904000Y-133604000D02*
X128524000Y-133604000D01*
X119888000Y-132588000D02*
X120904000Y-133604000D01*
X115265200Y-125679200D02*
X118211600Y-125679200D01*
X119888000Y-127355600D02*
X119888000Y-132588000D01*
X128524000Y-133604000D02*
X131492000Y-136572000D01*
X131492000Y-136572000D02*
X131492000Y-137236200D01*
X115265200Y-123418600D02*
X115265200Y-125679200D01*
X118211600Y-125679200D02*
X119888000Y-127355600D01*
%TO.N,CS_SD*%
X137820400Y-106045000D02*
X139192000Y-106045000D01*
X136601200Y-104825800D02*
X137820400Y-106045000D01*
X136601200Y-102133400D02*
X136601200Y-104825800D01*
%TO.N,MOSI*%
X139929100Y-105180900D02*
X141601200Y-103508800D01*
X141601200Y-103508800D02*
X141601200Y-102133400D01*
X138176000Y-105180900D02*
X139929100Y-105180900D01*
D21*
%TO.N,VREF*%
X114452400Y-104822000D02*
X113033800Y-103403400D01*
X110335400Y-110464600D02*
X105156000Y-115644000D01*
X105156000Y-115644000D02*
X105156000Y-127000000D01*
X117221000Y-107696000D02*
X141986000Y-107696000D01*
X146601200Y-103080800D02*
X146601200Y-102133400D01*
X114452400Y-110464600D02*
X110335400Y-110464600D01*
X105156000Y-127000000D02*
X103781200Y-128374800D01*
X103781200Y-128374800D02*
X102133400Y-128374800D01*
X114452400Y-110464600D02*
X117221000Y-107696000D01*
X114452400Y-110464600D02*
X114452400Y-104822000D01*
X141986000Y-107696000D02*
X146601200Y-103080800D01*
D23*
%TO.N,CS_FRAME*%
X131318000Y-118414300D02*
X132537700Y-119634000D01*
X140716000Y-115849400D02*
X140665200Y-115798600D01*
X132537700Y-119634000D02*
X140716000Y-119634000D01*
X140716000Y-119634000D02*
X140716000Y-115849400D01*
%TO.N,DC_FRAME*%
X133078000Y-118600000D02*
X139783600Y-118600000D01*
X139783600Y-118600000D02*
X139842350Y-118658750D01*
X132334000Y-117856000D02*
X133078000Y-118600000D01*
%TO.N,RST_FRAME*%
X131826000Y-113374800D02*
X131866000Y-113334800D01*
X145034000Y-115976400D02*
X145034000Y-121589800D01*
X131866000Y-113334800D02*
X142392400Y-113334800D01*
X142392400Y-113334800D02*
X145034000Y-115976400D01*
X145034000Y-121589800D02*
X143205200Y-123418600D01*
%TO.N,BUSY_FRAME*%
X139649200Y-120345200D02*
X140665200Y-121361200D01*
X104419400Y-114579400D02*
X104419400Y-112928400D01*
X140665200Y-121361200D02*
X140665200Y-123418600D01*
X130276600Y-117348000D02*
X130276600Y-120294400D01*
X130327400Y-120345200D02*
X139649200Y-120345200D01*
X104419400Y-112928400D02*
X102365800Y-110874800D01*
X130276600Y-120294400D02*
X130327400Y-120345200D01*
X102365800Y-110874800D02*
X102133400Y-110874800D01*
%TO.N,/atmega328p/~{CS_REF}*%
X129286000Y-109982000D02*
X124968000Y-109982000D01*
X133731000Y-125272800D02*
X135585200Y-123418600D01*
X121691400Y-113258600D02*
X121691400Y-125120400D01*
X133731000Y-125349000D02*
X133731000Y-125272800D01*
X124968000Y-109982000D02*
X121691400Y-113258600D01*
X121691400Y-125120400D02*
X121920000Y-125349000D01*
X121920000Y-125349000D02*
X133731000Y-125349000D01*
%TD*%
%TA.AperFunction,Conductor*%
%TO.N,GND*%
G36*
X120623881Y-109740185D02*
G01*
X120669636Y-109792989D01*
X120679580Y-109862147D01*
X120658417Y-109915623D01*
X120535432Y-110091265D01*
X120535431Y-110091267D01*
X120439261Y-110297502D01*
X120439258Y-110297511D01*
X120380366Y-110517302D01*
X120380364Y-110517313D01*
X120360532Y-110743998D01*
X120360532Y-110744001D01*
X120380364Y-110970686D01*
X120380366Y-110970697D01*
X120439258Y-111190488D01*
X120439261Y-111190497D01*
X120535431Y-111396732D01*
X120535432Y-111396734D01*
X120665954Y-111583141D01*
X120826858Y-111744045D01*
X120826861Y-111744047D01*
X121013266Y-111874568D01*
X121219504Y-111970739D01*
X121439308Y-112029635D01*
X121666000Y-112049468D01*
X121707002Y-112045880D01*
X121775499Y-112059645D01*
X121825683Y-112108260D01*
X121841618Y-112176288D01*
X121818244Y-112242132D01*
X121805490Y-112257089D01*
X121306353Y-112756226D01*
X121294069Y-112766069D01*
X121294249Y-112766287D01*
X121288237Y-112771260D01*
X121242046Y-112820447D01*
X121239341Y-112823238D01*
X121219779Y-112842800D01*
X121219775Y-112842805D01*
X121217295Y-112846003D01*
X121209717Y-112854874D01*
X121179708Y-112886830D01*
X121179705Y-112886834D01*
X121170006Y-112904477D01*
X121159328Y-112920733D01*
X121146994Y-112936634D01*
X121146989Y-112936642D01*
X121129585Y-112976862D01*
X121124446Y-112987352D01*
X121103327Y-113025767D01*
X121098320Y-113045268D01*
X121092021Y-113063664D01*
X121085293Y-113079212D01*
X121084025Y-113082144D01*
X121084024Y-113082146D01*
X121077169Y-113125431D01*
X121074801Y-113136867D01*
X121063900Y-113179323D01*
X121063900Y-113199458D01*
X121062373Y-113218857D01*
X121059225Y-113238731D01*
X121063350Y-113282367D01*
X121063900Y-113294037D01*
X121063900Y-114504151D01*
X121044215Y-114571190D01*
X120991411Y-114616945D01*
X120922253Y-114626889D01*
X120887495Y-114616533D01*
X120856972Y-114602300D01*
X120791696Y-114571861D01*
X120791692Y-114571860D01*
X120791688Y-114571858D01*
X120571897Y-114512966D01*
X120571893Y-114512965D01*
X120571892Y-114512965D01*
X120571891Y-114512964D01*
X120571886Y-114512964D01*
X120345202Y-114493132D01*
X120345198Y-114493132D01*
X120118513Y-114512964D01*
X120118502Y-114512966D01*
X119898711Y-114571858D01*
X119898702Y-114571861D01*
X119692467Y-114668031D01*
X119692465Y-114668032D01*
X119506058Y-114798554D01*
X119345154Y-114959458D01*
X119214632Y-115145865D01*
X119214631Y-115145867D01*
X119187582Y-115203875D01*
X119141409Y-115256314D01*
X119074216Y-115275466D01*
X119007335Y-115255250D01*
X118962818Y-115203875D01*
X118948432Y-115173024D01*
X118935768Y-115145866D01*
X118805247Y-114959461D01*
X118805245Y-114959458D01*
X118644341Y-114798554D01*
X118457934Y-114668032D01*
X118457932Y-114668031D01*
X118251697Y-114571861D01*
X118251688Y-114571858D01*
X118031897Y-114512966D01*
X118031893Y-114512965D01*
X118031892Y-114512965D01*
X118031891Y-114512964D01*
X118031886Y-114512964D01*
X117805202Y-114493132D01*
X117805198Y-114493132D01*
X117578513Y-114512964D01*
X117578502Y-114512966D01*
X117358711Y-114571858D01*
X117358702Y-114571861D01*
X117152467Y-114668031D01*
X117152465Y-114668032D01*
X116966058Y-114798554D01*
X116805154Y-114959458D01*
X116674632Y-115145865D01*
X116674631Y-115145867D01*
X116647582Y-115203875D01*
X116601409Y-115256314D01*
X116534216Y-115275466D01*
X116467335Y-115255250D01*
X116422818Y-115203875D01*
X116408432Y-115173024D01*
X116395768Y-115145866D01*
X116265247Y-114959461D01*
X116265245Y-114959458D01*
X116104341Y-114798554D01*
X115917934Y-114668032D01*
X115917932Y-114668031D01*
X115711697Y-114571861D01*
X115711688Y-114571858D01*
X115491897Y-114512966D01*
X115491893Y-114512965D01*
X115491892Y-114512965D01*
X115491891Y-114512964D01*
X115491886Y-114512964D01*
X115265202Y-114493132D01*
X115265198Y-114493132D01*
X115038513Y-114512964D01*
X115038502Y-114512966D01*
X114818711Y-114571858D01*
X114818702Y-114571861D01*
X114612467Y-114668031D01*
X114612465Y-114668032D01*
X114426058Y-114798554D01*
X114265154Y-114959458D01*
X114134632Y-115145865D01*
X114134631Y-115145867D01*
X114107582Y-115203875D01*
X114061409Y-115256314D01*
X113994216Y-115275466D01*
X113927335Y-115255250D01*
X113882818Y-115203875D01*
X113868432Y-115173024D01*
X113855768Y-115145866D01*
X113725247Y-114959461D01*
X113725245Y-114959458D01*
X113564341Y-114798554D01*
X113377934Y-114668032D01*
X113377932Y-114668031D01*
X113171697Y-114571861D01*
X113171688Y-114571858D01*
X112951897Y-114512966D01*
X112951893Y-114512965D01*
X112951892Y-114512965D01*
X112951891Y-114512964D01*
X112951886Y-114512964D01*
X112725202Y-114493132D01*
X112725198Y-114493132D01*
X112498513Y-114512964D01*
X112498502Y-114512966D01*
X112278711Y-114571858D01*
X112278702Y-114571861D01*
X112072467Y-114668031D01*
X112072465Y-114668032D01*
X111886058Y-114798554D01*
X111725154Y-114959458D01*
X111594632Y-115145865D01*
X111594631Y-115145867D01*
X111567582Y-115203875D01*
X111521409Y-115256314D01*
X111454216Y-115275466D01*
X111387335Y-115255250D01*
X111342818Y-115203875D01*
X111328432Y-115173024D01*
X111315768Y-115145866D01*
X111185247Y-114959461D01*
X111185245Y-114959458D01*
X111024341Y-114798554D01*
X110837934Y-114668032D01*
X110837932Y-114668031D01*
X110631697Y-114571861D01*
X110631688Y-114571858D01*
X110411897Y-114512966D01*
X110411893Y-114512965D01*
X110411892Y-114512965D01*
X110411891Y-114512964D01*
X110411886Y-114512964D01*
X110185202Y-114493132D01*
X110185198Y-114493132D01*
X109958513Y-114512964D01*
X109958502Y-114512966D01*
X109738711Y-114571858D01*
X109738702Y-114571861D01*
X109532467Y-114668031D01*
X109532465Y-114668032D01*
X109346058Y-114798554D01*
X109185154Y-114959458D01*
X109054632Y-115145865D01*
X109054631Y-115145867D01*
X108958461Y-115352102D01*
X108958458Y-115352111D01*
X108899566Y-115571902D01*
X108899564Y-115571913D01*
X108879732Y-115798598D01*
X108879732Y-115798601D01*
X108899564Y-116025286D01*
X108899566Y-116025297D01*
X108958458Y-116245088D01*
X108958461Y-116245097D01*
X109054631Y-116451332D01*
X109054632Y-116451334D01*
X109185154Y-116637741D01*
X109346058Y-116798645D01*
X109346061Y-116798647D01*
X109532466Y-116929168D01*
X109738704Y-117025339D01*
X109958508Y-117084235D01*
X110101281Y-117096726D01*
X110185198Y-117104068D01*
X110185200Y-117104068D01*
X110185202Y-117104068D01*
X110241873Y-117099109D01*
X110411892Y-117084235D01*
X110631696Y-117025339D01*
X110837934Y-116929168D01*
X111024339Y-116798647D01*
X111185247Y-116637739D01*
X111315768Y-116451334D01*
X111342818Y-116393324D01*
X111388990Y-116340885D01*
X111456183Y-116321733D01*
X111523065Y-116341948D01*
X111567582Y-116393325D01*
X111594629Y-116451328D01*
X111594632Y-116451334D01*
X111725154Y-116637741D01*
X111886058Y-116798645D01*
X111886061Y-116798647D01*
X112072466Y-116929168D01*
X112278704Y-117025339D01*
X112498508Y-117084235D01*
X112641281Y-117096726D01*
X112725198Y-117104068D01*
X112725200Y-117104068D01*
X112725202Y-117104068D01*
X112781873Y-117099109D01*
X112951892Y-117084235D01*
X113171696Y-117025339D01*
X113377934Y-116929168D01*
X113564339Y-116798647D01*
X113725247Y-116637739D01*
X113855768Y-116451334D01*
X113882818Y-116393324D01*
X113928990Y-116340885D01*
X113996183Y-116321733D01*
X114063065Y-116341948D01*
X114107582Y-116393325D01*
X114134629Y-116451328D01*
X114134632Y-116451334D01*
X114265154Y-116637741D01*
X114426058Y-116798645D01*
X114426061Y-116798647D01*
X114612466Y-116929168D01*
X114818704Y-117025339D01*
X115038508Y-117084235D01*
X115181281Y-117096726D01*
X115265198Y-117104068D01*
X115265200Y-117104068D01*
X115265202Y-117104068D01*
X115321873Y-117099109D01*
X115491892Y-117084235D01*
X115711696Y-117025339D01*
X115917934Y-116929168D01*
X116104339Y-116798647D01*
X116265247Y-116637739D01*
X116395768Y-116451334D01*
X116422818Y-116393324D01*
X116468990Y-116340885D01*
X116536183Y-116321733D01*
X116603065Y-116341948D01*
X116647582Y-116393325D01*
X116674629Y-116451328D01*
X116674632Y-116451334D01*
X116805154Y-116637741D01*
X116966058Y-116798645D01*
X116966061Y-116798647D01*
X117152466Y-116929168D01*
X117358704Y-117025339D01*
X117578508Y-117084235D01*
X117721281Y-117096726D01*
X117805198Y-117104068D01*
X117805200Y-117104068D01*
X117805202Y-117104068D01*
X117861873Y-117099109D01*
X118031892Y-117084235D01*
X118251696Y-117025339D01*
X118457934Y-116929168D01*
X118644339Y-116798647D01*
X118805247Y-116637739D01*
X118935768Y-116451334D01*
X118962818Y-116393324D01*
X119008990Y-116340885D01*
X119076183Y-116321733D01*
X119143065Y-116341948D01*
X119187582Y-116393325D01*
X119214629Y-116451328D01*
X119214632Y-116451334D01*
X119345154Y-116637741D01*
X119506058Y-116798645D01*
X119506061Y-116798647D01*
X119692466Y-116929168D01*
X119898704Y-117025339D01*
X120118508Y-117084235D01*
X120261281Y-117096726D01*
X120345198Y-117104068D01*
X120345200Y-117104068D01*
X120345202Y-117104068D01*
X120401873Y-117099109D01*
X120571892Y-117084235D01*
X120791696Y-117025339D01*
X120887498Y-116980665D01*
X120956572Y-116970174D01*
X121020356Y-116998693D01*
X121058596Y-117057169D01*
X121063900Y-117093048D01*
X121063900Y-122124151D01*
X121044215Y-122191190D01*
X120991411Y-122236945D01*
X120922253Y-122246889D01*
X120887495Y-122236533D01*
X120829855Y-122209655D01*
X120791696Y-122191861D01*
X120791692Y-122191860D01*
X120791688Y-122191858D01*
X120571897Y-122132966D01*
X120571893Y-122132965D01*
X120571892Y-122132965D01*
X120571891Y-122132964D01*
X120571886Y-122132964D01*
X120345202Y-122113132D01*
X120345198Y-122113132D01*
X120118513Y-122132964D01*
X120118502Y-122132966D01*
X119898711Y-122191858D01*
X119898702Y-122191861D01*
X119692467Y-122288031D01*
X119692465Y-122288032D01*
X119506058Y-122418554D01*
X119345154Y-122579458D01*
X119214632Y-122765865D01*
X119214631Y-122765867D01*
X119187582Y-122823875D01*
X119141409Y-122876314D01*
X119074216Y-122895466D01*
X119007335Y-122875250D01*
X118962818Y-122823875D01*
X118935886Y-122766120D01*
X118935768Y-122765866D01*
X118805247Y-122579461D01*
X118805245Y-122579458D01*
X118644341Y-122418554D01*
X118457934Y-122288032D01*
X118457932Y-122288031D01*
X118251697Y-122191861D01*
X118251688Y-122191858D01*
X118031897Y-122132966D01*
X118031893Y-122132965D01*
X118031892Y-122132965D01*
X118031891Y-122132964D01*
X118031886Y-122132964D01*
X117805202Y-122113132D01*
X117805198Y-122113132D01*
X117578513Y-122132964D01*
X117578502Y-122132966D01*
X117358711Y-122191858D01*
X117358702Y-122191861D01*
X117152467Y-122288031D01*
X117152465Y-122288032D01*
X116966058Y-122418554D01*
X116805154Y-122579458D01*
X116674632Y-122765865D01*
X116674631Y-122765867D01*
X116647582Y-122823875D01*
X116601409Y-122876314D01*
X116534216Y-122895466D01*
X116467335Y-122875250D01*
X116422818Y-122823875D01*
X116395886Y-122766120D01*
X116395768Y-122765866D01*
X116265247Y-122579461D01*
X116265245Y-122579458D01*
X116104341Y-122418554D01*
X115917934Y-122288032D01*
X115917932Y-122288031D01*
X115711697Y-122191861D01*
X115711688Y-122191858D01*
X115491897Y-122132966D01*
X115491893Y-122132965D01*
X115491892Y-122132965D01*
X115491891Y-122132964D01*
X115491886Y-122132964D01*
X115265202Y-122113132D01*
X115265198Y-122113132D01*
X115038513Y-122132964D01*
X115038502Y-122132966D01*
X114818711Y-122191858D01*
X114818702Y-122191861D01*
X114612467Y-122288031D01*
X114612465Y-122288032D01*
X114426058Y-122418554D01*
X114265154Y-122579458D01*
X114134632Y-122765865D01*
X114134631Y-122765867D01*
X114107582Y-122823875D01*
X114061409Y-122876314D01*
X113994216Y-122895466D01*
X113927335Y-122875250D01*
X113882818Y-122823875D01*
X113855886Y-122766120D01*
X113855768Y-122765866D01*
X113725247Y-122579461D01*
X113725245Y-122579458D01*
X113564341Y-122418554D01*
X113377934Y-122288032D01*
X113377932Y-122288031D01*
X113171697Y-122191861D01*
X113171688Y-122191858D01*
X112951897Y-122132966D01*
X112951893Y-122132965D01*
X112951892Y-122132965D01*
X112951891Y-122132964D01*
X112951886Y-122132964D01*
X112725202Y-122113132D01*
X112725198Y-122113132D01*
X112498513Y-122132964D01*
X112498502Y-122132966D01*
X112278711Y-122191858D01*
X112278702Y-122191861D01*
X112072467Y-122288031D01*
X112072465Y-122288032D01*
X111886058Y-122418554D01*
X111725154Y-122579458D01*
X111707925Y-122604064D01*
X111653347Y-122647688D01*
X111583848Y-122654880D01*
X111521494Y-122623357D01*
X111486082Y-122563126D01*
X111483061Y-122546191D01*
X111479291Y-122511116D01*
X111428997Y-122376271D01*
X111428993Y-122376264D01*
X111342747Y-122261055D01*
X111342744Y-122261052D01*
X111227535Y-122174806D01*
X111227528Y-122174802D01*
X111092682Y-122124508D01*
X111092683Y-122124508D01*
X111033083Y-122118101D01*
X111033081Y-122118100D01*
X111033073Y-122118100D01*
X111033064Y-122118100D01*
X109337329Y-122118100D01*
X109337323Y-122118101D01*
X109277716Y-122124508D01*
X109142871Y-122174802D01*
X109142864Y-122174806D01*
X109027655Y-122261052D01*
X109027652Y-122261055D01*
X108941406Y-122376264D01*
X108941402Y-122376271D01*
X108891108Y-122511117D01*
X108884701Y-122570716D01*
X108884700Y-122570735D01*
X108884700Y-124266470D01*
X108884701Y-124266476D01*
X108891108Y-124326083D01*
X108941402Y-124460928D01*
X108941406Y-124460935D01*
X109027652Y-124576144D01*
X109027655Y-124576147D01*
X109142864Y-124662393D01*
X109142871Y-124662397D01*
X109277717Y-124712691D01*
X109277716Y-124712691D01*
X109281037Y-124713048D01*
X109337327Y-124719100D01*
X111033072Y-124719099D01*
X111092683Y-124712691D01*
X111227531Y-124662396D01*
X111342746Y-124576146D01*
X111428996Y-124460931D01*
X111479291Y-124326083D01*
X111483062Y-124291001D01*
X111509799Y-124226455D01*
X111567190Y-124186606D01*
X111637016Y-124184111D01*
X111697105Y-124219763D01*
X111707926Y-124233136D01*
X111725156Y-124257743D01*
X111886058Y-124418645D01*
X111922397Y-124444090D01*
X112006499Y-124502978D01*
X112044823Y-124529812D01*
X112088448Y-124584388D01*
X112097700Y-124631387D01*
X112097700Y-125418432D01*
X112095972Y-125434081D01*
X112096254Y-125434108D01*
X112095519Y-125441875D01*
X112097639Y-125509317D01*
X112097700Y-125513211D01*
X112097700Y-125540876D01*
X112098206Y-125544885D01*
X112099121Y-125556516D01*
X112100498Y-125600342D01*
X112106116Y-125619675D01*
X112110062Y-125638729D01*
X112112583Y-125658687D01*
X112112586Y-125658699D01*
X112128719Y-125699448D01*
X112132502Y-125710498D01*
X112144730Y-125752587D01*
X112144730Y-125752588D01*
X112154977Y-125769915D01*
X112163535Y-125787385D01*
X112170945Y-125806101D01*
X112196711Y-125841564D01*
X112203125Y-125851329D01*
X112225434Y-125889052D01*
X112225440Y-125889060D01*
X112239669Y-125903288D01*
X112252306Y-125918084D01*
X112264137Y-125934367D01*
X112297917Y-125962312D01*
X112306546Y-125970165D01*
X113365824Y-127029443D01*
X113375671Y-127041733D01*
X113375889Y-127041554D01*
X113380857Y-127047559D01*
X113380859Y-127047561D01*
X113380860Y-127047562D01*
X113414001Y-127078684D01*
X113430046Y-127093751D01*
X113432843Y-127096462D01*
X113452407Y-127116026D01*
X113455585Y-127118490D01*
X113464481Y-127126087D01*
X113496435Y-127156095D01*
X113496437Y-127156096D01*
X113514068Y-127165788D01*
X113530337Y-127176474D01*
X113546237Y-127188807D01*
X113546238Y-127188808D01*
X113586462Y-127206215D01*
X113596954Y-127211355D01*
X113635361Y-127232470D01*
X113635364Y-127232471D01*
X113635366Y-127232472D01*
X113654859Y-127237476D01*
X113673267Y-127243779D01*
X113691741Y-127251774D01*
X113735044Y-127258631D01*
X113746471Y-127260998D01*
X113788928Y-127271900D01*
X113809058Y-127271900D01*
X113828455Y-127273426D01*
X113848333Y-127276575D01*
X113888128Y-127272813D01*
X113891970Y-127272450D01*
X113903639Y-127271900D01*
X117620919Y-127271900D01*
X117687958Y-127291585D01*
X117708600Y-127308219D01*
X118208181Y-127807800D01*
X118241666Y-127869123D01*
X118244500Y-127895481D01*
X118244500Y-133013032D01*
X118242772Y-133028681D01*
X118243054Y-133028708D01*
X118242319Y-133036475D01*
X118244439Y-133103917D01*
X118244500Y-133107811D01*
X118244500Y-133135476D01*
X118245006Y-133139485D01*
X118245921Y-133151116D01*
X118247298Y-133194942D01*
X118252916Y-133214275D01*
X118256862Y-133233329D01*
X118259383Y-133253287D01*
X118259386Y-133253299D01*
X118275519Y-133294048D01*
X118279302Y-133305098D01*
X118291530Y-133347187D01*
X118291530Y-133347188D01*
X118301777Y-133364515D01*
X118310335Y-133381985D01*
X118317745Y-133400701D01*
X118343511Y-133436164D01*
X118349925Y-133445929D01*
X118372234Y-133483652D01*
X118372240Y-133483660D01*
X118386469Y-133497888D01*
X118399106Y-133512684D01*
X118410937Y-133528967D01*
X118444717Y-133556912D01*
X118453346Y-133564765D01*
X119639624Y-134751043D01*
X119649471Y-134763333D01*
X119649689Y-134763154D01*
X119654657Y-134769159D01*
X119703846Y-134815351D01*
X119706643Y-134818062D01*
X119726207Y-134837626D01*
X119729385Y-134840090D01*
X119738281Y-134847687D01*
X119770235Y-134877695D01*
X119770237Y-134877696D01*
X119787867Y-134887387D01*
X119804135Y-134898072D01*
X119820038Y-134910408D01*
X119820040Y-134910409D01*
X119820042Y-134910410D01*
X119839942Y-134919021D01*
X119860260Y-134927813D01*
X119870749Y-134932951D01*
X119909166Y-134954072D01*
X119928667Y-134959079D01*
X119947061Y-134965376D01*
X119965541Y-134973373D01*
X120008841Y-134980230D01*
X120020248Y-134982592D01*
X120062728Y-134993500D01*
X120082859Y-134993500D01*
X120102256Y-134995026D01*
X120122133Y-134998175D01*
X120162208Y-134994386D01*
X120165770Y-134994050D01*
X120177439Y-134993500D01*
X127196719Y-134993500D01*
X127263758Y-135013185D01*
X127284400Y-135029819D01*
X128137670Y-135883089D01*
X128171155Y-135944412D01*
X128166171Y-136014104D01*
X128124299Y-136070037D01*
X128121122Y-136072338D01*
X128120607Y-136072698D01*
X128120595Y-136072708D01*
X127953505Y-136239797D01*
X127843575Y-136396795D01*
X127788998Y-136440420D01*
X127719500Y-136447614D01*
X127657145Y-136416091D01*
X127640425Y-136396795D01*
X127530494Y-136239797D01*
X127363402Y-136072706D01*
X127363395Y-136072701D01*
X127359590Y-136070037D01*
X127306632Y-136032955D01*
X127169834Y-135937167D01*
X127169830Y-135937165D01*
X127122160Y-135914936D01*
X126955663Y-135837297D01*
X126955659Y-135837296D01*
X126955655Y-135837294D01*
X126727413Y-135776138D01*
X126727403Y-135776136D01*
X126492001Y-135755541D01*
X126491999Y-135755541D01*
X126256596Y-135776136D01*
X126256586Y-135776138D01*
X126028344Y-135837294D01*
X126028335Y-135837298D01*
X125814171Y-135937164D01*
X125814169Y-135937165D01*
X125620597Y-136072705D01*
X125453508Y-136239794D01*
X125343269Y-136397232D01*
X125288692Y-136440856D01*
X125219193Y-136448049D01*
X125156839Y-136416527D01*
X125140119Y-136397231D01*
X125030113Y-136240126D01*
X125030108Y-136240120D01*
X124863082Y-136073094D01*
X124669578Y-135937599D01*
X124455492Y-135837770D01*
X124455486Y-135837767D01*
X124242000Y-135780564D01*
X124242000Y-136828181D01*
X124127199Y-136775754D01*
X124025975Y-136761200D01*
X123958025Y-136761200D01*
X123856801Y-136775754D01*
X123742000Y-136828181D01*
X123742000Y-135780564D01*
X123741999Y-135780564D01*
X123528513Y-135837767D01*
X123528507Y-135837770D01*
X123314422Y-135937599D01*
X123314420Y-135937600D01*
X123120926Y-136073086D01*
X122973305Y-136220707D01*
X122911982Y-136254191D01*
X122842290Y-136249207D01*
X122786357Y-136207335D01*
X122780085Y-136198122D01*
X122684315Y-136042854D01*
X122560345Y-135918884D01*
X122411124Y-135826843D01*
X122411119Y-135826841D01*
X122244697Y-135771694D01*
X122244690Y-135771693D01*
X122141986Y-135761200D01*
X121742000Y-135761200D01*
X121742000Y-136828181D01*
X121627199Y-136775754D01*
X121525975Y-136761200D01*
X121458025Y-136761200D01*
X121356801Y-136775754D01*
X121242000Y-136828181D01*
X121242000Y-135761200D01*
X120842028Y-135761200D01*
X120842012Y-135761201D01*
X120739302Y-135771694D01*
X120572880Y-135826841D01*
X120572875Y-135826843D01*
X120423654Y-135918884D01*
X120299684Y-136042854D01*
X120207643Y-136192075D01*
X120207641Y-136192080D01*
X120152494Y-136358502D01*
X120152493Y-136358509D01*
X120142000Y-136461213D01*
X120142000Y-136986200D01*
X121088031Y-136986200D01*
X121055481Y-137036849D01*
X121017000Y-137167905D01*
X121017000Y-137304495D01*
X121055481Y-137435551D01*
X121088031Y-137486200D01*
X120142001Y-137486200D01*
X120142001Y-138011186D01*
X120152494Y-138113897D01*
X120207641Y-138280319D01*
X120207643Y-138280324D01*
X120299684Y-138429545D01*
X120423654Y-138553515D01*
X120572875Y-138645556D01*
X120572880Y-138645558D01*
X120739302Y-138700705D01*
X120739309Y-138700706D01*
X120842019Y-138711199D01*
X121241999Y-138711199D01*
X121242000Y-138711198D01*
X121242000Y-137644218D01*
X121356801Y-137696646D01*
X121458025Y-137711200D01*
X121525975Y-137711200D01*
X121627199Y-137696646D01*
X121742000Y-137644218D01*
X121742000Y-138711199D01*
X122141972Y-138711199D01*
X122141986Y-138711198D01*
X122244697Y-138700705D01*
X122411119Y-138645558D01*
X122411124Y-138645556D01*
X122560345Y-138553515D01*
X122684315Y-138429545D01*
X122780085Y-138274278D01*
X122832033Y-138227554D01*
X122900996Y-138216331D01*
X122965078Y-138244175D01*
X122973305Y-138251693D01*
X123120921Y-138399308D01*
X123314421Y-138534800D01*
X123528507Y-138634629D01*
X123528516Y-138634633D01*
X123742000Y-138691834D01*
X123742000Y-137644218D01*
X123856801Y-137696646D01*
X123958025Y-137711200D01*
X124025975Y-137711200D01*
X124127199Y-137696646D01*
X124242000Y-137644218D01*
X124242000Y-138691833D01*
X124455483Y-138634633D01*
X124455492Y-138634629D01*
X124669577Y-138534800D01*
X124669579Y-138534799D01*
X124863073Y-138399313D01*
X124863079Y-138399308D01*
X125030108Y-138232279D01*
X125030113Y-138232273D01*
X125140119Y-138075167D01*
X125194695Y-138031542D01*
X125264194Y-138024348D01*
X125326549Y-138055870D01*
X125343269Y-138075167D01*
X125453505Y-138232602D01*
X125620597Y-138399693D01*
X125620603Y-138399698D01*
X125655360Y-138424035D01*
X125813547Y-138534799D01*
X125815190Y-138535949D01*
X125847665Y-138569380D01*
X125854616Y-138579950D01*
X125856535Y-138582962D01*
X125896131Y-138647156D01*
X125900611Y-138652822D01*
X125900569Y-138652855D01*
X125905401Y-138658786D01*
X125905443Y-138658752D01*
X125910088Y-138664288D01*
X125964938Y-138716036D01*
X125967525Y-138718549D01*
X126536795Y-139287819D01*
X126570280Y-139349142D01*
X126565296Y-139418834D01*
X126523424Y-139474767D01*
X126457960Y-139499184D01*
X126449114Y-139499500D01*
X100624500Y-139499500D01*
X100557461Y-139479815D01*
X100511706Y-139427011D01*
X100500500Y-139375500D01*
X100500500Y-137250000D01*
X101394341Y-137250000D01*
X101414936Y-137485403D01*
X101414938Y-137485413D01*
X101476094Y-137713655D01*
X101476096Y-137713659D01*
X101476097Y-137713663D01*
X101508380Y-137782893D01*
X101575964Y-137927828D01*
X101575965Y-137927830D01*
X101711505Y-138121402D01*
X101878597Y-138288494D01*
X102072169Y-138424034D01*
X102072171Y-138424035D01*
X102286337Y-138523903D01*
X102514592Y-138585063D01*
X102691032Y-138600499D01*
X102691033Y-138600500D01*
X102691034Y-138600500D01*
X102808967Y-138600500D01*
X102808967Y-138600499D01*
X102985408Y-138585063D01*
X103213663Y-138523903D01*
X103427829Y-138424035D01*
X103621401Y-138288495D01*
X103788495Y-138121401D01*
X103924035Y-137927830D01*
X104023903Y-137713663D01*
X104085063Y-137485408D01*
X104105659Y-137250000D01*
X104085063Y-137014592D01*
X104023903Y-136786337D01*
X103924035Y-136572171D01*
X103924034Y-136572169D01*
X103788494Y-136378597D01*
X103680899Y-136271002D01*
X110475034Y-136271002D01*
X110494858Y-136497599D01*
X110494860Y-136497610D01*
X110553730Y-136717317D01*
X110553735Y-136717331D01*
X110649863Y-136923478D01*
X110700974Y-136996472D01*
X111382046Y-136315400D01*
X111394835Y-136396148D01*
X111452359Y-136509045D01*
X111541955Y-136598641D01*
X111654852Y-136656165D01*
X111735599Y-136668953D01*
X111054526Y-137350025D01*
X111127513Y-137401132D01*
X111127521Y-137401136D01*
X111333668Y-137497264D01*
X111333682Y-137497269D01*
X111553389Y-137556139D01*
X111553400Y-137556141D01*
X111779998Y-137575966D01*
X111780002Y-137575966D01*
X112006599Y-137556141D01*
X112006610Y-137556139D01*
X112226317Y-137497269D01*
X112226331Y-137497264D01*
X112432478Y-137401136D01*
X112505471Y-137350024D01*
X111824400Y-136668953D01*
X111905148Y-136656165D01*
X112018045Y-136598641D01*
X112107641Y-136509045D01*
X112165165Y-136396148D01*
X112177953Y-136315400D01*
X112859024Y-136996471D01*
X112910134Y-136923481D01*
X112917340Y-136908028D01*
X112963511Y-136855587D01*
X113030704Y-136836433D01*
X113097585Y-136856646D01*
X113142105Y-136908022D01*
X113149430Y-136923730D01*
X113149432Y-136923734D01*
X113279954Y-137110141D01*
X113440858Y-137271045D01*
X113440861Y-137271047D01*
X113627266Y-137401568D01*
X113833504Y-137497739D01*
X113833509Y-137497740D01*
X113833511Y-137497741D01*
X113845413Y-137500930D01*
X114053308Y-137556635D01*
X114215230Y-137570801D01*
X114279998Y-137576468D01*
X114280000Y-137576468D01*
X114280002Y-137576468D01*
X114336673Y-137571509D01*
X114506692Y-137556635D01*
X114726496Y-137497739D01*
X114932734Y-137401568D01*
X115119139Y-137271047D01*
X115280047Y-137110139D01*
X115410568Y-136923734D01*
X115506739Y-136717496D01*
X115565635Y-136497692D01*
X115585468Y-136271000D01*
X115583997Y-136254191D01*
X115574519Y-136145852D01*
X115565635Y-136044308D01*
X115507351Y-135826787D01*
X115506741Y-135824511D01*
X115506738Y-135824502D01*
X115482113Y-135771694D01*
X115410568Y-135618266D01*
X115301391Y-135462344D01*
X115280045Y-135431858D01*
X115119141Y-135270954D01*
X114932734Y-135140432D01*
X114932732Y-135140431D01*
X114726497Y-135044261D01*
X114726488Y-135044258D01*
X114506697Y-134985366D01*
X114506693Y-134985365D01*
X114506692Y-134985365D01*
X114506691Y-134985364D01*
X114506686Y-134985364D01*
X114280002Y-134965532D01*
X114279998Y-134965532D01*
X114053313Y-134985364D01*
X114053302Y-134985366D01*
X113833511Y-135044258D01*
X113833502Y-135044261D01*
X113627267Y-135140431D01*
X113627265Y-135140432D01*
X113440858Y-135270954D01*
X113279954Y-135431858D01*
X113149432Y-135618265D01*
X113149429Y-135618270D01*
X113142104Y-135633979D01*
X113095929Y-135686417D01*
X113028735Y-135705566D01*
X112961855Y-135685347D01*
X112917341Y-135633973D01*
X112910133Y-135618515D01*
X112910132Y-135618513D01*
X112859025Y-135545526D01*
X112177953Y-136226598D01*
X112165165Y-136145852D01*
X112107641Y-136032955D01*
X112018045Y-135943359D01*
X111905148Y-135885835D01*
X111824401Y-135873046D01*
X112505472Y-135191974D01*
X112432478Y-135140863D01*
X112226331Y-135044735D01*
X112226317Y-135044730D01*
X112006610Y-134985860D01*
X112006599Y-134985858D01*
X111780002Y-134966034D01*
X111779998Y-134966034D01*
X111553400Y-134985858D01*
X111553389Y-134985860D01*
X111333682Y-135044730D01*
X111333673Y-135044734D01*
X111127516Y-135140866D01*
X111127512Y-135140868D01*
X111054526Y-135191973D01*
X111054526Y-135191974D01*
X111735599Y-135873046D01*
X111654852Y-135885835D01*
X111541955Y-135943359D01*
X111452359Y-136032955D01*
X111394835Y-136145852D01*
X111382046Y-136226598D01*
X110700974Y-135545526D01*
X110700973Y-135545526D01*
X110649868Y-135618512D01*
X110649866Y-135618516D01*
X110553734Y-135824673D01*
X110553730Y-135824682D01*
X110494860Y-136044389D01*
X110494858Y-136044400D01*
X110475034Y-136270997D01*
X110475034Y-136271002D01*
X103680899Y-136271002D01*
X103621402Y-136211505D01*
X103427830Y-136075965D01*
X103427828Y-136075964D01*
X103320746Y-136026031D01*
X103213663Y-135976097D01*
X103213659Y-135976096D01*
X103213655Y-135976094D01*
X102985413Y-135914938D01*
X102985403Y-135914936D01*
X102808967Y-135899500D01*
X102808966Y-135899500D01*
X102691034Y-135899500D01*
X102691033Y-135899500D01*
X102514596Y-135914936D01*
X102514586Y-135914938D01*
X102286344Y-135976094D01*
X102286335Y-135976098D01*
X102072171Y-136075964D01*
X102072169Y-136075965D01*
X101878597Y-136211505D01*
X101711506Y-136378597D01*
X101711501Y-136378604D01*
X101575967Y-136572165D01*
X101575965Y-136572169D01*
X101476098Y-136786335D01*
X101476094Y-136786344D01*
X101414938Y-137014586D01*
X101414936Y-137014596D01*
X101394341Y-137249999D01*
X101394341Y-137250000D01*
X100500500Y-137250000D01*
X100500500Y-129369692D01*
X100520185Y-129302653D01*
X100572989Y-129256898D01*
X100642147Y-129246954D01*
X100705703Y-129275979D01*
X100730039Y-129304596D01*
X100766711Y-129364052D01*
X100815688Y-129443456D01*
X100939744Y-129567512D01*
X101089066Y-129659614D01*
X101255603Y-129714799D01*
X101358391Y-129725300D01*
X102908408Y-129725299D01*
X103011197Y-129714799D01*
X103177734Y-129659614D01*
X103327056Y-129567512D01*
X103405366Y-129489202D01*
X110475034Y-129489202D01*
X110494858Y-129715799D01*
X110494860Y-129715810D01*
X110553730Y-129935517D01*
X110553735Y-129935531D01*
X110649863Y-130141678D01*
X110700974Y-130214672D01*
X111382046Y-129533600D01*
X111394835Y-129614348D01*
X111452359Y-129727245D01*
X111541955Y-129816841D01*
X111654852Y-129874365D01*
X111735599Y-129887153D01*
X111054526Y-130568225D01*
X111127513Y-130619332D01*
X111127521Y-130619336D01*
X111333668Y-130715464D01*
X111333682Y-130715469D01*
X111553389Y-130774339D01*
X111553400Y-130774341D01*
X111779998Y-130794166D01*
X111780002Y-130794166D01*
X112006599Y-130774341D01*
X112006610Y-130774339D01*
X112226317Y-130715469D01*
X112226331Y-130715464D01*
X112432478Y-130619336D01*
X112505471Y-130568224D01*
X111824400Y-129887153D01*
X111905148Y-129874365D01*
X112018045Y-129816841D01*
X112107641Y-129727245D01*
X112165165Y-129614348D01*
X112177953Y-129533600D01*
X112859024Y-130214671D01*
X112910134Y-130141681D01*
X112917340Y-130126228D01*
X112963511Y-130073787D01*
X113030704Y-130054633D01*
X113097585Y-130074846D01*
X113142105Y-130126222D01*
X113149430Y-130141930D01*
X113149432Y-130141934D01*
X113279954Y-130328341D01*
X113440858Y-130489245D01*
X113440861Y-130489247D01*
X113627266Y-130619768D01*
X113833504Y-130715939D01*
X113833509Y-130715940D01*
X113833511Y-130715941D01*
X113847081Y-130719577D01*
X114053308Y-130774835D01*
X114215230Y-130789001D01*
X114279998Y-130794668D01*
X114280000Y-130794668D01*
X114280002Y-130794668D01*
X114336673Y-130789709D01*
X114506692Y-130774835D01*
X114726496Y-130715939D01*
X114932734Y-130619768D01*
X115119139Y-130489247D01*
X115280047Y-130328339D01*
X115410568Y-130141934D01*
X115506739Y-129935696D01*
X115565635Y-129715892D01*
X115585468Y-129489200D01*
X115565635Y-129262508D01*
X115512248Y-129063264D01*
X115506741Y-129042711D01*
X115506738Y-129042702D01*
X115491604Y-129010248D01*
X115410568Y-128836466D01*
X115280047Y-128650061D01*
X115280045Y-128650058D01*
X115119141Y-128489154D01*
X114932734Y-128358632D01*
X114932732Y-128358631D01*
X114726497Y-128262461D01*
X114726488Y-128262458D01*
X114506697Y-128203566D01*
X114506693Y-128203565D01*
X114506692Y-128203565D01*
X114506691Y-128203564D01*
X114506686Y-128203564D01*
X114280002Y-128183732D01*
X114279998Y-128183732D01*
X114053313Y-128203564D01*
X114053302Y-128203566D01*
X113833511Y-128262458D01*
X113833502Y-128262461D01*
X113627267Y-128358631D01*
X113627265Y-128358632D01*
X113440858Y-128489154D01*
X113279954Y-128650058D01*
X113149432Y-128836465D01*
X113149429Y-128836470D01*
X113142104Y-128852179D01*
X113095929Y-128904617D01*
X113028735Y-128923766D01*
X112961855Y-128903547D01*
X112917341Y-128852173D01*
X112910133Y-128836715D01*
X112910132Y-128836713D01*
X112859025Y-128763726D01*
X112177953Y-129444798D01*
X112165165Y-129364052D01*
X112107641Y-129251155D01*
X112018045Y-129161559D01*
X111905148Y-129104035D01*
X111824401Y-129091246D01*
X112505472Y-128410174D01*
X112432478Y-128359063D01*
X112226331Y-128262935D01*
X112226317Y-128262930D01*
X112006610Y-128204060D01*
X112006599Y-128204058D01*
X111780002Y-128184234D01*
X111779998Y-128184234D01*
X111553400Y-128204058D01*
X111553389Y-128204060D01*
X111333682Y-128262930D01*
X111333673Y-128262934D01*
X111127516Y-128359066D01*
X111127512Y-128359068D01*
X111054526Y-128410173D01*
X111054526Y-128410174D01*
X111735599Y-129091246D01*
X111654852Y-129104035D01*
X111541955Y-129161559D01*
X111452359Y-129251155D01*
X111394835Y-129364052D01*
X111382046Y-129444798D01*
X110700974Y-128763726D01*
X110700973Y-128763726D01*
X110649868Y-128836712D01*
X110649866Y-128836716D01*
X110553734Y-129042873D01*
X110553730Y-129042882D01*
X110494860Y-129262589D01*
X110494858Y-129262600D01*
X110475034Y-129489197D01*
X110475034Y-129489202D01*
X103405366Y-129489202D01*
X103451112Y-129443456D01*
X103543214Y-129294134D01*
X103569670Y-129214294D01*
X103609443Y-129156851D01*
X103673959Y-129130028D01*
X103687376Y-129129300D01*
X103717200Y-129129300D01*
X103735169Y-129130609D01*
X103740550Y-129131396D01*
X103759106Y-129134115D01*
X103808748Y-129129771D01*
X103819555Y-129129300D01*
X103825134Y-129129300D01*
X103825141Y-129129300D01*
X103856103Y-129125680D01*
X103859634Y-129125319D01*
X103934812Y-129118743D01*
X103934815Y-129118741D01*
X103941893Y-129117281D01*
X103941904Y-129117335D01*
X103949363Y-129115681D01*
X103949351Y-129115627D01*
X103956378Y-129113961D01*
X103956379Y-129113960D01*
X103956384Y-129113960D01*
X104027295Y-129088150D01*
X104030594Y-129087003D01*
X104102236Y-129063264D01*
X104102238Y-129063262D01*
X104102240Y-129063262D01*
X104108781Y-129060212D01*
X104108804Y-129060262D01*
X104115698Y-129056925D01*
X104115673Y-129056875D01*
X104122120Y-129053637D01*
X104122124Y-129053636D01*
X104185167Y-129012170D01*
X104188142Y-129010276D01*
X104252354Y-128970670D01*
X104252362Y-128970661D01*
X104258023Y-128966187D01*
X104258057Y-128966230D01*
X104263982Y-128961404D01*
X104263947Y-128961362D01*
X104269476Y-128956720D01*
X104269485Y-128956715D01*
X104321271Y-128901823D01*
X104323716Y-128899306D01*
X105644264Y-127578758D01*
X105657883Y-127566988D01*
X105677294Y-127552539D01*
X105709334Y-127514354D01*
X105716623Y-127506399D01*
X105720583Y-127502441D01*
X105739927Y-127477974D01*
X105742161Y-127475232D01*
X105790667Y-127417427D01*
X105790671Y-127417418D01*
X105794637Y-127411390D01*
X105794683Y-127411420D01*
X105798795Y-127404965D01*
X105798748Y-127404936D01*
X105802532Y-127398799D01*
X105802539Y-127398791D01*
X105834417Y-127330428D01*
X105835972Y-127327214D01*
X105869824Y-127259811D01*
X105869826Y-127259798D01*
X105872293Y-127253024D01*
X105872346Y-127253043D01*
X105874858Y-127245815D01*
X105874807Y-127245798D01*
X105877077Y-127238945D01*
X105877077Y-127238943D01*
X105877079Y-127238940D01*
X105892345Y-127165001D01*
X105893097Y-127161610D01*
X105910500Y-127088188D01*
X105910500Y-127088181D01*
X105911338Y-127081015D01*
X105911392Y-127081021D01*
X105912170Y-127073405D01*
X105912117Y-127073401D01*
X105912746Y-127066210D01*
X105912300Y-127050897D01*
X105910552Y-126990804D01*
X105910500Y-126987198D01*
X105910500Y-116007886D01*
X105930185Y-115940847D01*
X105946819Y-115920205D01*
X110611605Y-111255419D01*
X110672928Y-111221934D01*
X110699286Y-111219100D01*
X113524265Y-111219100D01*
X113591304Y-111238785D01*
X113607803Y-111251463D01*
X113708847Y-111343577D01*
X113756098Y-111386652D01*
X113937381Y-111498898D01*
X114136202Y-111575921D01*
X114345790Y-111615100D01*
X114345792Y-111615100D01*
X114442971Y-111615100D01*
X114510010Y-111634785D01*
X114555765Y-111687589D01*
X114564783Y-111729045D01*
X114566442Y-111728892D01*
X114566971Y-111734600D01*
X114586644Y-111946910D01*
X114615824Y-112049467D01*
X114644996Y-112151992D01*
X114644996Y-112151994D01*
X114740032Y-112342853D01*
X114861271Y-112503397D01*
X114868528Y-112513007D01*
X115026098Y-112656652D01*
X115207381Y-112768898D01*
X115406202Y-112845921D01*
X115615790Y-112885100D01*
X115615792Y-112885100D01*
X115829008Y-112885100D01*
X115829010Y-112885100D01*
X116038598Y-112845921D01*
X116237419Y-112768898D01*
X116418702Y-112656652D01*
X116576272Y-112513007D01*
X116704766Y-112342855D01*
X116799805Y-112151989D01*
X116858156Y-111946910D01*
X116877829Y-111734600D01*
X116878358Y-111728892D01*
X116880760Y-111729114D01*
X116897514Y-111672060D01*
X116950318Y-111626305D01*
X117001829Y-111615099D01*
X117690271Y-111615099D01*
X117690272Y-111615099D01*
X117749883Y-111608691D01*
X117884731Y-111558396D01*
X117999946Y-111472146D01*
X118086196Y-111356931D01*
X118136491Y-111222083D01*
X118142900Y-111162473D01*
X118142899Y-110432484D01*
X118162583Y-110365446D01*
X118179213Y-110344809D01*
X118767205Y-109756819D01*
X118828528Y-109723334D01*
X118854886Y-109720500D01*
X120556842Y-109720500D01*
X120623881Y-109740185D01*
G37*
%TD.AperFunction*%
%TA.AperFunction,Conductor*%
G36*
X159442539Y-100520185D02*
G01*
X159488294Y-100572989D01*
X159499500Y-100624500D01*
X159499500Y-139375500D01*
X159479815Y-139442539D01*
X159427011Y-139488294D01*
X159375500Y-139499500D01*
X144636445Y-139499500D01*
X144569406Y-139479815D01*
X144523651Y-139427011D01*
X144512654Y-139368302D01*
X144512753Y-139366607D01*
X144515886Y-139345215D01*
X144518500Y-139334188D01*
X144518500Y-139271550D01*
X144518710Y-139264339D01*
X144522351Y-139201831D01*
X144520384Y-139190674D01*
X144518500Y-139169143D01*
X144518500Y-138883119D01*
X144538185Y-138816080D01*
X144590989Y-138770325D01*
X144655102Y-138759761D01*
X144677991Y-138762100D01*
X145978008Y-138762099D01*
X146080797Y-138751599D01*
X146247334Y-138696414D01*
X146396656Y-138604312D01*
X146520712Y-138480256D01*
X146612814Y-138330934D01*
X146612814Y-138330933D01*
X146616448Y-138325042D01*
X146668396Y-138278317D01*
X146737358Y-138267094D01*
X146801441Y-138294937D01*
X146809668Y-138302456D01*
X146956921Y-138449708D01*
X147150421Y-138585200D01*
X147364507Y-138685029D01*
X147364516Y-138685033D01*
X147578000Y-138742234D01*
X147578000Y-137697101D01*
X147685685Y-137746280D01*
X147792237Y-137761600D01*
X147863763Y-137761600D01*
X147970315Y-137746280D01*
X148078000Y-137697101D01*
X148078000Y-138742233D01*
X148291483Y-138685033D01*
X148291492Y-138685029D01*
X148505577Y-138585200D01*
X148505579Y-138585199D01*
X148699073Y-138449713D01*
X148699079Y-138449708D01*
X148866108Y-138282679D01*
X148866113Y-138282673D01*
X149001599Y-138089179D01*
X149001600Y-138089177D01*
X149101429Y-137875092D01*
X149101433Y-137875083D01*
X149162567Y-137646926D01*
X149162569Y-137646915D01*
X149174407Y-137511600D01*
X148261686Y-137511600D01*
X148287493Y-137471444D01*
X148328000Y-137333489D01*
X148328000Y-137250000D01*
X155894341Y-137250000D01*
X155914936Y-137485403D01*
X155914938Y-137485413D01*
X155976094Y-137713655D01*
X155976096Y-137713659D01*
X155976097Y-137713663D01*
X156008380Y-137782893D01*
X156075964Y-137927828D01*
X156075965Y-137927830D01*
X156211505Y-138121402D01*
X156378597Y-138288494D01*
X156572169Y-138424034D01*
X156572171Y-138424035D01*
X156786337Y-138523903D01*
X157014592Y-138585063D01*
X157191032Y-138600499D01*
X157191033Y-138600500D01*
X157191034Y-138600500D01*
X157308967Y-138600500D01*
X157308967Y-138600499D01*
X157485408Y-138585063D01*
X157713663Y-138523903D01*
X157927829Y-138424035D01*
X158121401Y-138288495D01*
X158288495Y-138121401D01*
X158424035Y-137927830D01*
X158523903Y-137713663D01*
X158585063Y-137485408D01*
X158605659Y-137250000D01*
X158585063Y-137014592D01*
X158523903Y-136786337D01*
X158424035Y-136572171D01*
X158424034Y-136572169D01*
X158288494Y-136378597D01*
X158121402Y-136211505D01*
X157927830Y-136075965D01*
X157927828Y-136075964D01*
X157820746Y-136026031D01*
X157713663Y-135976097D01*
X157713659Y-135976096D01*
X157713655Y-135976094D01*
X157485413Y-135914938D01*
X157485403Y-135914936D01*
X157308967Y-135899500D01*
X157308966Y-135899500D01*
X157191034Y-135899500D01*
X157191033Y-135899500D01*
X157014596Y-135914936D01*
X157014586Y-135914938D01*
X156786344Y-135976094D01*
X156786335Y-135976098D01*
X156572171Y-136075964D01*
X156572169Y-136075965D01*
X156378597Y-136211505D01*
X156211506Y-136378597D01*
X156211501Y-136378604D01*
X156075967Y-136572165D01*
X156075965Y-136572169D01*
X155976098Y-136786335D01*
X155976094Y-136786344D01*
X155914938Y-137014586D01*
X155914936Y-137014596D01*
X155894341Y-137249999D01*
X155894341Y-137250000D01*
X148328000Y-137250000D01*
X148328000Y-137189711D01*
X148287493Y-137051756D01*
X148261686Y-137011600D01*
X149174407Y-137011600D01*
X149174407Y-137011599D01*
X149162569Y-136876284D01*
X149162567Y-136876273D01*
X149101433Y-136648116D01*
X149101429Y-136648107D01*
X149001600Y-136434022D01*
X149001599Y-136434020D01*
X148866113Y-136240526D01*
X148866108Y-136240520D01*
X148699082Y-136073494D01*
X148505578Y-135937999D01*
X148291492Y-135838170D01*
X148291486Y-135838167D01*
X148078000Y-135780964D01*
X148078000Y-136826098D01*
X147970315Y-136776920D01*
X147863763Y-136761600D01*
X147792237Y-136761600D01*
X147685685Y-136776920D01*
X147578000Y-136826098D01*
X147578000Y-135780964D01*
X147577999Y-135780964D01*
X147364513Y-135838167D01*
X147364507Y-135838170D01*
X147150422Y-135937999D01*
X147150420Y-135938000D01*
X146956926Y-136073486D01*
X146809668Y-136220744D01*
X146748345Y-136254228D01*
X146678653Y-136249244D01*
X146622720Y-136207372D01*
X146616448Y-136198158D01*
X146520712Y-136042944D01*
X146396657Y-135918889D01*
X146396656Y-135918888D01*
X146303888Y-135861669D01*
X146247336Y-135826787D01*
X146247331Y-135826785D01*
X146240957Y-135824673D01*
X146080797Y-135771601D01*
X146080795Y-135771600D01*
X145978010Y-135761100D01*
X144677998Y-135761100D01*
X144677981Y-135761101D01*
X144575203Y-135771600D01*
X144575200Y-135771601D01*
X144408668Y-135826785D01*
X144408663Y-135826787D01*
X144259342Y-135918889D01*
X144135289Y-136042942D01*
X144043187Y-136192263D01*
X144043185Y-136192268D01*
X144024305Y-136249244D01*
X143988099Y-136358509D01*
X143988001Y-136358804D01*
X143988000Y-136358805D01*
X143984231Y-136395703D01*
X143957834Y-136460395D01*
X143900653Y-136500546D01*
X143860873Y-136507100D01*
X141086500Y-136507100D01*
X141019461Y-136487415D01*
X140973706Y-136434611D01*
X140962500Y-136383100D01*
X140962500Y-134137550D01*
X140962710Y-134130339D01*
X140963653Y-134114145D01*
X140966351Y-134067831D01*
X140955471Y-134006132D01*
X140954433Y-133999047D01*
X140947160Y-133936816D01*
X140943283Y-133926166D01*
X140937689Y-133905287D01*
X140935723Y-133894134D01*
X140910919Y-133836632D01*
X140908256Y-133829928D01*
X140907681Y-133828350D01*
X140886836Y-133771076D01*
X140880605Y-133761602D01*
X140870352Y-133742587D01*
X140865864Y-133732182D01*
X140850700Y-133711813D01*
X140828468Y-133681949D01*
X140824332Y-133676043D01*
X140789914Y-133623714D01*
X140789912Y-133623711D01*
X140781674Y-133615940D01*
X140767299Y-133599787D01*
X140760541Y-133590709D01*
X140760539Y-133590706D01*
X140750723Y-133582469D01*
X140712556Y-133550442D01*
X140707188Y-133545665D01*
X140661623Y-133502678D01*
X140653327Y-133497888D01*
X140651805Y-133497009D01*
X140634110Y-133484619D01*
X140632967Y-133483660D01*
X140625427Y-133477333D01*
X140625420Y-133477329D01*
X140625418Y-133477328D01*
X140569447Y-133449218D01*
X140563100Y-133445795D01*
X140508881Y-133414492D01*
X140508870Y-133414487D01*
X140498023Y-133411240D01*
X140477942Y-133403264D01*
X140467811Y-133398176D01*
X140467809Y-133398175D01*
X140467808Y-133398175D01*
X140406864Y-133383730D01*
X140399901Y-133381864D01*
X140339910Y-133363905D01*
X140339909Y-133363904D01*
X140328592Y-133363245D01*
X140307223Y-133360115D01*
X140305521Y-133359711D01*
X140296188Y-133357500D01*
X140296186Y-133357500D01*
X140233551Y-133357500D01*
X140226341Y-133357290D01*
X140163832Y-133353649D01*
X140163831Y-133353649D01*
X140152674Y-133355616D01*
X140131144Y-133357500D01*
X136997100Y-133357500D01*
X136930061Y-133337815D01*
X136884306Y-133285011D01*
X136873100Y-133233500D01*
X136873100Y-132543461D01*
X136892785Y-132476422D01*
X136925975Y-132441887D01*
X136957739Y-132419647D01*
X137118647Y-132258739D01*
X137249168Y-132072334D01*
X137345339Y-131866096D01*
X137404235Y-131646292D01*
X137424068Y-131419600D01*
X137404235Y-131192908D01*
X137345339Y-130973104D01*
X137249168Y-130766866D01*
X137118647Y-130580461D01*
X136957739Y-130419553D01*
X136925974Y-130397310D01*
X136882351Y-130342735D01*
X136873100Y-130295738D01*
X136873100Y-129310921D01*
X136892785Y-129243882D01*
X136945589Y-129198127D01*
X136983847Y-129187631D01*
X137026083Y-129183091D01*
X137160931Y-129132796D01*
X137276146Y-129046546D01*
X137362396Y-128931331D01*
X137412691Y-128796483D01*
X137419100Y-128736873D01*
X137419099Y-127041128D01*
X137412691Y-126981517D01*
X137407631Y-126967951D01*
X137362397Y-126846671D01*
X137362393Y-126846664D01*
X137276147Y-126731455D01*
X137244503Y-126707766D01*
X137202633Y-126651832D01*
X137197649Y-126582140D01*
X137231135Y-126520818D01*
X137292459Y-126487333D01*
X137318815Y-126484500D01*
X144766800Y-126484500D01*
X144784769Y-126485809D01*
X144790150Y-126486596D01*
X144808706Y-126489315D01*
X144858348Y-126484971D01*
X144869155Y-126484500D01*
X144874734Y-126484500D01*
X144874741Y-126484500D01*
X144905703Y-126480880D01*
X144909234Y-126480519D01*
X144984412Y-126473943D01*
X144984415Y-126473941D01*
X144991493Y-126472481D01*
X144991504Y-126472535D01*
X144998963Y-126470881D01*
X144998951Y-126470827D01*
X145005978Y-126469161D01*
X145005979Y-126469160D01*
X145005984Y-126469160D01*
X145076895Y-126443350D01*
X145080194Y-126442203D01*
X145151836Y-126418464D01*
X145151838Y-126418462D01*
X145151840Y-126418462D01*
X145158381Y-126415412D01*
X145158404Y-126415462D01*
X145165298Y-126412125D01*
X145165273Y-126412075D01*
X145171720Y-126408837D01*
X145171724Y-126408836D01*
X145234767Y-126367370D01*
X145237742Y-126365476D01*
X145301954Y-126325870D01*
X145301962Y-126325861D01*
X145307623Y-126321387D01*
X145307657Y-126321430D01*
X145313582Y-126316604D01*
X145313547Y-126316562D01*
X145319076Y-126311920D01*
X145319085Y-126311915D01*
X145370871Y-126257023D01*
X145373316Y-126254506D01*
X145882220Y-125745602D01*
X145943541Y-125712119D01*
X146013233Y-125717103D01*
X146069166Y-125758975D01*
X146086941Y-125792331D01*
X146127918Y-125909438D01*
X146127918Y-125909439D01*
X146165493Y-125969237D01*
X146184500Y-126035210D01*
X146184500Y-126171805D01*
X146164815Y-126238844D01*
X146112011Y-126284599D01*
X146082034Y-126293921D01*
X146060738Y-126297676D01*
X146060736Y-126297676D01*
X146060734Y-126297677D01*
X145939899Y-126349800D01*
X145898782Y-126367536D01*
X145898771Y-126367542D01*
X145757314Y-126472853D01*
X145757305Y-126472861D01*
X145643935Y-126607970D01*
X145643934Y-126607971D01*
X145643933Y-126607973D01*
X145638200Y-126619389D01*
X145564772Y-126765595D01*
X145562305Y-126772376D01*
X145560263Y-126771633D01*
X145530902Y-126823091D01*
X145516002Y-126835357D01*
X145439468Y-126888947D01*
X145439465Y-126888949D01*
X145278551Y-127049862D01*
X145148032Y-127236265D01*
X145148031Y-127236267D01*
X145051861Y-127442502D01*
X145051858Y-127442511D01*
X144992966Y-127662302D01*
X144992964Y-127662313D01*
X144973132Y-127888998D01*
X144973132Y-127889001D01*
X144992964Y-128115686D01*
X144992966Y-128115697D01*
X145051858Y-128335488D01*
X145051861Y-128335497D01*
X145148031Y-128541732D01*
X145148032Y-128541734D01*
X145278554Y-128728141D01*
X145439458Y-128889045D01*
X145439461Y-128889047D01*
X145556030Y-128970669D01*
X145598223Y-129000212D01*
X145641848Y-129054788D01*
X145651100Y-129101787D01*
X145651100Y-130206812D01*
X145631415Y-130273851D01*
X145598223Y-130308387D01*
X145439458Y-130419554D01*
X145278554Y-130580458D01*
X145148032Y-130766865D01*
X145148031Y-130766867D01*
X145051861Y-130973102D01*
X145051858Y-130973111D01*
X144992966Y-131192902D01*
X144992964Y-131192913D01*
X144973132Y-131419598D01*
X144973132Y-131419601D01*
X144992964Y-131646286D01*
X144992966Y-131646297D01*
X145051858Y-131866088D01*
X145051861Y-131866097D01*
X145148031Y-132072332D01*
X145148032Y-132072334D01*
X145278554Y-132258741D01*
X145439458Y-132419645D01*
X145439461Y-132419647D01*
X145625866Y-132550168D01*
X145832104Y-132646339D01*
X146051908Y-132705235D01*
X146213830Y-132719401D01*
X146278598Y-132725068D01*
X146278600Y-132725068D01*
X146278602Y-132725068D01*
X146335273Y-132720109D01*
X146505292Y-132705235D01*
X146725096Y-132646339D01*
X146931334Y-132550168D01*
X147117739Y-132419647D01*
X147278647Y-132258739D01*
X147409168Y-132072334D01*
X147505339Y-131866096D01*
X147564235Y-131646292D01*
X147584068Y-131419600D01*
X147564235Y-131192908D01*
X147505339Y-130973104D01*
X147409168Y-130766866D01*
X147278647Y-130580461D01*
X147278645Y-130580458D01*
X147117741Y-130419554D01*
X146958977Y-130308387D01*
X146915352Y-130253810D01*
X146906100Y-130206812D01*
X146906100Y-129101787D01*
X146925785Y-129034748D01*
X146958977Y-129000212D01*
X147001168Y-128970670D01*
X147117739Y-128889047D01*
X147278647Y-128728139D01*
X147309628Y-128683891D01*
X147372028Y-128594777D01*
X147426605Y-128551152D01*
X147473603Y-128541900D01*
X149320780Y-128541900D01*
X149387819Y-128561585D01*
X149433161Y-128613492D01*
X149435232Y-128617934D01*
X149565754Y-128804341D01*
X149726658Y-128965245D01*
X149726661Y-128965247D01*
X149913066Y-129095768D01*
X150119304Y-129191939D01*
X150339108Y-129250835D01*
X150501030Y-129265001D01*
X150565798Y-129270668D01*
X150565800Y-129270668D01*
X150565802Y-129270668D01*
X150622473Y-129265709D01*
X150792492Y-129250835D01*
X151012296Y-129191939D01*
X151218534Y-129095768D01*
X151404939Y-128965247D01*
X151565847Y-128804339D01*
X151696368Y-128617934D01*
X151703418Y-128602814D01*
X151749589Y-128550376D01*
X151816782Y-128531223D01*
X151883664Y-128551438D01*
X151928181Y-128602814D01*
X151935232Y-128617933D01*
X151935232Y-128617934D01*
X152065754Y-128804341D01*
X152226658Y-128965245D01*
X152226661Y-128965247D01*
X152413066Y-129095768D01*
X152619304Y-129191939D01*
X152839108Y-129250835D01*
X153001030Y-129265001D01*
X153065798Y-129270668D01*
X153065800Y-129270668D01*
X153065802Y-129270668D01*
X153122473Y-129265709D01*
X153292492Y-129250835D01*
X153512296Y-129191939D01*
X153718534Y-129095768D01*
X153904939Y-128965247D01*
X154065847Y-128804339D01*
X154196368Y-128617934D01*
X154292539Y-128411696D01*
X154351435Y-128191892D01*
X154371268Y-127965200D01*
X154351435Y-127738508D01*
X154292539Y-127518704D01*
X154196368Y-127312466D01*
X154065847Y-127126061D01*
X154065845Y-127126058D01*
X153904941Y-126965154D01*
X153718534Y-126834632D01*
X153718532Y-126834631D01*
X153512297Y-126738461D01*
X153512288Y-126738458D01*
X153292497Y-126679566D01*
X153292493Y-126679565D01*
X153292492Y-126679565D01*
X153292491Y-126679564D01*
X153292486Y-126679564D01*
X153065802Y-126659732D01*
X153065798Y-126659732D01*
X152839113Y-126679564D01*
X152839102Y-126679566D01*
X152619311Y-126738458D01*
X152619302Y-126738461D01*
X152413067Y-126834631D01*
X152413065Y-126834632D01*
X152226658Y-126965154D01*
X152065754Y-127126058D01*
X151935474Y-127312120D01*
X151935232Y-127312466D01*
X151928180Y-127327587D01*
X151882009Y-127380025D01*
X151814815Y-127399176D01*
X151747934Y-127378960D01*
X151703419Y-127327587D01*
X151696368Y-127312466D01*
X151565847Y-127126061D01*
X151565845Y-127126058D01*
X151404941Y-126965154D01*
X151218534Y-126834632D01*
X151218532Y-126834631D01*
X151012297Y-126738461D01*
X151012288Y-126738458D01*
X150792497Y-126679566D01*
X150792493Y-126679565D01*
X150792492Y-126679565D01*
X150792491Y-126679564D01*
X150792486Y-126679564D01*
X150565802Y-126659732D01*
X150565798Y-126659732D01*
X150339113Y-126679564D01*
X150339102Y-126679566D01*
X150119311Y-126738458D01*
X150119302Y-126738461D01*
X149913067Y-126834631D01*
X149913065Y-126834632D01*
X149726658Y-126965154D01*
X149565754Y-127126058D01*
X149435232Y-127312465D01*
X149434011Y-127315083D01*
X149433524Y-127316130D01*
X149433161Y-127316908D01*
X149386987Y-127369346D01*
X149320780Y-127388500D01*
X147559153Y-127388500D01*
X147492114Y-127368815D01*
X147446771Y-127316905D01*
X147425784Y-127271899D01*
X147409168Y-127236266D01*
X147281163Y-127053454D01*
X147258836Y-126987248D01*
X147275846Y-126919480D01*
X147284755Y-126906336D01*
X147286109Y-126904590D01*
X147293679Y-126895727D01*
X147323693Y-126863767D01*
X147333388Y-126846130D01*
X147344072Y-126829863D01*
X147356408Y-126813962D01*
X147373811Y-126773742D01*
X147378951Y-126763251D01*
X147392580Y-126738461D01*
X147400072Y-126724834D01*
X147405078Y-126705334D01*
X147411376Y-126686936D01*
X147419374Y-126668458D01*
X147426232Y-126625151D01*
X147428596Y-126613736D01*
X147439500Y-126571272D01*
X147439500Y-126551141D01*
X147441027Y-126531741D01*
X147442757Y-126520818D01*
X147444175Y-126511867D01*
X147440444Y-126472399D01*
X147440050Y-126468230D01*
X147439500Y-126456561D01*
X147439500Y-126035210D01*
X147458506Y-125969238D01*
X147459446Y-125967742D01*
X147496082Y-125909437D01*
X147496473Y-125908319D01*
X147497102Y-125907317D01*
X147499103Y-125903163D01*
X147499570Y-125903388D01*
X147525835Y-125861582D01*
X148924877Y-124462540D01*
X148986198Y-124429057D01*
X149052818Y-124432941D01*
X149097259Y-124448198D01*
X149130385Y-124459571D01*
X149375665Y-124500500D01*
X149624335Y-124500500D01*
X149869614Y-124459571D01*
X150104810Y-124378828D01*
X150323509Y-124260474D01*
X150519744Y-124107738D01*
X150688164Y-123924785D01*
X150824173Y-123716607D01*
X150830715Y-123701691D01*
X150875670Y-123648205D01*
X150942406Y-123627514D01*
X150944272Y-123627500D01*
X154555728Y-123627500D01*
X154622767Y-123647185D01*
X154668522Y-123699989D01*
X154669285Y-123701692D01*
X154675827Y-123716607D01*
X154811833Y-123924782D01*
X154811836Y-123924785D01*
X154980256Y-124107738D01*
X155176491Y-124260474D01*
X155395190Y-124378828D01*
X155630386Y-124459571D01*
X155875665Y-124500500D01*
X156124335Y-124500500D01*
X156369614Y-124459571D01*
X156604810Y-124378828D01*
X156823509Y-124260474D01*
X157019744Y-124107738D01*
X157188164Y-123924785D01*
X157324173Y-123716607D01*
X157424063Y-123488881D01*
X157485108Y-123247821D01*
X157489741Y-123191908D01*
X157505643Y-123000005D01*
X157505643Y-122999994D01*
X157485109Y-122752187D01*
X157485107Y-122752175D01*
X157424063Y-122511118D01*
X157324173Y-122283393D01*
X157188166Y-122075217D01*
X157166557Y-122051744D01*
X157019744Y-121892262D01*
X156823509Y-121739526D01*
X156823507Y-121739525D01*
X156823506Y-121739524D01*
X156604811Y-121621172D01*
X156604802Y-121621169D01*
X156369616Y-121540429D01*
X156124335Y-121499500D01*
X155875665Y-121499500D01*
X155630383Y-121540429D01*
X155395197Y-121621169D01*
X155395188Y-121621172D01*
X155176493Y-121739524D01*
X154980257Y-121892261D01*
X154811833Y-122075217D01*
X154675827Y-122283392D01*
X154669285Y-122298308D01*
X154624330Y-122351795D01*
X154557594Y-122372486D01*
X154555728Y-122372500D01*
X150944272Y-122372500D01*
X150877233Y-122352815D01*
X150831478Y-122300011D01*
X150830715Y-122298308D01*
X150829149Y-122294738D01*
X150824173Y-122283393D01*
X150770190Y-122200765D01*
X150688166Y-122075217D01*
X150666557Y-122051744D01*
X150519744Y-121892262D01*
X150323509Y-121739526D01*
X150323507Y-121739525D01*
X150323506Y-121739524D01*
X150104811Y-121621172D01*
X150104802Y-121621169D01*
X149869616Y-121540429D01*
X149624335Y-121499500D01*
X149375665Y-121499500D01*
X149130383Y-121540429D01*
X148895197Y-121621169D01*
X148895188Y-121621172D01*
X148676493Y-121739524D01*
X148480257Y-121892261D01*
X148311833Y-122075217D01*
X148175826Y-122283393D01*
X148075936Y-122511118D01*
X148014892Y-122752175D01*
X148014890Y-122752187D01*
X147994357Y-122999994D01*
X147994357Y-123000005D01*
X148014890Y-123247812D01*
X148014892Y-123247821D01*
X148058139Y-123418600D01*
X148068292Y-123458690D01*
X148065667Y-123528511D01*
X148035767Y-123576812D01*
X147778484Y-123834095D01*
X147717161Y-123867580D01*
X147647469Y-123862596D01*
X147591536Y-123820724D01*
X147567119Y-123755260D01*
X147566855Y-123750020D01*
X147566552Y-123739604D01*
X147566500Y-123735998D01*
X147566500Y-118500005D01*
X147994859Y-118500005D01*
X148015385Y-118747729D01*
X148015387Y-118747738D01*
X148076412Y-118988717D01*
X148176266Y-119216364D01*
X148276564Y-119369882D01*
X148974070Y-118672376D01*
X148976884Y-118685915D01*
X149046442Y-118820156D01*
X149149638Y-118930652D01*
X149278819Y-119009209D01*
X149330002Y-119023549D01*
X148629942Y-119723609D01*
X148676768Y-119760055D01*
X148676770Y-119760056D01*
X148895385Y-119878364D01*
X148895396Y-119878369D01*
X149130506Y-119959083D01*
X149375707Y-120000000D01*
X149624293Y-120000000D01*
X149869493Y-119959083D01*
X150104603Y-119878369D01*
X150104614Y-119878364D01*
X150323228Y-119760057D01*
X150323231Y-119760055D01*
X150370056Y-119723609D01*
X149671568Y-119025121D01*
X149788458Y-118974349D01*
X149905739Y-118878934D01*
X149992928Y-118755415D01*
X150023354Y-118669802D01*
X150723434Y-119369882D01*
X150823731Y-119216369D01*
X150923587Y-118988717D01*
X150984612Y-118747738D01*
X150984614Y-118747729D01*
X151005141Y-118500005D01*
X154494859Y-118500005D01*
X154515385Y-118747729D01*
X154515387Y-118747738D01*
X154576412Y-118988717D01*
X154676266Y-119216364D01*
X154776564Y-119369882D01*
X155474070Y-118672376D01*
X155476884Y-118685915D01*
X155546442Y-118820156D01*
X155649638Y-118930652D01*
X155778819Y-119009209D01*
X155830002Y-119023549D01*
X155129942Y-119723609D01*
X155176768Y-119760055D01*
X155176770Y-119760056D01*
X155395385Y-119878364D01*
X155395396Y-119878369D01*
X155630506Y-119959083D01*
X155875707Y-120000000D01*
X156124293Y-120000000D01*
X156369493Y-119959083D01*
X156604603Y-119878369D01*
X156604614Y-119878364D01*
X156823228Y-119760057D01*
X156823231Y-119760055D01*
X156870056Y-119723609D01*
X156171568Y-119025121D01*
X156288458Y-118974349D01*
X156405739Y-118878934D01*
X156492928Y-118755415D01*
X156523354Y-118669802D01*
X157223434Y-119369882D01*
X157323731Y-119216369D01*
X157423587Y-118988717D01*
X157484612Y-118747738D01*
X157484614Y-118747729D01*
X157505141Y-118500005D01*
X157505141Y-118499994D01*
X157484614Y-118252270D01*
X157484612Y-118252261D01*
X157423587Y-118011282D01*
X157323731Y-117783630D01*
X157223434Y-117630116D01*
X156525929Y-118327622D01*
X156523116Y-118314085D01*
X156453558Y-118179844D01*
X156350362Y-118069348D01*
X156221181Y-117990791D01*
X156169997Y-117976450D01*
X156870057Y-117276390D01*
X156870056Y-117276389D01*
X156823229Y-117239943D01*
X156604614Y-117121635D01*
X156604603Y-117121630D01*
X156369493Y-117040916D01*
X156124293Y-117000000D01*
X155875707Y-117000000D01*
X155630506Y-117040916D01*
X155395396Y-117121630D01*
X155395390Y-117121632D01*
X155176761Y-117239949D01*
X155129942Y-117276388D01*
X155129942Y-117276390D01*
X155828431Y-117974878D01*
X155711542Y-118025651D01*
X155594261Y-118121066D01*
X155507072Y-118244585D01*
X155476645Y-118330197D01*
X154776564Y-117630116D01*
X154676267Y-117783632D01*
X154576412Y-118011282D01*
X154515387Y-118252261D01*
X154515385Y-118252270D01*
X154494859Y-118499994D01*
X154494859Y-118500005D01*
X151005141Y-118500005D01*
X151005141Y-118499994D01*
X150984614Y-118252270D01*
X150984612Y-118252261D01*
X150923587Y-118011282D01*
X150823731Y-117783630D01*
X150723434Y-117630116D01*
X150025929Y-118327622D01*
X150023116Y-118314085D01*
X149953558Y-118179844D01*
X149850362Y-118069348D01*
X149721181Y-117990791D01*
X149669997Y-117976450D01*
X150370057Y-117276390D01*
X150370056Y-117276389D01*
X150323229Y-117239943D01*
X150104614Y-117121635D01*
X150104603Y-117121630D01*
X149869493Y-117040916D01*
X149624293Y-117000000D01*
X149375707Y-117000000D01*
X149130506Y-117040916D01*
X148895396Y-117121630D01*
X148895390Y-117121632D01*
X148676761Y-117239949D01*
X148629942Y-117276388D01*
X148629942Y-117276390D01*
X149328431Y-117974878D01*
X149211542Y-118025651D01*
X149094261Y-118121066D01*
X149007072Y-118244585D01*
X148976645Y-118330197D01*
X148276564Y-117630116D01*
X148176267Y-117783632D01*
X148076412Y-118011282D01*
X148015387Y-118252261D01*
X148015385Y-118252270D01*
X147994859Y-118499994D01*
X147994859Y-118500005D01*
X147566500Y-118500005D01*
X147566500Y-111627865D01*
X147586185Y-111560826D01*
X147619375Y-111526291D01*
X147671139Y-111490047D01*
X147832047Y-111329139D01*
X147962568Y-111142734D01*
X147969893Y-111127024D01*
X148016064Y-111074586D01*
X148083257Y-111055433D01*
X148150138Y-111075648D01*
X148194657Y-111127024D01*
X148201864Y-111142480D01*
X148252974Y-111215472D01*
X148934046Y-110534400D01*
X148946835Y-110615148D01*
X149004359Y-110728045D01*
X149093955Y-110817641D01*
X149206852Y-110875165D01*
X149287599Y-110887953D01*
X148606526Y-111569025D01*
X148679513Y-111620132D01*
X148679521Y-111620136D01*
X148885668Y-111716264D01*
X148885682Y-111716269D01*
X149105389Y-111775139D01*
X149105400Y-111775141D01*
X149331998Y-111794966D01*
X149332002Y-111794966D01*
X149558599Y-111775141D01*
X149558610Y-111775139D01*
X149778317Y-111716269D01*
X149778331Y-111716264D01*
X149984478Y-111620136D01*
X150057471Y-111569024D01*
X149376400Y-110887953D01*
X149457148Y-110875165D01*
X149570045Y-110817641D01*
X149659641Y-110728045D01*
X149717165Y-110615148D01*
X149729953Y-110534400D01*
X150411024Y-111215471D01*
X150462136Y-111142478D01*
X150558264Y-110936331D01*
X150558269Y-110936317D01*
X150617139Y-110716610D01*
X150617141Y-110716599D01*
X150636966Y-110490002D01*
X150636966Y-110489997D01*
X150617141Y-110263400D01*
X150617139Y-110263389D01*
X150558269Y-110043682D01*
X150558264Y-110043668D01*
X150462136Y-109837521D01*
X150462132Y-109837513D01*
X150411025Y-109764526D01*
X149729953Y-110445598D01*
X149717165Y-110364852D01*
X149659641Y-110251955D01*
X149570045Y-110162359D01*
X149457148Y-110104835D01*
X149376401Y-110092046D01*
X150057472Y-109410974D01*
X149984478Y-109359863D01*
X149778331Y-109263735D01*
X149778317Y-109263730D01*
X149558610Y-109204860D01*
X149558599Y-109204858D01*
X149332002Y-109185034D01*
X149331998Y-109185034D01*
X149105400Y-109204858D01*
X149105389Y-109204860D01*
X148885682Y-109263730D01*
X148885673Y-109263734D01*
X148679516Y-109359866D01*
X148679512Y-109359868D01*
X148606526Y-109410973D01*
X148606526Y-109410974D01*
X149287599Y-110092046D01*
X149206852Y-110104835D01*
X149093955Y-110162359D01*
X149004359Y-110251955D01*
X148946835Y-110364852D01*
X148934046Y-110445598D01*
X148252974Y-109764526D01*
X148252973Y-109764526D01*
X148201868Y-109837512D01*
X148201867Y-109837514D01*
X148194656Y-109852979D01*
X148148482Y-109905417D01*
X148081288Y-109924567D01*
X148014407Y-109904350D01*
X147969893Y-109852976D01*
X147962568Y-109837266D01*
X147832047Y-109650861D01*
X147832045Y-109650858D01*
X147671141Y-109489954D01*
X147484734Y-109359432D01*
X147484732Y-109359431D01*
X147278497Y-109263261D01*
X147278488Y-109263258D01*
X147058697Y-109204366D01*
X147058693Y-109204365D01*
X147058692Y-109204365D01*
X147058691Y-109204364D01*
X147058686Y-109204364D01*
X146832002Y-109184532D01*
X146831997Y-109184532D01*
X146815444Y-109185980D01*
X146746944Y-109172213D01*
X146716957Y-109150133D01*
X146044566Y-108477742D01*
X146032784Y-108464109D01*
X146022652Y-108450500D01*
X146018339Y-108444706D01*
X146018337Y-108444704D01*
X146018338Y-108444704D01*
X145980167Y-108412676D01*
X145972184Y-108405360D01*
X145968244Y-108401419D01*
X145943787Y-108382081D01*
X145940991Y-108379803D01*
X145883227Y-108331333D01*
X145877194Y-108327365D01*
X145877222Y-108327321D01*
X145870761Y-108323204D01*
X145870734Y-108323250D01*
X145864590Y-108319460D01*
X145796242Y-108287589D01*
X145792996Y-108286017D01*
X145725615Y-108252177D01*
X145718831Y-108249708D01*
X145718849Y-108249658D01*
X145711607Y-108247141D01*
X145711591Y-108247191D01*
X145704738Y-108244920D01*
X145630888Y-108229671D01*
X145627367Y-108228891D01*
X145553981Y-108211498D01*
X145546814Y-108210661D01*
X145546820Y-108210607D01*
X145539205Y-108209829D01*
X145539201Y-108209883D01*
X145532010Y-108209253D01*
X145456604Y-108211448D01*
X145452998Y-108211500D01*
X142836886Y-108211500D01*
X142769847Y-108191815D01*
X142724092Y-108139011D01*
X142714148Y-108069853D01*
X142743173Y-108006297D01*
X142749205Y-107999819D01*
X143827209Y-106921815D01*
X147089464Y-103659558D01*
X147103083Y-103647788D01*
X147122494Y-103633339D01*
X147154534Y-103595154D01*
X147161823Y-103587199D01*
X147165783Y-103583241D01*
X147185134Y-103558766D01*
X147187375Y-103556015D01*
X147235867Y-103498227D01*
X147235868Y-103498224D01*
X147239837Y-103492190D01*
X147239884Y-103492221D01*
X147243994Y-103485769D01*
X147243947Y-103485740D01*
X147247734Y-103479599D01*
X147247734Y-103479597D01*
X147247739Y-103479592D01*
X147251174Y-103472223D01*
X147292435Y-103423047D01*
X147472601Y-103296895D01*
X147639695Y-103129801D01*
X147749932Y-102972365D01*
X147804506Y-102928742D01*
X147874005Y-102921548D01*
X147936359Y-102953070D01*
X147953080Y-102972367D01*
X148063086Y-103129473D01*
X148063091Y-103129479D01*
X148230117Y-103296505D01*
X148423621Y-103432000D01*
X148637707Y-103531829D01*
X148637716Y-103531833D01*
X148851200Y-103589034D01*
X148851200Y-102541418D01*
X148966001Y-102593846D01*
X149067225Y-102608400D01*
X149135175Y-102608400D01*
X149236399Y-102593846D01*
X149351200Y-102541418D01*
X149351200Y-103589033D01*
X149564683Y-103531833D01*
X149564692Y-103531829D01*
X149778777Y-103432000D01*
X149778779Y-103431999D01*
X149972273Y-103296513D01*
X149972279Y-103296508D01*
X150139308Y-103129479D01*
X150139313Y-103129473D01*
X150274799Y-102935979D01*
X150274800Y-102935977D01*
X150361522Y-102750000D01*
X155894341Y-102750000D01*
X155914936Y-102985403D01*
X155914938Y-102985413D01*
X155976094Y-103213654D01*
X155976095Y-103213658D01*
X155976097Y-103213663D01*
X156015241Y-103297607D01*
X156075964Y-103427828D01*
X156075965Y-103427830D01*
X156211505Y-103621402D01*
X156378597Y-103788494D01*
X156572169Y-103924034D01*
X156572171Y-103924035D01*
X156786337Y-104023903D01*
X157014592Y-104085063D01*
X157191032Y-104100499D01*
X157191033Y-104100500D01*
X157191034Y-104100500D01*
X157308967Y-104100500D01*
X157308967Y-104100499D01*
X157485408Y-104085063D01*
X157713663Y-104023903D01*
X157927829Y-103924035D01*
X158121401Y-103788495D01*
X158288495Y-103621401D01*
X158424035Y-103427830D01*
X158523903Y-103213663D01*
X158523904Y-103213656D01*
X158523906Y-103213654D01*
X158578152Y-103011199D01*
X158585063Y-102985408D01*
X158605659Y-102750000D01*
X158585063Y-102514592D01*
X158523903Y-102286337D01*
X158424035Y-102072171D01*
X158424034Y-102072169D01*
X158288494Y-101878597D01*
X158121402Y-101711505D01*
X157927830Y-101575965D01*
X157927828Y-101575964D01*
X157750934Y-101493477D01*
X157713663Y-101476097D01*
X157713659Y-101476096D01*
X157713655Y-101476094D01*
X157485413Y-101414938D01*
X157485403Y-101414936D01*
X157308967Y-101399500D01*
X157308966Y-101399500D01*
X157191034Y-101399500D01*
X157191033Y-101399500D01*
X157014596Y-101414936D01*
X157014586Y-101414938D01*
X156786344Y-101476094D01*
X156786335Y-101476098D01*
X156572171Y-101575964D01*
X156572169Y-101575965D01*
X156378597Y-101711505D01*
X156211506Y-101878597D01*
X156211501Y-101878604D01*
X156075967Y-102072165D01*
X156075965Y-102072169D01*
X155976098Y-102286335D01*
X155976094Y-102286344D01*
X155914938Y-102514586D01*
X155914936Y-102514596D01*
X155894341Y-102749999D01*
X155894341Y-102750000D01*
X150361522Y-102750000D01*
X150374629Y-102721892D01*
X150374633Y-102721883D01*
X150435767Y-102493726D01*
X150435769Y-102493716D01*
X150445421Y-102383400D01*
X149505169Y-102383400D01*
X149537719Y-102332751D01*
X149576200Y-102201695D01*
X149576200Y-102065105D01*
X149537719Y-101934049D01*
X149505169Y-101883400D01*
X150445421Y-101883400D01*
X150435769Y-101773083D01*
X150435767Y-101773073D01*
X150374633Y-101544916D01*
X150374629Y-101544907D01*
X150274800Y-101330822D01*
X150274799Y-101330820D01*
X150139313Y-101137326D01*
X150139308Y-101137320D01*
X149972282Y-100970294D01*
X149778778Y-100834799D01*
X149568793Y-100736882D01*
X149516354Y-100690710D01*
X149497202Y-100623516D01*
X149517418Y-100556635D01*
X149570583Y-100511300D01*
X149621198Y-100500500D01*
X159375500Y-100500500D01*
X159442539Y-100520185D01*
G37*
%TD.AperFunction*%
%TA.AperFunction,Conductor*%
G36*
X145168953Y-109740185D02*
G01*
X145189595Y-109756819D01*
X145527381Y-110094605D01*
X145560866Y-110155928D01*
X145559475Y-110214378D01*
X145546367Y-110263299D01*
X145546364Y-110263313D01*
X145526532Y-110489998D01*
X145526532Y-110490001D01*
X145546364Y-110716686D01*
X145546366Y-110716697D01*
X145605258Y-110936488D01*
X145605261Y-110936497D01*
X145701431Y-111142732D01*
X145701432Y-111142734D01*
X145831954Y-111329141D01*
X145992856Y-111490043D01*
X145992859Y-111490045D01*
X145992861Y-111490047D01*
X146004620Y-111498280D01*
X146048246Y-111552853D01*
X146057500Y-111599857D01*
X146057500Y-123384914D01*
X146037815Y-123451953D01*
X146021181Y-123472595D01*
X144554595Y-124939181D01*
X144493272Y-124972666D01*
X144466914Y-124975500D01*
X136208000Y-124975500D01*
X136190031Y-124974191D01*
X136166091Y-124970684D01*
X136119330Y-124974776D01*
X136116451Y-124975028D01*
X136105645Y-124975500D01*
X136100051Y-124975500D01*
X136069113Y-124979116D01*
X136065529Y-124979482D01*
X135990387Y-124986056D01*
X135983321Y-124987516D01*
X135983310Y-124987464D01*
X135975832Y-124989122D01*
X135975845Y-124989174D01*
X135968812Y-124990840D01*
X135897925Y-125016639D01*
X135894525Y-125017821D01*
X135822962Y-125041536D01*
X135816420Y-125044587D01*
X135816397Y-125044539D01*
X135809507Y-125047875D01*
X135809531Y-125047922D01*
X135803076Y-125051163D01*
X135740067Y-125092604D01*
X135737030Y-125094539D01*
X135672846Y-125134130D01*
X135667179Y-125138611D01*
X135667146Y-125138569D01*
X135661214Y-125143401D01*
X135661248Y-125143442D01*
X135655711Y-125148087D01*
X135627358Y-125178139D01*
X135611219Y-125192502D01*
X135597308Y-125202859D01*
X135597306Y-125202860D01*
X135597306Y-125202861D01*
X135567254Y-125238675D01*
X135565275Y-125241033D01*
X135557982Y-125248993D01*
X135554015Y-125252960D01*
X135543111Y-125266751D01*
X135536049Y-125274924D01*
X135534676Y-125276379D01*
X135530367Y-125282166D01*
X135530070Y-125281945D01*
X135525640Y-125288267D01*
X135483934Y-125337971D01*
X135479968Y-125344002D01*
X135479924Y-125343973D01*
X135475809Y-125350431D01*
X135475854Y-125350459D01*
X135472062Y-125356606D01*
X135440181Y-125424972D01*
X135438612Y-125428212D01*
X135404775Y-125495591D01*
X135402304Y-125502379D01*
X135402255Y-125502361D01*
X135399741Y-125509593D01*
X135399791Y-125509610D01*
X135397520Y-125516462D01*
X135382271Y-125590311D01*
X135381491Y-125593830D01*
X135364099Y-125667216D01*
X135363261Y-125674387D01*
X135363207Y-125674380D01*
X135362430Y-125681996D01*
X135362483Y-125682001D01*
X135361853Y-125689190D01*
X135364048Y-125764593D01*
X135364100Y-125768200D01*
X135364100Y-126467078D01*
X135344415Y-126534117D01*
X135291611Y-126579872D01*
X135253355Y-126590368D01*
X135211116Y-126594909D01*
X135076271Y-126645202D01*
X135076264Y-126645206D01*
X134961055Y-126731452D01*
X134961052Y-126731455D01*
X134874806Y-126846664D01*
X134874802Y-126846671D01*
X134824508Y-126981517D01*
X134819909Y-127024300D01*
X134818101Y-127041123D01*
X134818100Y-127041135D01*
X134818100Y-128736870D01*
X134818101Y-128736876D01*
X134824508Y-128796483D01*
X134874802Y-128931328D01*
X134874806Y-128931335D01*
X134961052Y-129046544D01*
X134961055Y-129046547D01*
X135076264Y-129132793D01*
X135076271Y-129132797D01*
X135211116Y-129183091D01*
X135253357Y-129187633D01*
X135317908Y-129214372D01*
X135357755Y-129271765D01*
X135364100Y-129310922D01*
X135364100Y-130295738D01*
X135344415Y-130362777D01*
X135311226Y-130397310D01*
X135279461Y-130419553D01*
X135118551Y-130580462D01*
X134988032Y-130766865D01*
X134988031Y-130766867D01*
X134891861Y-130973102D01*
X134891858Y-130973111D01*
X134832966Y-131192902D01*
X134832964Y-131192913D01*
X134813132Y-131419598D01*
X134813132Y-131419601D01*
X134832964Y-131646286D01*
X134832966Y-131646297D01*
X134891858Y-131866088D01*
X134891861Y-131866097D01*
X134988031Y-132072332D01*
X134988032Y-132072334D01*
X135118554Y-132258741D01*
X135279456Y-132419643D01*
X135279459Y-132419645D01*
X135279461Y-132419647D01*
X135311223Y-132441886D01*
X135354847Y-132496460D01*
X135364100Y-132543461D01*
X135364100Y-134022600D01*
X135362791Y-134040569D01*
X135359284Y-134064508D01*
X135363628Y-134114145D01*
X135364100Y-134124954D01*
X135364100Y-134130546D01*
X135367716Y-134161485D01*
X135368082Y-134165070D01*
X135374656Y-134240210D01*
X135376116Y-134247277D01*
X135376064Y-134247287D01*
X135377723Y-134254767D01*
X135377774Y-134254755D01*
X135379440Y-134261785D01*
X135405221Y-134332620D01*
X135406404Y-134336023D01*
X135430133Y-134407629D01*
X135433186Y-134414175D01*
X135433136Y-134414198D01*
X135436476Y-134421097D01*
X135436525Y-134421073D01*
X135439767Y-134427530D01*
X135481213Y-134490546D01*
X135483150Y-134493586D01*
X135522731Y-134557756D01*
X135527211Y-134563422D01*
X135527169Y-134563455D01*
X135532005Y-134569390D01*
X135532046Y-134569357D01*
X135536679Y-134574879D01*
X135536684Y-134574884D01*
X135536685Y-134574885D01*
X135566739Y-134603239D01*
X135581100Y-134619376D01*
X135591461Y-134633294D01*
X135629638Y-134665328D01*
X135637614Y-134672638D01*
X135641559Y-134676583D01*
X135655349Y-134687487D01*
X135663535Y-134694561D01*
X135664979Y-134695924D01*
X135670771Y-134700236D01*
X135670546Y-134700537D01*
X135676875Y-134704966D01*
X135726569Y-134746664D01*
X135726573Y-134746667D01*
X135726575Y-134746668D01*
X135732607Y-134750635D01*
X135732576Y-134750680D01*
X135739038Y-134754796D01*
X135739067Y-134754750D01*
X135745207Y-134758537D01*
X135745209Y-134758539D01*
X135813557Y-134790410D01*
X135816775Y-134791968D01*
X135884187Y-134825823D01*
X135884189Y-134825824D01*
X135884191Y-134825824D01*
X135890979Y-134828295D01*
X135890960Y-134828347D01*
X135898185Y-134830858D01*
X135898203Y-134830807D01*
X135905055Y-134833077D01*
X135905056Y-134833077D01*
X135905060Y-134833079D01*
X135979003Y-134848346D01*
X135982410Y-134849102D01*
X136055812Y-134866500D01*
X136055815Y-134866500D01*
X136062986Y-134867339D01*
X136062979Y-134867392D01*
X136070594Y-134868170D01*
X136070599Y-134868117D01*
X136077789Y-134868746D01*
X136077793Y-134868745D01*
X136077794Y-134868746D01*
X136139827Y-134866940D01*
X136153196Y-134866552D01*
X136156802Y-134866500D01*
X139329500Y-134866500D01*
X139396539Y-134886185D01*
X139442294Y-134938989D01*
X139453500Y-134990500D01*
X139453500Y-137096000D01*
X139452191Y-137113969D01*
X139448684Y-137137908D01*
X139453028Y-137187545D01*
X139453500Y-137198354D01*
X139453500Y-137203946D01*
X139457116Y-137234885D01*
X139457482Y-137238470D01*
X139464056Y-137313610D01*
X139465516Y-137320677D01*
X139465464Y-137320687D01*
X139467123Y-137328167D01*
X139467174Y-137328155D01*
X139468840Y-137335185D01*
X139494621Y-137406020D01*
X139495804Y-137409423D01*
X139519533Y-137481029D01*
X139522586Y-137487575D01*
X139522536Y-137487598D01*
X139525876Y-137494497D01*
X139525925Y-137494473D01*
X139529167Y-137500930D01*
X139570613Y-137563946D01*
X139572550Y-137566986D01*
X139612131Y-137631156D01*
X139616611Y-137636822D01*
X139616569Y-137636855D01*
X139621401Y-137642786D01*
X139621443Y-137642752D01*
X139626088Y-137648288D01*
X139680938Y-137700036D01*
X139683525Y-137702549D01*
X139730834Y-137749858D01*
X139742615Y-137763490D01*
X139757061Y-137782894D01*
X139795238Y-137814928D01*
X139803214Y-137822238D01*
X139807154Y-137826179D01*
X139831610Y-137845516D01*
X139834407Y-137847795D01*
X139892172Y-137896267D01*
X139898209Y-137900237D01*
X139898179Y-137900282D01*
X139904638Y-137904396D01*
X139904667Y-137904350D01*
X139910807Y-137908137D01*
X139910809Y-137908139D01*
X139979157Y-137940010D01*
X139982375Y-137941568D01*
X140049787Y-137975423D01*
X140049789Y-137975424D01*
X140049791Y-137975424D01*
X140056579Y-137977895D01*
X140056560Y-137977947D01*
X140063785Y-137980458D01*
X140063803Y-137980407D01*
X140070655Y-137982677D01*
X140070656Y-137982677D01*
X140070660Y-137982679D01*
X140144603Y-137997946D01*
X140148010Y-137998702D01*
X140221412Y-138016100D01*
X140221415Y-138016100D01*
X140228586Y-138016939D01*
X140228579Y-138016992D01*
X140236194Y-138017770D01*
X140236199Y-138017717D01*
X140243389Y-138018346D01*
X140243393Y-138018345D01*
X140243394Y-138018346D01*
X140305427Y-138016540D01*
X140318796Y-138016152D01*
X140322402Y-138016100D01*
X142885500Y-138016100D01*
X142952539Y-138035785D01*
X142998294Y-138088589D01*
X143009500Y-138140100D01*
X143009500Y-138367500D01*
X142989815Y-138434539D01*
X142937011Y-138480294D01*
X142885500Y-138491500D01*
X135070959Y-138491500D01*
X135003920Y-138471815D01*
X134958165Y-138419011D01*
X134948221Y-138349853D01*
X134977246Y-138286297D01*
X134983278Y-138279819D01*
X135030494Y-138232602D01*
X135030725Y-138232273D01*
X135166035Y-138039029D01*
X135265903Y-137824863D01*
X135327063Y-137596608D01*
X135342500Y-137420166D01*
X135342500Y-137052234D01*
X135327063Y-136875792D01*
X135265903Y-136647537D01*
X135166035Y-136433371D01*
X135153936Y-136416091D01*
X135030494Y-136239797D01*
X134863402Y-136072706D01*
X134863395Y-136072701D01*
X134859590Y-136070037D01*
X134806632Y-136032955D01*
X134669834Y-135937167D01*
X134669830Y-135937165D01*
X134622160Y-135914936D01*
X134455663Y-135837297D01*
X134455659Y-135837296D01*
X134455655Y-135837294D01*
X134227413Y-135776138D01*
X134227403Y-135776136D01*
X133992001Y-135755541D01*
X133991999Y-135755541D01*
X133756596Y-135776136D01*
X133756586Y-135776138D01*
X133528344Y-135837294D01*
X133528335Y-135837298D01*
X133314171Y-135937164D01*
X133314169Y-135937165D01*
X133120597Y-136072705D01*
X132953505Y-136239797D01*
X132843575Y-136396795D01*
X132788998Y-136440420D01*
X132719500Y-136447614D01*
X132657145Y-136416091D01*
X132640425Y-136396795D01*
X132530494Y-136239797D01*
X132363402Y-136072706D01*
X132363395Y-136072701D01*
X132359590Y-136070037D01*
X132306632Y-136032955D01*
X132169834Y-135937167D01*
X132169830Y-135937165D01*
X132122160Y-135914936D01*
X131955663Y-135837297D01*
X131955659Y-135837296D01*
X131955655Y-135837294D01*
X131727413Y-135776138D01*
X131727403Y-135776136D01*
X131614721Y-135766277D01*
X131549653Y-135740824D01*
X131537849Y-135730430D01*
X129026376Y-133218957D01*
X129016531Y-133206668D01*
X129016313Y-133206849D01*
X129011340Y-133200838D01*
X128962153Y-133154648D01*
X128959354Y-133151935D01*
X128939797Y-133132377D01*
X128936607Y-133129903D01*
X128927716Y-133122310D01*
X128895768Y-133092308D01*
X128895763Y-133092304D01*
X128878122Y-133082606D01*
X128861857Y-133071922D01*
X128845963Y-133059593D01*
X128845962Y-133059592D01*
X128805735Y-133042184D01*
X128795247Y-133037045D01*
X128756838Y-133015929D01*
X128756828Y-133015926D01*
X128737334Y-133010920D01*
X128718933Y-133004620D01*
X128700459Y-132996626D01*
X128700452Y-132996624D01*
X128657173Y-132989770D01*
X128645733Y-132987401D01*
X128603279Y-132976500D01*
X128603272Y-132976500D01*
X128583142Y-132976500D01*
X128563743Y-132974973D01*
X128543868Y-132971825D01*
X128543867Y-132971825D01*
X128500230Y-132975950D01*
X128488561Y-132976500D01*
X121215281Y-132976500D01*
X121148242Y-132956815D01*
X121127600Y-132940181D01*
X120551819Y-132364400D01*
X120518334Y-132303077D01*
X120515500Y-132276719D01*
X120515500Y-129540000D01*
X122642723Y-129540000D01*
X122658015Y-129714798D01*
X122661793Y-129757975D01*
X122661793Y-129757979D01*
X122718422Y-129969322D01*
X122718424Y-129969326D01*
X122718425Y-129969330D01*
X122764661Y-130068484D01*
X122810897Y-130167638D01*
X122810898Y-130167639D01*
X122936402Y-130346877D01*
X123091123Y-130501598D01*
X123270361Y-130627102D01*
X123468670Y-130719575D01*
X123680023Y-130776207D01*
X123862926Y-130792208D01*
X123897998Y-130795277D01*
X123898000Y-130795277D01*
X123898002Y-130795277D01*
X123926254Y-130792805D01*
X124115977Y-130776207D01*
X124327330Y-130719575D01*
X124525639Y-130627102D01*
X124704877Y-130501598D01*
X124859598Y-130346877D01*
X124985102Y-130167639D01*
X125077575Y-129969330D01*
X125134207Y-129757977D01*
X125153277Y-129540000D01*
X127522723Y-129540000D01*
X127538015Y-129714798D01*
X127541793Y-129757975D01*
X127541793Y-129757979D01*
X127598422Y-129969322D01*
X127598424Y-129969326D01*
X127598425Y-129969330D01*
X127644661Y-130068484D01*
X127690897Y-130167638D01*
X127690898Y-130167639D01*
X127816402Y-130346877D01*
X127971123Y-130501598D01*
X128150361Y-130627102D01*
X128348670Y-130719575D01*
X128560023Y-130776207D01*
X128742926Y-130792208D01*
X128777998Y-130795277D01*
X128778000Y-130795277D01*
X128778002Y-130795277D01*
X128806254Y-130792805D01*
X128995977Y-130776207D01*
X129207330Y-130719575D01*
X129405639Y-130627102D01*
X129584877Y-130501598D01*
X129739598Y-130346877D01*
X129865102Y-130167639D01*
X129957575Y-129969330D01*
X130014207Y-129757977D01*
X130033277Y-129540000D01*
X130014207Y-129322023D01*
X129959361Y-129117335D01*
X129957577Y-129110677D01*
X129957576Y-129110676D01*
X129957575Y-129110670D01*
X129865102Y-128912362D01*
X129865100Y-128912359D01*
X129865099Y-128912357D01*
X129739599Y-128733124D01*
X129734614Y-128728139D01*
X129584877Y-128578402D01*
X129405639Y-128452898D01*
X129405640Y-128452898D01*
X129405638Y-128452897D01*
X129306484Y-128406661D01*
X129207330Y-128360425D01*
X129207326Y-128360424D01*
X129207322Y-128360422D01*
X128995977Y-128303793D01*
X128778002Y-128284723D01*
X128777998Y-128284723D01*
X128632682Y-128297436D01*
X128560023Y-128303793D01*
X128560020Y-128303793D01*
X128348677Y-128360422D01*
X128348668Y-128360426D01*
X128150361Y-128452898D01*
X128150357Y-128452900D01*
X127971121Y-128578402D01*
X127816402Y-128733121D01*
X127690900Y-128912357D01*
X127690898Y-128912361D01*
X127598426Y-129110668D01*
X127598422Y-129110677D01*
X127541793Y-129322020D01*
X127541793Y-129322024D01*
X127527168Y-129489197D01*
X127522723Y-129540000D01*
X125153277Y-129540000D01*
X125134207Y-129322023D01*
X125079361Y-129117335D01*
X125077577Y-129110677D01*
X125077576Y-129110676D01*
X125077575Y-129110670D01*
X124985102Y-128912362D01*
X124985100Y-128912359D01*
X124985099Y-128912357D01*
X124859599Y-128733124D01*
X124854614Y-128728139D01*
X124704877Y-128578402D01*
X124525639Y-128452898D01*
X124525640Y-128452898D01*
X124525638Y-128452897D01*
X124426484Y-128406661D01*
X124327330Y-128360425D01*
X124327326Y-128360424D01*
X124327322Y-128360422D01*
X124115977Y-128303793D01*
X123898002Y-128284723D01*
X123897998Y-128284723D01*
X123752682Y-128297436D01*
X123680023Y-128303793D01*
X123680020Y-128303793D01*
X123468677Y-128360422D01*
X123468668Y-128360426D01*
X123270361Y-128452898D01*
X123270357Y-128452900D01*
X123091121Y-128578402D01*
X122936402Y-128733121D01*
X122810900Y-128912357D01*
X122810898Y-128912361D01*
X122718426Y-129110668D01*
X122718422Y-129110677D01*
X122661793Y-129322020D01*
X122661793Y-129322024D01*
X122647168Y-129489197D01*
X122642723Y-129540000D01*
X120515500Y-129540000D01*
X120515500Y-127438564D01*
X120517228Y-127422913D01*
X120516946Y-127422887D01*
X120517680Y-127415124D01*
X120517440Y-127407501D01*
X120515561Y-127347681D01*
X120515500Y-127343787D01*
X120515500Y-127316130D01*
X120515500Y-127316124D01*
X120514993Y-127312119D01*
X120514077Y-127300471D01*
X120513798Y-127291585D01*
X120512701Y-127256658D01*
X120507082Y-127237318D01*
X120503139Y-127218285D01*
X120500616Y-127198307D01*
X120484481Y-127157555D01*
X120480698Y-127146507D01*
X120473602Y-127122081D01*
X120468468Y-127104409D01*
X120458219Y-127087080D01*
X120449664Y-127069616D01*
X120442253Y-127050897D01*
X120441501Y-127049862D01*
X120416490Y-127015437D01*
X120410074Y-127005670D01*
X120387768Y-126967951D01*
X120387766Y-126967948D01*
X120387764Y-126967945D01*
X120373530Y-126953711D01*
X120360894Y-126938917D01*
X120349062Y-126922632D01*
X120349058Y-126922628D01*
X120315287Y-126894690D01*
X120306647Y-126886828D01*
X118713976Y-125294157D01*
X118704131Y-125281868D01*
X118703913Y-125282049D01*
X118698940Y-125276038D01*
X118649753Y-125229848D01*
X118646954Y-125227135D01*
X118627397Y-125207577D01*
X118624207Y-125205103D01*
X118615316Y-125197510D01*
X118583368Y-125167508D01*
X118583363Y-125167504D01*
X118565722Y-125157806D01*
X118549457Y-125147122D01*
X118533563Y-125134793D01*
X118533562Y-125134792D01*
X118493335Y-125117384D01*
X118482847Y-125112245D01*
X118444438Y-125091129D01*
X118444428Y-125091126D01*
X118424934Y-125086120D01*
X118406533Y-125079820D01*
X118388059Y-125071826D01*
X118388052Y-125071824D01*
X118344773Y-125064970D01*
X118333333Y-125062601D01*
X118290879Y-125051700D01*
X118290872Y-125051700D01*
X118270742Y-125051700D01*
X118251343Y-125050173D01*
X118231468Y-125047025D01*
X118231467Y-125047025D01*
X118187830Y-125051150D01*
X118176161Y-125051700D01*
X116016700Y-125051700D01*
X115949661Y-125032015D01*
X115903906Y-124979211D01*
X115892700Y-124927700D01*
X115892700Y-124631387D01*
X115912385Y-124564348D01*
X115945577Y-124529812D01*
X115964879Y-124516297D01*
X116104339Y-124418647D01*
X116265247Y-124257739D01*
X116395768Y-124071334D01*
X116422818Y-124013324D01*
X116468990Y-123960885D01*
X116536183Y-123941733D01*
X116603065Y-123961948D01*
X116647582Y-124013325D01*
X116674629Y-124071328D01*
X116674632Y-124071334D01*
X116805154Y-124257741D01*
X116966058Y-124418645D01*
X117012893Y-124451439D01*
X117152466Y-124549168D01*
X117358704Y-124645339D01*
X117358709Y-124645340D01*
X117358711Y-124645341D01*
X117372408Y-124649011D01*
X117578508Y-124704235D01*
X117733202Y-124717769D01*
X117805198Y-124724068D01*
X117805200Y-124724068D01*
X117805202Y-124724068D01*
X117867585Y-124718610D01*
X118031892Y-124704235D01*
X118251696Y-124645339D01*
X118457934Y-124549168D01*
X118644339Y-124418647D01*
X118805247Y-124257739D01*
X118935768Y-124071334D01*
X118962818Y-124013324D01*
X119008990Y-123960885D01*
X119076183Y-123941733D01*
X119143065Y-123961948D01*
X119187582Y-124013325D01*
X119214629Y-124071328D01*
X119214632Y-124071334D01*
X119345154Y-124257741D01*
X119506058Y-124418645D01*
X119552893Y-124451439D01*
X119692466Y-124549168D01*
X119898704Y-124645339D01*
X119898709Y-124645340D01*
X119898711Y-124645341D01*
X119912408Y-124649011D01*
X120118508Y-124704235D01*
X120273202Y-124717769D01*
X120345198Y-124724068D01*
X120345200Y-124724068D01*
X120345202Y-124724068D01*
X120407585Y-124718610D01*
X120571892Y-124704235D01*
X120791696Y-124645339D01*
X120887498Y-124600665D01*
X120956572Y-124590174D01*
X121020356Y-124618693D01*
X121058596Y-124677169D01*
X121063900Y-124713048D01*
X121063900Y-125037432D01*
X121062172Y-125053081D01*
X121062454Y-125053108D01*
X121061719Y-125060875D01*
X121063839Y-125128317D01*
X121063900Y-125132211D01*
X121063900Y-125159876D01*
X121064406Y-125163885D01*
X121065321Y-125175516D01*
X121066698Y-125219342D01*
X121072316Y-125238675D01*
X121076262Y-125257729D01*
X121078783Y-125277687D01*
X121078786Y-125277699D01*
X121094919Y-125318448D01*
X121098702Y-125329498D01*
X121110930Y-125371587D01*
X121110930Y-125371588D01*
X121121177Y-125388915D01*
X121129735Y-125406385D01*
X121137145Y-125425101D01*
X121162911Y-125460564D01*
X121169325Y-125470329D01*
X121191634Y-125508052D01*
X121191640Y-125508060D01*
X121205869Y-125522288D01*
X121218506Y-125537084D01*
X121230337Y-125553367D01*
X121264117Y-125581312D01*
X121272746Y-125589165D01*
X121417624Y-125734043D01*
X121427471Y-125746333D01*
X121427689Y-125746154D01*
X121432657Y-125752159D01*
X121432659Y-125752161D01*
X121432660Y-125752162D01*
X121475435Y-125792331D01*
X121481846Y-125798351D01*
X121484643Y-125801062D01*
X121504207Y-125820626D01*
X121507385Y-125823090D01*
X121516279Y-125830685D01*
X121522467Y-125836496D01*
X121548235Y-125860695D01*
X121548237Y-125860696D01*
X121565867Y-125870387D01*
X121582135Y-125881072D01*
X121598038Y-125893408D01*
X121598040Y-125893409D01*
X121598042Y-125893410D01*
X121617942Y-125902021D01*
X121638260Y-125910813D01*
X121648749Y-125915951D01*
X121687166Y-125937072D01*
X121706667Y-125942079D01*
X121725061Y-125948376D01*
X121743541Y-125956373D01*
X121786841Y-125963230D01*
X121798248Y-125965592D01*
X121840728Y-125976500D01*
X121860859Y-125976500D01*
X121880256Y-125978026D01*
X121900133Y-125981175D01*
X121940208Y-125977386D01*
X121943770Y-125977050D01*
X121955439Y-125976500D01*
X133659962Y-125976500D01*
X133683198Y-125978697D01*
X133691277Y-125980238D01*
X133691284Y-125980238D01*
X133691286Y-125980239D01*
X133691287Y-125980238D01*
X133691288Y-125980239D01*
X133746822Y-125976745D01*
X133754608Y-125976500D01*
X133770469Y-125976500D01*
X133770476Y-125976500D01*
X133786248Y-125974507D01*
X133793957Y-125973778D01*
X133849516Y-125970284D01*
X133857338Y-125967741D01*
X133880128Y-125962647D01*
X133888293Y-125961616D01*
X133940070Y-125941115D01*
X133947343Y-125938496D01*
X134000300Y-125921291D01*
X134007242Y-125916884D01*
X134028050Y-125906282D01*
X134035703Y-125903253D01*
X134080735Y-125870533D01*
X134087154Y-125866171D01*
X134134162Y-125836340D01*
X134139798Y-125830337D01*
X134157311Y-125814897D01*
X134163967Y-125810063D01*
X134199449Y-125767170D01*
X134204573Y-125761359D01*
X134242693Y-125720767D01*
X134246663Y-125713543D01*
X134259784Y-125694239D01*
X134265025Y-125687904D01*
X134265027Y-125687901D01*
X134267803Y-125682001D01*
X134288726Y-125637535D01*
X134292239Y-125630639D01*
X134319072Y-125581834D01*
X134319073Y-125581829D01*
X134322399Y-125575780D01*
X134343375Y-125547842D01*
X135172609Y-124718608D01*
X135233930Y-124685125D01*
X135292380Y-124686515D01*
X135358508Y-124704235D01*
X135513202Y-124717769D01*
X135585198Y-124724068D01*
X135585200Y-124724068D01*
X135585202Y-124724068D01*
X135647585Y-124718610D01*
X135811892Y-124704235D01*
X136031696Y-124645339D01*
X136237934Y-124549168D01*
X136424339Y-124418647D01*
X136585247Y-124257739D01*
X136715768Y-124071334D01*
X136742818Y-124013324D01*
X136788990Y-123960885D01*
X136856183Y-123941733D01*
X136923065Y-123961948D01*
X136967582Y-124013325D01*
X136994629Y-124071328D01*
X136994632Y-124071334D01*
X137125154Y-124257741D01*
X137286058Y-124418645D01*
X137332893Y-124451439D01*
X137472466Y-124549168D01*
X137678704Y-124645339D01*
X137678709Y-124645340D01*
X137678711Y-124645341D01*
X137692408Y-124649011D01*
X137898508Y-124704235D01*
X138053202Y-124717769D01*
X138125198Y-124724068D01*
X138125200Y-124724068D01*
X138125202Y-124724068D01*
X138187585Y-124718610D01*
X138351892Y-124704235D01*
X138571696Y-124645339D01*
X138777934Y-124549168D01*
X138964339Y-124418647D01*
X139125247Y-124257739D01*
X139255768Y-124071334D01*
X139282818Y-124013324D01*
X139328990Y-123960885D01*
X139396183Y-123941733D01*
X139463065Y-123961948D01*
X139507582Y-124013325D01*
X139534629Y-124071328D01*
X139534632Y-124071334D01*
X139665154Y-124257741D01*
X139826058Y-124418645D01*
X139872893Y-124451439D01*
X140012466Y-124549168D01*
X140218704Y-124645339D01*
X140218709Y-124645340D01*
X140218711Y-124645341D01*
X140232408Y-124649011D01*
X140438508Y-124704235D01*
X140593202Y-124717769D01*
X140665198Y-124724068D01*
X140665200Y-124724068D01*
X140665202Y-124724068D01*
X140727585Y-124718610D01*
X140891892Y-124704235D01*
X141111696Y-124645339D01*
X141317934Y-124549168D01*
X141504339Y-124418647D01*
X141665247Y-124257739D01*
X141795768Y-124071334D01*
X141822818Y-124013324D01*
X141868990Y-123960885D01*
X141936183Y-123941733D01*
X142003065Y-123961948D01*
X142047582Y-124013325D01*
X142074629Y-124071328D01*
X142074632Y-124071334D01*
X142205154Y-124257741D01*
X142366058Y-124418645D01*
X142412893Y-124451439D01*
X142552466Y-124549168D01*
X142758704Y-124645339D01*
X142758709Y-124645340D01*
X142758711Y-124645341D01*
X142772408Y-124649011D01*
X142978508Y-124704235D01*
X143133202Y-124717769D01*
X143205198Y-124724068D01*
X143205200Y-124724068D01*
X143205202Y-124724068D01*
X143267585Y-124718610D01*
X143431892Y-124704235D01*
X143651696Y-124645339D01*
X143857934Y-124549168D01*
X144044339Y-124418647D01*
X144205247Y-124257739D01*
X144335768Y-124071334D01*
X144431939Y-123865096D01*
X144490835Y-123645292D01*
X144510668Y-123418600D01*
X144490835Y-123191908D01*
X144473116Y-123125781D01*
X144474779Y-123055932D01*
X144505208Y-123006009D01*
X145419043Y-122092174D01*
X145431325Y-122082337D01*
X145431144Y-122082118D01*
X145437157Y-122077142D01*
X145437162Y-122077140D01*
X145483384Y-122027916D01*
X145486033Y-122025184D01*
X145505623Y-122005596D01*
X145508096Y-122002406D01*
X145515682Y-121993522D01*
X145545693Y-121961567D01*
X145555389Y-121943928D01*
X145566073Y-121927661D01*
X145578408Y-121911762D01*
X145595819Y-121871525D01*
X145600942Y-121861065D01*
X145622072Y-121822634D01*
X145627078Y-121803134D01*
X145633376Y-121784736D01*
X145641374Y-121766258D01*
X145648232Y-121722951D01*
X145650596Y-121711536D01*
X145661500Y-121669072D01*
X145661500Y-121648941D01*
X145663027Y-121629541D01*
X145666175Y-121609667D01*
X145662050Y-121566030D01*
X145661500Y-121554361D01*
X145661500Y-116059364D01*
X145663228Y-116043713D01*
X145662946Y-116043687D01*
X145663680Y-116035924D01*
X145661561Y-115968481D01*
X145661500Y-115964587D01*
X145661500Y-115936930D01*
X145661500Y-115936924D01*
X145660993Y-115932919D01*
X145660077Y-115921271D01*
X145658701Y-115877458D01*
X145653080Y-115858111D01*
X145649137Y-115839065D01*
X145646616Y-115819107D01*
X145630480Y-115778352D01*
X145626702Y-115767316D01*
X145614469Y-115725209D01*
X145604213Y-115707867D01*
X145595662Y-115690410D01*
X145588253Y-115671697D01*
X145562485Y-115636231D01*
X145556080Y-115626480D01*
X145533764Y-115588745D01*
X145533760Y-115588740D01*
X145519531Y-115574512D01*
X145506896Y-115559720D01*
X145495063Y-115543433D01*
X145495060Y-115543431D01*
X145495060Y-115543430D01*
X145495058Y-115543428D01*
X145461287Y-115515490D01*
X145452647Y-115507628D01*
X142894776Y-112949757D01*
X142884931Y-112937468D01*
X142884713Y-112937649D01*
X142879740Y-112931638D01*
X142830553Y-112885448D01*
X142827754Y-112882735D01*
X142808197Y-112863177D01*
X142805007Y-112860703D01*
X142796116Y-112853110D01*
X142764168Y-112823108D01*
X142764163Y-112823104D01*
X142746522Y-112813406D01*
X142730257Y-112802722D01*
X142714363Y-112790393D01*
X142714362Y-112790392D01*
X142674135Y-112772984D01*
X142663647Y-112767845D01*
X142625238Y-112746729D01*
X142625228Y-112746726D01*
X142605734Y-112741720D01*
X142587333Y-112735420D01*
X142568859Y-112727426D01*
X142568852Y-112727424D01*
X142525573Y-112720570D01*
X142514133Y-112718201D01*
X142471679Y-112707300D01*
X142471672Y-112707300D01*
X142451542Y-112707300D01*
X142432143Y-112705773D01*
X142412268Y-112702625D01*
X142412267Y-112702625D01*
X142368630Y-112706750D01*
X142356961Y-112707300D01*
X132217552Y-112707300D01*
X132162780Y-112691522D01*
X132161713Y-112693740D01*
X132155441Y-112690719D01*
X131994951Y-112634561D01*
X131826003Y-112615526D01*
X131825997Y-112615526D01*
X131657048Y-112634561D01*
X131496560Y-112690719D01*
X131449672Y-112720181D01*
X131382435Y-112739181D01*
X131315600Y-112718813D01*
X131270386Y-112665545D01*
X131259700Y-112615187D01*
X131259700Y-112100237D01*
X131279385Y-112033198D01*
X131332189Y-111987443D01*
X131401347Y-111977499D01*
X131415780Y-111980459D01*
X131599308Y-112029635D01*
X131761230Y-112043801D01*
X131825998Y-112049468D01*
X131826000Y-112049468D01*
X131826002Y-112049468D01*
X131882673Y-112044509D01*
X132052692Y-112029635D01*
X132272496Y-111970739D01*
X132478734Y-111874568D01*
X132665139Y-111744047D01*
X132826047Y-111583139D01*
X132956568Y-111396734D01*
X133052739Y-111190496D01*
X133111635Y-110970692D01*
X133131468Y-110744000D01*
X133111635Y-110517308D01*
X133052739Y-110297504D01*
X132956568Y-110091266D01*
X132895042Y-110003397D01*
X132833583Y-109915623D01*
X132811256Y-109849416D01*
X132828267Y-109781649D01*
X132879215Y-109733837D01*
X132935158Y-109720500D01*
X145101914Y-109720500D01*
X145168953Y-109740185D01*
G37*
%TD.AperFunction*%
%TA.AperFunction,Conductor*%
G36*
X123555481Y-137036849D02*
G01*
X123517000Y-137167905D01*
X123517000Y-137304495D01*
X123555481Y-137435551D01*
X123588031Y-137486200D01*
X121895969Y-137486200D01*
X121928519Y-137435551D01*
X121967000Y-137304495D01*
X121967000Y-137167905D01*
X121928519Y-137036849D01*
X121895969Y-136986200D01*
X123588031Y-136986200D01*
X123555481Y-137036849D01*
G37*
%TD.AperFunction*%
%TA.AperFunction,Conductor*%
G36*
X129568434Y-117904903D02*
G01*
X129624367Y-117946775D01*
X129648784Y-118012239D01*
X129649100Y-118021085D01*
X129649100Y-120211432D01*
X129647372Y-120227081D01*
X129647654Y-120227108D01*
X129646919Y-120234875D01*
X129649039Y-120302317D01*
X129649100Y-120306211D01*
X129649100Y-120333876D01*
X129649606Y-120337885D01*
X129650521Y-120349516D01*
X129651898Y-120393342D01*
X129654418Y-120402015D01*
X129657278Y-120411858D01*
X129657516Y-120412675D01*
X129661462Y-120431729D01*
X129663983Y-120451687D01*
X129663986Y-120451699D01*
X129680119Y-120492448D01*
X129683902Y-120503498D01*
X129696130Y-120545587D01*
X129696130Y-120545588D01*
X129706377Y-120562915D01*
X129714935Y-120580385D01*
X129722345Y-120599101D01*
X129748111Y-120634564D01*
X129754525Y-120644329D01*
X129776834Y-120682052D01*
X129776840Y-120682060D01*
X129791069Y-120696288D01*
X129803709Y-120711087D01*
X129815536Y-120727366D01*
X129830726Y-120739932D01*
X129836571Y-120745085D01*
X129840059Y-120748360D01*
X129840060Y-120748362D01*
X129884838Y-120790412D01*
X129889247Y-120794552D01*
X129892043Y-120797262D01*
X129911607Y-120816826D01*
X129914785Y-120819290D01*
X129923681Y-120826887D01*
X129955635Y-120856895D01*
X129955637Y-120856896D01*
X129973268Y-120866588D01*
X129989537Y-120877274D01*
X130005437Y-120889607D01*
X130005438Y-120889608D01*
X130045662Y-120907015D01*
X130056154Y-120912155D01*
X130094561Y-120933270D01*
X130094564Y-120933271D01*
X130094566Y-120933272D01*
X130114059Y-120938276D01*
X130132467Y-120944579D01*
X130150941Y-120952574D01*
X130194244Y-120959431D01*
X130205671Y-120961798D01*
X130248128Y-120972700D01*
X130268258Y-120972700D01*
X130287655Y-120974226D01*
X130307533Y-120977375D01*
X130348112Y-120973539D01*
X130351170Y-120973250D01*
X130362839Y-120972700D01*
X139337919Y-120972700D01*
X139404958Y-120992385D01*
X139425600Y-121009019D01*
X140001381Y-121584800D01*
X140034866Y-121646123D01*
X140037700Y-121672481D01*
X140037700Y-122205812D01*
X140018015Y-122272851D01*
X139984823Y-122307387D01*
X139826058Y-122418554D01*
X139665154Y-122579458D01*
X139534632Y-122765865D01*
X139534631Y-122765867D01*
X139507582Y-122823875D01*
X139461409Y-122876314D01*
X139394216Y-122895466D01*
X139327335Y-122875250D01*
X139282818Y-122823875D01*
X139255886Y-122766120D01*
X139255768Y-122765866D01*
X139125247Y-122579461D01*
X139125245Y-122579458D01*
X138964341Y-122418554D01*
X138777934Y-122288032D01*
X138777932Y-122288031D01*
X138571697Y-122191861D01*
X138571688Y-122191858D01*
X138351897Y-122132966D01*
X138351893Y-122132965D01*
X138351892Y-122132965D01*
X138351891Y-122132964D01*
X138351886Y-122132964D01*
X138125202Y-122113132D01*
X138125198Y-122113132D01*
X137898513Y-122132964D01*
X137898502Y-122132966D01*
X137678711Y-122191858D01*
X137678702Y-122191861D01*
X137472467Y-122288031D01*
X137472465Y-122288032D01*
X137286058Y-122418554D01*
X137125154Y-122579458D01*
X136994632Y-122765865D01*
X136994631Y-122765867D01*
X136967582Y-122823875D01*
X136921409Y-122876314D01*
X136854216Y-122895466D01*
X136787335Y-122875250D01*
X136742818Y-122823875D01*
X136715886Y-122766120D01*
X136715768Y-122765866D01*
X136585247Y-122579461D01*
X136585245Y-122579458D01*
X136424341Y-122418554D01*
X136237934Y-122288032D01*
X136237932Y-122288031D01*
X136031697Y-122191861D01*
X136031688Y-122191858D01*
X135811897Y-122132966D01*
X135811893Y-122132965D01*
X135811892Y-122132965D01*
X135811891Y-122132964D01*
X135811886Y-122132964D01*
X135585202Y-122113132D01*
X135585198Y-122113132D01*
X135358513Y-122132964D01*
X135358502Y-122132966D01*
X135138711Y-122191858D01*
X135138702Y-122191861D01*
X134932467Y-122288031D01*
X134932465Y-122288032D01*
X134746058Y-122418554D01*
X134585154Y-122579458D01*
X134454632Y-122765865D01*
X134454631Y-122765867D01*
X134427582Y-122823875D01*
X134381409Y-122876314D01*
X134314216Y-122895466D01*
X134247335Y-122875250D01*
X134202818Y-122823875D01*
X134175886Y-122766120D01*
X134175768Y-122765866D01*
X134045247Y-122579461D01*
X134045245Y-122579458D01*
X133884341Y-122418554D01*
X133697934Y-122288032D01*
X133697932Y-122288031D01*
X133491697Y-122191861D01*
X133491688Y-122191858D01*
X133271897Y-122132966D01*
X133271893Y-122132965D01*
X133271892Y-122132965D01*
X133271891Y-122132964D01*
X133271886Y-122132964D01*
X133045202Y-122113132D01*
X133045198Y-122113132D01*
X132818513Y-122132964D01*
X132818502Y-122132966D01*
X132598711Y-122191858D01*
X132598702Y-122191861D01*
X132392467Y-122288031D01*
X132392465Y-122288032D01*
X132206058Y-122418554D01*
X132045154Y-122579458D01*
X131914632Y-122765865D01*
X131914631Y-122765867D01*
X131887582Y-122823875D01*
X131841409Y-122876314D01*
X131774216Y-122895466D01*
X131707335Y-122875250D01*
X131662818Y-122823875D01*
X131635886Y-122766120D01*
X131635768Y-122765866D01*
X131505247Y-122579461D01*
X131505245Y-122579458D01*
X131344341Y-122418554D01*
X131157934Y-122288032D01*
X131157932Y-122288031D01*
X130951697Y-122191861D01*
X130951688Y-122191858D01*
X130731897Y-122132966D01*
X130731893Y-122132965D01*
X130731892Y-122132965D01*
X130731891Y-122132964D01*
X130731886Y-122132964D01*
X130505202Y-122113132D01*
X130505198Y-122113132D01*
X130278513Y-122132964D01*
X130278502Y-122132966D01*
X130058711Y-122191858D01*
X130058702Y-122191861D01*
X129852467Y-122288031D01*
X129852465Y-122288032D01*
X129666058Y-122418554D01*
X129505154Y-122579458D01*
X129384210Y-122752187D01*
X129374632Y-122765866D01*
X129374515Y-122766118D01*
X129347306Y-122824467D01*
X129301133Y-122876906D01*
X129233939Y-122896057D01*
X129167058Y-122875841D01*
X129122542Y-122824465D01*
X129095335Y-122766120D01*
X129095334Y-122766118D01*
X128964857Y-122579779D01*
X128804020Y-122418942D01*
X128617682Y-122288465D01*
X128411528Y-122192334D01*
X128215200Y-122139727D01*
X128215200Y-123102914D01*
X128203245Y-123090959D01*
X128090348Y-123033435D01*
X127996681Y-123018600D01*
X127933719Y-123018600D01*
X127840052Y-123033435D01*
X127727155Y-123090959D01*
X127715200Y-123102914D01*
X127715200Y-122139727D01*
X127518871Y-122192334D01*
X127312717Y-122288465D01*
X127126379Y-122418942D01*
X126965542Y-122579779D01*
X126835067Y-122766115D01*
X126807857Y-122824467D01*
X126761684Y-122876906D01*
X126694490Y-122896057D01*
X126627609Y-122875841D01*
X126583093Y-122824465D01*
X126555885Y-122766118D01*
X126555768Y-122765866D01*
X126490507Y-122672663D01*
X126425248Y-122579462D01*
X126349183Y-122503397D01*
X126264339Y-122418553D01*
X126232574Y-122396310D01*
X126188951Y-122341735D01*
X126179700Y-122294738D01*
X126179700Y-121242485D01*
X126199385Y-121175446D01*
X126216014Y-121154809D01*
X129437419Y-117933403D01*
X129498742Y-117899919D01*
X129568434Y-117904903D01*
G37*
%TD.AperFunction*%
%TA.AperFunction,Conductor*%
G36*
X125675200Y-117077472D02*
G01*
X125871517Y-117024869D01*
X125871526Y-117024865D01*
X126077682Y-116928734D01*
X126264020Y-116798257D01*
X126424857Y-116637420D01*
X126555332Y-116451084D01*
X126582541Y-116392734D01*
X126628713Y-116340295D01*
X126695907Y-116321142D01*
X126762788Y-116341357D01*
X126807306Y-116392733D01*
X126834631Y-116451332D01*
X126834632Y-116451334D01*
X126965154Y-116637741D01*
X127126058Y-116798645D01*
X127126061Y-116798647D01*
X127312466Y-116929168D01*
X127518704Y-117025339D01*
X127738508Y-117084235D01*
X127854325Y-117094367D01*
X127919393Y-117119819D01*
X127960372Y-117176410D01*
X127964250Y-117246172D01*
X127931198Y-117305576D01*
X124936942Y-120299832D01*
X124923313Y-120311611D01*
X124903907Y-120326059D01*
X124871874Y-120364233D01*
X124864587Y-120372186D01*
X124860620Y-120376154D01*
X124860618Y-120376156D01*
X124841289Y-120400601D01*
X124839015Y-120403393D01*
X124790534Y-120461171D01*
X124786566Y-120467205D01*
X124786522Y-120467176D01*
X124782409Y-120473631D01*
X124782454Y-120473659D01*
X124778662Y-120479806D01*
X124746781Y-120548172D01*
X124745212Y-120551412D01*
X124711375Y-120618791D01*
X124708904Y-120625579D01*
X124708855Y-120625561D01*
X124706341Y-120632793D01*
X124706391Y-120632810D01*
X124704120Y-120639662D01*
X124688871Y-120713511D01*
X124688091Y-120717030D01*
X124670699Y-120790416D01*
X124669861Y-120797587D01*
X124669807Y-120797580D01*
X124669030Y-120805196D01*
X124669083Y-120805201D01*
X124668453Y-120812390D01*
X124670648Y-120887793D01*
X124670700Y-120891400D01*
X124670700Y-122294738D01*
X124651015Y-122361777D01*
X124617826Y-122396310D01*
X124586061Y-122418553D01*
X124425151Y-122579462D01*
X124294632Y-122765865D01*
X124294631Y-122765867D01*
X124267582Y-122823875D01*
X124221409Y-122876314D01*
X124154216Y-122895466D01*
X124087335Y-122875250D01*
X124042818Y-122823875D01*
X124015886Y-122766120D01*
X124015768Y-122765866D01*
X123885247Y-122579461D01*
X123885245Y-122579458D01*
X123724341Y-122418554D01*
X123537934Y-122288032D01*
X123537932Y-122288031D01*
X123331697Y-122191861D01*
X123331688Y-122191858D01*
X123111897Y-122132966D01*
X123111893Y-122132965D01*
X123111892Y-122132965D01*
X123111891Y-122132964D01*
X123111886Y-122132964D01*
X122885202Y-122113132D01*
X122885198Y-122113132D01*
X122658513Y-122132964D01*
X122658502Y-122132966D01*
X122474993Y-122182137D01*
X122405143Y-122180474D01*
X122347281Y-122141311D01*
X122319777Y-122077083D01*
X122318900Y-122062362D01*
X122318900Y-117154837D01*
X122338585Y-117087798D01*
X122391389Y-117042043D01*
X122460547Y-117032099D01*
X122474980Y-117035059D01*
X122658508Y-117084235D01*
X122801281Y-117096726D01*
X122885198Y-117104068D01*
X122885200Y-117104068D01*
X122885202Y-117104068D01*
X122941873Y-117099109D01*
X123111892Y-117084235D01*
X123331696Y-117025339D01*
X123537934Y-116929168D01*
X123724339Y-116798647D01*
X123885247Y-116637739D01*
X124015768Y-116451334D01*
X124043095Y-116392729D01*
X124089264Y-116340295D01*
X124156457Y-116321142D01*
X124223339Y-116341357D01*
X124267857Y-116392733D01*
X124295065Y-116451082D01*
X124425542Y-116637420D01*
X124586379Y-116798257D01*
X124772717Y-116928734D01*
X124978873Y-117024865D01*
X124978882Y-117024869D01*
X125175199Y-117077472D01*
X125175200Y-117077471D01*
X125175200Y-116114286D01*
X125187155Y-116126241D01*
X125300052Y-116183765D01*
X125393719Y-116198600D01*
X125456681Y-116198600D01*
X125550348Y-116183765D01*
X125663245Y-116126241D01*
X125675200Y-116114286D01*
X125675200Y-117077472D01*
G37*
%TD.AperFunction*%
%TA.AperFunction,Conductor*%
G36*
X142003065Y-116341948D02*
G01*
X142047582Y-116393325D01*
X142074629Y-116451328D01*
X142074632Y-116451334D01*
X142205154Y-116637741D01*
X142366058Y-116798645D01*
X142366061Y-116798647D01*
X142552466Y-116929168D01*
X142758704Y-117025339D01*
X142978508Y-117084235D01*
X143121281Y-117096726D01*
X143205198Y-117104068D01*
X143205200Y-117104068D01*
X143205202Y-117104068D01*
X143261873Y-117099109D01*
X143431892Y-117084235D01*
X143651696Y-117025339D01*
X143857934Y-116929168D01*
X144044339Y-116798647D01*
X144115983Y-116727003D01*
X144194819Y-116648168D01*
X144256142Y-116614683D01*
X144325834Y-116619667D01*
X144381767Y-116661539D01*
X144406184Y-116727003D01*
X144406500Y-116735849D01*
X144406500Y-121278518D01*
X144386815Y-121345557D01*
X144370181Y-121366199D01*
X143617790Y-122118589D01*
X143556467Y-122152074D01*
X143498016Y-122150683D01*
X143463040Y-122141311D01*
X143431894Y-122132965D01*
X143431886Y-122132964D01*
X143205202Y-122113132D01*
X143205198Y-122113132D01*
X142978513Y-122132964D01*
X142978502Y-122132966D01*
X142758711Y-122191858D01*
X142758702Y-122191861D01*
X142552467Y-122288031D01*
X142552465Y-122288032D01*
X142366058Y-122418554D01*
X142205154Y-122579458D01*
X142074632Y-122765865D01*
X142074631Y-122765867D01*
X142047582Y-122823875D01*
X142001409Y-122876314D01*
X141934216Y-122895466D01*
X141867335Y-122875250D01*
X141822818Y-122823875D01*
X141795886Y-122766120D01*
X141795768Y-122765866D01*
X141665247Y-122579461D01*
X141665245Y-122579458D01*
X141504341Y-122418554D01*
X141345577Y-122307387D01*
X141301952Y-122252810D01*
X141292700Y-122205812D01*
X141292700Y-121444164D01*
X141294428Y-121428513D01*
X141294146Y-121428487D01*
X141294880Y-121420724D01*
X141292761Y-121353281D01*
X141292700Y-121349387D01*
X141292700Y-121321730D01*
X141292700Y-121321724D01*
X141292193Y-121317719D01*
X141291277Y-121306071D01*
X141290558Y-121283188D01*
X141289901Y-121262257D01*
X141284284Y-121242927D01*
X141280338Y-121223868D01*
X141277817Y-121203911D01*
X141277816Y-121203908D01*
X141272754Y-121191124D01*
X141261681Y-121163155D01*
X141257898Y-121152107D01*
X141245727Y-121110213D01*
X141245668Y-121110009D01*
X141245667Y-121110007D01*
X141235425Y-121092689D01*
X141226862Y-121075211D01*
X141219453Y-121056497D01*
X141193689Y-121021037D01*
X141187273Y-121011269D01*
X141185942Y-121009019D01*
X141164963Y-120973544D01*
X141164962Y-120973543D01*
X141164959Y-120973539D01*
X141150731Y-120959312D01*
X141138096Y-120944520D01*
X141126263Y-120928233D01*
X141126260Y-120928231D01*
X141126260Y-120928230D01*
X141126258Y-120928228D01*
X141092487Y-120900290D01*
X141083847Y-120892428D01*
X140664600Y-120473181D01*
X140631115Y-120411858D01*
X140636099Y-120342166D01*
X140677971Y-120286233D01*
X140743435Y-120261816D01*
X140752281Y-120261500D01*
X140755469Y-120261500D01*
X140755476Y-120261500D01*
X140771248Y-120259507D01*
X140778957Y-120258778D01*
X140834516Y-120255284D01*
X140842338Y-120252741D01*
X140865128Y-120247647D01*
X140873293Y-120246616D01*
X140925070Y-120226115D01*
X140932343Y-120223496D01*
X140985300Y-120206291D01*
X140992242Y-120201884D01*
X141013050Y-120191282D01*
X141020703Y-120188253D01*
X141065735Y-120155533D01*
X141072154Y-120151171D01*
X141119162Y-120121340D01*
X141124798Y-120115337D01*
X141142311Y-120099897D01*
X141148967Y-120095063D01*
X141184449Y-120052170D01*
X141189573Y-120046359D01*
X141227693Y-120005767D01*
X141231663Y-119998543D01*
X141244784Y-119979239D01*
X141250025Y-119972904D01*
X141250027Y-119972901D01*
X141256529Y-119959083D01*
X141273726Y-119922535D01*
X141277233Y-119915652D01*
X141304072Y-119866834D01*
X141306119Y-119858856D01*
X141314026Y-119836896D01*
X141317531Y-119829449D01*
X141327961Y-119774767D01*
X141329648Y-119767218D01*
X141343500Y-119713272D01*
X141343500Y-119705036D01*
X141345696Y-119681803D01*
X141345836Y-119681063D01*
X141347239Y-119673714D01*
X141343745Y-119618178D01*
X141343500Y-119610392D01*
X141343500Y-116975816D01*
X141363185Y-116908777D01*
X141396375Y-116874242D01*
X141504339Y-116798647D01*
X141665247Y-116637739D01*
X141795768Y-116451334D01*
X141822818Y-116393324D01*
X141868990Y-116340885D01*
X141936183Y-116321733D01*
X142003065Y-116341948D01*
G37*
%TD.AperFunction*%
%TA.AperFunction,Conductor*%
G36*
X128896760Y-110628506D02*
G01*
X128947019Y-110660085D01*
X128956563Y-110666082D01*
X129078521Y-110708756D01*
X129117048Y-110722238D01*
X129285997Y-110741274D01*
X129286000Y-110741274D01*
X129286003Y-110741274D01*
X129454954Y-110722237D01*
X129454956Y-110722237D01*
X129582070Y-110677758D01*
X129651849Y-110674196D01*
X129712476Y-110708924D01*
X129744704Y-110770918D01*
X129746815Y-110787585D01*
X129746848Y-110788166D01*
X129748816Y-110799322D01*
X129750700Y-110820856D01*
X129750700Y-114674738D01*
X129731015Y-114741777D01*
X129697826Y-114776310D01*
X129666061Y-114798553D01*
X129505151Y-114959462D01*
X129374632Y-115145865D01*
X129374631Y-115145867D01*
X129347582Y-115203875D01*
X129301409Y-115256314D01*
X129234216Y-115275466D01*
X129167335Y-115255250D01*
X129122818Y-115203875D01*
X129108432Y-115173024D01*
X129095768Y-115145866D01*
X128965247Y-114959461D01*
X128965245Y-114959458D01*
X128804341Y-114798554D01*
X128617934Y-114668032D01*
X128617932Y-114668031D01*
X128411697Y-114571861D01*
X128411688Y-114571858D01*
X128191897Y-114512966D01*
X128191893Y-114512965D01*
X128191892Y-114512965D01*
X128191891Y-114512964D01*
X128191886Y-114512964D01*
X127965202Y-114493132D01*
X127965198Y-114493132D01*
X127738513Y-114512964D01*
X127738502Y-114512966D01*
X127518711Y-114571858D01*
X127518702Y-114571861D01*
X127312467Y-114668031D01*
X127312465Y-114668032D01*
X127126058Y-114798554D01*
X126965154Y-114959458D01*
X126834633Y-115145864D01*
X126834632Y-115145866D01*
X126821969Y-115173023D01*
X126807306Y-115204467D01*
X126761133Y-115256906D01*
X126693939Y-115276057D01*
X126627058Y-115255841D01*
X126582542Y-115204465D01*
X126555335Y-115146120D01*
X126555334Y-115146118D01*
X126424857Y-114959779D01*
X126264020Y-114798942D01*
X126077682Y-114668465D01*
X125871528Y-114572334D01*
X125675200Y-114519727D01*
X125675200Y-115482914D01*
X125663245Y-115470959D01*
X125550348Y-115413435D01*
X125456681Y-115398600D01*
X125393719Y-115398600D01*
X125300052Y-115413435D01*
X125187155Y-115470959D01*
X125175200Y-115482914D01*
X125175200Y-114519727D01*
X124978871Y-114572334D01*
X124772717Y-114668465D01*
X124586379Y-114798942D01*
X124425542Y-114959779D01*
X124295067Y-115146115D01*
X124267857Y-115204467D01*
X124221684Y-115256906D01*
X124154490Y-115276057D01*
X124087609Y-115255841D01*
X124043093Y-115204465D01*
X124039598Y-115196971D01*
X124015768Y-115145866D01*
X123885247Y-114959461D01*
X123885245Y-114959458D01*
X123724341Y-114798554D01*
X123537934Y-114668032D01*
X123537932Y-114668031D01*
X123331697Y-114571861D01*
X123331688Y-114571858D01*
X123111897Y-114512966D01*
X123111893Y-114512965D01*
X123111892Y-114512965D01*
X123111891Y-114512964D01*
X123111886Y-114512964D01*
X122885202Y-114493132D01*
X122885198Y-114493132D01*
X122658513Y-114512964D01*
X122658502Y-114512966D01*
X122474993Y-114562137D01*
X122405143Y-114560474D01*
X122347281Y-114521311D01*
X122319777Y-114457083D01*
X122318900Y-114442362D01*
X122318900Y-113569881D01*
X122338585Y-113502842D01*
X122355219Y-113482200D01*
X125191600Y-110645819D01*
X125252923Y-110612334D01*
X125279281Y-110609500D01*
X128830789Y-110609500D01*
X128896760Y-110628506D01*
G37*
%TD.AperFunction*%
%TA.AperFunction,Conductor*%
G36*
X135673347Y-100520185D02*
G01*
X135719102Y-100572989D01*
X135729046Y-100642147D01*
X135700021Y-100705703D01*
X135671404Y-100730039D01*
X135532544Y-100815687D01*
X135408489Y-100939742D01*
X135316387Y-101089063D01*
X135316385Y-101089068D01*
X135300394Y-101137326D01*
X135261201Y-101255603D01*
X135261201Y-101255604D01*
X135261200Y-101255604D01*
X135250700Y-101358383D01*
X135250700Y-102908401D01*
X135250701Y-102908418D01*
X135261200Y-103011196D01*
X135261201Y-103011199D01*
X135316385Y-103177731D01*
X135316387Y-103177736D01*
X135338547Y-103213663D01*
X135408488Y-103327056D01*
X135532544Y-103451112D01*
X135681866Y-103543214D01*
X135848403Y-103598399D01*
X135859392Y-103599521D01*
X135862302Y-103599819D01*
X135926994Y-103626215D01*
X135967146Y-103683396D01*
X135973700Y-103723177D01*
X135973700Y-104742832D01*
X135971972Y-104758481D01*
X135972254Y-104758508D01*
X135971519Y-104766275D01*
X135973639Y-104833717D01*
X135973700Y-104837611D01*
X135973700Y-104865276D01*
X135974206Y-104869285D01*
X135975121Y-104880916D01*
X135976498Y-104924742D01*
X135982116Y-104944075D01*
X135986062Y-104963129D01*
X135988583Y-104983087D01*
X135988586Y-104983099D01*
X136004719Y-105023848D01*
X136008502Y-105034898D01*
X136020730Y-105076987D01*
X136020730Y-105076988D01*
X136030977Y-105094315D01*
X136039535Y-105111785D01*
X136046945Y-105130501D01*
X136072711Y-105165964D01*
X136079125Y-105175729D01*
X136101434Y-105213452D01*
X136101440Y-105213460D01*
X136115669Y-105227688D01*
X136128306Y-105242484D01*
X136140137Y-105258767D01*
X136173917Y-105286712D01*
X136182546Y-105294565D01*
X137318024Y-106430043D01*
X137327871Y-106442333D01*
X137328089Y-106442154D01*
X137333057Y-106448159D01*
X137382246Y-106494351D01*
X137385043Y-106497062D01*
X137404607Y-106516626D01*
X137407785Y-106519090D01*
X137416681Y-106526687D01*
X137448635Y-106556695D01*
X137448637Y-106556696D01*
X137466267Y-106566387D01*
X137482535Y-106577072D01*
X137498438Y-106589408D01*
X137498440Y-106589409D01*
X137498442Y-106589410D01*
X137518342Y-106598021D01*
X137538660Y-106606813D01*
X137549149Y-106611951D01*
X137587566Y-106633072D01*
X137607067Y-106638079D01*
X137625461Y-106644376D01*
X137643941Y-106652373D01*
X137687241Y-106659230D01*
X137698648Y-106661592D01*
X137741128Y-106672500D01*
X137761259Y-106672500D01*
X137780656Y-106674026D01*
X137800533Y-106677175D01*
X137840608Y-106673386D01*
X137844170Y-106673050D01*
X137855839Y-106672500D01*
X138736789Y-106672500D01*
X138802760Y-106691506D01*
X138836182Y-106712506D01*
X138882474Y-106764840D01*
X138893123Y-106833893D01*
X138864748Y-106897742D01*
X138806359Y-106936114D01*
X138770211Y-106941500D01*
X132075648Y-106941500D01*
X132008609Y-106921815D01*
X131962854Y-106869011D01*
X131952910Y-106799853D01*
X131981935Y-106736297D01*
X132040713Y-106698523D01*
X132050255Y-106696287D01*
X132052686Y-106695635D01*
X132052692Y-106695635D01*
X132272496Y-106636739D01*
X132478734Y-106540568D01*
X132665139Y-106410047D01*
X132826047Y-106249139D01*
X132956568Y-106062734D01*
X133052739Y-105856496D01*
X133111635Y-105636692D01*
X133131468Y-105410000D01*
X133111635Y-105183308D01*
X133066916Y-105016415D01*
X133052741Y-104963511D01*
X133052738Y-104963502D01*
X133014227Y-104880916D01*
X132956568Y-104757266D01*
X132826047Y-104570861D01*
X132826045Y-104570858D01*
X132665141Y-104409954D01*
X132478734Y-104279432D01*
X132478732Y-104279431D01*
X132272497Y-104183261D01*
X132272488Y-104183258D01*
X132052697Y-104124366D01*
X132052693Y-104124365D01*
X132052692Y-104124365D01*
X132052691Y-104124364D01*
X132052686Y-104124364D01*
X131826002Y-104104532D01*
X131825998Y-104104532D01*
X131599313Y-104124364D01*
X131599302Y-104124366D01*
X131379511Y-104183258D01*
X131379502Y-104183261D01*
X131173267Y-104279431D01*
X131173265Y-104279432D01*
X130986858Y-104409954D01*
X130825954Y-104570858D01*
X130695432Y-104757265D01*
X130695431Y-104757267D01*
X130599261Y-104963502D01*
X130599258Y-104963511D01*
X130540366Y-105183302D01*
X130540364Y-105183313D01*
X130520532Y-105409998D01*
X130520532Y-105410001D01*
X130540364Y-105636686D01*
X130540366Y-105636697D01*
X130599258Y-105856488D01*
X130599261Y-105856497D01*
X130695431Y-106062732D01*
X130695432Y-106062734D01*
X130825954Y-106249141D01*
X130986858Y-106410045D01*
X131029245Y-106439724D01*
X131173266Y-106540568D01*
X131379504Y-106636739D01*
X131379509Y-106636740D01*
X131379511Y-106636741D01*
X131437847Y-106652372D01*
X131583898Y-106691506D01*
X131604537Y-106697036D01*
X131604147Y-106698488D01*
X131660485Y-106726409D01*
X131696377Y-106786355D01*
X131694162Y-106856190D01*
X131654543Y-106913740D01*
X131590099Y-106940736D01*
X131576352Y-106941500D01*
X121915648Y-106941500D01*
X121848609Y-106921815D01*
X121802854Y-106869011D01*
X121792910Y-106799853D01*
X121821935Y-106736297D01*
X121880713Y-106698523D01*
X121890255Y-106696287D01*
X121892686Y-106695635D01*
X121892692Y-106695635D01*
X122112496Y-106636739D01*
X122318734Y-106540568D01*
X122505139Y-106410047D01*
X122666047Y-106249139D01*
X122796568Y-106062734D01*
X122892739Y-105856496D01*
X122951635Y-105636692D01*
X122971468Y-105410000D01*
X122951635Y-105183308D01*
X122906916Y-105016415D01*
X122892741Y-104963511D01*
X122892738Y-104963502D01*
X122854227Y-104880916D01*
X122796568Y-104757266D01*
X122666047Y-104570861D01*
X122666045Y-104570858D01*
X122505141Y-104409954D01*
X122318734Y-104279432D01*
X122318732Y-104279431D01*
X122112497Y-104183261D01*
X122112488Y-104183258D01*
X121892697Y-104124366D01*
X121892693Y-104124365D01*
X121892692Y-104124365D01*
X121892691Y-104124364D01*
X121892686Y-104124364D01*
X121666002Y-104104532D01*
X121665998Y-104104532D01*
X121439313Y-104124364D01*
X121439302Y-104124366D01*
X121219511Y-104183258D01*
X121219502Y-104183261D01*
X121013267Y-104279431D01*
X121013265Y-104279432D01*
X120826858Y-104409954D01*
X120665954Y-104570858D01*
X120535432Y-104757265D01*
X120535431Y-104757267D01*
X120439261Y-104963502D01*
X120439258Y-104963511D01*
X120380366Y-105183302D01*
X120380364Y-105183313D01*
X120360532Y-105409998D01*
X120360532Y-105410001D01*
X120380364Y-105636686D01*
X120380366Y-105636697D01*
X120439258Y-105856488D01*
X120439261Y-105856497D01*
X120535431Y-106062732D01*
X120535432Y-106062734D01*
X120665954Y-106249141D01*
X120826858Y-106410045D01*
X120869245Y-106439724D01*
X121013266Y-106540568D01*
X121219504Y-106636739D01*
X121219509Y-106636740D01*
X121219511Y-106636741D01*
X121277847Y-106652372D01*
X121423898Y-106691506D01*
X121444537Y-106697036D01*
X121444147Y-106698488D01*
X121500485Y-106726409D01*
X121536377Y-106786355D01*
X121534162Y-106856190D01*
X121494543Y-106913740D01*
X121430099Y-106940736D01*
X121416352Y-106941500D01*
X117285000Y-106941500D01*
X117267031Y-106940191D01*
X117243091Y-106936684D01*
X117196790Y-106940736D01*
X117193451Y-106941028D01*
X117182645Y-106941500D01*
X117177051Y-106941500D01*
X117146113Y-106945116D01*
X117142529Y-106945482D01*
X117067387Y-106952056D01*
X117060321Y-106953516D01*
X117060310Y-106953464D01*
X117052831Y-106955122D01*
X117052844Y-106955174D01*
X117045816Y-106956839D01*
X116974962Y-106982628D01*
X116971557Y-106983812D01*
X116899962Y-107007536D01*
X116893421Y-107010587D01*
X116893398Y-107010539D01*
X116886501Y-107013878D01*
X116886525Y-107013925D01*
X116880072Y-107017165D01*
X116817052Y-107058614D01*
X116814011Y-107060551D01*
X116749853Y-107100124D01*
X116744185Y-107104606D01*
X116744152Y-107104564D01*
X116738214Y-107109401D01*
X116738248Y-107109442D01*
X116732712Y-107114087D01*
X116680944Y-107168956D01*
X116678433Y-107171541D01*
X115418581Y-108431394D01*
X115357258Y-108464879D01*
X115287566Y-108459895D01*
X115231633Y-108418023D01*
X115207216Y-108352559D01*
X115206900Y-108343713D01*
X115206900Y-104885992D01*
X115208209Y-104868022D01*
X115208611Y-104865276D01*
X115211714Y-104844093D01*
X115210143Y-104826138D01*
X115223908Y-104757640D01*
X115272522Y-104707456D01*
X115340551Y-104691521D01*
X115344479Y-104691802D01*
X115533799Y-104708366D01*
X115533802Y-104708366D01*
X115760399Y-104688541D01*
X115760410Y-104688539D01*
X115980117Y-104629669D01*
X115980131Y-104629664D01*
X116186278Y-104533536D01*
X116259271Y-104482424D01*
X115578200Y-103801353D01*
X115658948Y-103788565D01*
X115771845Y-103731041D01*
X115861441Y-103641445D01*
X115918965Y-103528548D01*
X115931753Y-103447800D01*
X116612824Y-104128871D01*
X116663936Y-104055878D01*
X116760064Y-103849731D01*
X116760069Y-103849717D01*
X116818939Y-103630010D01*
X116818941Y-103629999D01*
X116838766Y-103403402D01*
X116838766Y-103403397D01*
X116818941Y-103176800D01*
X116818939Y-103176789D01*
X116760069Y-102957082D01*
X116760064Y-102957068D01*
X116663936Y-102750921D01*
X116663932Y-102750913D01*
X116612825Y-102677926D01*
X115931753Y-103358998D01*
X115918965Y-103278252D01*
X115861441Y-103165355D01*
X115771845Y-103075759D01*
X115658948Y-103018235D01*
X115578201Y-103005446D01*
X116259272Y-102324374D01*
X116186278Y-102273263D01*
X115980131Y-102177135D01*
X115980117Y-102177130D01*
X115760410Y-102118260D01*
X115760399Y-102118258D01*
X115533802Y-102098434D01*
X115533798Y-102098434D01*
X115307200Y-102118258D01*
X115307189Y-102118260D01*
X115087482Y-102177130D01*
X115087473Y-102177134D01*
X114881316Y-102273266D01*
X114881312Y-102273268D01*
X114808326Y-102324373D01*
X114808326Y-102324374D01*
X115489399Y-103005446D01*
X115408652Y-103018235D01*
X115295755Y-103075759D01*
X115206159Y-103165355D01*
X115148635Y-103278252D01*
X115135846Y-103358998D01*
X114454774Y-102677926D01*
X114454773Y-102677926D01*
X114403668Y-102750912D01*
X114403667Y-102750914D01*
X114396456Y-102766379D01*
X114350282Y-102818817D01*
X114283088Y-102837967D01*
X114216207Y-102817750D01*
X114171693Y-102766376D01*
X114164368Y-102750666D01*
X114033847Y-102564261D01*
X114033845Y-102564258D01*
X113872941Y-102403354D01*
X113686534Y-102272832D01*
X113686532Y-102272831D01*
X113480297Y-102176661D01*
X113480288Y-102176658D01*
X113260497Y-102117766D01*
X113260493Y-102117765D01*
X113260492Y-102117765D01*
X113260491Y-102117764D01*
X113260486Y-102117764D01*
X113033802Y-102097932D01*
X113033798Y-102097932D01*
X112807113Y-102117764D01*
X112807102Y-102117766D01*
X112587311Y-102176658D01*
X112587302Y-102176661D01*
X112381067Y-102272831D01*
X112381065Y-102272832D01*
X112194658Y-102403354D01*
X112033754Y-102564258D01*
X111903232Y-102750665D01*
X111903231Y-102750667D01*
X111807061Y-102956902D01*
X111807058Y-102956911D01*
X111748166Y-103176702D01*
X111748164Y-103176713D01*
X111728332Y-103403398D01*
X111728332Y-103403401D01*
X111748164Y-103630086D01*
X111748166Y-103630097D01*
X111807058Y-103849888D01*
X111807061Y-103849897D01*
X111903231Y-104056132D01*
X111903232Y-104056134D01*
X112033754Y-104242541D01*
X112194658Y-104403445D01*
X112241493Y-104436239D01*
X112381066Y-104533968D01*
X112587304Y-104630139D01*
X112807108Y-104689035D01*
X112969030Y-104703201D01*
X113033798Y-104708868D01*
X113033800Y-104708868D01*
X113033801Y-104708868D01*
X113053020Y-104707186D01*
X113195460Y-104694724D01*
X113263958Y-104708490D01*
X113293947Y-104730571D01*
X113661581Y-105098205D01*
X113695066Y-105159528D01*
X113697900Y-105185886D01*
X113697900Y-109540851D01*
X113678215Y-109607890D01*
X113657439Y-109632487D01*
X113607804Y-109677736D01*
X113545000Y-109708354D01*
X113524265Y-109710100D01*
X110399400Y-109710100D01*
X110381431Y-109708791D01*
X110357491Y-109705284D01*
X110310730Y-109709376D01*
X110307851Y-109709628D01*
X110297045Y-109710100D01*
X110291451Y-109710100D01*
X110260513Y-109713716D01*
X110256929Y-109714082D01*
X110181787Y-109720656D01*
X110174721Y-109722116D01*
X110174710Y-109722064D01*
X110167231Y-109723722D01*
X110167244Y-109723774D01*
X110160216Y-109725439D01*
X110089362Y-109751228D01*
X110085957Y-109752412D01*
X110014362Y-109776136D01*
X110007821Y-109779187D01*
X110007798Y-109779139D01*
X110000905Y-109782476D01*
X110000929Y-109782523D01*
X109994477Y-109785763D01*
X109931460Y-109827209D01*
X109928421Y-109829145D01*
X109864246Y-109868728D01*
X109858580Y-109873209D01*
X109858548Y-109873168D01*
X109852614Y-109878002D01*
X109852648Y-109878042D01*
X109847112Y-109882687D01*
X109795361Y-109937538D01*
X109792850Y-109940123D01*
X105341404Y-114391570D01*
X105280081Y-114425055D01*
X105210389Y-114420071D01*
X105154456Y-114378199D01*
X105136683Y-114344846D01*
X105103482Y-114249963D01*
X105101118Y-114246201D01*
X105065906Y-114190160D01*
X105046900Y-114124189D01*
X105046900Y-113011364D01*
X105048628Y-112995713D01*
X105048346Y-112995687D01*
X105049080Y-112987924D01*
X105046961Y-112920481D01*
X105046900Y-112916587D01*
X105046900Y-112888930D01*
X105046900Y-112888924D01*
X105046393Y-112884919D01*
X105045477Y-112873271D01*
X105045160Y-112863177D01*
X105044101Y-112829457D01*
X105038484Y-112810127D01*
X105034538Y-112791068D01*
X105032017Y-112771111D01*
X105032016Y-112771108D01*
X105030107Y-112766287D01*
X105015881Y-112730355D01*
X105012098Y-112719307D01*
X104999868Y-112677209D01*
X104992970Y-112665545D01*
X104989625Y-112659889D01*
X104981062Y-112642411D01*
X104973653Y-112623697D01*
X104947889Y-112588237D01*
X104941473Y-112578469D01*
X104919165Y-112540747D01*
X104919159Y-112540739D01*
X104904931Y-112526512D01*
X104892296Y-112511720D01*
X104880463Y-112495433D01*
X104880460Y-112495431D01*
X104880460Y-112495430D01*
X104880458Y-112495428D01*
X104846687Y-112467490D01*
X104838047Y-112459628D01*
X103621931Y-111243512D01*
X103588446Y-111182189D01*
X103589837Y-111123736D01*
X103593463Y-111110208D01*
X103614059Y-110874800D01*
X103613649Y-110870119D01*
X103606479Y-110788166D01*
X103593463Y-110639392D01*
X103532303Y-110411137D01*
X103432435Y-110196971D01*
X103432434Y-110196969D01*
X103296894Y-110003397D01*
X103129802Y-109836305D01*
X102936230Y-109700765D01*
X102936228Y-109700764D01*
X102789807Y-109632487D01*
X102722063Y-109600897D01*
X102722059Y-109600896D01*
X102722055Y-109600894D01*
X102493813Y-109539738D01*
X102493803Y-109539736D01*
X102317367Y-109524300D01*
X102317366Y-109524300D01*
X101949434Y-109524300D01*
X101949433Y-109524300D01*
X101772996Y-109539736D01*
X101772986Y-109539738D01*
X101544744Y-109600894D01*
X101544735Y-109600898D01*
X101330571Y-109700764D01*
X101330569Y-109700765D01*
X101136997Y-109836305D01*
X100969906Y-110003397D01*
X100969901Y-110003404D01*
X100834367Y-110196965D01*
X100834365Y-110196969D01*
X100736882Y-110406022D01*
X100690709Y-110458461D01*
X100623516Y-110477613D01*
X100556635Y-110457397D01*
X100511300Y-110404232D01*
X100500500Y-110353617D01*
X100500500Y-102750000D01*
X101394341Y-102750000D01*
X101414936Y-102985403D01*
X101414938Y-102985413D01*
X101476094Y-103213654D01*
X101476095Y-103213658D01*
X101476097Y-103213663D01*
X101515241Y-103297607D01*
X101575964Y-103427828D01*
X101575965Y-103427830D01*
X101711505Y-103621402D01*
X101878597Y-103788494D01*
X102072169Y-103924034D01*
X102072171Y-103924035D01*
X102286337Y-104023903D01*
X102514592Y-104085063D01*
X102691032Y-104100499D01*
X102691033Y-104100500D01*
X102691034Y-104100500D01*
X102808967Y-104100500D01*
X102808967Y-104100499D01*
X102985408Y-104085063D01*
X103213663Y-104023903D01*
X103427829Y-103924035D01*
X103621401Y-103788495D01*
X103788495Y-103621401D01*
X103924035Y-103427830D01*
X104023903Y-103213663D01*
X104023904Y-103213656D01*
X104023906Y-103213654D01*
X104078152Y-103011199D01*
X104085063Y-102985408D01*
X104105659Y-102750000D01*
X104085063Y-102514592D01*
X104023903Y-102286337D01*
X103924035Y-102072171D01*
X103924034Y-102072169D01*
X103788494Y-101878597D01*
X103621402Y-101711505D01*
X103427830Y-101575965D01*
X103427828Y-101575964D01*
X103250934Y-101493477D01*
X103213663Y-101476097D01*
X103213659Y-101476096D01*
X103213655Y-101476094D01*
X102985413Y-101414938D01*
X102985403Y-101414936D01*
X102808967Y-101399500D01*
X102808966Y-101399500D01*
X102691034Y-101399500D01*
X102691033Y-101399500D01*
X102514596Y-101414936D01*
X102514586Y-101414938D01*
X102286344Y-101476094D01*
X102286335Y-101476098D01*
X102072171Y-101575964D01*
X102072169Y-101575965D01*
X101878597Y-101711505D01*
X101711506Y-101878597D01*
X101711501Y-101878604D01*
X101575967Y-102072165D01*
X101575965Y-102072169D01*
X101476098Y-102286335D01*
X101476094Y-102286344D01*
X101414938Y-102514586D01*
X101414936Y-102514596D01*
X101394341Y-102749999D01*
X101394341Y-102750000D01*
X100500500Y-102750000D01*
X100500500Y-100624500D01*
X100520185Y-100557461D01*
X100572989Y-100511706D01*
X100624500Y-100500500D01*
X135606308Y-100500500D01*
X135673347Y-100520185D01*
G37*
%TD.AperFunction*%
%TD*%
%TA.AperFunction,NonConductor*%
G36*
X103716712Y-113697518D02*
G01*
X103770590Y-113742003D01*
X103791865Y-113808555D01*
X103791900Y-113811507D01*
X103791900Y-114124189D01*
X103772894Y-114190160D01*
X103735319Y-114249960D01*
X103679161Y-114410448D01*
X103660126Y-114579397D01*
X103660126Y-114579402D01*
X103679161Y-114748351D01*
X103696864Y-114798942D01*
X103735318Y-114908837D01*
X103825776Y-115052800D01*
X103946000Y-115173024D01*
X104089963Y-115263482D01*
X104250446Y-115319637D01*
X104312931Y-115326677D01*
X104377342Y-115353742D01*
X104416898Y-115411337D01*
X104420485Y-115474968D01*
X104419672Y-115478906D01*
X104418891Y-115482430D01*
X104401499Y-115555816D01*
X104400661Y-115562987D01*
X104400607Y-115562980D01*
X104399830Y-115570596D01*
X104399883Y-115570601D01*
X104399253Y-115577790D01*
X104401448Y-115653193D01*
X104401500Y-115656800D01*
X104401500Y-126636112D01*
X104381815Y-126703151D01*
X104365181Y-126723793D01*
X103688552Y-127400421D01*
X103627229Y-127433906D01*
X103557537Y-127428922D01*
X103501604Y-127387050D01*
X103495332Y-127377837D01*
X103490095Y-127369346D01*
X103451112Y-127306144D01*
X103327056Y-127182088D01*
X103201114Y-127104407D01*
X103171841Y-127086351D01*
X103125117Y-127034403D01*
X103113894Y-126965440D01*
X103141738Y-126901358D01*
X103149257Y-126893131D01*
X103296505Y-126745882D01*
X103432000Y-126552378D01*
X103531829Y-126338292D01*
X103531832Y-126338286D01*
X103589036Y-126124800D01*
X102537369Y-126124800D01*
X102569919Y-126074151D01*
X102608400Y-125943095D01*
X102608400Y-125806505D01*
X102569919Y-125675449D01*
X102537369Y-125624800D01*
X103589036Y-125624800D01*
X103589035Y-125624799D01*
X103531832Y-125411313D01*
X103531829Y-125411307D01*
X103432000Y-125197222D01*
X103431999Y-125197220D01*
X103296513Y-125003726D01*
X103296508Y-125003720D01*
X103129479Y-124836691D01*
X103129473Y-124836686D01*
X102972367Y-124726680D01*
X102928742Y-124672103D01*
X102921548Y-124602605D01*
X102953071Y-124540250D01*
X102972360Y-124523535D01*
X103129801Y-124413295D01*
X103296895Y-124246201D01*
X103432435Y-124052630D01*
X103532303Y-123838463D01*
X103593463Y-123610208D01*
X103614059Y-123374800D01*
X103593463Y-123139392D01*
X103532303Y-122911137D01*
X103432435Y-122696971D01*
X103432434Y-122696969D01*
X103296894Y-122503397D01*
X103129803Y-122336306D01*
X103060858Y-122288031D01*
X102972801Y-122226373D01*
X102929178Y-122171799D01*
X102921984Y-122102300D01*
X102953506Y-122039945D01*
X102972798Y-122023228D01*
X103129801Y-121913295D01*
X103296895Y-121746201D01*
X103432435Y-121552630D01*
X103532303Y-121338463D01*
X103593463Y-121110208D01*
X103614059Y-120874800D01*
X103612492Y-120856895D01*
X103601160Y-120727366D01*
X103593463Y-120639392D01*
X103532303Y-120411137D01*
X103432435Y-120196971D01*
X103432434Y-120196969D01*
X103296894Y-120003397D01*
X103129803Y-119836306D01*
X103073587Y-119796944D01*
X102972801Y-119726373D01*
X102929178Y-119671799D01*
X102921984Y-119602300D01*
X102953506Y-119539945D01*
X102972798Y-119523228D01*
X103129801Y-119413295D01*
X103296895Y-119246201D01*
X103432435Y-119052630D01*
X103532303Y-118838463D01*
X103593463Y-118610208D01*
X103614059Y-118374800D01*
X103593463Y-118139392D01*
X103541517Y-117945524D01*
X103532305Y-117911144D01*
X103532304Y-117911143D01*
X103532303Y-117911137D01*
X103432435Y-117696971D01*
X103432434Y-117696969D01*
X103296894Y-117503397D01*
X103129803Y-117336306D01*
X103044233Y-117276390D01*
X102972801Y-117226373D01*
X102929178Y-117171799D01*
X102921984Y-117102300D01*
X102953506Y-117039945D01*
X102972798Y-117023228D01*
X103129801Y-116913295D01*
X103296895Y-116746201D01*
X103432435Y-116552630D01*
X103532303Y-116338463D01*
X103593463Y-116110208D01*
X103614059Y-115874800D01*
X103593463Y-115639392D01*
X103532303Y-115411137D01*
X103432435Y-115196971D01*
X103432434Y-115196969D01*
X103296894Y-115003397D01*
X103129803Y-114836306D01*
X103073587Y-114796944D01*
X102972801Y-114726373D01*
X102929178Y-114671799D01*
X102921984Y-114602300D01*
X102953506Y-114539945D01*
X102972798Y-114523228D01*
X103129801Y-114413295D01*
X103296895Y-114246201D01*
X103432435Y-114052630D01*
X103532303Y-113838463D01*
X103548125Y-113779414D01*
X103584489Y-113719754D01*
X103647336Y-113689224D01*
X103716712Y-113697518D01*
G37*
%TD.AperFunction*%
M02*
