%TF.GenerationSoftware,KiCad,Pcbnew,7.0.1*%
%TF.CreationDate,2023-04-20T23:53:02-05:00*%
%TF.ProjectId,epaper_board_layout,65706170-6572-45f6-926f-6172645f6c61,V01*%
%TF.SameCoordinates,Original*%
%TF.FileFunction,Copper,L1,Top*%
%TF.FilePolarity,Positive*%
%FSLAX46Y46*%
G04 Gerber Fmt 4.6, Leading zero omitted, Abs format (unit mm)*
G04 Created by KiCad (PCBNEW 7.0.1) date 2023-04-20 23:53:02*
%MOMM*%
%LPD*%
G01*
G04 APERTURE LIST*
G04 Aperture macros list*
%AMRoundRect*
0 Rectangle with rounded corners*
0 $1 Rounding radius*
0 $2 $3 $4 $5 $6 $7 $8 $9 X,Y pos of 4 corners*
0 Add a 4 corners polygon primitive as box body*
4,1,4,$2,$3,$4,$5,$6,$7,$8,$9,$2,$3,0*
0 Add four circle primitives for the rounded corners*
1,1,$1+$1,$2,$3*
1,1,$1+$1,$4,$5*
1,1,$1+$1,$6,$7*
1,1,$1+$1,$8,$9*
0 Add four rect primitives between the rounded corners*
20,1,$1+$1,$2,$3,$4,$5,0*
20,1,$1+$1,$4,$5,$6,$7,0*
20,1,$1+$1,$6,$7,$8,$9,0*
20,1,$1+$1,$8,$9,$2,$3,0*%
G04 Aperture macros list end*
%TA.AperFunction,ComponentPad*%
%ADD10RoundRect,0.250000X-0.600000X-0.750000X0.600000X-0.750000X0.600000X0.750000X-0.600000X0.750000X0*%
%TD*%
%TA.AperFunction,ComponentPad*%
%ADD11O,1.700000X2.000000*%
%TD*%
%TA.AperFunction,ComponentPad*%
%ADD12R,1.300000X1.300000*%
%TD*%
%TA.AperFunction,ComponentPad*%
%ADD13C,1.300000*%
%TD*%
%TA.AperFunction,ComponentPad*%
%ADD14C,1.600000*%
%TD*%
%TA.AperFunction,ComponentPad*%
%ADD15R,1.600000X1.600000*%
%TD*%
%TA.AperFunction,ComponentPad*%
%ADD16O,1.600000X1.600000*%
%TD*%
%TA.AperFunction,ComponentPad*%
%ADD17RoundRect,0.250000X0.725000X-0.600000X0.725000X0.600000X-0.725000X0.600000X-0.725000X-0.600000X0*%
%TD*%
%TA.AperFunction,ComponentPad*%
%ADD18O,1.950000X1.700000*%
%TD*%
%TA.AperFunction,ComponentPad*%
%ADD19C,2.000000*%
%TD*%
%TA.AperFunction,ComponentPad*%
%ADD20RoundRect,0.250000X-0.600000X-0.725000X0.600000X-0.725000X0.600000X0.725000X-0.600000X0.725000X0*%
%TD*%
%TA.AperFunction,ComponentPad*%
%ADD21O,1.700000X1.950000*%
%TD*%
%TA.AperFunction,ComponentPad*%
%ADD22C,1.500000*%
%TD*%
%TA.AperFunction,ViaPad*%
%ADD23C,0.508000*%
%TD*%
%TA.AperFunction,Conductor*%
%ADD24C,0.508000*%
%TD*%
%TA.AperFunction,Conductor*%
%ADD25C,0.152400*%
%TD*%
%TA.AperFunction,Conductor*%
%ADD26C,0.254000*%
%TD*%
%ADD27C,0.127000*%
%ADD28C,0.150000*%
%ADD29C,0.120000*%
%ADD30RoundRect,0.300800X-0.600000X-0.750000X0.600000X-0.750000X0.600000X0.750000X-0.600000X0.750000X0*%
%ADD31O,1.801600X2.101600*%
%ADD32C,2.200000*%
%ADD33RoundRect,0.050800X0.650000X0.650000X-0.650000X0.650000X-0.650000X-0.650000X0.650000X-0.650000X0*%
%ADD34C,1.401600*%
%ADD35C,1.701600*%
%ADD36RoundRect,0.050800X0.800000X-0.800000X0.800000X0.800000X-0.800000X0.800000X-0.800000X-0.800000X0*%
%ADD37O,1.701600X1.701600*%
%ADD38RoundRect,0.300800X0.725000X-0.600000X0.725000X0.600000X-0.725000X0.600000X-0.725000X-0.600000X0*%
%ADD39O,2.051600X1.801600*%
%ADD40C,2.101600*%
%ADD41RoundRect,0.300800X-0.600000X-0.725000X0.600000X-0.725000X0.600000X0.725000X-0.600000X0.725000X0*%
%ADD42O,1.801600X2.051600*%
%ADD43C,1.601600*%
%ADD44RoundRect,0.050800X-0.800000X-0.800000X0.800000X-0.800000X0.800000X0.800000X-0.800000X0.800000X0*%
%TA.AperFunction,Profile*%
%ADD45C,0.038100*%
%TD*%
%ADD46C,0.050000*%
G04 APERTURE END LIST*
D10*
%TO.P,J4,1,Pin_1*%
%TO.N,VCC*%
X145328000Y-137261600D03*
D11*
%TO.P,J4,2,Pin_2*%
%TO.N,GND*%
X147828000Y-137261600D03*
%TD*%
D12*
%TO.P,Q1,1,D*%
%TO.N,VCC*%
X116992400Y-110464600D03*
D13*
%TO.P,Q1,2,G*%
%TO.N,Net-(Q1-G)*%
X115722400Y-111734600D03*
%TO.P,Q1,3,S*%
%TO.N,VREF*%
X114452400Y-110464600D03*
%TD*%
D14*
%TO.P,C2,1*%
%TO.N,Net-(U1-XTAL2{slash}PB7)*%
X114280000Y-136271000D03*
%TO.P,C2,2*%
%TO.N,GND*%
X111780000Y-136271000D03*
%TD*%
%TO.P,C4,1*%
%TO.N,VREF*%
X113033800Y-103403400D03*
%TO.P,C4,2*%
%TO.N,GND*%
X115533800Y-103403400D03*
%TD*%
%TO.P,C5,1*%
%TO.N,RTS*%
X153065800Y-127965200D03*
%TO.P,C5,2*%
%TO.N,~{RESET}*%
X150565800Y-127965200D03*
%TD*%
D15*
%TO.P,U1,1,~{RESET}/PC6*%
%TO.N,~{RESET}*%
X110185200Y-123418600D03*
D16*
%TO.P,U1,2,PD0*%
%TO.N,RXD*%
X112725200Y-123418600D03*
%TO.P,U1,3,PD1*%
%TO.N,TXD*%
X115265200Y-123418600D03*
%TO.P,U1,4,PD2*%
%TO.N,unconnected-(U1-PD2-Pad4)*%
X117805200Y-123418600D03*
%TO.P,U1,5,PD3*%
%TO.N,unconnected-(U1-PD3-Pad5)*%
X120345200Y-123418600D03*
%TO.P,U1,6,PD4*%
%TO.N,unconnected-(U1-PD4-Pad6)*%
X122885200Y-123418600D03*
%TO.P,U1,7,VCC*%
%TO.N,VCC*%
X125425200Y-123418600D03*
%TO.P,U1,8,GND*%
%TO.N,GND*%
X127965200Y-123418600D03*
%TO.P,U1,9,XTAL1/PB6*%
%TO.N,Net-(U1-XTAL1{slash}PB6)*%
X130505200Y-123418600D03*
%TO.P,U1,10,XTAL2/PB7*%
%TO.N,Net-(U1-XTAL2{slash}PB7)*%
X133045200Y-123418600D03*
%TO.P,U1,11,PD5*%
%TO.N,/atmega328p/~{CS_REF}*%
X135585200Y-123418600D03*
%TO.P,U1,12,PD6*%
%TO.N,CS_SD*%
X138125200Y-123418600D03*
%TO.P,U1,13,PD7*%
%TO.N,BUSY_FRAME*%
X140665200Y-123418600D03*
%TO.P,U1,14,PB0*%
%TO.N,RST_FRAME*%
X143205200Y-123418600D03*
%TO.P,U1,15,PB1*%
%TO.N,DC_FRAME*%
X143205200Y-115798600D03*
%TO.P,U1,16,PB2*%
%TO.N,CS_FRAME*%
X140665200Y-115798600D03*
%TO.P,U1,17,PB3*%
%TO.N,MOSI*%
X138125200Y-115798600D03*
%TO.P,U1,18,PB4*%
%TO.N,MISO*%
X135585200Y-115798600D03*
%TO.P,U1,19,PB5*%
%TO.N,SCLK*%
X133045200Y-115798600D03*
%TO.P,U1,20,AVCC*%
%TO.N,VCC*%
X130505200Y-115798600D03*
%TO.P,U1,21,AREF*%
%TO.N,unconnected-(U1-AREF-Pad21)*%
X127965200Y-115798600D03*
%TO.P,U1,22,GND*%
%TO.N,GND*%
X125425200Y-115798600D03*
%TO.P,U1,23,PC0*%
%TO.N,unconnected-(U1-PC0-Pad23)*%
X122885200Y-115798600D03*
%TO.P,U1,24,PC1*%
%TO.N,unconnected-(U1-PC1-Pad24)*%
X120345200Y-115798600D03*
%TO.P,U1,25,PC2*%
%TO.N,unconnected-(U1-PC2-Pad25)*%
X117805200Y-115798600D03*
%TO.P,U1,26,PC3*%
%TO.N,unconnected-(U1-PC3-Pad26)*%
X115265200Y-115798600D03*
%TO.P,U1,27,PC4*%
%TO.N,unconnected-(U1-PC4-Pad27)*%
X112725200Y-115798600D03*
%TO.P,U1,28,PC5*%
%TO.N,unconnected-(U1-PC5-Pad28)*%
X110185200Y-115798600D03*
%TD*%
D14*
%TO.P,C1,1*%
%TO.N,Net-(U1-XTAL1{slash}PB6)*%
X114280000Y-129489200D03*
%TO.P,C1,2*%
%TO.N,GND*%
X111780000Y-129489200D03*
%TD*%
%TO.P,R2,1*%
%TO.N,VCC*%
X131826000Y-110744000D03*
D16*
%TO.P,R2,2*%
%TO.N,Net-(Q1-G)*%
X121666000Y-110744000D03*
%TD*%
D14*
%TO.P,R1,1*%
%TO.N,/atmega328p/~{CS_REF}*%
X131826000Y-105410000D03*
D16*
%TO.P,R1,2*%
%TO.N,Net-(Q1-G)*%
X121666000Y-105410000D03*
%TD*%
D17*
%TO.P,J3,1,Pin_1*%
%TO.N,VREF*%
X102133400Y-128374800D03*
D18*
%TO.P,J3,2,Pin_2*%
%TO.N,GND*%
X102133400Y-125874800D03*
%TO.P,J3,3,Pin_3*%
%TO.N,MOSI*%
X102133400Y-123374800D03*
%TO.P,J3,4,Pin_4*%
%TO.N,SCLK*%
X102133400Y-120874800D03*
%TO.P,J3,5,Pin_5*%
%TO.N,CS_FRAME*%
X102133400Y-118374800D03*
%TO.P,J3,6,Pin_6*%
%TO.N,DC_FRAME*%
X102133400Y-115874800D03*
%TO.P,J3,7,Pin_7*%
%TO.N,RST_FRAME*%
X102133400Y-113374800D03*
%TO.P,J3,8,Pin_8*%
%TO.N,BUSY_FRAME*%
X102133400Y-110874800D03*
%TD*%
D19*
%TO.P,SW1,1,1*%
%TO.N,~{RESET}*%
X156000000Y-123000000D03*
X149500000Y-123000000D03*
%TO.P,SW1,2,2*%
%TO.N,GND*%
X156000000Y-118500000D03*
X149500000Y-118500000D03*
%TD*%
D14*
%TO.P,C3,1*%
%TO.N,VCC*%
X146832000Y-110490000D03*
%TO.P,C3,2*%
%TO.N,GND*%
X149332000Y-110490000D03*
%TD*%
%TO.P,R3,1*%
%TO.N,VCC*%
X136118600Y-131419600D03*
D16*
%TO.P,R3,2*%
%TO.N,~{RESET}*%
X146278600Y-131419600D03*
%TD*%
D20*
%TO.P,J1,1,Pin_1*%
%TO.N,GND*%
X121492000Y-137236200D03*
D21*
%TO.P,J1,2,Pin_2*%
X123992000Y-137236200D03*
%TO.P,J1,3,Pin_3*%
%TO.N,VCC*%
X126492000Y-137236200D03*
%TO.P,J1,4,Pin_4*%
%TO.N,RXD*%
X128992000Y-137236200D03*
%TO.P,J1,5,Pin_5*%
%TO.N,TXD*%
X131492000Y-137236200D03*
%TO.P,J1,6,Pin_6*%
%TO.N,RTS*%
X133992000Y-137236200D03*
%TD*%
D22*
%TO.P,Y1,1,1*%
%TO.N,Net-(U1-XTAL2{slash}PB7)*%
X128778000Y-129540000D03*
%TO.P,Y1,2,2*%
%TO.N,Net-(U1-XTAL1{slash}PB6)*%
X123898000Y-129540000D03*
%TD*%
D20*
%TO.P,J2,1,Pin_1*%
%TO.N,CS_SD*%
X136601200Y-102133400D03*
D21*
%TO.P,J2,2,Pin_2*%
%TO.N,SCLK*%
X139101200Y-102133400D03*
%TO.P,J2,3,Pin_3*%
%TO.N,MOSI*%
X141601200Y-102133400D03*
%TO.P,J2,4,Pin_4*%
%TO.N,MISO*%
X144101200Y-102133400D03*
%TO.P,J2,5,Pin_5*%
%TO.N,VREF*%
X146601200Y-102133400D03*
%TO.P,J2,6,Pin_6*%
%TO.N,GND*%
X149101200Y-102133400D03*
%TD*%
D15*
%TO.P,D1,1,K*%
%TO.N,VCC*%
X136118600Y-127889000D03*
D16*
%TO.P,D1,2,A*%
%TO.N,~{RESET}*%
X146278600Y-127889000D03*
%TD*%
D23*
%TO.N,GND*%
X125476000Y-112268000D03*
X123952000Y-121666000D03*
X147046000Y-134132000D03*
%TO.N,~{RESET}*%
X146812000Y-125580000D03*
%TO.N,CS_SD*%
X139192000Y-106045000D03*
%TO.N,MOSI*%
X138176000Y-105180900D03*
%TO.N,CS_FRAME*%
X131318000Y-118414300D03*
%TO.N,DC_FRAME*%
X139842350Y-118658750D03*
X132334000Y-117856000D03*
%TO.N,RST_FRAME*%
X131826000Y-113374800D03*
%TO.N,BUSY_FRAME*%
X104419400Y-114579400D03*
X130276600Y-117348000D03*
%TO.N,/atmega328p/~{CS_REF}*%
X129286000Y-109982000D03*
%TD*%
D24*
%TO.N,GND*%
X123952000Y-117271800D02*
X123952000Y-121666000D01*
X147046000Y-134132000D02*
X147808000Y-134132000D01*
X125425200Y-115798600D02*
X125425200Y-112318800D01*
X147828000Y-134112000D02*
X147828000Y-137261600D01*
X147066000Y-134112000D02*
X147046000Y-134132000D01*
X147808000Y-134132000D02*
X147828000Y-134112000D01*
X125425200Y-112318800D02*
X125476000Y-112268000D01*
X125425200Y-115798600D02*
X123952000Y-117271800D01*
%TO.N,VCC*%
X145465800Y-108966000D02*
X130556000Y-108966000D01*
X125425200Y-123418600D02*
X125425200Y-120878600D01*
X125425200Y-120878600D02*
X130505200Y-115798600D01*
X130505200Y-109270800D02*
X130505200Y-110744000D01*
X136118600Y-125755400D02*
X136144000Y-125730000D01*
X131826000Y-110744000D02*
X130505200Y-110744000D01*
X136144000Y-125730000D02*
X144830800Y-125730000D01*
X130556000Y-108966000D02*
X130505200Y-109016800D01*
X136118600Y-127889000D02*
X136118600Y-125755400D01*
X127562000Y-139246000D02*
X143764000Y-139246000D01*
X136118600Y-134086600D02*
X136118600Y-131419600D01*
X118491000Y-108966000D02*
X116992400Y-110464600D01*
X140208000Y-134112000D02*
X136144000Y-134112000D01*
X136144000Y-134112000D02*
X136118600Y-134086600D01*
X130505200Y-110744000D02*
X130505200Y-115798600D01*
X126492000Y-138176000D02*
X127562000Y-139246000D01*
X143764000Y-138043600D02*
X144546000Y-137261600D01*
X144830800Y-125730000D02*
X146812000Y-123748800D01*
X146812000Y-123748800D02*
X146812000Y-110312200D01*
X136118600Y-131419600D02*
X136118600Y-127889000D01*
X130556000Y-109220000D02*
X130505200Y-109270800D01*
X130454400Y-108966000D02*
X118491000Y-108966000D01*
X126492000Y-137236200D02*
X126492000Y-138176000D01*
X140309600Y-137261600D02*
X140208000Y-137160000D01*
X146812000Y-110312200D02*
X145465800Y-108966000D01*
X144546000Y-137261600D02*
X140309600Y-137261600D01*
X130505200Y-109016800D02*
X130505200Y-115798600D01*
X140208000Y-137160000D02*
X140208000Y-134112000D01*
X143764000Y-139246000D02*
X143764000Y-138043600D01*
D25*
%TO.N,~{RESET}*%
X150565800Y-127965200D02*
X146354800Y-127965200D01*
D26*
X146920000Y-125580000D02*
X149500000Y-123000000D01*
D25*
X146354800Y-127965200D02*
X146278600Y-127889000D01*
D26*
X149500000Y-123000000D02*
X156000000Y-123000000D01*
X146278600Y-127025400D02*
X146812000Y-126492000D01*
D24*
X146278600Y-127889000D02*
X146278600Y-127025400D01*
D26*
X146278600Y-127889000D02*
X146278600Y-131419600D01*
X146812000Y-125580000D02*
X146920000Y-125580000D01*
X146812000Y-126492000D02*
X146812000Y-125580000D01*
%TO.N,RXD*%
X127508000Y-134366000D02*
X128992000Y-135850000D01*
X112725200Y-125501400D02*
X113868200Y-126644400D01*
X118872000Y-127584200D02*
X118872000Y-133096000D01*
X113868200Y-126644400D02*
X117932200Y-126644400D01*
X117932200Y-126644400D02*
X118872000Y-127584200D01*
X128992000Y-135850000D02*
X128992000Y-137236200D01*
X120142000Y-134366000D02*
X127508000Y-134366000D01*
X112725200Y-123418600D02*
X112725200Y-125501400D01*
X118872000Y-133096000D02*
X120142000Y-134366000D01*
%TO.N,TXD*%
X120904000Y-133604000D02*
X128524000Y-133604000D01*
X119888000Y-132588000D02*
X120904000Y-133604000D01*
X115265200Y-125679200D02*
X118211600Y-125679200D01*
X119888000Y-127355600D02*
X119888000Y-132588000D01*
X128524000Y-133604000D02*
X131492000Y-136572000D01*
X131492000Y-136572000D02*
X131492000Y-137236200D01*
X115265200Y-123418600D02*
X115265200Y-125679200D01*
X118211600Y-125679200D02*
X119888000Y-127355600D01*
%TO.N,CS_SD*%
X137820400Y-106045000D02*
X139192000Y-106045000D01*
X136601200Y-104825800D02*
X137820400Y-106045000D01*
X136601200Y-102133400D02*
X136601200Y-104825800D01*
%TO.N,MOSI*%
X139929100Y-105180900D02*
X141601200Y-103508800D01*
X141601200Y-103508800D02*
X141601200Y-102133400D01*
X138176000Y-105180900D02*
X139929100Y-105180900D01*
D24*
%TO.N,VREF*%
X114452400Y-104822000D02*
X113033800Y-103403400D01*
X110335400Y-110464600D02*
X105156000Y-115644000D01*
X105156000Y-115644000D02*
X105156000Y-127000000D01*
X117221000Y-107696000D02*
X141986000Y-107696000D01*
X146601200Y-103080800D02*
X146601200Y-102133400D01*
X114452400Y-110464600D02*
X110335400Y-110464600D01*
X105156000Y-127000000D02*
X103781200Y-128374800D01*
X103781200Y-128374800D02*
X102133400Y-128374800D01*
X114452400Y-110464600D02*
X117221000Y-107696000D01*
X114452400Y-110464600D02*
X114452400Y-104822000D01*
X141986000Y-107696000D02*
X146601200Y-103080800D01*
D26*
%TO.N,CS_FRAME*%
X131318000Y-118414300D02*
X132537700Y-119634000D01*
X140716000Y-115849400D02*
X140665200Y-115798600D01*
X132537700Y-119634000D02*
X140716000Y-119634000D01*
X140716000Y-119634000D02*
X140716000Y-115849400D01*
%TO.N,DC_FRAME*%
X133078000Y-118600000D02*
X139783600Y-118600000D01*
X139783600Y-118600000D02*
X139842350Y-118658750D01*
X132334000Y-117856000D02*
X133078000Y-118600000D01*
%TO.N,RST_FRAME*%
X131826000Y-113374800D02*
X131866000Y-113334800D01*
X145034000Y-115976400D02*
X145034000Y-121589800D01*
X131866000Y-113334800D02*
X142392400Y-113334800D01*
X142392400Y-113334800D02*
X145034000Y-115976400D01*
X145034000Y-121589800D02*
X143205200Y-123418600D01*
%TO.N,BUSY_FRAME*%
X139649200Y-120345200D02*
X140665200Y-121361200D01*
X104419400Y-114579400D02*
X104419400Y-112928400D01*
X140665200Y-121361200D02*
X140665200Y-123418600D01*
X130276600Y-117348000D02*
X130276600Y-120294400D01*
X130327400Y-120345200D02*
X139649200Y-120345200D01*
X104419400Y-112928400D02*
X102365800Y-110874800D01*
X130276600Y-120294400D02*
X130327400Y-120345200D01*
X102365800Y-110874800D02*
X102133400Y-110874800D01*
%TO.N,/atmega328p/~{CS_REF}*%
X129286000Y-109982000D02*
X124968000Y-109982000D01*
X133731000Y-125272800D02*
X135585200Y-123418600D01*
X121691400Y-113258600D02*
X121691400Y-125120400D01*
X133731000Y-125349000D02*
X133731000Y-125272800D01*
X124968000Y-109982000D02*
X121691400Y-113258600D01*
X121691400Y-125120400D02*
X121920000Y-125349000D01*
X121920000Y-125349000D02*
X133731000Y-125349000D01*
%TD*%
%TA.AperFunction,Conductor*%
%TO.N,GND*%
G36*
X159437500Y-100517113D02*
G01*
X159482887Y-100562500D01*
X159499500Y-100624500D01*
X159499500Y-139375500D01*
X159482887Y-139437500D01*
X159437500Y-139482887D01*
X159375500Y-139499500D01*
X144636445Y-139499500D01*
X144572380Y-139481668D01*
X144526740Y-139433300D01*
X144512654Y-139368309D01*
X144512752Y-139366622D01*
X144515887Y-139345212D01*
X144518500Y-139334189D01*
X144518500Y-139271551D01*
X144518710Y-139264340D01*
X144522351Y-139201831D01*
X144520384Y-139190676D01*
X144518500Y-139169143D01*
X144518500Y-138883120D01*
X144537278Y-138817513D01*
X144587925Y-138771776D01*
X144655101Y-138759762D01*
X144663735Y-138760643D01*
X144677991Y-138762100D01*
X145978008Y-138762099D01*
X146080797Y-138751599D01*
X146247334Y-138696414D01*
X146396656Y-138604312D01*
X146520712Y-138480256D01*
X146612814Y-138330934D01*
X146612814Y-138330931D01*
X146616448Y-138325041D01*
X146655361Y-138285557D01*
X146707591Y-138266976D01*
X146762698Y-138273011D01*
X146809668Y-138302456D01*
X146956918Y-138449706D01*
X147150423Y-138585200D01*
X147364507Y-138685030D01*
X147577999Y-138742235D01*
X147578000Y-138742236D01*
X147578000Y-137511600D01*
X148078000Y-137511600D01*
X148078000Y-138742235D01*
X148291492Y-138685030D01*
X148505578Y-138585199D01*
X148699078Y-138449709D01*
X148866109Y-138282678D01*
X149001599Y-138089178D01*
X149101430Y-137875092D01*
X149162569Y-137646918D01*
X149174407Y-137511600D01*
X148078000Y-137511600D01*
X147578000Y-137511600D01*
X147578000Y-137250000D01*
X155894340Y-137250000D01*
X155914936Y-137485407D01*
X155956093Y-137639006D01*
X155976097Y-137713663D01*
X156075965Y-137927829D01*
X156211505Y-138121401D01*
X156378599Y-138288495D01*
X156572171Y-138424035D01*
X156786337Y-138523903D01*
X156995402Y-138579921D01*
X157014592Y-138585063D01*
X157191032Y-138600500D01*
X157191034Y-138600500D01*
X157308966Y-138600500D01*
X157308968Y-138600500D01*
X157426593Y-138590208D01*
X157485408Y-138585063D01*
X157713663Y-138523903D01*
X157927829Y-138424035D01*
X158121401Y-138288495D01*
X158288495Y-138121401D01*
X158424035Y-137927830D01*
X158523903Y-137713663D01*
X158585063Y-137485408D01*
X158605659Y-137250000D01*
X158585063Y-137014592D01*
X158523903Y-136786337D01*
X158424035Y-136572171D01*
X158288495Y-136378599D01*
X158121401Y-136211505D01*
X157927829Y-136075965D01*
X157713663Y-135976097D01*
X157485407Y-135914936D01*
X157308968Y-135899500D01*
X157308966Y-135899500D01*
X157191034Y-135899500D01*
X157191032Y-135899500D01*
X157014592Y-135914936D01*
X156786336Y-135976097D01*
X156572170Y-136075965D01*
X156378598Y-136211505D01*
X156211508Y-136378595D01*
X156211505Y-136378598D01*
X156211505Y-136378599D01*
X156128118Y-136497689D01*
X156075964Y-136572172D01*
X155976097Y-136786337D01*
X155914936Y-137014592D01*
X155894340Y-137250000D01*
X147578000Y-137250000D01*
X147578000Y-135780964D01*
X148078000Y-135780964D01*
X148078000Y-137011600D01*
X149174407Y-137011600D01*
X149174407Y-137011599D01*
X149162569Y-136876281D01*
X149101430Y-136648107D01*
X149001599Y-136434021D01*
X148866109Y-136240521D01*
X148699081Y-136073493D01*
X148505576Y-135937999D01*
X148291492Y-135838169D01*
X148078000Y-135780964D01*
X147578000Y-135780964D01*
X147577999Y-135780964D01*
X147364507Y-135838169D01*
X147150421Y-135938000D01*
X146956924Y-136073488D01*
X146809668Y-136220744D01*
X146762698Y-136250189D01*
X146707591Y-136256223D01*
X146655361Y-136237642D01*
X146616448Y-136198158D01*
X146520711Y-136042942D01*
X146396657Y-135918888D01*
X146247334Y-135826786D01*
X146080797Y-135771600D01*
X145978009Y-135761100D01*
X144677991Y-135761100D01*
X144575203Y-135771600D01*
X144408665Y-135826786D01*
X144259342Y-135918888D01*
X144135288Y-136042942D01*
X144043186Y-136192265D01*
X143988000Y-136358802D01*
X143984231Y-136395703D01*
X143963808Y-136452240D01*
X143919194Y-136492529D01*
X143860873Y-136507100D01*
X141086500Y-136507100D01*
X141024500Y-136490487D01*
X140979113Y-136445100D01*
X140962500Y-136383100D01*
X140962500Y-134137551D01*
X140962710Y-134130340D01*
X140963653Y-134114148D01*
X140966351Y-134067831D01*
X140955470Y-134006127D01*
X140954433Y-133999047D01*
X140947160Y-133936816D01*
X140943285Y-133926170D01*
X140937688Y-133905282D01*
X140935723Y-133894134D01*
X140910919Y-133836631D01*
X140908256Y-133829928D01*
X140907681Y-133828350D01*
X140886836Y-133771076D01*
X140880603Y-133761599D01*
X140870353Y-133742588D01*
X140865864Y-133732182D01*
X140828468Y-133681950D01*
X140824332Y-133676043D01*
X140789914Y-133623713D01*
X140781674Y-133615940D01*
X140767304Y-133599793D01*
X140760539Y-133590706D01*
X140712553Y-133550440D01*
X140707188Y-133545665D01*
X140661623Y-133502678D01*
X140651809Y-133497012D01*
X140634110Y-133484619D01*
X140625427Y-133477333D01*
X140625203Y-133477220D01*
X140569447Y-133449218D01*
X140563100Y-133445796D01*
X140546418Y-133436165D01*
X140508876Y-133414490D01*
X140498019Y-133411239D01*
X140477941Y-133403263D01*
X140467811Y-133398176D01*
X140406864Y-133383730D01*
X140399902Y-133381864D01*
X140339910Y-133363904D01*
X140328593Y-133363245D01*
X140307220Y-133360114D01*
X140296189Y-133357500D01*
X140296188Y-133357500D01*
X140233551Y-133357500D01*
X140226341Y-133357290D01*
X140224013Y-133357154D01*
X140163831Y-133353648D01*
X140152676Y-133355616D01*
X140131143Y-133357500D01*
X136997100Y-133357500D01*
X136935100Y-133340887D01*
X136889713Y-133295500D01*
X136873100Y-133233500D01*
X136873100Y-132543462D01*
X136887111Y-132486205D01*
X136925978Y-132441886D01*
X136927648Y-132440716D01*
X136957739Y-132419647D01*
X137118647Y-132258739D01*
X137249168Y-132072334D01*
X137345339Y-131866096D01*
X137404235Y-131646292D01*
X137424068Y-131419600D01*
X137404235Y-131192908D01*
X137345339Y-130973104D01*
X137249168Y-130766866D01*
X137213508Y-130715938D01*
X137118646Y-130580459D01*
X136957741Y-130419554D01*
X136925978Y-130397314D01*
X136887111Y-130352995D01*
X136873100Y-130295738D01*
X136873100Y-129310921D01*
X136887569Y-129252793D01*
X136927598Y-129208230D01*
X136983846Y-129187631D01*
X137026083Y-129183091D01*
X137160931Y-129132796D01*
X137276146Y-129046546D01*
X137362396Y-128931331D01*
X137412691Y-128796483D01*
X137419100Y-128736873D01*
X137419099Y-127041128D01*
X137412691Y-126981517D01*
X137362396Y-126846669D01*
X137276146Y-126731454D01*
X137244503Y-126707766D01*
X137206021Y-126660011D01*
X137195131Y-126599654D01*
X137214500Y-126541460D01*
X137259388Y-126499668D01*
X137318815Y-126484500D01*
X144766800Y-126484500D01*
X144784770Y-126485809D01*
X144788523Y-126486358D01*
X144808706Y-126489315D01*
X144858347Y-126484972D01*
X144869155Y-126484500D01*
X144874743Y-126484500D01*
X144905703Y-126480881D01*
X144909241Y-126480519D01*
X144984412Y-126473943D01*
X144984417Y-126473941D01*
X144985632Y-126473835D01*
X145004827Y-126469580D01*
X145005979Y-126469160D01*
X145005984Y-126469160D01*
X145076874Y-126443357D01*
X145080234Y-126442190D01*
X145151836Y-126418464D01*
X145151841Y-126418460D01*
X145153002Y-126418076D01*
X145170702Y-126409507D01*
X145171719Y-126408837D01*
X145171724Y-126408836D01*
X145234767Y-126367371D01*
X145237759Y-126365465D01*
X145301954Y-126325870D01*
X145301954Y-126325869D01*
X145302993Y-126325229D01*
X145318244Y-126312805D01*
X145319081Y-126311917D01*
X145319085Y-126311915D01*
X145370871Y-126257023D01*
X145373316Y-126254506D01*
X145882220Y-125745602D01*
X145935571Y-125714131D01*
X145997492Y-125712394D01*
X146052526Y-125740825D01*
X146086940Y-125792330D01*
X146127916Y-125909434D01*
X146165494Y-125969239D01*
X146184500Y-126035211D01*
X146184500Y-126171805D01*
X146171311Y-126227455D01*
X146134549Y-126271267D01*
X146082035Y-126293921D01*
X146060734Y-126297677D01*
X145898781Y-126367536D01*
X145757305Y-126472861D01*
X145643934Y-126607970D01*
X145559517Y-126776060D01*
X145547474Y-126803426D01*
X145516003Y-126835357D01*
X145439459Y-126888954D01*
X145278553Y-127049860D01*
X145148032Y-127236264D01*
X145051861Y-127442502D01*
X144992964Y-127662310D01*
X144973131Y-127888999D01*
X144992964Y-128115689D01*
X145051861Y-128335497D01*
X145148032Y-128541735D01*
X145278553Y-128728140D01*
X145439459Y-128889046D01*
X145489051Y-128923770D01*
X145555116Y-128970029D01*
X145598223Y-129000212D01*
X145637089Y-129044530D01*
X145651100Y-129101787D01*
X145651100Y-130206813D01*
X145637089Y-130264070D01*
X145598223Y-130308388D01*
X145439459Y-130419553D01*
X145278553Y-130580459D01*
X145148032Y-130766864D01*
X145051861Y-130973102D01*
X144992964Y-131192910D01*
X144973131Y-131419599D01*
X144992964Y-131646289D01*
X145051861Y-131866097D01*
X145148032Y-132072335D01*
X145278553Y-132258740D01*
X145439459Y-132419646D01*
X145625864Y-132550167D01*
X145625865Y-132550167D01*
X145625866Y-132550168D01*
X145832104Y-132646339D01*
X146051908Y-132705235D01*
X146278600Y-132725068D01*
X146505292Y-132705235D01*
X146725096Y-132646339D01*
X146931334Y-132550168D01*
X147117739Y-132419647D01*
X147278647Y-132258739D01*
X147409168Y-132072334D01*
X147505339Y-131866096D01*
X147564235Y-131646292D01*
X147584068Y-131419600D01*
X147564235Y-131192908D01*
X147505339Y-130973104D01*
X147409168Y-130766866D01*
X147373508Y-130715938D01*
X147278646Y-130580459D01*
X147117740Y-130419553D01*
X146958977Y-130308388D01*
X146920111Y-130264070D01*
X146906100Y-130206813D01*
X146906100Y-129101787D01*
X146920111Y-129044530D01*
X146958977Y-129000212D01*
X147002084Y-128970029D01*
X147117739Y-128889047D01*
X147278647Y-128728139D01*
X147309628Y-128683891D01*
X147372028Y-128594777D01*
X147416346Y-128555911D01*
X147473603Y-128541900D01*
X149320780Y-128541900D01*
X149387406Y-128561320D01*
X149433163Y-128613497D01*
X149435232Y-128617935D01*
X149565753Y-128804340D01*
X149726659Y-128965246D01*
X149913064Y-129095767D01*
X149913065Y-129095767D01*
X149913066Y-129095768D01*
X150119304Y-129191939D01*
X150339108Y-129250835D01*
X150565800Y-129270668D01*
X150792492Y-129250835D01*
X151012296Y-129191939D01*
X151218534Y-129095768D01*
X151404939Y-128965247D01*
X151565847Y-128804339D01*
X151696368Y-128617934D01*
X151703419Y-128602812D01*
X151749174Y-128550639D01*
X151815800Y-128531219D01*
X151882426Y-128550639D01*
X151928180Y-128602812D01*
X151933163Y-128613497D01*
X151935234Y-128617938D01*
X152065753Y-128804340D01*
X152226659Y-128965246D01*
X152413064Y-129095767D01*
X152413065Y-129095767D01*
X152413066Y-129095768D01*
X152619304Y-129191939D01*
X152839108Y-129250835D01*
X153065800Y-129270668D01*
X153292492Y-129250835D01*
X153512296Y-129191939D01*
X153718534Y-129095768D01*
X153904939Y-128965247D01*
X154065847Y-128804339D01*
X154196368Y-128617934D01*
X154292539Y-128411696D01*
X154351435Y-128191892D01*
X154371268Y-127965200D01*
X154351435Y-127738508D01*
X154292539Y-127518704D01*
X154196368Y-127312466D01*
X154196126Y-127312121D01*
X154065846Y-127126059D01*
X153904940Y-126965153D01*
X153718535Y-126834632D01*
X153512297Y-126738461D01*
X153292489Y-126679564D01*
X153065800Y-126659731D01*
X152839110Y-126679564D01*
X152619302Y-126738461D01*
X152413064Y-126834632D01*
X152226659Y-126965153D01*
X152065753Y-127126059D01*
X151935232Y-127312464D01*
X151928182Y-127327585D01*
X151882425Y-127379761D01*
X151815800Y-127399180D01*
X151749175Y-127379761D01*
X151703418Y-127327585D01*
X151696367Y-127312464D01*
X151565846Y-127126059D01*
X151404940Y-126965153D01*
X151218535Y-126834632D01*
X151012297Y-126738461D01*
X150792489Y-126679564D01*
X150565800Y-126659731D01*
X150339110Y-126679564D01*
X150119302Y-126738461D01*
X149913064Y-126834632D01*
X149726659Y-126965153D01*
X149565753Y-127126059D01*
X149435232Y-127312464D01*
X149433163Y-127316903D01*
X149387406Y-127369080D01*
X149320780Y-127388500D01*
X147559153Y-127388500D01*
X147492528Y-127369081D01*
X147446771Y-127316905D01*
X147425784Y-127271900D01*
X147409168Y-127236266D01*
X147297708Y-127077083D01*
X147281163Y-127053454D01*
X147260907Y-127005420D01*
X147262183Y-126953305D01*
X147284765Y-126906323D01*
X147286116Y-126904581D01*
X147293681Y-126895725D01*
X147323693Y-126863767D01*
X147333389Y-126846127D01*
X147344075Y-126829861D01*
X147356407Y-126813963D01*
X147356406Y-126813963D01*
X147356408Y-126813962D01*
X147373819Y-126773725D01*
X147378951Y-126763250D01*
X147388502Y-126745878D01*
X147400072Y-126724834D01*
X147405077Y-126705340D01*
X147411383Y-126686923D01*
X147419373Y-126668460D01*
X147419372Y-126668460D01*
X147419374Y-126668458D01*
X147426231Y-126625155D01*
X147428596Y-126613736D01*
X147439500Y-126571272D01*
X147439500Y-126551142D01*
X147441027Y-126531743D01*
X147442062Y-126525207D01*
X147444175Y-126511867D01*
X147440050Y-126468230D01*
X147439500Y-126456561D01*
X147439500Y-126035211D01*
X147458506Y-125969239D01*
X147471537Y-125948500D01*
X147496082Y-125909437D01*
X147496475Y-125908312D01*
X147525836Y-125861581D01*
X148924877Y-124462540D01*
X148984607Y-124429414D01*
X149052818Y-124432941D01*
X149130386Y-124459571D01*
X149375665Y-124500500D01*
X149624335Y-124500500D01*
X149869614Y-124459571D01*
X150104810Y-124378828D01*
X150323509Y-124260474D01*
X150519744Y-124107738D01*
X150688164Y-123924785D01*
X150824173Y-123716607D01*
X150830717Y-123701689D01*
X150857809Y-123662619D01*
X150897611Y-123636615D01*
X150944273Y-123627500D01*
X154555727Y-123627500D01*
X154602389Y-123636615D01*
X154642191Y-123662619D01*
X154669283Y-123701689D01*
X154675827Y-123716607D01*
X154811836Y-123924785D01*
X154980256Y-124107738D01*
X154980259Y-124107740D01*
X155176485Y-124260470D01*
X155176487Y-124260471D01*
X155176491Y-124260474D01*
X155395190Y-124378828D01*
X155630386Y-124459571D01*
X155875665Y-124500500D01*
X156124335Y-124500500D01*
X156369614Y-124459571D01*
X156604810Y-124378828D01*
X156823509Y-124260474D01*
X157019744Y-124107738D01*
X157188164Y-123924785D01*
X157324173Y-123716607D01*
X157424063Y-123488881D01*
X157485108Y-123247821D01*
X157505643Y-123000000D01*
X157503331Y-122972104D01*
X157498280Y-122911137D01*
X157485108Y-122752179D01*
X157424063Y-122511119D01*
X157324173Y-122283393D01*
X157188164Y-122075215D01*
X157019744Y-121892262D01*
X156930286Y-121822634D01*
X156823514Y-121739529D01*
X156823510Y-121739526D01*
X156823509Y-121739526D01*
X156604810Y-121621172D01*
X156604806Y-121621170D01*
X156604805Y-121621170D01*
X156369615Y-121540429D01*
X156124335Y-121499500D01*
X155875665Y-121499500D01*
X155630384Y-121540429D01*
X155395194Y-121621170D01*
X155176485Y-121739529D01*
X154980259Y-121892259D01*
X154980256Y-121892261D01*
X154980256Y-121892262D01*
X154811836Y-122075215D01*
X154743831Y-122179303D01*
X154675826Y-122283394D01*
X154669283Y-122298311D01*
X154642191Y-122337381D01*
X154602389Y-122363385D01*
X154555727Y-122372500D01*
X150944273Y-122372500D01*
X150897611Y-122363385D01*
X150857809Y-122337381D01*
X150830717Y-122298311D01*
X150826208Y-122288032D01*
X150824173Y-122283393D01*
X150688164Y-122075215D01*
X150519744Y-121892262D01*
X150430286Y-121822634D01*
X150323514Y-121739529D01*
X150323510Y-121739526D01*
X150323509Y-121739526D01*
X150104810Y-121621172D01*
X150104806Y-121621170D01*
X150104805Y-121621170D01*
X149869615Y-121540429D01*
X149624335Y-121499500D01*
X149375665Y-121499500D01*
X149130384Y-121540429D01*
X148895194Y-121621170D01*
X148676485Y-121739529D01*
X148480259Y-121892259D01*
X148480256Y-121892261D01*
X148480256Y-121892262D01*
X148311836Y-122075215D01*
X148300754Y-122092178D01*
X148175825Y-122283395D01*
X148116370Y-122418941D01*
X148075937Y-122511119D01*
X148014892Y-122752179D01*
X148014891Y-122752183D01*
X147994356Y-122999999D01*
X148014891Y-123247816D01*
X148014891Y-123247819D01*
X148014892Y-123247821D01*
X148061626Y-123432367D01*
X148068292Y-123458691D01*
X148067637Y-123522049D01*
X148035767Y-123576812D01*
X147778484Y-123834095D01*
X147729806Y-123864120D01*
X147672831Y-123869105D01*
X147619679Y-123847989D01*
X147581658Y-123805264D01*
X147566855Y-123750020D01*
X147566552Y-123739604D01*
X147566500Y-123735998D01*
X147566500Y-119723610D01*
X148629942Y-119723610D01*
X148676766Y-119760055D01*
X148895393Y-119878368D01*
X149130506Y-119959083D01*
X149375707Y-120000000D01*
X149624293Y-120000000D01*
X149869493Y-119959083D01*
X150104606Y-119878368D01*
X150323233Y-119760053D01*
X150370055Y-119723610D01*
X155129942Y-119723610D01*
X155176766Y-119760055D01*
X155395393Y-119878368D01*
X155630506Y-119959083D01*
X155875707Y-120000000D01*
X156124293Y-120000000D01*
X156369493Y-119959083D01*
X156604606Y-119878368D01*
X156823233Y-119760053D01*
X156870056Y-119723609D01*
X156000000Y-118853553D01*
X155129942Y-119723609D01*
X155129942Y-119723610D01*
X150370055Y-119723610D01*
X150370056Y-119723609D01*
X149500000Y-118853553D01*
X148629942Y-119723609D01*
X148629942Y-119723610D01*
X147566500Y-119723610D01*
X147566500Y-118500000D01*
X147994858Y-118500000D01*
X148015386Y-118747732D01*
X148076413Y-118988721D01*
X148176268Y-119216370D01*
X148276563Y-119369882D01*
X148276564Y-119369882D01*
X149146447Y-118500001D01*
X149853553Y-118500001D01*
X150723434Y-119369882D01*
X150823730Y-119216369D01*
X150923586Y-118988721D01*
X150984613Y-118747732D01*
X151005141Y-118500000D01*
X154494858Y-118500000D01*
X154515386Y-118747732D01*
X154576413Y-118988721D01*
X154676268Y-119216370D01*
X154776563Y-119369882D01*
X154776564Y-119369882D01*
X155646447Y-118500001D01*
X156353553Y-118500001D01*
X157223434Y-119369882D01*
X157323730Y-119216369D01*
X157423586Y-118988721D01*
X157484613Y-118747732D01*
X157505141Y-118500000D01*
X157484613Y-118252267D01*
X157423586Y-118011278D01*
X157323730Y-117783630D01*
X157223434Y-117630116D01*
X156353553Y-118500000D01*
X156353553Y-118500001D01*
X155646447Y-118500001D01*
X155646447Y-118500000D01*
X154776564Y-117630116D01*
X154676266Y-117783634D01*
X154576413Y-118011278D01*
X154515386Y-118252267D01*
X154494858Y-118500000D01*
X151005141Y-118500000D01*
X150984613Y-118252267D01*
X150923586Y-118011278D01*
X150823730Y-117783630D01*
X150723434Y-117630116D01*
X149853553Y-118500000D01*
X149853553Y-118500001D01*
X149146447Y-118500001D01*
X149146447Y-118500000D01*
X148276564Y-117630116D01*
X148176266Y-117783634D01*
X148076413Y-118011278D01*
X148015386Y-118252267D01*
X147994858Y-118500000D01*
X147566500Y-118500000D01*
X147566500Y-117276390D01*
X148629942Y-117276390D01*
X149500000Y-118146447D01*
X149500001Y-118146447D01*
X150370057Y-117276390D01*
X155129942Y-117276390D01*
X156000000Y-118146447D01*
X156000001Y-118146447D01*
X156870057Y-117276390D01*
X156870056Y-117276388D01*
X156823235Y-117239947D01*
X156604606Y-117121631D01*
X156369493Y-117040916D01*
X156124293Y-117000000D01*
X155875707Y-117000000D01*
X155630506Y-117040916D01*
X155395393Y-117121631D01*
X155176764Y-117239946D01*
X155129942Y-117276388D01*
X155129942Y-117276390D01*
X150370057Y-117276390D01*
X150370056Y-117276388D01*
X150323235Y-117239947D01*
X150104606Y-117121631D01*
X149869493Y-117040916D01*
X149624293Y-117000000D01*
X149375707Y-117000000D01*
X149130506Y-117040916D01*
X148895393Y-117121631D01*
X148676764Y-117239946D01*
X148629942Y-117276388D01*
X148629942Y-117276390D01*
X147566500Y-117276390D01*
X147566500Y-111627866D01*
X147580511Y-111570609D01*
X147581899Y-111569026D01*
X148606526Y-111569026D01*
X148679515Y-111620133D01*
X148885673Y-111716266D01*
X149105397Y-111775141D01*
X149332000Y-111794966D01*
X149558602Y-111775141D01*
X149778326Y-111716266D01*
X149984480Y-111620134D01*
X150057472Y-111569025D01*
X149332001Y-110843553D01*
X149332000Y-110843553D01*
X148606526Y-111569025D01*
X148606526Y-111569026D01*
X147581899Y-111569026D01*
X147619378Y-111526290D01*
X147658498Y-111498898D01*
X147671139Y-111490047D01*
X147832047Y-111329139D01*
X147962568Y-111142734D01*
X147969893Y-111127023D01*
X148015647Y-111074849D01*
X148082273Y-111055428D01*
X148148899Y-111074847D01*
X148194657Y-111127023D01*
X148201866Y-111142483D01*
X148252972Y-111215471D01*
X148252974Y-111215472D01*
X148978446Y-110490001D01*
X149685553Y-110490001D01*
X150411025Y-111215472D01*
X150462134Y-111142480D01*
X150558266Y-110936326D01*
X150617141Y-110716602D01*
X150636966Y-110490000D01*
X150617141Y-110263397D01*
X150558266Y-110043673D01*
X150462133Y-109837515D01*
X150411025Y-109764526D01*
X149685553Y-110490000D01*
X149685553Y-110490001D01*
X148978446Y-110490001D01*
X148978446Y-110490000D01*
X148252973Y-109764526D01*
X148252973Y-109764527D01*
X148201865Y-109837517D01*
X148194656Y-109852977D01*
X148148899Y-109905151D01*
X148082274Y-109924570D01*
X148015649Y-109905150D01*
X147969893Y-109852975D01*
X147969722Y-109852609D01*
X147962568Y-109837266D01*
X147961895Y-109836305D01*
X147832046Y-109650859D01*
X147671140Y-109489953D01*
X147558344Y-109410973D01*
X148606526Y-109410973D01*
X149332000Y-110136446D01*
X149332001Y-110136446D01*
X150057472Y-109410974D01*
X150057471Y-109410972D01*
X149984484Y-109359866D01*
X149778326Y-109263733D01*
X149558602Y-109204858D01*
X149332000Y-109185033D01*
X149105397Y-109204858D01*
X148885672Y-109263733D01*
X148679516Y-109359865D01*
X148606527Y-109410973D01*
X148606526Y-109410973D01*
X147558344Y-109410973D01*
X147484735Y-109359432D01*
X147278497Y-109263261D01*
X147058689Y-109204364D01*
X146832002Y-109184531D01*
X146815440Y-109185980D01*
X146762224Y-109178972D01*
X146716956Y-109150132D01*
X146044566Y-108477742D01*
X146032783Y-108464108D01*
X146018338Y-108444705D01*
X145980165Y-108412674D01*
X145972189Y-108405365D01*
X145968239Y-108401415D01*
X145943786Y-108382079D01*
X145940992Y-108379804D01*
X145883227Y-108331333D01*
X145883225Y-108331332D01*
X145882292Y-108330549D01*
X145865698Y-108319976D01*
X145796242Y-108287589D01*
X145792997Y-108286018D01*
X145724522Y-108251629D01*
X145705925Y-108245165D01*
X145630886Y-108229670D01*
X145627369Y-108228890D01*
X145552805Y-108211219D01*
X145533225Y-108209218D01*
X145456604Y-108211448D01*
X145452998Y-108211500D01*
X142836886Y-108211500D01*
X142780591Y-108197985D01*
X142736568Y-108160385D01*
X142714413Y-108106898D01*
X142718955Y-108049182D01*
X142749205Y-107999819D01*
X143823676Y-106925348D01*
X147089464Y-103659558D01*
X147103083Y-103647788D01*
X147122494Y-103633339D01*
X147154534Y-103595154D01*
X147161820Y-103587202D01*
X147165783Y-103583241D01*
X147185155Y-103558740D01*
X147187375Y-103556015D01*
X147235867Y-103498227D01*
X147235868Y-103498223D01*
X147236652Y-103497290D01*
X147247220Y-103480701D01*
X147247734Y-103479597D01*
X147247739Y-103479592D01*
X147251177Y-103472218D01*
X147292435Y-103423047D01*
X147472601Y-103296895D01*
X147639695Y-103129801D01*
X147749932Y-102972364D01*
X147794248Y-102933501D01*
X147851505Y-102919490D01*
X147908762Y-102933501D01*
X147953080Y-102972367D01*
X148063090Y-103129478D01*
X148230118Y-103296506D01*
X148423623Y-103432000D01*
X148637707Y-103531830D01*
X148851199Y-103589035D01*
X148851200Y-103589036D01*
X148851200Y-102383400D01*
X149351200Y-102383400D01*
X149351200Y-103589035D01*
X149564692Y-103531830D01*
X149778778Y-103431999D01*
X149972278Y-103296509D01*
X150139309Y-103129478D01*
X150274799Y-102935978D01*
X150361523Y-102750000D01*
X155894340Y-102750000D01*
X155914936Y-102985407D01*
X155966219Y-103176797D01*
X155976097Y-103213663D01*
X156075965Y-103427829D01*
X156211505Y-103621401D01*
X156378599Y-103788495D01*
X156572171Y-103924035D01*
X156786337Y-104023903D01*
X157014591Y-104085062D01*
X157014592Y-104085063D01*
X157191032Y-104100500D01*
X157191034Y-104100500D01*
X157308966Y-104100500D01*
X157308968Y-104100500D01*
X157426593Y-104090208D01*
X157485408Y-104085063D01*
X157713663Y-104023903D01*
X157927829Y-103924035D01*
X158121401Y-103788495D01*
X158288495Y-103621401D01*
X158424035Y-103427830D01*
X158523903Y-103213663D01*
X158585063Y-102985408D01*
X158605659Y-102750000D01*
X158585063Y-102514592D01*
X158523903Y-102286337D01*
X158424035Y-102072171D01*
X158288495Y-101878599D01*
X158121401Y-101711505D01*
X157927829Y-101575965D01*
X157713663Y-101476097D01*
X157485407Y-101414936D01*
X157308968Y-101399500D01*
X157308966Y-101399500D01*
X157191034Y-101399500D01*
X157191032Y-101399500D01*
X157014592Y-101414936D01*
X156786336Y-101476097D01*
X156572170Y-101575965D01*
X156378598Y-101711505D01*
X156211508Y-101878595D01*
X156211505Y-101878598D01*
X156211505Y-101878599D01*
X156121318Y-102007400D01*
X156075964Y-102072172D01*
X155976097Y-102286337D01*
X155914936Y-102514592D01*
X155894340Y-102750000D01*
X150361523Y-102750000D01*
X150374630Y-102721892D01*
X150435769Y-102493718D01*
X150445421Y-102383400D01*
X149351200Y-102383400D01*
X148851200Y-102383400D01*
X148851200Y-102007400D01*
X148867813Y-101945400D01*
X148913200Y-101900013D01*
X148975200Y-101883400D01*
X150445422Y-101883400D01*
X150445421Y-101883399D01*
X150435769Y-101773081D01*
X150374630Y-101544907D01*
X150274799Y-101330821D01*
X150139309Y-101137321D01*
X149972281Y-100970293D01*
X149778776Y-100834799D01*
X149568794Y-100736882D01*
X149518398Y-100693840D01*
X149497369Y-100630989D01*
X149511714Y-100566285D01*
X149557334Y-100518211D01*
X149621199Y-100500500D01*
X159375500Y-100500500D01*
X159437500Y-100517113D01*
G37*
%TD.AperFunction*%
%TA.AperFunction,Conductor*%
G36*
X120621170Y-109738491D02*
G01*
X120666831Y-109787243D01*
X120680577Y-109852609D01*
X120658417Y-109915623D01*
X120535432Y-110091264D01*
X120439261Y-110297502D01*
X120380364Y-110517310D01*
X120360531Y-110743999D01*
X120380364Y-110970689D01*
X120439261Y-111190497D01*
X120535432Y-111396735D01*
X120665953Y-111583140D01*
X120826859Y-111744046D01*
X121013264Y-111874567D01*
X121013265Y-111874567D01*
X121013266Y-111874568D01*
X121219504Y-111970739D01*
X121439308Y-112029635D01*
X121590436Y-112042857D01*
X121665999Y-112049468D01*
X121665999Y-112049467D01*
X121666000Y-112049468D01*
X121707000Y-112045881D01*
X121766258Y-112055266D01*
X121814174Y-112091373D01*
X121839530Y-112145748D01*
X121836390Y-112205663D01*
X121805489Y-112257090D01*
X121306354Y-112756225D01*
X121290206Y-112769163D01*
X121242046Y-112820447D01*
X121239340Y-112823240D01*
X121219774Y-112842807D01*
X121217299Y-112845998D01*
X121209717Y-112854875D01*
X121179706Y-112886834D01*
X121170006Y-112904477D01*
X121159328Y-112920733D01*
X121146992Y-112936636D01*
X121129585Y-112976862D01*
X121124447Y-112987350D01*
X121103327Y-113025766D01*
X121098319Y-113045270D01*
X121092019Y-113063669D01*
X121084025Y-113082142D01*
X121077169Y-113125431D01*
X121074801Y-113136867D01*
X121063900Y-113179328D01*
X121063900Y-113199459D01*
X121062373Y-113218858D01*
X121059225Y-113238731D01*
X121063350Y-113282370D01*
X121063900Y-113294039D01*
X121063900Y-114504151D01*
X121048614Y-114563794D01*
X121006525Y-114608732D01*
X120948010Y-114627886D01*
X120887495Y-114616533D01*
X120791697Y-114571861D01*
X120571889Y-114512964D01*
X120345200Y-114493131D01*
X120118510Y-114512964D01*
X119898702Y-114571861D01*
X119692464Y-114668032D01*
X119506059Y-114798553D01*
X119345153Y-114959459D01*
X119214633Y-115145863D01*
X119187582Y-115203875D01*
X119141825Y-115256050D01*
X119075200Y-115275469D01*
X119008575Y-115256050D01*
X118962818Y-115203875D01*
X118935887Y-115146122D01*
X118935768Y-115145866D01*
X118935766Y-115145863D01*
X118805246Y-114959459D01*
X118644340Y-114798553D01*
X118457935Y-114668032D01*
X118251697Y-114571861D01*
X118031889Y-114512964D01*
X117805200Y-114493131D01*
X117578510Y-114512964D01*
X117358702Y-114571861D01*
X117152464Y-114668032D01*
X116966059Y-114798553D01*
X116805153Y-114959459D01*
X116674633Y-115145863D01*
X116647582Y-115203875D01*
X116601825Y-115256050D01*
X116535200Y-115275469D01*
X116468575Y-115256050D01*
X116422818Y-115203875D01*
X116395887Y-115146122D01*
X116395768Y-115145866D01*
X116395766Y-115145863D01*
X116265246Y-114959459D01*
X116104340Y-114798553D01*
X115917935Y-114668032D01*
X115711697Y-114571861D01*
X115491889Y-114512964D01*
X115265200Y-114493131D01*
X115038510Y-114512964D01*
X114818702Y-114571861D01*
X114612464Y-114668032D01*
X114426059Y-114798553D01*
X114265153Y-114959459D01*
X114134633Y-115145863D01*
X114107582Y-115203875D01*
X114061825Y-115256050D01*
X113995200Y-115275469D01*
X113928575Y-115256050D01*
X113882818Y-115203875D01*
X113855887Y-115146122D01*
X113855768Y-115145866D01*
X113855766Y-115145863D01*
X113725246Y-114959459D01*
X113564340Y-114798553D01*
X113377935Y-114668032D01*
X113171697Y-114571861D01*
X112951889Y-114512964D01*
X112725200Y-114493131D01*
X112498510Y-114512964D01*
X112278702Y-114571861D01*
X112072464Y-114668032D01*
X111886059Y-114798553D01*
X111725153Y-114959459D01*
X111594633Y-115145863D01*
X111567582Y-115203875D01*
X111521825Y-115256050D01*
X111455200Y-115275469D01*
X111388575Y-115256050D01*
X111342818Y-115203875D01*
X111315887Y-115146122D01*
X111315768Y-115145866D01*
X111315766Y-115145863D01*
X111185246Y-114959459D01*
X111024340Y-114798553D01*
X110837935Y-114668032D01*
X110631697Y-114571861D01*
X110411889Y-114512964D01*
X110185200Y-114493131D01*
X109958510Y-114512964D01*
X109738702Y-114571861D01*
X109532464Y-114668032D01*
X109346059Y-114798553D01*
X109185153Y-114959459D01*
X109054632Y-115145864D01*
X108958461Y-115352102D01*
X108899564Y-115571910D01*
X108879731Y-115798600D01*
X108899564Y-116025289D01*
X108958461Y-116245097D01*
X109054632Y-116451335D01*
X109185153Y-116637740D01*
X109346059Y-116798646D01*
X109532464Y-116929167D01*
X109532465Y-116929167D01*
X109532466Y-116929168D01*
X109738704Y-117025339D01*
X109958508Y-117084235D01*
X110185200Y-117104068D01*
X110411892Y-117084235D01*
X110631696Y-117025339D01*
X110837934Y-116929168D01*
X111024339Y-116798647D01*
X111185247Y-116637739D01*
X111315768Y-116451334D01*
X111342818Y-116393324D01*
X111388575Y-116341149D01*
X111455200Y-116321729D01*
X111521825Y-116341149D01*
X111567582Y-116393325D01*
X111594631Y-116451333D01*
X111725153Y-116637740D01*
X111886059Y-116798646D01*
X112072464Y-116929167D01*
X112072465Y-116929167D01*
X112072466Y-116929168D01*
X112278704Y-117025339D01*
X112498508Y-117084235D01*
X112725200Y-117104068D01*
X112951892Y-117084235D01*
X113171696Y-117025339D01*
X113377934Y-116929168D01*
X113564339Y-116798647D01*
X113725247Y-116637739D01*
X113855768Y-116451334D01*
X113882818Y-116393324D01*
X113928575Y-116341149D01*
X113995200Y-116321729D01*
X114061825Y-116341149D01*
X114107582Y-116393325D01*
X114134631Y-116451333D01*
X114265153Y-116637740D01*
X114426059Y-116798646D01*
X114612464Y-116929167D01*
X114612465Y-116929167D01*
X114612466Y-116929168D01*
X114818704Y-117025339D01*
X115038508Y-117084235D01*
X115265200Y-117104068D01*
X115491892Y-117084235D01*
X115711696Y-117025339D01*
X115917934Y-116929168D01*
X116104339Y-116798647D01*
X116265247Y-116637739D01*
X116395768Y-116451334D01*
X116422818Y-116393324D01*
X116468575Y-116341149D01*
X116535200Y-116321729D01*
X116601825Y-116341149D01*
X116647582Y-116393325D01*
X116674631Y-116451333D01*
X116805153Y-116637740D01*
X116966059Y-116798646D01*
X117152464Y-116929167D01*
X117152465Y-116929167D01*
X117152466Y-116929168D01*
X117358704Y-117025339D01*
X117578508Y-117084235D01*
X117805200Y-117104068D01*
X118031892Y-117084235D01*
X118251696Y-117025339D01*
X118457934Y-116929168D01*
X118644339Y-116798647D01*
X118805247Y-116637739D01*
X118935768Y-116451334D01*
X118962818Y-116393324D01*
X119008575Y-116341149D01*
X119075200Y-116321729D01*
X119141825Y-116341149D01*
X119187582Y-116393325D01*
X119214631Y-116451333D01*
X119345153Y-116637740D01*
X119506059Y-116798646D01*
X119692464Y-116929167D01*
X119692465Y-116929167D01*
X119692466Y-116929168D01*
X119898704Y-117025339D01*
X120118508Y-117084235D01*
X120345200Y-117104068D01*
X120571892Y-117084235D01*
X120791696Y-117025339D01*
X120871722Y-116988021D01*
X120887495Y-116980667D01*
X120948010Y-116969314D01*
X121006525Y-116988468D01*
X121048614Y-117033406D01*
X121063900Y-117093049D01*
X121063900Y-122124151D01*
X121048614Y-122183794D01*
X121006525Y-122228732D01*
X120948010Y-122247886D01*
X120887495Y-122236533D01*
X120791697Y-122191861D01*
X120571889Y-122132964D01*
X120345200Y-122113131D01*
X120118510Y-122132964D01*
X119898702Y-122191861D01*
X119692464Y-122288032D01*
X119506059Y-122418553D01*
X119345153Y-122579459D01*
X119214633Y-122765863D01*
X119187582Y-122823875D01*
X119141825Y-122876050D01*
X119075200Y-122895469D01*
X119008575Y-122876050D01*
X118962818Y-122823875D01*
X118935887Y-122766122D01*
X118935768Y-122765866D01*
X118926184Y-122752179D01*
X118805246Y-122579459D01*
X118644340Y-122418553D01*
X118457935Y-122288032D01*
X118251697Y-122191861D01*
X118031889Y-122132964D01*
X117805200Y-122113131D01*
X117578510Y-122132964D01*
X117358702Y-122191861D01*
X117152464Y-122288032D01*
X116966059Y-122418553D01*
X116805153Y-122579459D01*
X116674633Y-122765863D01*
X116647582Y-122823875D01*
X116601825Y-122876050D01*
X116535200Y-122895469D01*
X116468575Y-122876050D01*
X116422818Y-122823875D01*
X116395887Y-122766122D01*
X116395768Y-122765866D01*
X116386184Y-122752179D01*
X116265246Y-122579459D01*
X116104340Y-122418553D01*
X115917935Y-122288032D01*
X115711697Y-122191861D01*
X115491889Y-122132964D01*
X115265200Y-122113131D01*
X115038510Y-122132964D01*
X114818702Y-122191861D01*
X114612464Y-122288032D01*
X114426059Y-122418553D01*
X114265153Y-122579459D01*
X114134633Y-122765863D01*
X114107582Y-122823875D01*
X114061825Y-122876050D01*
X113995200Y-122895469D01*
X113928575Y-122876050D01*
X113882818Y-122823875D01*
X113855887Y-122766122D01*
X113855768Y-122765866D01*
X113846184Y-122752179D01*
X113725246Y-122579459D01*
X113564340Y-122418553D01*
X113377935Y-122288032D01*
X113171697Y-122191861D01*
X112951889Y-122132964D01*
X112725200Y-122113131D01*
X112498510Y-122132964D01*
X112278702Y-122191861D01*
X112072464Y-122288032D01*
X111886059Y-122418553D01*
X111725151Y-122579461D01*
X111707925Y-122604063D01*
X111663082Y-122643200D01*
X111605169Y-122656933D01*
X111547528Y-122642099D01*
X111503439Y-122602114D01*
X111483061Y-122546192D01*
X111479291Y-122511117D01*
X111428996Y-122376269D01*
X111342746Y-122261054D01*
X111227531Y-122174804D01*
X111092683Y-122124509D01*
X111033073Y-122118100D01*
X111033069Y-122118100D01*
X109337330Y-122118100D01*
X109277715Y-122124509D01*
X109142869Y-122174804D01*
X109027654Y-122261054D01*
X108941404Y-122376268D01*
X108891109Y-122511116D01*
X108884700Y-122570730D01*
X108884700Y-124266469D01*
X108891109Y-124326083D01*
X108941404Y-124460931D01*
X109027654Y-124576146D01*
X109142869Y-124662396D01*
X109277717Y-124712691D01*
X109337327Y-124719100D01*
X111033072Y-124719099D01*
X111092683Y-124712691D01*
X111227531Y-124662396D01*
X111342746Y-124576146D01*
X111428996Y-124460931D01*
X111479291Y-124326083D01*
X111483062Y-124291005D01*
X111503439Y-124235086D01*
X111547528Y-124195101D01*
X111605169Y-124180267D01*
X111663082Y-124194000D01*
X111707925Y-124233137D01*
X111725151Y-124257738D01*
X111886059Y-124418646D01*
X111944507Y-124459571D01*
X111996426Y-124495925D01*
X112044823Y-124529812D01*
X112083689Y-124574130D01*
X112097700Y-124631387D01*
X112097700Y-125418434D01*
X112095429Y-125439001D01*
X112097639Y-125509319D01*
X112097700Y-125513213D01*
X112097700Y-125540876D01*
X112098206Y-125544884D01*
X112099121Y-125556518D01*
X112100498Y-125600343D01*
X112106116Y-125619678D01*
X112110061Y-125638728D01*
X112112583Y-125658693D01*
X112128719Y-125699449D01*
X112132502Y-125710498D01*
X112144730Y-125752587D01*
X112144731Y-125752589D01*
X112144732Y-125752591D01*
X112154979Y-125769917D01*
X112163538Y-125787389D01*
X112170947Y-125806105D01*
X112196711Y-125841565D01*
X112203125Y-125851329D01*
X112220716Y-125881074D01*
X112225437Y-125889056D01*
X112239675Y-125903294D01*
X112252307Y-125918085D01*
X112264137Y-125934367D01*
X112270574Y-125939692D01*
X112297905Y-125962302D01*
X112306546Y-125970165D01*
X113365824Y-127029443D01*
X113378762Y-127045592D01*
X113430045Y-127093750D01*
X113432844Y-127096463D01*
X113452404Y-127116023D01*
X113455585Y-127118490D01*
X113464480Y-127126086D01*
X113496433Y-127156093D01*
X113512792Y-127165086D01*
X113514069Y-127165788D01*
X113530337Y-127176474D01*
X113546236Y-127188807D01*
X113546237Y-127188807D01*
X113546238Y-127188808D01*
X113586470Y-127206218D01*
X113596945Y-127211349D01*
X113635366Y-127232472D01*
X113654866Y-127237478D01*
X113673263Y-127243777D01*
X113691741Y-127251774D01*
X113735040Y-127258631D01*
X113746467Y-127260997D01*
X113788928Y-127271900D01*
X113809059Y-127271900D01*
X113828455Y-127273426D01*
X113848333Y-127276575D01*
X113888128Y-127272813D01*
X113891970Y-127272450D01*
X113903639Y-127271900D01*
X117620919Y-127271900D01*
X117668372Y-127281339D01*
X117708600Y-127308219D01*
X118208181Y-127807800D01*
X118235061Y-127848028D01*
X118244500Y-127895481D01*
X118244500Y-133013034D01*
X118242229Y-133033601D01*
X118244439Y-133103919D01*
X118244500Y-133107813D01*
X118244500Y-133135476D01*
X118245006Y-133139484D01*
X118245921Y-133151118D01*
X118247298Y-133194943D01*
X118252916Y-133214278D01*
X118256861Y-133233328D01*
X118259383Y-133253293D01*
X118275519Y-133294049D01*
X118279302Y-133305098D01*
X118291530Y-133347187D01*
X118291531Y-133347189D01*
X118291532Y-133347191D01*
X118301779Y-133364517D01*
X118310338Y-133381989D01*
X118317747Y-133400705D01*
X118343511Y-133436165D01*
X118349925Y-133445929D01*
X118372235Y-133483653D01*
X118372237Y-133483656D01*
X118386475Y-133497894D01*
X118399107Y-133512685D01*
X118410937Y-133528967D01*
X118436896Y-133550442D01*
X118444705Y-133556902D01*
X118453346Y-133564765D01*
X119639624Y-134751043D01*
X119652562Y-134767192D01*
X119703845Y-134815350D01*
X119706643Y-134818062D01*
X119726204Y-134837623D01*
X119729385Y-134840090D01*
X119738282Y-134847688D01*
X119770230Y-134877691D01*
X119770232Y-134877692D01*
X119770233Y-134877693D01*
X119787878Y-134887393D01*
X119804135Y-134898072D01*
X119820038Y-134910408D01*
X119860258Y-134927812D01*
X119870749Y-134932951D01*
X119909166Y-134954072D01*
X119928663Y-134959078D01*
X119947069Y-134965379D01*
X119965541Y-134973373D01*
X120008841Y-134980230D01*
X120020248Y-134982592D01*
X120062728Y-134993500D01*
X120082859Y-134993500D01*
X120102257Y-134995026D01*
X120122133Y-134998175D01*
X120162208Y-134994386D01*
X120165770Y-134994050D01*
X120177439Y-134993500D01*
X127196719Y-134993500D01*
X127244172Y-135002939D01*
X127284400Y-135029819D01*
X128137670Y-135883089D01*
X128166510Y-135928357D01*
X128173518Y-135981573D01*
X128157380Y-136032764D01*
X128128031Y-136064795D01*
X128128270Y-136065034D01*
X128122825Y-136070478D01*
X128121120Y-136072340D01*
X128120599Y-136072704D01*
X127953508Y-136239795D01*
X127953507Y-136239797D01*
X127953505Y-136239799D01*
X127946256Y-136250152D01*
X127843574Y-136396797D01*
X127799255Y-136435663D01*
X127741998Y-136449673D01*
X127684742Y-136435662D01*
X127640426Y-136396798D01*
X127530495Y-136239799D01*
X127363401Y-136072705D01*
X127169830Y-135937165D01*
X126955663Y-135837297D01*
X126855744Y-135810524D01*
X126727407Y-135776136D01*
X126492000Y-135755540D01*
X126256592Y-135776136D01*
X126028336Y-135837297D01*
X125814170Y-135937165D01*
X125620598Y-136072705D01*
X125453508Y-136239795D01*
X125453507Y-136239797D01*
X125453505Y-136239799D01*
X125446256Y-136250152D01*
X125343269Y-136397233D01*
X125298951Y-136436098D01*
X125241694Y-136450109D01*
X125184437Y-136436098D01*
X125140119Y-136397232D01*
X125030109Y-136240121D01*
X124863081Y-136073093D01*
X124669576Y-135937599D01*
X124455492Y-135837769D01*
X124242000Y-135780564D01*
X124242000Y-138691835D01*
X124455492Y-138634630D01*
X124669578Y-138534799D01*
X124863078Y-138399309D01*
X125030109Y-138232278D01*
X125140119Y-138075168D01*
X125184437Y-138036302D01*
X125241694Y-138022291D01*
X125298951Y-138036302D01*
X125343268Y-138075166D01*
X125453505Y-138232601D01*
X125620599Y-138399695D01*
X125814170Y-138535235D01*
X125814172Y-138535236D01*
X125815192Y-138535950D01*
X125847668Y-138569386D01*
X125854597Y-138579921D01*
X125856526Y-138582946D01*
X125896130Y-138647154D01*
X125896131Y-138647155D01*
X125896774Y-138648197D01*
X125909202Y-138663453D01*
X125964937Y-138716035D01*
X125967525Y-138718549D01*
X126536795Y-139287819D01*
X126567045Y-139337182D01*
X126571587Y-139394898D01*
X126549432Y-139448385D01*
X126505409Y-139485985D01*
X126449114Y-139499500D01*
X100624500Y-139499500D01*
X100562500Y-139482887D01*
X100517113Y-139437500D01*
X100500500Y-139375500D01*
X100500500Y-137250000D01*
X101394340Y-137250000D01*
X101414936Y-137485407D01*
X101456093Y-137639006D01*
X101476097Y-137713663D01*
X101575965Y-137927829D01*
X101711505Y-138121401D01*
X101878599Y-138288495D01*
X102072171Y-138424035D01*
X102286337Y-138523903D01*
X102495402Y-138579921D01*
X102514592Y-138585063D01*
X102691032Y-138600500D01*
X102691034Y-138600500D01*
X102808966Y-138600500D01*
X102808968Y-138600500D01*
X102926593Y-138590208D01*
X102985408Y-138585063D01*
X103213663Y-138523903D01*
X103427829Y-138424035D01*
X103621401Y-138288495D01*
X103788495Y-138121401D01*
X103924035Y-137927830D01*
X104023903Y-137713663D01*
X104085063Y-137485408D01*
X104096908Y-137350026D01*
X111054526Y-137350026D01*
X111127515Y-137401133D01*
X111333673Y-137497266D01*
X111553397Y-137556141D01*
X111779999Y-137575966D01*
X112006602Y-137556141D01*
X112226326Y-137497266D01*
X112432480Y-137401134D01*
X112505472Y-137350025D01*
X111780001Y-136624553D01*
X111780000Y-136624553D01*
X111054526Y-137350025D01*
X111054526Y-137350026D01*
X104096908Y-137350026D01*
X104105659Y-137250000D01*
X104085063Y-137014592D01*
X104023903Y-136786337D01*
X103924035Y-136572171D01*
X103788495Y-136378599D01*
X103680896Y-136271000D01*
X110475033Y-136271000D01*
X110494858Y-136497602D01*
X110553733Y-136717326D01*
X110649866Y-136923484D01*
X110700972Y-136996471D01*
X110700974Y-136996472D01*
X111426446Y-136271001D01*
X112133553Y-136271001D01*
X112859025Y-136996472D01*
X112910131Y-136923484D01*
X112917340Y-136908026D01*
X112963097Y-136855849D01*
X113029722Y-136836428D01*
X113096348Y-136855847D01*
X113142106Y-136908023D01*
X113149432Y-136923735D01*
X113279953Y-137110140D01*
X113440859Y-137271046D01*
X113627264Y-137401567D01*
X113627265Y-137401567D01*
X113627266Y-137401568D01*
X113833504Y-137497739D01*
X114053308Y-137556635D01*
X114280000Y-137576468D01*
X114506692Y-137556635D01*
X114726496Y-137497739D01*
X114751241Y-137486200D01*
X120142001Y-137486200D01*
X120142001Y-138011179D01*
X120152493Y-138113895D01*
X120207642Y-138280322D01*
X120299683Y-138429545D01*
X120423654Y-138553516D01*
X120572877Y-138645557D01*
X120739303Y-138700706D01*
X120842021Y-138711200D01*
X121242000Y-138711200D01*
X121242000Y-137486200D01*
X121742000Y-137486200D01*
X121742000Y-138711199D01*
X122141979Y-138711199D01*
X122244695Y-138700706D01*
X122411122Y-138645557D01*
X122560345Y-138553516D01*
X122684316Y-138429545D01*
X122780085Y-138274278D01*
X122818998Y-138234794D01*
X122871228Y-138216213D01*
X122926335Y-138222248D01*
X122973305Y-138251693D01*
X123120918Y-138399306D01*
X123314423Y-138534800D01*
X123528507Y-138634630D01*
X123741999Y-138691835D01*
X123742000Y-138691836D01*
X123742000Y-137486200D01*
X121742000Y-137486200D01*
X121242000Y-137486200D01*
X120142001Y-137486200D01*
X114751241Y-137486200D01*
X114932734Y-137401568D01*
X115119139Y-137271047D01*
X115280047Y-137110139D01*
X115366829Y-136986200D01*
X120142000Y-136986200D01*
X121242000Y-136986200D01*
X121242000Y-135761201D01*
X120842021Y-135761201D01*
X120739304Y-135771693D01*
X120572877Y-135826842D01*
X120423654Y-135918883D01*
X120299683Y-136042854D01*
X120207642Y-136192077D01*
X120152493Y-136358503D01*
X120142000Y-136461221D01*
X120142000Y-136986200D01*
X115366829Y-136986200D01*
X115410568Y-136923734D01*
X115506739Y-136717496D01*
X115565635Y-136497692D01*
X115585468Y-136271000D01*
X115565635Y-136044308D01*
X115506739Y-135824504D01*
X115477220Y-135761200D01*
X121742000Y-135761200D01*
X121742000Y-136986200D01*
X123742000Y-136986200D01*
X123742000Y-135780564D01*
X123741999Y-135780564D01*
X123528507Y-135837769D01*
X123314421Y-135937600D01*
X123120924Y-136073088D01*
X122973305Y-136220707D01*
X122926335Y-136250152D01*
X122871228Y-136256186D01*
X122818998Y-136237605D01*
X122780085Y-136198121D01*
X122684316Y-136042854D01*
X122560345Y-135918883D01*
X122411122Y-135826842D01*
X122244696Y-135771693D01*
X122141979Y-135761200D01*
X121742000Y-135761200D01*
X115477220Y-135761200D01*
X115410568Y-135618266D01*
X115396944Y-135598809D01*
X115280046Y-135431859D01*
X115119140Y-135270953D01*
X114932735Y-135140432D01*
X114726497Y-135044261D01*
X114506689Y-134985364D01*
X114280000Y-134965531D01*
X114053310Y-134985364D01*
X113833502Y-135044261D01*
X113627264Y-135140432D01*
X113440859Y-135270953D01*
X113279953Y-135431859D01*
X113149429Y-135618268D01*
X113142104Y-135633978D01*
X113096347Y-135686152D01*
X113029722Y-135705570D01*
X112963098Y-135686150D01*
X112917342Y-135633975D01*
X112910133Y-135618515D01*
X112859025Y-135545526D01*
X112133553Y-136271000D01*
X112133553Y-136271001D01*
X111426446Y-136271001D01*
X111426446Y-136271000D01*
X110700973Y-135545526D01*
X110700973Y-135545527D01*
X110649865Y-135618516D01*
X110553733Y-135824672D01*
X110494858Y-136044397D01*
X110475033Y-136271000D01*
X103680896Y-136271000D01*
X103621401Y-136211505D01*
X103427829Y-136075965D01*
X103213663Y-135976097D01*
X102985407Y-135914936D01*
X102808968Y-135899500D01*
X102808966Y-135899500D01*
X102691034Y-135899500D01*
X102691032Y-135899500D01*
X102514592Y-135914936D01*
X102286336Y-135976097D01*
X102072170Y-136075965D01*
X101878598Y-136211505D01*
X101711508Y-136378595D01*
X101711505Y-136378598D01*
X101711505Y-136378599D01*
X101628118Y-136497689D01*
X101575964Y-136572172D01*
X101476097Y-136786337D01*
X101414936Y-137014592D01*
X101394340Y-137250000D01*
X100500500Y-137250000D01*
X100500500Y-135191973D01*
X111054526Y-135191973D01*
X111780000Y-135917446D01*
X111780001Y-135917446D01*
X112505472Y-135191974D01*
X112505471Y-135191972D01*
X112432484Y-135140866D01*
X112226326Y-135044733D01*
X112006602Y-134985858D01*
X111779999Y-134966033D01*
X111553397Y-134985858D01*
X111333672Y-135044733D01*
X111127516Y-135140865D01*
X111054527Y-135191973D01*
X111054526Y-135191973D01*
X100500500Y-135191973D01*
X100500500Y-130568226D01*
X111054526Y-130568226D01*
X111127515Y-130619333D01*
X111333673Y-130715466D01*
X111553397Y-130774341D01*
X111780000Y-130794166D01*
X112006602Y-130774341D01*
X112226326Y-130715466D01*
X112432480Y-130619334D01*
X112505472Y-130568225D01*
X111780001Y-129842753D01*
X111780000Y-129842753D01*
X111054526Y-130568225D01*
X111054526Y-130568226D01*
X100500500Y-130568226D01*
X100500500Y-129369692D01*
X100516754Y-129308318D01*
X100561255Y-129263033D01*
X100622337Y-129245711D01*
X100683985Y-129260892D01*
X100730039Y-129304596D01*
X100815688Y-129443457D01*
X100939742Y-129567511D01*
X100939744Y-129567512D01*
X101089066Y-129659614D01*
X101200416Y-129696512D01*
X101255602Y-129714799D01*
X101265421Y-129715802D01*
X101358391Y-129725300D01*
X102908408Y-129725299D01*
X103011197Y-129714799D01*
X103177734Y-129659614D01*
X103327056Y-129567512D01*
X103405369Y-129489199D01*
X110475033Y-129489199D01*
X110494858Y-129715802D01*
X110553733Y-129935526D01*
X110649866Y-130141684D01*
X110700972Y-130214671D01*
X110700973Y-130214672D01*
X111426446Y-129489200D01*
X111426446Y-129489199D01*
X112133553Y-129489199D01*
X112859025Y-130214672D01*
X112910131Y-130141684D01*
X112917340Y-130126226D01*
X112963097Y-130074049D01*
X113029722Y-130054628D01*
X113096348Y-130074047D01*
X113142106Y-130126223D01*
X113149432Y-130141935D01*
X113279953Y-130328340D01*
X113440859Y-130489246D01*
X113627264Y-130619767D01*
X113627265Y-130619767D01*
X113627266Y-130619768D01*
X113833504Y-130715939D01*
X114053308Y-130774835D01*
X114280000Y-130794668D01*
X114506692Y-130774835D01*
X114726496Y-130715939D01*
X114932734Y-130619768D01*
X115119139Y-130489247D01*
X115280047Y-130328339D01*
X115410568Y-130141934D01*
X115506739Y-129935696D01*
X115565635Y-129715892D01*
X115585468Y-129489200D01*
X115565635Y-129262508D01*
X115506739Y-129042704D01*
X115410568Y-128836466D01*
X115388073Y-128804340D01*
X115280046Y-128650059D01*
X115119140Y-128489153D01*
X114932735Y-128358632D01*
X114726497Y-128262461D01*
X114506689Y-128203564D01*
X114280000Y-128183731D01*
X114053310Y-128203564D01*
X113833502Y-128262461D01*
X113627264Y-128358632D01*
X113440859Y-128489153D01*
X113279953Y-128650059D01*
X113149429Y-128836468D01*
X113142104Y-128852178D01*
X113096347Y-128904352D01*
X113029722Y-128923770D01*
X112963098Y-128904350D01*
X112917342Y-128852175D01*
X112910133Y-128836715D01*
X112859025Y-128763726D01*
X112133553Y-129489198D01*
X112133553Y-129489199D01*
X111426446Y-129489199D01*
X111426446Y-129489198D01*
X110700973Y-128763727D01*
X110649865Y-128836716D01*
X110553733Y-129042872D01*
X110494858Y-129262597D01*
X110475033Y-129489199D01*
X103405369Y-129489199D01*
X103451112Y-129443456D01*
X103543214Y-129294134D01*
X103569670Y-129214294D01*
X103595549Y-129169970D01*
X103637161Y-129139923D01*
X103687376Y-129129300D01*
X103717200Y-129129300D01*
X103735170Y-129130609D01*
X103738923Y-129131158D01*
X103759106Y-129134115D01*
X103808747Y-129129772D01*
X103819555Y-129129300D01*
X103825143Y-129129300D01*
X103856103Y-129125681D01*
X103859641Y-129125319D01*
X103934812Y-129118743D01*
X103934817Y-129118741D01*
X103936032Y-129118635D01*
X103955227Y-129114380D01*
X103956379Y-129113960D01*
X103956384Y-129113960D01*
X104027274Y-129088157D01*
X104030634Y-129086990D01*
X104102236Y-129063264D01*
X104102241Y-129063260D01*
X104103402Y-129062876D01*
X104121102Y-129054307D01*
X104122119Y-129053637D01*
X104122124Y-129053636D01*
X104185167Y-129012171D01*
X104188159Y-129010265D01*
X104252354Y-128970670D01*
X104252354Y-128970669D01*
X104253393Y-128970029D01*
X104268644Y-128957605D01*
X104269481Y-128956717D01*
X104269485Y-128956715D01*
X104321271Y-128901823D01*
X104323716Y-128899306D01*
X104812849Y-128410173D01*
X111054526Y-128410173D01*
X111779998Y-129135646D01*
X111779999Y-129135646D01*
X112505472Y-128410173D01*
X112505471Y-128410172D01*
X112432484Y-128359066D01*
X112226326Y-128262933D01*
X112006602Y-128204058D01*
X111780000Y-128184233D01*
X111553397Y-128204058D01*
X111333672Y-128262933D01*
X111127516Y-128359065D01*
X111054526Y-128410173D01*
X104812849Y-128410173D01*
X105644264Y-127578758D01*
X105657883Y-127566988D01*
X105677294Y-127552539D01*
X105709334Y-127514354D01*
X105716620Y-127506402D01*
X105720583Y-127502441D01*
X105739927Y-127477974D01*
X105742161Y-127475232D01*
X105790667Y-127417427D01*
X105790668Y-127417424D01*
X105791449Y-127416494D01*
X105802018Y-127399904D01*
X105802534Y-127398797D01*
X105802539Y-127398791D01*
X105834445Y-127330366D01*
X105835958Y-127327241D01*
X105869824Y-127259811D01*
X105869824Y-127259809D01*
X105870374Y-127258715D01*
X105876830Y-127240142D01*
X105877077Y-127238943D01*
X105877079Y-127238940D01*
X105892345Y-127165001D01*
X105893101Y-127161596D01*
X105910500Y-127088188D01*
X105910500Y-127088185D01*
X105910780Y-127087004D01*
X105912781Y-127067425D01*
X105912300Y-127050897D01*
X105910552Y-126990804D01*
X105910500Y-126987198D01*
X105910500Y-116007886D01*
X105919939Y-115960433D01*
X105946819Y-115920205D01*
X110611605Y-111255419D01*
X110651833Y-111228539D01*
X110699286Y-111219100D01*
X113524266Y-111219100D01*
X113569060Y-111227474D01*
X113607801Y-111251460D01*
X113756098Y-111386652D01*
X113937381Y-111498898D01*
X114136202Y-111575921D01*
X114345790Y-111615100D01*
X114345792Y-111615100D01*
X114442857Y-111615100D01*
X114501521Y-111629855D01*
X114546224Y-111670607D01*
X114566328Y-111727659D01*
X114586643Y-111946910D01*
X114644995Y-112151990D01*
X114740031Y-112342852D01*
X114861269Y-112503395D01*
X114868528Y-112513007D01*
X115026098Y-112656652D01*
X115207381Y-112768898D01*
X115406202Y-112845921D01*
X115615790Y-112885100D01*
X115829008Y-112885100D01*
X115829010Y-112885100D01*
X116038598Y-112845921D01*
X116237419Y-112768898D01*
X116418702Y-112656652D01*
X116576272Y-112513007D01*
X116704766Y-112342855D01*
X116704766Y-112342853D01*
X116704768Y-112342852D01*
X116752480Y-112247030D01*
X116799805Y-112151989D01*
X116858156Y-111946910D01*
X116877829Y-111734600D01*
X116877828Y-111734598D01*
X116878472Y-111727658D01*
X116898576Y-111670606D01*
X116943279Y-111629854D01*
X117001943Y-111615099D01*
X117690270Y-111615099D01*
X117690272Y-111615099D01*
X117749883Y-111608691D01*
X117884731Y-111558396D01*
X117999946Y-111472146D01*
X118086196Y-111356931D01*
X118136491Y-111222083D01*
X118142900Y-111162473D01*
X118142899Y-110432484D01*
X118152338Y-110385032D01*
X118179215Y-110344807D01*
X118767204Y-109756819D01*
X118807433Y-109729939D01*
X118854886Y-109720500D01*
X120556842Y-109720500D01*
X120621170Y-109738491D01*
G37*
%TD.AperFunction*%
%TA.AperFunction,Conductor*%
G36*
X103739023Y-113709932D02*
G01*
X103777889Y-113754250D01*
X103791900Y-113811507D01*
X103791900Y-114124189D01*
X103772894Y-114190161D01*
X103735318Y-114249962D01*
X103679162Y-114410448D01*
X103660125Y-114579400D01*
X103679162Y-114748351D01*
X103679162Y-114748353D01*
X103679163Y-114748354D01*
X103735317Y-114908836D01*
X103735318Y-114908837D01*
X103825777Y-115052802D01*
X103945997Y-115173022D01*
X103945999Y-115173023D01*
X103946000Y-115173024D01*
X104089963Y-115263482D01*
X104250446Y-115319637D01*
X104312930Y-115326677D01*
X104375684Y-115352416D01*
X104415508Y-115407322D01*
X104420485Y-115474968D01*
X104419672Y-115478906D01*
X104418891Y-115482430D01*
X104401219Y-115556996D01*
X104399218Y-115576574D01*
X104401448Y-115653196D01*
X104401500Y-115656802D01*
X104401500Y-126636113D01*
X104392061Y-126683566D01*
X104365181Y-126723794D01*
X103688552Y-127400421D01*
X103641582Y-127429866D01*
X103586475Y-127435901D01*
X103534245Y-127417320D01*
X103495332Y-127377836D01*
X103451111Y-127306142D01*
X103327057Y-127182088D01*
X103171841Y-127086351D01*
X103132357Y-127047438D01*
X103113775Y-126995208D01*
X103119811Y-126940101D01*
X103149256Y-126893130D01*
X103296509Y-126745877D01*
X103432000Y-126552376D01*
X103531830Y-126338292D01*
X103589036Y-126124800D01*
X102007400Y-126124800D01*
X101945400Y-126108187D01*
X101900013Y-126062800D01*
X101883400Y-126000800D01*
X101883400Y-125748800D01*
X101900013Y-125686800D01*
X101945400Y-125641413D01*
X102007400Y-125624800D01*
X103589036Y-125624800D01*
X103589035Y-125624799D01*
X103531830Y-125411307D01*
X103431999Y-125197221D01*
X103296509Y-125003721D01*
X103129478Y-124836690D01*
X102972367Y-124726680D01*
X102933501Y-124682362D01*
X102919490Y-124625105D01*
X102933501Y-124567848D01*
X102972364Y-124523532D01*
X103129801Y-124413295D01*
X103296895Y-124246201D01*
X103432435Y-124052630D01*
X103532303Y-123838463D01*
X103593463Y-123610208D01*
X103614059Y-123374800D01*
X103593463Y-123139392D01*
X103532303Y-122911137D01*
X103432435Y-122696971D01*
X103296895Y-122503399D01*
X103129801Y-122336305D01*
X102972801Y-122226373D01*
X102933937Y-122182057D01*
X102919926Y-122124800D01*
X102933937Y-122067543D01*
X102972801Y-122023226D01*
X103129801Y-121913295D01*
X103296895Y-121746201D01*
X103432435Y-121552630D01*
X103532303Y-121338463D01*
X103593463Y-121110208D01*
X103614059Y-120874800D01*
X103593463Y-120639392D01*
X103532303Y-120411137D01*
X103432435Y-120196971D01*
X103296895Y-120003399D01*
X103129801Y-119836305D01*
X102972803Y-119726374D01*
X102933938Y-119682057D01*
X102919927Y-119624800D01*
X102933938Y-119567543D01*
X102972804Y-119523225D01*
X102997377Y-119506019D01*
X103129801Y-119413295D01*
X103296895Y-119246201D01*
X103432435Y-119052630D01*
X103532303Y-118838463D01*
X103593463Y-118610208D01*
X103614059Y-118374800D01*
X103593463Y-118139392D01*
X103532303Y-117911137D01*
X103432435Y-117696971D01*
X103296895Y-117503399D01*
X103129801Y-117336305D01*
X102972801Y-117226373D01*
X102933937Y-117182057D01*
X102919926Y-117124800D01*
X102933937Y-117067543D01*
X102972801Y-117023226D01*
X103129801Y-116913295D01*
X103296895Y-116746201D01*
X103432435Y-116552630D01*
X103532303Y-116338463D01*
X103593463Y-116110208D01*
X103614059Y-115874800D01*
X103610932Y-115839064D01*
X103593463Y-115639392D01*
X103574229Y-115567609D01*
X103532303Y-115411137D01*
X103432435Y-115196971D01*
X103296895Y-115003399D01*
X103129801Y-114836305D01*
X102972801Y-114726373D01*
X102933937Y-114682057D01*
X102919926Y-114624800D01*
X102933937Y-114567543D01*
X102972801Y-114523226D01*
X103129801Y-114413295D01*
X103296895Y-114246201D01*
X103432435Y-114052630D01*
X103532303Y-113838463D01*
X103548125Y-113779412D01*
X103576478Y-113727734D01*
X103625490Y-113694985D01*
X103684085Y-113688568D01*
X103739023Y-113709932D01*
G37*
%TD.AperFunction*%
%TA.AperFunction,Conductor*%
G36*
X129597985Y-117920767D02*
G01*
X129635585Y-117964790D01*
X129649100Y-118021085D01*
X129649100Y-120211434D01*
X129646829Y-120232001D01*
X129649039Y-120302319D01*
X129649100Y-120306213D01*
X129649100Y-120333876D01*
X129649606Y-120337884D01*
X129650521Y-120349518D01*
X129651898Y-120393343D01*
X129657516Y-120412678D01*
X129661461Y-120431728D01*
X129663983Y-120451693D01*
X129680119Y-120492449D01*
X129683902Y-120503498D01*
X129696130Y-120545587D01*
X129696131Y-120545589D01*
X129696132Y-120545591D01*
X129706379Y-120562917D01*
X129714938Y-120580389D01*
X129722347Y-120599105D01*
X129748111Y-120634565D01*
X129754525Y-120644329D01*
X129776837Y-120682057D01*
X129791071Y-120696291D01*
X129803703Y-120711079D01*
X129815537Y-120727367D01*
X129815538Y-120727368D01*
X129815539Y-120727369D01*
X129830722Y-120739929D01*
X129836566Y-120745081D01*
X129889245Y-120794550D01*
X129892043Y-120797262D01*
X129911604Y-120816823D01*
X129914785Y-120819290D01*
X129923680Y-120826886D01*
X129955633Y-120856893D01*
X129972731Y-120866292D01*
X129973269Y-120866588D01*
X129989537Y-120877274D01*
X130005436Y-120889607D01*
X130005437Y-120889607D01*
X130005438Y-120889608D01*
X130045670Y-120907018D01*
X130056145Y-120912149D01*
X130094566Y-120933272D01*
X130114066Y-120938278D01*
X130132463Y-120944577D01*
X130150941Y-120952574D01*
X130194240Y-120959431D01*
X130205667Y-120961797D01*
X130248128Y-120972700D01*
X130268259Y-120972700D01*
X130287655Y-120974226D01*
X130307533Y-120977375D01*
X130348059Y-120973544D01*
X130351170Y-120973250D01*
X130362839Y-120972700D01*
X139337919Y-120972700D01*
X139385372Y-120982139D01*
X139425600Y-121009019D01*
X140001381Y-121584800D01*
X140028261Y-121625028D01*
X140037700Y-121672481D01*
X140037700Y-122205813D01*
X140023689Y-122263070D01*
X139984823Y-122307388D01*
X139826059Y-122418553D01*
X139665153Y-122579459D01*
X139534633Y-122765863D01*
X139507582Y-122823875D01*
X139461825Y-122876050D01*
X139395200Y-122895469D01*
X139328575Y-122876050D01*
X139282818Y-122823875D01*
X139255887Y-122766122D01*
X139255768Y-122765866D01*
X139246184Y-122752179D01*
X139125246Y-122579459D01*
X138964340Y-122418553D01*
X138777935Y-122288032D01*
X138571697Y-122191861D01*
X138351889Y-122132964D01*
X138125200Y-122113131D01*
X137898510Y-122132964D01*
X137678702Y-122191861D01*
X137472464Y-122288032D01*
X137286059Y-122418553D01*
X137125153Y-122579459D01*
X136994633Y-122765863D01*
X136967582Y-122823875D01*
X136921825Y-122876050D01*
X136855200Y-122895469D01*
X136788575Y-122876050D01*
X136742818Y-122823875D01*
X136715887Y-122766122D01*
X136715768Y-122765866D01*
X136706184Y-122752179D01*
X136585246Y-122579459D01*
X136424340Y-122418553D01*
X136237935Y-122288032D01*
X136031697Y-122191861D01*
X135811889Y-122132964D01*
X135585200Y-122113131D01*
X135358510Y-122132964D01*
X135138702Y-122191861D01*
X134932464Y-122288032D01*
X134746059Y-122418553D01*
X134585153Y-122579459D01*
X134454633Y-122765863D01*
X134427582Y-122823875D01*
X134381825Y-122876050D01*
X134315200Y-122895469D01*
X134248575Y-122876050D01*
X134202818Y-122823875D01*
X134175887Y-122766122D01*
X134175768Y-122765866D01*
X134166184Y-122752179D01*
X134045246Y-122579459D01*
X133884340Y-122418553D01*
X133697935Y-122288032D01*
X133491697Y-122191861D01*
X133271889Y-122132964D01*
X133045200Y-122113131D01*
X132818510Y-122132964D01*
X132598702Y-122191861D01*
X132392464Y-122288032D01*
X132206059Y-122418553D01*
X132045153Y-122579459D01*
X131914633Y-122765863D01*
X131887582Y-122823875D01*
X131841825Y-122876050D01*
X131775200Y-122895469D01*
X131708575Y-122876050D01*
X131662818Y-122823875D01*
X131635887Y-122766122D01*
X131635768Y-122765866D01*
X131626184Y-122752179D01*
X131505246Y-122579459D01*
X131344340Y-122418553D01*
X131157935Y-122288032D01*
X130951697Y-122191861D01*
X130731889Y-122132964D01*
X130505200Y-122113131D01*
X130278510Y-122132964D01*
X130058702Y-122191861D01*
X129852464Y-122288032D01*
X129666059Y-122418553D01*
X129505153Y-122579459D01*
X129374630Y-122765867D01*
X129347305Y-122824466D01*
X129301548Y-122876641D01*
X129234923Y-122896060D01*
X129168299Y-122876640D01*
X129122542Y-122824465D01*
X129095334Y-122766119D01*
X128964858Y-122579780D01*
X128804019Y-122418941D01*
X128617680Y-122288465D01*
X128411526Y-122192333D01*
X128215200Y-122139728D01*
X128215200Y-123544600D01*
X128198587Y-123606600D01*
X128153200Y-123651987D01*
X128091200Y-123668600D01*
X127839200Y-123668600D01*
X127777200Y-123651987D01*
X127731813Y-123606600D01*
X127715200Y-123544600D01*
X127715200Y-122139728D01*
X127715199Y-122139728D01*
X127518873Y-122192333D01*
X127312719Y-122288465D01*
X127126380Y-122418941D01*
X126965541Y-122579780D01*
X126835063Y-122766122D01*
X126807856Y-122824466D01*
X126762099Y-122876641D01*
X126695474Y-122896060D01*
X126628850Y-122876640D01*
X126583093Y-122824465D01*
X126555767Y-122765864D01*
X126425246Y-122579459D01*
X126264341Y-122418554D01*
X126232578Y-122396314D01*
X126193711Y-122351995D01*
X126179700Y-122294738D01*
X126179700Y-121242486D01*
X126189139Y-121195033D01*
X126216019Y-121154805D01*
X127821989Y-119548835D01*
X129437419Y-117933403D01*
X129486782Y-117903154D01*
X129544498Y-117898612D01*
X129597985Y-117920767D01*
G37*
%TD.AperFunction*%
%TA.AperFunction,Conductor*%
G36*
X142001825Y-116341149D02*
G01*
X142047582Y-116393325D01*
X142074631Y-116451333D01*
X142205153Y-116637740D01*
X142366059Y-116798646D01*
X142552464Y-116929167D01*
X142552465Y-116929167D01*
X142552466Y-116929168D01*
X142758704Y-117025339D01*
X142978508Y-117084235D01*
X143205200Y-117104068D01*
X143431892Y-117084235D01*
X143651696Y-117025339D01*
X143857934Y-116929168D01*
X144044339Y-116798647D01*
X144107137Y-116735849D01*
X144194819Y-116648168D01*
X144244182Y-116617918D01*
X144301898Y-116613376D01*
X144355385Y-116635531D01*
X144392985Y-116679554D01*
X144406500Y-116735849D01*
X144406500Y-121278519D01*
X144397061Y-121325972D01*
X144370181Y-121366200D01*
X143617791Y-122118588D01*
X143562204Y-122150682D01*
X143498017Y-122150682D01*
X143431891Y-122132964D01*
X143205200Y-122113131D01*
X142978510Y-122132964D01*
X142758702Y-122191861D01*
X142552464Y-122288032D01*
X142366059Y-122418553D01*
X142205153Y-122579459D01*
X142074633Y-122765863D01*
X142047582Y-122823875D01*
X142001825Y-122876050D01*
X141935200Y-122895469D01*
X141868575Y-122876050D01*
X141822818Y-122823875D01*
X141795887Y-122766122D01*
X141795768Y-122765866D01*
X141786184Y-122752179D01*
X141665246Y-122579459D01*
X141504340Y-122418553D01*
X141345577Y-122307388D01*
X141306711Y-122263070D01*
X141292700Y-122205813D01*
X141292700Y-121444166D01*
X141294970Y-121423598D01*
X141294102Y-121395983D01*
X141292761Y-121353281D01*
X141292700Y-121349387D01*
X141292700Y-121321725D01*
X141292194Y-121317721D01*
X141291277Y-121306069D01*
X141290662Y-121286498D01*
X141289901Y-121262257D01*
X141284283Y-121242922D01*
X141280338Y-121223879D01*
X141277816Y-121203907D01*
X141261681Y-121163155D01*
X141257898Y-121152107D01*
X141245668Y-121110009D01*
X141235422Y-121092685D01*
X141226861Y-121075209D01*
X141219453Y-121056497D01*
X141193689Y-121021037D01*
X141187274Y-121011270D01*
X141164963Y-120973544D01*
X141150730Y-120959311D01*
X141138093Y-120944516D01*
X141135323Y-120940703D01*
X141126263Y-120928233D01*
X141126260Y-120928231D01*
X141126260Y-120928230D01*
X141092487Y-120900290D01*
X141083847Y-120892428D01*
X140664600Y-120473181D01*
X140634350Y-120423818D01*
X140629808Y-120366102D01*
X140651963Y-120312615D01*
X140695986Y-120275015D01*
X140747745Y-120262588D01*
X140747732Y-120262479D01*
X140748726Y-120262353D01*
X140752281Y-120261500D01*
X140755479Y-120261500D01*
X140771217Y-120259511D01*
X140778932Y-120258780D01*
X140834516Y-120255284D01*
X140842342Y-120252740D01*
X140865122Y-120247647D01*
X140873293Y-120246616D01*
X140925042Y-120226126D01*
X140932353Y-120223493D01*
X140985300Y-120206291D01*
X140992246Y-120201882D01*
X141013041Y-120191286D01*
X141020703Y-120188253D01*
X141065735Y-120155533D01*
X141072161Y-120151166D01*
X141119162Y-120121340D01*
X141124798Y-120115336D01*
X141142312Y-120099897D01*
X141148967Y-120095063D01*
X141184451Y-120052168D01*
X141189573Y-120046359D01*
X141227693Y-120005767D01*
X141231659Y-119998551D01*
X141244780Y-119979243D01*
X141250026Y-119972903D01*
X141273720Y-119922548D01*
X141277240Y-119915639D01*
X141304072Y-119866834D01*
X141306121Y-119858852D01*
X141314023Y-119836901D01*
X141317531Y-119829449D01*
X141327961Y-119774767D01*
X141329649Y-119767212D01*
X141343500Y-119713272D01*
X141343500Y-119705038D01*
X141345696Y-119681804D01*
X141347239Y-119673713D01*
X141343745Y-119618179D01*
X141343500Y-119610392D01*
X141343500Y-116975817D01*
X141357511Y-116918560D01*
X141396377Y-116874242D01*
X141504339Y-116798647D01*
X141665247Y-116637739D01*
X141795768Y-116451334D01*
X141822818Y-116393324D01*
X141868575Y-116341149D01*
X141935200Y-116321729D01*
X142001825Y-116341149D01*
G37*
%TD.AperFunction*%
%TA.AperFunction,Conductor*%
G36*
X128896760Y-110628505D02*
G01*
X128956563Y-110666082D01*
X129117046Y-110722237D01*
X129286000Y-110741274D01*
X129454954Y-110722237D01*
X129581283Y-110678032D01*
X129641300Y-110672548D01*
X129696816Y-110696009D01*
X129734713Y-110742873D01*
X129740768Y-110774523D01*
X129744332Y-110773895D01*
X129748816Y-110799324D01*
X129750700Y-110820857D01*
X129750700Y-114674738D01*
X129736689Y-114731995D01*
X129697822Y-114776314D01*
X129666058Y-114798554D01*
X129505153Y-114959459D01*
X129374633Y-115145863D01*
X129347582Y-115203875D01*
X129301825Y-115256050D01*
X129235200Y-115275469D01*
X129168575Y-115256050D01*
X129122818Y-115203875D01*
X129095887Y-115146122D01*
X129095768Y-115145866D01*
X129095766Y-115145863D01*
X128965246Y-114959459D01*
X128804340Y-114798553D01*
X128617935Y-114668032D01*
X128411697Y-114571861D01*
X128191889Y-114512964D01*
X127965200Y-114493131D01*
X127738510Y-114512964D01*
X127518702Y-114571861D01*
X127312464Y-114668032D01*
X127126059Y-114798553D01*
X126965153Y-114959459D01*
X126834630Y-115145867D01*
X126807305Y-115204466D01*
X126761548Y-115256641D01*
X126694923Y-115276060D01*
X126628299Y-115256640D01*
X126582542Y-115204465D01*
X126555334Y-115146119D01*
X126424858Y-114959780D01*
X126264019Y-114798941D01*
X126077680Y-114668465D01*
X125871526Y-114572333D01*
X125675200Y-114519728D01*
X125675200Y-117077471D01*
X125871526Y-117024866D01*
X126077680Y-116928734D01*
X126264019Y-116798258D01*
X126424858Y-116637419D01*
X126555335Y-116451079D01*
X126582542Y-116392735D01*
X126628298Y-116340559D01*
X126694923Y-116321139D01*
X126761548Y-116340558D01*
X126807305Y-116392732D01*
X126834632Y-116451333D01*
X126834633Y-116451336D01*
X126965153Y-116637740D01*
X127126059Y-116798646D01*
X127312464Y-116929167D01*
X127312465Y-116929167D01*
X127312466Y-116929168D01*
X127518704Y-117025339D01*
X127738508Y-117084235D01*
X127768971Y-117086900D01*
X127854323Y-117094368D01*
X127919002Y-117119520D01*
X127960038Y-117175485D01*
X127964577Y-117244734D01*
X127931197Y-117305577D01*
X124936941Y-120299833D01*
X124923312Y-120311612D01*
X124903908Y-120326058D01*
X124871876Y-120364232D01*
X124864579Y-120372196D01*
X124860614Y-120376161D01*
X124841289Y-120400601D01*
X124839014Y-120403394D01*
X124789754Y-120462100D01*
X124779172Y-120478712D01*
X124746781Y-120548171D01*
X124745211Y-120551413D01*
X124710832Y-120619869D01*
X124704364Y-120638478D01*
X124688871Y-120713511D01*
X124688091Y-120717030D01*
X124670419Y-120791596D01*
X124668418Y-120811174D01*
X124670648Y-120887796D01*
X124670700Y-120891402D01*
X124670700Y-122294738D01*
X124656689Y-122351995D01*
X124617822Y-122396314D01*
X124586058Y-122418554D01*
X124425153Y-122579459D01*
X124294633Y-122765863D01*
X124267582Y-122823875D01*
X124221825Y-122876050D01*
X124155200Y-122895469D01*
X124088575Y-122876050D01*
X124042818Y-122823875D01*
X124015887Y-122766122D01*
X124015768Y-122765866D01*
X124006184Y-122752179D01*
X123885246Y-122579459D01*
X123724340Y-122418553D01*
X123537935Y-122288032D01*
X123331697Y-122191861D01*
X123111889Y-122132964D01*
X122885200Y-122113131D01*
X122658508Y-122132964D01*
X122474993Y-122182137D01*
X122418709Y-122183979D01*
X122367414Y-122160738D01*
X122331688Y-122117206D01*
X122318900Y-122062362D01*
X122318900Y-117154838D01*
X122331688Y-117099994D01*
X122367414Y-117056462D01*
X122418709Y-117033221D01*
X122474993Y-117035063D01*
X122593271Y-117066755D01*
X122658508Y-117084235D01*
X122885200Y-117104068D01*
X123111892Y-117084235D01*
X123331696Y-117025339D01*
X123537934Y-116929168D01*
X123724339Y-116798647D01*
X123885247Y-116637739D01*
X124015768Y-116451334D01*
X124043093Y-116392734D01*
X124088849Y-116340559D01*
X124155474Y-116321139D01*
X124222099Y-116340558D01*
X124267857Y-116392733D01*
X124295066Y-116451082D01*
X124425541Y-116637419D01*
X124586380Y-116798258D01*
X124772719Y-116928734D01*
X124978873Y-117024866D01*
X125175199Y-117077471D01*
X125175200Y-117077472D01*
X125175200Y-114519728D01*
X125175199Y-114519728D01*
X124978873Y-114572333D01*
X124772719Y-114668465D01*
X124586380Y-114798941D01*
X124425541Y-114959780D01*
X124295063Y-115146122D01*
X124267856Y-115204466D01*
X124222099Y-115256641D01*
X124155474Y-115276060D01*
X124088850Y-115256640D01*
X124043093Y-115204465D01*
X124015767Y-115145864D01*
X123885246Y-114959459D01*
X123724340Y-114798553D01*
X123537935Y-114668032D01*
X123331697Y-114571861D01*
X123111889Y-114512964D01*
X122885200Y-114493131D01*
X122658508Y-114512964D01*
X122474993Y-114562137D01*
X122418709Y-114563979D01*
X122367414Y-114540738D01*
X122331688Y-114497206D01*
X122318900Y-114442362D01*
X122318900Y-113569881D01*
X122328339Y-113522428D01*
X122355219Y-113482200D01*
X125191600Y-110645819D01*
X125231828Y-110618939D01*
X125279281Y-110609500D01*
X128830789Y-110609500D01*
X128896760Y-110628505D01*
G37*
%TD.AperFunction*%
%TA.AperFunction,Conductor*%
G36*
X135667682Y-100516754D02*
G01*
X135712967Y-100561255D01*
X135730289Y-100622337D01*
X135715108Y-100683985D01*
X135671404Y-100730039D01*
X135532542Y-100815688D01*
X135408488Y-100939742D01*
X135316386Y-101089065D01*
X135261200Y-101255602D01*
X135250700Y-101358390D01*
X135250700Y-102908408D01*
X135261200Y-103011196D01*
X135316386Y-103177734D01*
X135408488Y-103327057D01*
X135532542Y-103451111D01*
X135532544Y-103451112D01*
X135681866Y-103543214D01*
X135793217Y-103580112D01*
X135848402Y-103598399D01*
X135862301Y-103599819D01*
X135918840Y-103620242D01*
X135959129Y-103664856D01*
X135973700Y-103723177D01*
X135973700Y-104742834D01*
X135971429Y-104763401D01*
X135973639Y-104833719D01*
X135973700Y-104837613D01*
X135973700Y-104865276D01*
X135974206Y-104869284D01*
X135975121Y-104880918D01*
X135976498Y-104924743D01*
X135982116Y-104944078D01*
X135986061Y-104963128D01*
X135988583Y-104983093D01*
X136004719Y-105023849D01*
X136008502Y-105034898D01*
X136020730Y-105076987D01*
X136020731Y-105076989D01*
X136020732Y-105076991D01*
X136030979Y-105094317D01*
X136039538Y-105111789D01*
X136046947Y-105130505D01*
X136072711Y-105165965D01*
X136079125Y-105175729D01*
X136085132Y-105185886D01*
X136101437Y-105213456D01*
X136115675Y-105227694D01*
X136128308Y-105242486D01*
X136140136Y-105258766D01*
X136173905Y-105286702D01*
X136182546Y-105294565D01*
X137318024Y-106430043D01*
X137330962Y-106446192D01*
X137382245Y-106494350D01*
X137385043Y-106497062D01*
X137404604Y-106516623D01*
X137406898Y-106518402D01*
X137407785Y-106519090D01*
X137416682Y-106526688D01*
X137448630Y-106556691D01*
X137448632Y-106556692D01*
X137448633Y-106556693D01*
X137466278Y-106566393D01*
X137482535Y-106577072D01*
X137498438Y-106589408D01*
X137538658Y-106606812D01*
X137549149Y-106611951D01*
X137587566Y-106633072D01*
X137607063Y-106638078D01*
X137625469Y-106644379D01*
X137643941Y-106652373D01*
X137687241Y-106659230D01*
X137698648Y-106661592D01*
X137741128Y-106672500D01*
X137761259Y-106672500D01*
X137780657Y-106674026D01*
X137800533Y-106677175D01*
X137840608Y-106673386D01*
X137844170Y-106673050D01*
X137855839Y-106672500D01*
X138736789Y-106672500D01*
X138802760Y-106691506D01*
X138836182Y-106712506D01*
X138879404Y-106758739D01*
X138894180Y-106820282D01*
X138876659Y-106881099D01*
X138831406Y-106925348D01*
X138770211Y-106941500D01*
X132076987Y-106941500D01*
X132019730Y-106927489D01*
X131975412Y-106888623D01*
X131954048Y-106833685D01*
X131960465Y-106775090D01*
X131993214Y-106726078D01*
X132044893Y-106697725D01*
X132121590Y-106677174D01*
X132272496Y-106636739D01*
X132478734Y-106540568D01*
X132665139Y-106410047D01*
X132826047Y-106249139D01*
X132956568Y-106062734D01*
X133052739Y-105856496D01*
X133111635Y-105636692D01*
X133131468Y-105410000D01*
X133111635Y-105183308D01*
X133052739Y-104963504D01*
X132956568Y-104757266D01*
X132956048Y-104756524D01*
X132826046Y-104570859D01*
X132665140Y-104409953D01*
X132478735Y-104279432D01*
X132272497Y-104183261D01*
X132052689Y-104124364D01*
X131826000Y-104104531D01*
X131599310Y-104124364D01*
X131379502Y-104183261D01*
X131173264Y-104279432D01*
X130986859Y-104409953D01*
X130825953Y-104570859D01*
X130695432Y-104757264D01*
X130599261Y-104963502D01*
X130540364Y-105183310D01*
X130520531Y-105410000D01*
X130540364Y-105636689D01*
X130599261Y-105856497D01*
X130695432Y-106062735D01*
X130825953Y-106249140D01*
X130986859Y-106410046D01*
X131173264Y-106540567D01*
X131173265Y-106540567D01*
X131173266Y-106540568D01*
X131379504Y-106636739D01*
X131472276Y-106661597D01*
X131607107Y-106697725D01*
X131658786Y-106726078D01*
X131691535Y-106775090D01*
X131697952Y-106833685D01*
X131676588Y-106888623D01*
X131632270Y-106927489D01*
X131575013Y-106941500D01*
X121916987Y-106941500D01*
X121859730Y-106927489D01*
X121815412Y-106888623D01*
X121794048Y-106833685D01*
X121800465Y-106775090D01*
X121833214Y-106726078D01*
X121884893Y-106697725D01*
X121961590Y-106677174D01*
X122112496Y-106636739D01*
X122318734Y-106540568D01*
X122505139Y-106410047D01*
X122666047Y-106249139D01*
X122796568Y-106062734D01*
X122892739Y-105856496D01*
X122951635Y-105636692D01*
X122971468Y-105410000D01*
X122951635Y-105183308D01*
X122892739Y-104963504D01*
X122796568Y-104757266D01*
X122796048Y-104756524D01*
X122666046Y-104570859D01*
X122505140Y-104409953D01*
X122318735Y-104279432D01*
X122112497Y-104183261D01*
X121892689Y-104124364D01*
X121666000Y-104104531D01*
X121439310Y-104124364D01*
X121219502Y-104183261D01*
X121013264Y-104279432D01*
X120826859Y-104409953D01*
X120665953Y-104570859D01*
X120535432Y-104757264D01*
X120439261Y-104963502D01*
X120380364Y-105183310D01*
X120360531Y-105409999D01*
X120380364Y-105636689D01*
X120439261Y-105856497D01*
X120535432Y-106062735D01*
X120665953Y-106249140D01*
X120826859Y-106410046D01*
X121013264Y-106540567D01*
X121013265Y-106540567D01*
X121013266Y-106540568D01*
X121219504Y-106636739D01*
X121312276Y-106661597D01*
X121447107Y-106697725D01*
X121498786Y-106726078D01*
X121531535Y-106775090D01*
X121537952Y-106833685D01*
X121516588Y-106888623D01*
X121472270Y-106927489D01*
X121415013Y-106941500D01*
X117285000Y-106941500D01*
X117267030Y-106940191D01*
X117253638Y-106938229D01*
X117243094Y-106936685D01*
X117243093Y-106936685D01*
X117193452Y-106941028D01*
X117182645Y-106941500D01*
X117177058Y-106941500D01*
X117146112Y-106945116D01*
X117142530Y-106945482D01*
X117066176Y-106952162D01*
X117046959Y-106956423D01*
X116974960Y-106982628D01*
X116971557Y-106983811D01*
X116898814Y-107007916D01*
X116881085Y-107016500D01*
X116817052Y-107058614D01*
X116814012Y-107060550D01*
X116748823Y-107100759D01*
X116733543Y-107113206D01*
X116680944Y-107168956D01*
X116678433Y-107171541D01*
X115418581Y-108431395D01*
X115369218Y-108461645D01*
X115311502Y-108466187D01*
X115258015Y-108444032D01*
X115220415Y-108400009D01*
X115206900Y-108343714D01*
X115206900Y-104885993D01*
X115208209Y-104868023D01*
X115208611Y-104865276D01*
X115211714Y-104844093D01*
X115210143Y-104826136D01*
X115217149Y-104772920D01*
X115245990Y-104727650D01*
X115291261Y-104698809D01*
X115344478Y-104691803D01*
X115533800Y-104708366D01*
X115760402Y-104688541D01*
X115980126Y-104629666D01*
X116186280Y-104533534D01*
X116259272Y-104482425D01*
X115533800Y-103756953D01*
X115180246Y-103403399D01*
X115887353Y-103403399D01*
X116612825Y-104128872D01*
X116663934Y-104055880D01*
X116760066Y-103849726D01*
X116818941Y-103630002D01*
X116838766Y-103403400D01*
X116818941Y-103176797D01*
X116760066Y-102957073D01*
X116663933Y-102750915D01*
X116612825Y-102677926D01*
X115887353Y-103403398D01*
X115887353Y-103403399D01*
X115180246Y-103403399D01*
X114454773Y-102677927D01*
X114403665Y-102750917D01*
X114396456Y-102766377D01*
X114350699Y-102818551D01*
X114284074Y-102837970D01*
X114217449Y-102818550D01*
X114171693Y-102766375D01*
X114164367Y-102750664D01*
X114033846Y-102564259D01*
X113872940Y-102403353D01*
X113760144Y-102324373D01*
X114808326Y-102324373D01*
X115533798Y-103049846D01*
X115533799Y-103049846D01*
X116259272Y-102324373D01*
X116259271Y-102324372D01*
X116186284Y-102273266D01*
X115980126Y-102177133D01*
X115760402Y-102118258D01*
X115533800Y-102098433D01*
X115307197Y-102118258D01*
X115087472Y-102177133D01*
X114881316Y-102273265D01*
X114808326Y-102324373D01*
X113760144Y-102324373D01*
X113686535Y-102272832D01*
X113480297Y-102176661D01*
X113260489Y-102117764D01*
X113033800Y-102097931D01*
X112807110Y-102117764D01*
X112587302Y-102176661D01*
X112381064Y-102272832D01*
X112194659Y-102403353D01*
X112033753Y-102564259D01*
X111903232Y-102750664D01*
X111807061Y-102956902D01*
X111748164Y-103176710D01*
X111728331Y-103403400D01*
X111748164Y-103630089D01*
X111807061Y-103849897D01*
X111903232Y-104056135D01*
X112033753Y-104242540D01*
X112194659Y-104403446D01*
X112381064Y-104533967D01*
X112381065Y-104533967D01*
X112381066Y-104533968D01*
X112587304Y-104630139D01*
X112807108Y-104689035D01*
X112952212Y-104701730D01*
X113033799Y-104708868D01*
X113033799Y-104708867D01*
X113033800Y-104708868D01*
X113195460Y-104694724D01*
X113248676Y-104701730D01*
X113293947Y-104730571D01*
X113661581Y-105098205D01*
X113688461Y-105138433D01*
X113697900Y-105185886D01*
X113697900Y-109540852D01*
X113687335Y-109590938D01*
X113657440Y-109632486D01*
X113607801Y-109677739D01*
X113569060Y-109701726D01*
X113524266Y-109710100D01*
X110399400Y-109710100D01*
X110381430Y-109708791D01*
X110368038Y-109706829D01*
X110357494Y-109705285D01*
X110357493Y-109705285D01*
X110307852Y-109709628D01*
X110297045Y-109710100D01*
X110291458Y-109710100D01*
X110260512Y-109713716D01*
X110256930Y-109714082D01*
X110180576Y-109720762D01*
X110161359Y-109725023D01*
X110089360Y-109751228D01*
X110085957Y-109752411D01*
X110013213Y-109776517D01*
X109995483Y-109785100D01*
X109931461Y-109827208D01*
X109928420Y-109829145D01*
X109863224Y-109869358D01*
X109847944Y-109881804D01*
X109795361Y-109937538D01*
X109792850Y-109940123D01*
X105341404Y-114391570D01*
X105288050Y-114423043D01*
X105226130Y-114424780D01*
X105171096Y-114396348D01*
X105136682Y-114344845D01*
X105103482Y-114249963D01*
X105065905Y-114190160D01*
X105046900Y-114124189D01*
X105046900Y-113011366D01*
X105049170Y-112990798D01*
X105047311Y-112931638D01*
X105046961Y-112920481D01*
X105046900Y-112916587D01*
X105046900Y-112888925D01*
X105046394Y-112884921D01*
X105045477Y-112873269D01*
X105045082Y-112860702D01*
X105044101Y-112829457D01*
X105038483Y-112810122D01*
X105034538Y-112791079D01*
X105032016Y-112771107D01*
X105015881Y-112730355D01*
X105012098Y-112719307D01*
X105008166Y-112705773D01*
X104999868Y-112677209D01*
X104989622Y-112659885D01*
X104981061Y-112642409D01*
X104973653Y-112623697D01*
X104947889Y-112588237D01*
X104941474Y-112578470D01*
X104919163Y-112540744D01*
X104904930Y-112526511D01*
X104892293Y-112511716D01*
X104880463Y-112495433D01*
X104880460Y-112495431D01*
X104880460Y-112495430D01*
X104846687Y-112467490D01*
X104838047Y-112459628D01*
X103621931Y-111243512D01*
X103589837Y-111187922D01*
X103589839Y-111123732D01*
X103593463Y-111110207D01*
X103614059Y-110874800D01*
X103593463Y-110639392D01*
X103587983Y-110618939D01*
X103532303Y-110411137D01*
X103432435Y-110196971D01*
X103296895Y-110003399D01*
X103129801Y-109836305D01*
X102936229Y-109700765D01*
X102722063Y-109600897D01*
X102493807Y-109539736D01*
X102317368Y-109524300D01*
X102317366Y-109524300D01*
X101949434Y-109524300D01*
X101949432Y-109524300D01*
X101772992Y-109539736D01*
X101544736Y-109600897D01*
X101330570Y-109700765D01*
X101136998Y-109836305D01*
X100969908Y-110003395D01*
X100969905Y-110003398D01*
X100969905Y-110003399D01*
X100834365Y-110196970D01*
X100748493Y-110381124D01*
X100736882Y-110406023D01*
X100693840Y-110456419D01*
X100630990Y-110477448D01*
X100566285Y-110463103D01*
X100518211Y-110417483D01*
X100500500Y-110353618D01*
X100500500Y-102749999D01*
X101394340Y-102749999D01*
X101414936Y-102985407D01*
X101466219Y-103176797D01*
X101476097Y-103213663D01*
X101575965Y-103427829D01*
X101711505Y-103621401D01*
X101878599Y-103788495D01*
X102072171Y-103924035D01*
X102286337Y-104023903D01*
X102514591Y-104085062D01*
X102514592Y-104085063D01*
X102691032Y-104100500D01*
X102691034Y-104100500D01*
X102808966Y-104100500D01*
X102808968Y-104100500D01*
X102926593Y-104090208D01*
X102985408Y-104085063D01*
X103213663Y-104023903D01*
X103427829Y-103924035D01*
X103621401Y-103788495D01*
X103788495Y-103621401D01*
X103924035Y-103427830D01*
X104023903Y-103213663D01*
X104085063Y-102985408D01*
X104105659Y-102750000D01*
X104085063Y-102514592D01*
X104023903Y-102286337D01*
X103924035Y-102072171D01*
X103788495Y-101878599D01*
X103621401Y-101711505D01*
X103427829Y-101575965D01*
X103213663Y-101476097D01*
X102985407Y-101414936D01*
X102808968Y-101399500D01*
X102808966Y-101399500D01*
X102691034Y-101399500D01*
X102691032Y-101399500D01*
X102514592Y-101414936D01*
X102286336Y-101476097D01*
X102072170Y-101575965D01*
X101878598Y-101711505D01*
X101711508Y-101878595D01*
X101711505Y-101878598D01*
X101711505Y-101878599D01*
X101621318Y-102007400D01*
X101575964Y-102072172D01*
X101476097Y-102286337D01*
X101414936Y-102514592D01*
X101394340Y-102749999D01*
X100500500Y-102749999D01*
X100500500Y-100624500D01*
X100517113Y-100562500D01*
X100562500Y-100517113D01*
X100624500Y-100500500D01*
X135606308Y-100500500D01*
X135667682Y-100516754D01*
G37*
%TD.AperFunction*%
%TD*%
%TA.AperFunction,NonConductor*%
G36*
X145149367Y-109729939D02*
G01*
X145189595Y-109756819D01*
X145527381Y-110094605D01*
X145559475Y-110150192D01*
X145559475Y-110214379D01*
X145546364Y-110263309D01*
X145526531Y-110490000D01*
X145546364Y-110716689D01*
X145605261Y-110936497D01*
X145701432Y-111142735D01*
X145831953Y-111329140D01*
X145992858Y-111490045D01*
X146004622Y-111498282D01*
X146043489Y-111542600D01*
X146057500Y-111599858D01*
X146057500Y-123384914D01*
X146048061Y-123432367D01*
X146021181Y-123472595D01*
X144554595Y-124939181D01*
X144514367Y-124966061D01*
X144466914Y-124975500D01*
X136208000Y-124975500D01*
X136190030Y-124974191D01*
X136176638Y-124972229D01*
X136166094Y-124970685D01*
X136166093Y-124970685D01*
X136116452Y-124975028D01*
X136105645Y-124975500D01*
X136100058Y-124975500D01*
X136069112Y-124979116D01*
X136065530Y-124979482D01*
X135989176Y-124986162D01*
X135969962Y-124990422D01*
X135897926Y-125016640D01*
X135894524Y-125017822D01*
X135821814Y-125041917D01*
X135804088Y-125050498D01*
X135740067Y-125092604D01*
X135737030Y-125094539D01*
X135671816Y-125134765D01*
X135656546Y-125147204D01*
X135627359Y-125178139D01*
X135611219Y-125192502D01*
X135597308Y-125202859D01*
X135597306Y-125202860D01*
X135597306Y-125202861D01*
X135568179Y-125237572D01*
X135565276Y-125241032D01*
X135557979Y-125248996D01*
X135554014Y-125252961D01*
X135543112Y-125266749D01*
X135536047Y-125274925D01*
X135531919Y-125279300D01*
X135525639Y-125288267D01*
X135483153Y-125338901D01*
X135472571Y-125355512D01*
X135440181Y-125424971D01*
X135438611Y-125428213D01*
X135404232Y-125496669D01*
X135397764Y-125515278D01*
X135382271Y-125590311D01*
X135381491Y-125593830D01*
X135363819Y-125668396D01*
X135361818Y-125687974D01*
X135364048Y-125764596D01*
X135364100Y-125768202D01*
X135364100Y-126467079D01*
X135349631Y-126525207D01*
X135309602Y-126569770D01*
X135253353Y-126590368D01*
X135231042Y-126592767D01*
X135211115Y-126594909D01*
X135076269Y-126645204D01*
X134961054Y-126731454D01*
X134874804Y-126846668D01*
X134824509Y-126981516D01*
X134823037Y-126995208D01*
X134818316Y-127039124D01*
X134818100Y-127041130D01*
X134818100Y-128736869D01*
X134824509Y-128796484D01*
X134839515Y-128836716D01*
X134874804Y-128931331D01*
X134961054Y-129046546D01*
X135076269Y-129132796D01*
X135211117Y-129183091D01*
X135253355Y-129187632D01*
X135309603Y-129208232D01*
X135349632Y-129252794D01*
X135364100Y-129310922D01*
X135364100Y-130295738D01*
X135350089Y-130352995D01*
X135311222Y-130397314D01*
X135279458Y-130419554D01*
X135118553Y-130580459D01*
X134988032Y-130766864D01*
X134891861Y-130973102D01*
X134832964Y-131192910D01*
X134813131Y-131419599D01*
X134832964Y-131646289D01*
X134891861Y-131866097D01*
X134988032Y-132072335D01*
X135118553Y-132258740D01*
X135279458Y-132419645D01*
X135311222Y-132441886D01*
X135350089Y-132486205D01*
X135364100Y-132543462D01*
X135364100Y-134022600D01*
X135362791Y-134040570D01*
X135359285Y-134064506D01*
X135363628Y-134114148D01*
X135364100Y-134124955D01*
X135364100Y-134130540D01*
X135367716Y-134161485D01*
X135368082Y-134165069D01*
X135374762Y-134241419D01*
X135379023Y-134260639D01*
X135405221Y-134332620D01*
X135406404Y-134336024D01*
X135430516Y-134408787D01*
X135439096Y-134426508D01*
X135481213Y-134490546D01*
X135483150Y-134493586D01*
X135522730Y-134557754D01*
X135522731Y-134557755D01*
X135523372Y-134558794D01*
X135535802Y-134574053D01*
X135566731Y-134603232D01*
X135581101Y-134619379D01*
X135591460Y-134633294D01*
X135629632Y-134665324D01*
X135637607Y-134672632D01*
X135641555Y-134676580D01*
X135655341Y-134687480D01*
X135663536Y-134694562D01*
X135667906Y-134698686D01*
X135676877Y-134704967D01*
X135727511Y-134747454D01*
X135744097Y-134758020D01*
X135745207Y-134758537D01*
X135745209Y-134758539D01*
X135813584Y-134790422D01*
X135816775Y-134791968D01*
X135885282Y-134826373D01*
X135903873Y-134832834D01*
X135905060Y-134833079D01*
X135978938Y-134848333D01*
X135982411Y-134849103D01*
X136055812Y-134866500D01*
X136055814Y-134866500D01*
X136056995Y-134866780D01*
X136076574Y-134868781D01*
X136077791Y-134868745D01*
X136077794Y-134868746D01*
X136148669Y-134866683D01*
X136153196Y-134866552D01*
X136156802Y-134866500D01*
X139329500Y-134866500D01*
X139391500Y-134883113D01*
X139436887Y-134928500D01*
X139453500Y-134990500D01*
X139453500Y-137096000D01*
X139452191Y-137113970D01*
X139448685Y-137137906D01*
X139453028Y-137187548D01*
X139453500Y-137198355D01*
X139453500Y-137203940D01*
X139457116Y-137234885D01*
X139457482Y-137238469D01*
X139464162Y-137314819D01*
X139468423Y-137334039D01*
X139494621Y-137406020D01*
X139495804Y-137409424D01*
X139519916Y-137482187D01*
X139528496Y-137499908D01*
X139570613Y-137563946D01*
X139572550Y-137566986D01*
X139612130Y-137631154D01*
X139612131Y-137631155D01*
X139612772Y-137632194D01*
X139625202Y-137647453D01*
X139680937Y-137700035D01*
X139683525Y-137702549D01*
X139730834Y-137749858D01*
X139742615Y-137763490D01*
X139757060Y-137782893D01*
X139795234Y-137814925D01*
X139803209Y-137822233D01*
X139807159Y-137826183D01*
X139827567Y-137842320D01*
X139831611Y-137845517D01*
X139834405Y-137847793D01*
X139892173Y-137896267D01*
X139892175Y-137896268D01*
X139893107Y-137897050D01*
X139909701Y-137907622D01*
X139910807Y-137908138D01*
X139910809Y-137908139D01*
X139979184Y-137940022D01*
X139982375Y-137941568D01*
X140050882Y-137975973D01*
X140069473Y-137982434D01*
X140070660Y-137982679D01*
X140144538Y-137997933D01*
X140148011Y-137998703D01*
X140221412Y-138016100D01*
X140221414Y-138016100D01*
X140222595Y-138016380D01*
X140242174Y-138018381D01*
X140243391Y-138018345D01*
X140243394Y-138018346D01*
X140314269Y-138016283D01*
X140318796Y-138016152D01*
X140322402Y-138016100D01*
X142885500Y-138016100D01*
X142947500Y-138032713D01*
X142992887Y-138078100D01*
X143009500Y-138140100D01*
X143009500Y-138367500D01*
X142992887Y-138429500D01*
X142947500Y-138474887D01*
X142885500Y-138491500D01*
X135070958Y-138491500D01*
X135014663Y-138477985D01*
X134970640Y-138440385D01*
X134948485Y-138386898D01*
X134953027Y-138329182D01*
X134983277Y-138279819D01*
X134996120Y-138266976D01*
X135030495Y-138232601D01*
X135166035Y-138039029D01*
X135265903Y-137824863D01*
X135327063Y-137596608D01*
X135335713Y-137497738D01*
X135342500Y-137420168D01*
X135342500Y-137052232D01*
X135327063Y-136875792D01*
X135321719Y-136855847D01*
X135265903Y-136647537D01*
X135166035Y-136433371D01*
X135030495Y-136239799D01*
X134863401Y-136072705D01*
X134669830Y-135937165D01*
X134455663Y-135837297D01*
X134355744Y-135810524D01*
X134227407Y-135776136D01*
X133992000Y-135755540D01*
X133756592Y-135776136D01*
X133528336Y-135837297D01*
X133314170Y-135937165D01*
X133120598Y-136072705D01*
X132953508Y-136239795D01*
X132953507Y-136239797D01*
X132953505Y-136239799D01*
X132946256Y-136250152D01*
X132843574Y-136396797D01*
X132799255Y-136435663D01*
X132741998Y-136449673D01*
X132684742Y-136435662D01*
X132640426Y-136396798D01*
X132530495Y-136239799D01*
X132363401Y-136072705D01*
X132169830Y-135937165D01*
X131955663Y-135837297D01*
X131855744Y-135810524D01*
X131727407Y-135776136D01*
X131614722Y-135766277D01*
X131573125Y-135755131D01*
X131537849Y-135730430D01*
X129026375Y-133218956D01*
X129013439Y-133202809D01*
X128962153Y-133154648D01*
X128959354Y-133151935D01*
X128939795Y-133132375D01*
X128936606Y-133129902D01*
X128927716Y-133122310D01*
X128895767Y-133092307D01*
X128893465Y-133091041D01*
X128878120Y-133082605D01*
X128861858Y-133071922D01*
X128845963Y-133059592D01*
X128805736Y-133042184D01*
X128795248Y-133037046D01*
X128756831Y-133015926D01*
X128737337Y-133010921D01*
X128718933Y-133004620D01*
X128700458Y-132996625D01*
X128657171Y-132989769D01*
X128645736Y-132987401D01*
X128603274Y-132976500D01*
X128603272Y-132976500D01*
X128583142Y-132976500D01*
X128563743Y-132974973D01*
X128543868Y-132971825D01*
X128543867Y-132971825D01*
X128523261Y-132973772D01*
X128500230Y-132975950D01*
X128488561Y-132976500D01*
X121215281Y-132976500D01*
X121167828Y-132967061D01*
X121127600Y-132940181D01*
X120551819Y-132364400D01*
X120524939Y-132324172D01*
X120515500Y-132276719D01*
X120515500Y-129540000D01*
X122642722Y-129540000D01*
X122661792Y-129757974D01*
X122684508Y-129842753D01*
X122718425Y-129969330D01*
X122810898Y-130167639D01*
X122936402Y-130346877D01*
X123091123Y-130501598D01*
X123270361Y-130627102D01*
X123468670Y-130719575D01*
X123680023Y-130776207D01*
X123898000Y-130795277D01*
X124115977Y-130776207D01*
X124327330Y-130719575D01*
X124525639Y-130627102D01*
X124704877Y-130501598D01*
X124859598Y-130346877D01*
X124985102Y-130167639D01*
X125077575Y-129969330D01*
X125134207Y-129757977D01*
X125153277Y-129540000D01*
X127522722Y-129540000D01*
X127541792Y-129757974D01*
X127564508Y-129842753D01*
X127598425Y-129969330D01*
X127690898Y-130167639D01*
X127816402Y-130346877D01*
X127971123Y-130501598D01*
X128150361Y-130627102D01*
X128348670Y-130719575D01*
X128560023Y-130776207D01*
X128778000Y-130795277D01*
X128995977Y-130776207D01*
X129207330Y-130719575D01*
X129405639Y-130627102D01*
X129584877Y-130501598D01*
X129739598Y-130346877D01*
X129865102Y-130167639D01*
X129957575Y-129969330D01*
X130014207Y-129757977D01*
X130033277Y-129540000D01*
X130014207Y-129322023D01*
X129957575Y-129110670D01*
X129865102Y-128912362D01*
X129739598Y-128733123D01*
X129584877Y-128578402D01*
X129405639Y-128452898D01*
X129314013Y-128410172D01*
X129207331Y-128360425D01*
X128995974Y-128303792D01*
X128778000Y-128284722D01*
X128560025Y-128303792D01*
X128348668Y-128360425D01*
X128150361Y-128452898D01*
X127971122Y-128578402D01*
X127816402Y-128733122D01*
X127690898Y-128912361D01*
X127598425Y-129110668D01*
X127541792Y-129322025D01*
X127522722Y-129540000D01*
X125153277Y-129540000D01*
X125134207Y-129322023D01*
X125077575Y-129110670D01*
X124985102Y-128912362D01*
X124859598Y-128733123D01*
X124704877Y-128578402D01*
X124525639Y-128452898D01*
X124434013Y-128410172D01*
X124327331Y-128360425D01*
X124115974Y-128303792D01*
X123898000Y-128284722D01*
X123680025Y-128303792D01*
X123468668Y-128360425D01*
X123270361Y-128452898D01*
X123091122Y-128578402D01*
X122936402Y-128733122D01*
X122810898Y-128912361D01*
X122718425Y-129110668D01*
X122661792Y-129322025D01*
X122642722Y-129540000D01*
X120515500Y-129540000D01*
X120515500Y-127438566D01*
X120517770Y-127417998D01*
X120517440Y-127407501D01*
X120515561Y-127347682D01*
X120515500Y-127343788D01*
X120515500Y-127316125D01*
X120515038Y-127312466D01*
X120514993Y-127312117D01*
X120514077Y-127300469D01*
X120513476Y-127281339D01*
X120512701Y-127256658D01*
X120507082Y-127237318D01*
X120503139Y-127218280D01*
X120500616Y-127198307D01*
X120494194Y-127182088D01*
X120484483Y-127157560D01*
X120480699Y-127146507D01*
X120468468Y-127104408D01*
X120458221Y-127087082D01*
X120449662Y-127069611D01*
X120442253Y-127050897D01*
X120416489Y-127015437D01*
X120410074Y-127005670D01*
X120387766Y-126967947D01*
X120384972Y-126965153D01*
X120373525Y-126953706D01*
X120360893Y-126938916D01*
X120349063Y-126922633D01*
X120349060Y-126922631D01*
X120349060Y-126922630D01*
X120315287Y-126894690D01*
X120306647Y-126886828D01*
X118713975Y-125294156D01*
X118701039Y-125278009D01*
X118649753Y-125229848D01*
X118646954Y-125227135D01*
X118627395Y-125207575D01*
X118624206Y-125205102D01*
X118615316Y-125197510D01*
X118609983Y-125192502D01*
X118583367Y-125167507D01*
X118576777Y-125163884D01*
X118565720Y-125157805D01*
X118549458Y-125147122D01*
X118533563Y-125134792D01*
X118493336Y-125117384D01*
X118482848Y-125112246D01*
X118444431Y-125091126D01*
X118424937Y-125086121D01*
X118406533Y-125079820D01*
X118388058Y-125071825D01*
X118344771Y-125064969D01*
X118333336Y-125062601D01*
X118290874Y-125051700D01*
X118290872Y-125051700D01*
X118270742Y-125051700D01*
X118251343Y-125050173D01*
X118231468Y-125047025D01*
X118231467Y-125047025D01*
X118210861Y-125048972D01*
X118187830Y-125051150D01*
X118176161Y-125051700D01*
X116016700Y-125051700D01*
X115954700Y-125035087D01*
X115909313Y-124989700D01*
X115892700Y-124927700D01*
X115892700Y-124631387D01*
X115906711Y-124574130D01*
X115945577Y-124529812D01*
X115987440Y-124500500D01*
X116104339Y-124418647D01*
X116265247Y-124257739D01*
X116395768Y-124071334D01*
X116422818Y-124013324D01*
X116468575Y-123961149D01*
X116535200Y-123941729D01*
X116601825Y-123961149D01*
X116647582Y-124013325D01*
X116674631Y-124071333D01*
X116805153Y-124257740D01*
X116966059Y-124418646D01*
X117152464Y-124549167D01*
X117152465Y-124549167D01*
X117152466Y-124549168D01*
X117358704Y-124645339D01*
X117578508Y-124704235D01*
X117805200Y-124724068D01*
X118031892Y-124704235D01*
X118251696Y-124645339D01*
X118457934Y-124549168D01*
X118644339Y-124418647D01*
X118805247Y-124257739D01*
X118935768Y-124071334D01*
X118962818Y-124013324D01*
X119008575Y-123961149D01*
X119075200Y-123941729D01*
X119141825Y-123961149D01*
X119187582Y-124013325D01*
X119214631Y-124071333D01*
X119345153Y-124257740D01*
X119506059Y-124418646D01*
X119692464Y-124549167D01*
X119692465Y-124549167D01*
X119692466Y-124549168D01*
X119898704Y-124645339D01*
X120118508Y-124704235D01*
X120345200Y-124724068D01*
X120571892Y-124704235D01*
X120791696Y-124645339D01*
X120887494Y-124600667D01*
X120948010Y-124589314D01*
X121006525Y-124608468D01*
X121048614Y-124653406D01*
X121063900Y-124713049D01*
X121063900Y-125037434D01*
X121061629Y-125058001D01*
X121063839Y-125128319D01*
X121063900Y-125132213D01*
X121063900Y-125159876D01*
X121064406Y-125163884D01*
X121065321Y-125175518D01*
X121066698Y-125219343D01*
X121072316Y-125238678D01*
X121076261Y-125257728D01*
X121078783Y-125277693D01*
X121094919Y-125318449D01*
X121098702Y-125329498D01*
X121110930Y-125371587D01*
X121110931Y-125371589D01*
X121110932Y-125371591D01*
X121121179Y-125388917D01*
X121129738Y-125406389D01*
X121137147Y-125425105D01*
X121162911Y-125460565D01*
X121169325Y-125470329D01*
X121190653Y-125506392D01*
X121191637Y-125508056D01*
X121205875Y-125522294D01*
X121218507Y-125537085D01*
X121230337Y-125553367D01*
X121257426Y-125575777D01*
X121264105Y-125581302D01*
X121272746Y-125589165D01*
X121417624Y-125734043D01*
X121430562Y-125750192D01*
X121481845Y-125798350D01*
X121484644Y-125801063D01*
X121504204Y-125820623D01*
X121505710Y-125821791D01*
X121507385Y-125823090D01*
X121516282Y-125830688D01*
X121548230Y-125860691D01*
X121548232Y-125860692D01*
X121548233Y-125860693D01*
X121565878Y-125870393D01*
X121582135Y-125881072D01*
X121598038Y-125893408D01*
X121638258Y-125910812D01*
X121648749Y-125915951D01*
X121687166Y-125937072D01*
X121706663Y-125942078D01*
X121725069Y-125948379D01*
X121743541Y-125956373D01*
X121786841Y-125963230D01*
X121798248Y-125965592D01*
X121840728Y-125976500D01*
X121860859Y-125976500D01*
X121880257Y-125978026D01*
X121900133Y-125981175D01*
X121940208Y-125977386D01*
X121943770Y-125977050D01*
X121955439Y-125976500D01*
X133659962Y-125976500D01*
X133683196Y-125978696D01*
X133691286Y-125980239D01*
X133746822Y-125976744D01*
X133754608Y-125976500D01*
X133770479Y-125976500D01*
X133786217Y-125974511D01*
X133793932Y-125973780D01*
X133849516Y-125970284D01*
X133857342Y-125967740D01*
X133880122Y-125962647D01*
X133888293Y-125961616D01*
X133940042Y-125941126D01*
X133947353Y-125938493D01*
X134000300Y-125921291D01*
X134007246Y-125916882D01*
X134028041Y-125906286D01*
X134035703Y-125903253D01*
X134080735Y-125870533D01*
X134087161Y-125866166D01*
X134134162Y-125836340D01*
X134139798Y-125830336D01*
X134157312Y-125814897D01*
X134163967Y-125810063D01*
X134199451Y-125767168D01*
X134204573Y-125761359D01*
X134242693Y-125720767D01*
X134246659Y-125713551D01*
X134259780Y-125694243D01*
X134265026Y-125687903D01*
X134288732Y-125637522D01*
X134292233Y-125630651D01*
X134319072Y-125581834D01*
X134319072Y-125581830D01*
X134322401Y-125575777D01*
X134343377Y-125547840D01*
X135172609Y-124718608D01*
X135228195Y-124686516D01*
X135292381Y-124686516D01*
X135358508Y-124704235D01*
X135585200Y-124724068D01*
X135811892Y-124704235D01*
X136031696Y-124645339D01*
X136237934Y-124549168D01*
X136424339Y-124418647D01*
X136585247Y-124257739D01*
X136715768Y-124071334D01*
X136742818Y-124013324D01*
X136788575Y-123961149D01*
X136855200Y-123941729D01*
X136921825Y-123961149D01*
X136967582Y-124013325D01*
X136994631Y-124071333D01*
X137125153Y-124257740D01*
X137286059Y-124418646D01*
X137472464Y-124549167D01*
X137472465Y-124549167D01*
X137472466Y-124549168D01*
X137678704Y-124645339D01*
X137898508Y-124704235D01*
X138125200Y-124724068D01*
X138351892Y-124704235D01*
X138571696Y-124645339D01*
X138777934Y-124549168D01*
X138964339Y-124418647D01*
X139125247Y-124257739D01*
X139255768Y-124071334D01*
X139282818Y-124013324D01*
X139328575Y-123961149D01*
X139395200Y-123941729D01*
X139461825Y-123961149D01*
X139507582Y-124013325D01*
X139534631Y-124071333D01*
X139665153Y-124257740D01*
X139826059Y-124418646D01*
X140012464Y-124549167D01*
X140012465Y-124549167D01*
X140012466Y-124549168D01*
X140218704Y-124645339D01*
X140438508Y-124704235D01*
X140665200Y-124724068D01*
X140891892Y-124704235D01*
X141111696Y-124645339D01*
X141317934Y-124549168D01*
X141504339Y-124418647D01*
X141665247Y-124257739D01*
X141795768Y-124071334D01*
X141822818Y-124013324D01*
X141868575Y-123961149D01*
X141935200Y-123941729D01*
X142001825Y-123961149D01*
X142047582Y-124013325D01*
X142074631Y-124071333D01*
X142205153Y-124257740D01*
X142366059Y-124418646D01*
X142552464Y-124549167D01*
X142552465Y-124549167D01*
X142552466Y-124549168D01*
X142758704Y-124645339D01*
X142978508Y-124704235D01*
X143205200Y-124724068D01*
X143431892Y-124704235D01*
X143651696Y-124645339D01*
X143857934Y-124549168D01*
X144044339Y-124418647D01*
X144205247Y-124257739D01*
X144335768Y-124071334D01*
X144431939Y-123865096D01*
X144490835Y-123645292D01*
X144510668Y-123418600D01*
X144490835Y-123191908D01*
X144473116Y-123125781D01*
X144473116Y-123061595D01*
X144505208Y-123006009D01*
X145419044Y-122092173D01*
X145435190Y-122079239D01*
X145437159Y-122077141D01*
X145437162Y-122077140D01*
X145483383Y-122027918D01*
X145486001Y-122025216D01*
X145505623Y-122005596D01*
X145508100Y-122002401D01*
X145515681Y-121993524D01*
X145545693Y-121961567D01*
X145555392Y-121943922D01*
X145566071Y-121927664D01*
X145578408Y-121911762D01*
X145595815Y-121871534D01*
X145600951Y-121861051D01*
X145622072Y-121822634D01*
X145627077Y-121803140D01*
X145633383Y-121784723D01*
X145641373Y-121766260D01*
X145641372Y-121766260D01*
X145641374Y-121766258D01*
X145648231Y-121722955D01*
X145650596Y-121711536D01*
X145661500Y-121669072D01*
X145661500Y-121648942D01*
X145663027Y-121629543D01*
X145663742Y-121625028D01*
X145666175Y-121609667D01*
X145662050Y-121566030D01*
X145661500Y-121554361D01*
X145661500Y-116059366D01*
X145663770Y-116038798D01*
X145661561Y-115968482D01*
X145661500Y-115964588D01*
X145661500Y-115936925D01*
X145660994Y-115932921D01*
X145660077Y-115921269D01*
X145660044Y-115920205D01*
X145658701Y-115877458D01*
X145653083Y-115858120D01*
X145649139Y-115839079D01*
X145646616Y-115819107D01*
X145630480Y-115778352D01*
X145626702Y-115767316D01*
X145614469Y-115725209D01*
X145604216Y-115707872D01*
X145595662Y-115690410D01*
X145588253Y-115671697D01*
X145562488Y-115636235D01*
X145556075Y-115626471D01*
X145533764Y-115588745D01*
X145519530Y-115574511D01*
X145506893Y-115559716D01*
X145504917Y-115556996D01*
X145495063Y-115543433D01*
X145495060Y-115543431D01*
X145495060Y-115543430D01*
X145461287Y-115515490D01*
X145452647Y-115507628D01*
X142894775Y-112949756D01*
X142881839Y-112933609D01*
X142830553Y-112885448D01*
X142827754Y-112882735D01*
X142808195Y-112863175D01*
X142805006Y-112860702D01*
X142796116Y-112853110D01*
X142793459Y-112850615D01*
X142764167Y-112823107D01*
X142761865Y-112821841D01*
X142746520Y-112813405D01*
X142730258Y-112802722D01*
X142714363Y-112790392D01*
X142674136Y-112772984D01*
X142663648Y-112767846D01*
X142625231Y-112746726D01*
X142605737Y-112741721D01*
X142587333Y-112735420D01*
X142568858Y-112727425D01*
X142525571Y-112720569D01*
X142514136Y-112718201D01*
X142471674Y-112707300D01*
X142471672Y-112707300D01*
X142451542Y-112707300D01*
X142432143Y-112705773D01*
X142412268Y-112702625D01*
X142412267Y-112702625D01*
X142391661Y-112704572D01*
X142368630Y-112706750D01*
X142356961Y-112707300D01*
X132217551Y-112707300D01*
X132169301Y-112693400D01*
X132168625Y-112695333D01*
X132155438Y-112690718D01*
X132155437Y-112690718D01*
X131994954Y-112634563D01*
X131994953Y-112634562D01*
X131994951Y-112634562D01*
X131826000Y-112615525D01*
X131657048Y-112634562D01*
X131496562Y-112690718D01*
X131477613Y-112702625D01*
X131449670Y-112720182D01*
X131387178Y-112739139D01*
X131323719Y-112723716D01*
X131276897Y-112678189D01*
X131259700Y-112615188D01*
X131259700Y-112100238D01*
X131272488Y-112045394D01*
X131308214Y-112001862D01*
X131359509Y-111978621D01*
X131415793Y-111980463D01*
X131575385Y-112023225D01*
X131599308Y-112029635D01*
X131826000Y-112049468D01*
X132052692Y-112029635D01*
X132272496Y-111970739D01*
X132478734Y-111874568D01*
X132665139Y-111744047D01*
X132826047Y-111583139D01*
X132956568Y-111396734D01*
X133052739Y-111190496D01*
X133111635Y-110970692D01*
X133131468Y-110744000D01*
X133111635Y-110517308D01*
X133052739Y-110297504D01*
X132956568Y-110091266D01*
X132956567Y-110091264D01*
X132833583Y-109915623D01*
X132811423Y-109852609D01*
X132825169Y-109787243D01*
X132870830Y-109738491D01*
X132935158Y-109720500D01*
X145101914Y-109720500D01*
X145149367Y-109729939D01*
G37*
%TD.AperFunction*%
D27*
X101781428Y-106949602D02*
X101890285Y-106985888D01*
X101890285Y-106985888D02*
X101926571Y-107022174D01*
X101926571Y-107022174D02*
X101962857Y-107094745D01*
X101962857Y-107094745D02*
X101962857Y-107203602D01*
X101962857Y-107203602D02*
X101926571Y-107276174D01*
X101926571Y-107276174D02*
X101890285Y-107312460D01*
X101890285Y-107312460D02*
X101817714Y-107348745D01*
X101817714Y-107348745D02*
X101527428Y-107348745D01*
X101527428Y-107348745D02*
X101527428Y-106586745D01*
X101527428Y-106586745D02*
X101781428Y-106586745D01*
X101781428Y-106586745D02*
X101854000Y-106623031D01*
X101854000Y-106623031D02*
X101890285Y-106659317D01*
X101890285Y-106659317D02*
X101926571Y-106731888D01*
X101926571Y-106731888D02*
X101926571Y-106804460D01*
X101926571Y-106804460D02*
X101890285Y-106877031D01*
X101890285Y-106877031D02*
X101854000Y-106913317D01*
X101854000Y-106913317D02*
X101781428Y-106949602D01*
X101781428Y-106949602D02*
X101527428Y-106949602D01*
X102652285Y-107348745D02*
X102289428Y-107348745D01*
X102289428Y-107348745D02*
X102289428Y-106586745D01*
X102906285Y-107348745D02*
X102906285Y-106586745D01*
X103341714Y-107348745D02*
X103015142Y-106913317D01*
X103341714Y-106586745D02*
X102906285Y-107022174D01*
X151565428Y-137429602D02*
X151674285Y-137465888D01*
X151674285Y-137465888D02*
X151710571Y-137502174D01*
X151710571Y-137502174D02*
X151746857Y-137574745D01*
X151746857Y-137574745D02*
X151746857Y-137683602D01*
X151746857Y-137683602D02*
X151710571Y-137756174D01*
X151710571Y-137756174D02*
X151674285Y-137792460D01*
X151674285Y-137792460D02*
X151601714Y-137828745D01*
X151601714Y-137828745D02*
X151311428Y-137828745D01*
X151311428Y-137828745D02*
X151311428Y-137066745D01*
X151311428Y-137066745D02*
X151565428Y-137066745D01*
X151565428Y-137066745D02*
X151638000Y-137103031D01*
X151638000Y-137103031D02*
X151674285Y-137139317D01*
X151674285Y-137139317D02*
X151710571Y-137211888D01*
X151710571Y-137211888D02*
X151710571Y-137284460D01*
X151710571Y-137284460D02*
X151674285Y-137357031D01*
X151674285Y-137357031D02*
X151638000Y-137393317D01*
X151638000Y-137393317D02*
X151565428Y-137429602D01*
X151565428Y-137429602D02*
X151311428Y-137429602D01*
X152436285Y-137828745D02*
X152073428Y-137828745D01*
X152073428Y-137828745D02*
X152073428Y-137066745D01*
X152690285Y-137828745D02*
X152690285Y-137066745D01*
X153125714Y-137828745D02*
X152799142Y-137393317D01*
X153125714Y-137066745D02*
X152690285Y-137502174D01*
D28*
X147383428Y-134227809D02*
X147526285Y-134275428D01*
X147526285Y-134275428D02*
X147573904Y-134323047D01*
X147573904Y-134323047D02*
X147621523Y-134418285D01*
X147621523Y-134418285D02*
X147621523Y-134561142D01*
X147621523Y-134561142D02*
X147573904Y-134656380D01*
X147573904Y-134656380D02*
X147526285Y-134704000D01*
X147526285Y-134704000D02*
X147431047Y-134751619D01*
X147431047Y-134751619D02*
X147050095Y-134751619D01*
X147050095Y-134751619D02*
X147050095Y-133751619D01*
X147050095Y-133751619D02*
X147383428Y-133751619D01*
X147383428Y-133751619D02*
X147478666Y-133799238D01*
X147478666Y-133799238D02*
X147526285Y-133846857D01*
X147526285Y-133846857D02*
X147573904Y-133942095D01*
X147573904Y-133942095D02*
X147573904Y-134037333D01*
X147573904Y-134037333D02*
X147526285Y-134132571D01*
X147526285Y-134132571D02*
X147478666Y-134180190D01*
X147478666Y-134180190D02*
X147383428Y-134227809D01*
X147383428Y-134227809D02*
X147050095Y-134227809D01*
X148478666Y-134751619D02*
X148478666Y-134227809D01*
X148478666Y-134227809D02*
X148431047Y-134132571D01*
X148431047Y-134132571D02*
X148335809Y-134084952D01*
X148335809Y-134084952D02*
X148145333Y-134084952D01*
X148145333Y-134084952D02*
X148050095Y-134132571D01*
X148478666Y-134704000D02*
X148383428Y-134751619D01*
X148383428Y-134751619D02*
X148145333Y-134751619D01*
X148145333Y-134751619D02*
X148050095Y-134704000D01*
X148050095Y-134704000D02*
X148002476Y-134608761D01*
X148002476Y-134608761D02*
X148002476Y-134513523D01*
X148002476Y-134513523D02*
X148050095Y-134418285D01*
X148050095Y-134418285D02*
X148145333Y-134370666D01*
X148145333Y-134370666D02*
X148383428Y-134370666D01*
X148383428Y-134370666D02*
X148478666Y-134323047D01*
X148812000Y-134084952D02*
X149192952Y-134084952D01*
X148954857Y-133751619D02*
X148954857Y-134608761D01*
X148954857Y-134608761D02*
X149002476Y-134704000D01*
X149002476Y-134704000D02*
X149097714Y-134751619D01*
X149097714Y-134751619D02*
X149192952Y-134751619D01*
D27*
X140570857Y-137828745D02*
X140316857Y-137465888D01*
X140135428Y-137828745D02*
X140135428Y-137066745D01*
X140135428Y-137066745D02*
X140425714Y-137066745D01*
X140425714Y-137066745D02*
X140498285Y-137103031D01*
X140498285Y-137103031D02*
X140534571Y-137139317D01*
X140534571Y-137139317D02*
X140570857Y-137211888D01*
X140570857Y-137211888D02*
X140570857Y-137320745D01*
X140570857Y-137320745D02*
X140534571Y-137393317D01*
X140534571Y-137393317D02*
X140498285Y-137429602D01*
X140498285Y-137429602D02*
X140425714Y-137465888D01*
X140425714Y-137465888D02*
X140135428Y-137465888D01*
X140897428Y-137429602D02*
X141151428Y-137429602D01*
X141260285Y-137828745D02*
X140897428Y-137828745D01*
X140897428Y-137828745D02*
X140897428Y-137066745D01*
X140897428Y-137066745D02*
X141260285Y-137066745D01*
X141586857Y-137828745D02*
X141586857Y-137066745D01*
X141586857Y-137066745D02*
X141768286Y-137066745D01*
X141768286Y-137066745D02*
X141877143Y-137103031D01*
X141877143Y-137103031D02*
X141949714Y-137175602D01*
X141949714Y-137175602D02*
X141986000Y-137248174D01*
X141986000Y-137248174D02*
X142022286Y-137393317D01*
X142022286Y-137393317D02*
X142022286Y-137502174D01*
X142022286Y-137502174D02*
X141986000Y-137647317D01*
X141986000Y-137647317D02*
X141949714Y-137719888D01*
X141949714Y-137719888D02*
X141877143Y-137792460D01*
X141877143Y-137792460D02*
X141768286Y-137828745D01*
X141768286Y-137828745D02*
X141586857Y-137828745D01*
D28*
X140754076Y-106103600D02*
X140896933Y-106151219D01*
X140896933Y-106151219D02*
X141135028Y-106151219D01*
X141135028Y-106151219D02*
X141230266Y-106103600D01*
X141230266Y-106103600D02*
X141277885Y-106055980D01*
X141277885Y-106055980D02*
X141325504Y-105960742D01*
X141325504Y-105960742D02*
X141325504Y-105865504D01*
X141325504Y-105865504D02*
X141277885Y-105770266D01*
X141277885Y-105770266D02*
X141230266Y-105722647D01*
X141230266Y-105722647D02*
X141135028Y-105675028D01*
X141135028Y-105675028D02*
X140944552Y-105627409D01*
X140944552Y-105627409D02*
X140849314Y-105579790D01*
X140849314Y-105579790D02*
X140801695Y-105532171D01*
X140801695Y-105532171D02*
X140754076Y-105436933D01*
X140754076Y-105436933D02*
X140754076Y-105341695D01*
X140754076Y-105341695D02*
X140801695Y-105246457D01*
X140801695Y-105246457D02*
X140849314Y-105198838D01*
X140849314Y-105198838D02*
X140944552Y-105151219D01*
X140944552Y-105151219D02*
X141182647Y-105151219D01*
X141182647Y-105151219D02*
X141325504Y-105198838D01*
X141754076Y-106151219D02*
X141754076Y-105151219D01*
X141754076Y-105151219D02*
X141992171Y-105151219D01*
X141992171Y-105151219D02*
X142135028Y-105198838D01*
X142135028Y-105198838D02*
X142230266Y-105294076D01*
X142230266Y-105294076D02*
X142277885Y-105389314D01*
X142277885Y-105389314D02*
X142325504Y-105579790D01*
X142325504Y-105579790D02*
X142325504Y-105722647D01*
X142325504Y-105722647D02*
X142277885Y-105913123D01*
X142277885Y-105913123D02*
X142230266Y-106008361D01*
X142230266Y-106008361D02*
X142135028Y-106103600D01*
X142135028Y-106103600D02*
X141992171Y-106151219D01*
X141992171Y-106151219D02*
X141754076Y-106151219D01*
X144087409Y-106055980D02*
X144039790Y-106103600D01*
X144039790Y-106103600D02*
X143896933Y-106151219D01*
X143896933Y-106151219D02*
X143801695Y-106151219D01*
X143801695Y-106151219D02*
X143658838Y-106103600D01*
X143658838Y-106103600D02*
X143563600Y-106008361D01*
X143563600Y-106008361D02*
X143515981Y-105913123D01*
X143515981Y-105913123D02*
X143468362Y-105722647D01*
X143468362Y-105722647D02*
X143468362Y-105579790D01*
X143468362Y-105579790D02*
X143515981Y-105389314D01*
X143515981Y-105389314D02*
X143563600Y-105294076D01*
X143563600Y-105294076D02*
X143658838Y-105198838D01*
X143658838Y-105198838D02*
X143801695Y-105151219D01*
X143801695Y-105151219D02*
X143896933Y-105151219D01*
X143896933Y-105151219D02*
X144039790Y-105198838D01*
X144039790Y-105198838D02*
X144087409Y-105246457D01*
X144944552Y-106151219D02*
X144944552Y-105627409D01*
X144944552Y-105627409D02*
X144896933Y-105532171D01*
X144896933Y-105532171D02*
X144801695Y-105484552D01*
X144801695Y-105484552D02*
X144611219Y-105484552D01*
X144611219Y-105484552D02*
X144515981Y-105532171D01*
X144944552Y-106103600D02*
X144849314Y-106151219D01*
X144849314Y-106151219D02*
X144611219Y-106151219D01*
X144611219Y-106151219D02*
X144515981Y-106103600D01*
X144515981Y-106103600D02*
X144468362Y-106008361D01*
X144468362Y-106008361D02*
X144468362Y-105913123D01*
X144468362Y-105913123D02*
X144515981Y-105817885D01*
X144515981Y-105817885D02*
X144611219Y-105770266D01*
X144611219Y-105770266D02*
X144849314Y-105770266D01*
X144849314Y-105770266D02*
X144944552Y-105722647D01*
X145420743Y-106151219D02*
X145420743Y-105484552D01*
X145420743Y-105675028D02*
X145468362Y-105579790D01*
X145468362Y-105579790D02*
X145515981Y-105532171D01*
X145515981Y-105532171D02*
X145611219Y-105484552D01*
X145611219Y-105484552D02*
X145706457Y-105484552D01*
X146468362Y-106151219D02*
X146468362Y-105151219D01*
X146468362Y-106103600D02*
X146373124Y-106151219D01*
X146373124Y-106151219D02*
X146182648Y-106151219D01*
X146182648Y-106151219D02*
X146087410Y-106103600D01*
X146087410Y-106103600D02*
X146039791Y-106055980D01*
X146039791Y-106055980D02*
X145992172Y-105960742D01*
X145992172Y-105960742D02*
X145992172Y-105675028D01*
X145992172Y-105675028D02*
X146039791Y-105579790D01*
X146039791Y-105579790D02*
X146087410Y-105532171D01*
X146087410Y-105532171D02*
X146182648Y-105484552D01*
X146182648Y-105484552D02*
X146373124Y-105484552D01*
X146373124Y-105484552D02*
X146468362Y-105532171D01*
X105748000Y-121221523D02*
X105795619Y-121078666D01*
X105795619Y-121078666D02*
X105795619Y-120840571D01*
X105795619Y-120840571D02*
X105748000Y-120745333D01*
X105748000Y-120745333D02*
X105700380Y-120697714D01*
X105700380Y-120697714D02*
X105605142Y-120650095D01*
X105605142Y-120650095D02*
X105509904Y-120650095D01*
X105509904Y-120650095D02*
X105414666Y-120697714D01*
X105414666Y-120697714D02*
X105367047Y-120745333D01*
X105367047Y-120745333D02*
X105319428Y-120840571D01*
X105319428Y-120840571D02*
X105271809Y-121031047D01*
X105271809Y-121031047D02*
X105224190Y-121126285D01*
X105224190Y-121126285D02*
X105176571Y-121173904D01*
X105176571Y-121173904D02*
X105081333Y-121221523D01*
X105081333Y-121221523D02*
X104986095Y-121221523D01*
X104986095Y-121221523D02*
X104890857Y-121173904D01*
X104890857Y-121173904D02*
X104843238Y-121126285D01*
X104843238Y-121126285D02*
X104795619Y-121031047D01*
X104795619Y-121031047D02*
X104795619Y-120792952D01*
X104795619Y-120792952D02*
X104843238Y-120650095D01*
X105748000Y-119792952D02*
X105795619Y-119888190D01*
X105795619Y-119888190D02*
X105795619Y-120078666D01*
X105795619Y-120078666D02*
X105748000Y-120173904D01*
X105748000Y-120173904D02*
X105700380Y-120221523D01*
X105700380Y-120221523D02*
X105605142Y-120269142D01*
X105605142Y-120269142D02*
X105319428Y-120269142D01*
X105319428Y-120269142D02*
X105224190Y-120221523D01*
X105224190Y-120221523D02*
X105176571Y-120173904D01*
X105176571Y-120173904D02*
X105128952Y-120078666D01*
X105128952Y-120078666D02*
X105128952Y-119888190D01*
X105128952Y-119888190D02*
X105176571Y-119792952D01*
X105795619Y-119364380D02*
X105128952Y-119364380D01*
X105319428Y-119364380D02*
X105224190Y-119316761D01*
X105224190Y-119316761D02*
X105176571Y-119269142D01*
X105176571Y-119269142D02*
X105128952Y-119173904D01*
X105128952Y-119173904D02*
X105128952Y-119078666D01*
X105748000Y-118364380D02*
X105795619Y-118459618D01*
X105795619Y-118459618D02*
X105795619Y-118650094D01*
X105795619Y-118650094D02*
X105748000Y-118745332D01*
X105748000Y-118745332D02*
X105652761Y-118792951D01*
X105652761Y-118792951D02*
X105271809Y-118792951D01*
X105271809Y-118792951D02*
X105176571Y-118745332D01*
X105176571Y-118745332D02*
X105128952Y-118650094D01*
X105128952Y-118650094D02*
X105128952Y-118459618D01*
X105128952Y-118459618D02*
X105176571Y-118364380D01*
X105176571Y-118364380D02*
X105271809Y-118316761D01*
X105271809Y-118316761D02*
X105367047Y-118316761D01*
X105367047Y-118316761D02*
X105462285Y-118792951D01*
X105748000Y-117507237D02*
X105795619Y-117602475D01*
X105795619Y-117602475D02*
X105795619Y-117792951D01*
X105795619Y-117792951D02*
X105748000Y-117888189D01*
X105748000Y-117888189D02*
X105652761Y-117935808D01*
X105652761Y-117935808D02*
X105271809Y-117935808D01*
X105271809Y-117935808D02*
X105176571Y-117888189D01*
X105176571Y-117888189D02*
X105128952Y-117792951D01*
X105128952Y-117792951D02*
X105128952Y-117602475D01*
X105128952Y-117602475D02*
X105176571Y-117507237D01*
X105176571Y-117507237D02*
X105271809Y-117459618D01*
X105271809Y-117459618D02*
X105367047Y-117459618D01*
X105367047Y-117459618D02*
X105462285Y-117935808D01*
X105128952Y-117031046D02*
X105795619Y-117031046D01*
X105224190Y-117031046D02*
X105176571Y-116983427D01*
X105176571Y-116983427D02*
X105128952Y-116888189D01*
X105128952Y-116888189D02*
X105128952Y-116745332D01*
X105128952Y-116745332D02*
X105176571Y-116650094D01*
X105176571Y-116650094D02*
X105271809Y-116602475D01*
X105271809Y-116602475D02*
X105795619Y-116602475D01*
X128714476Y-134704000D02*
X128857333Y-134751619D01*
X128857333Y-134751619D02*
X129095428Y-134751619D01*
X129095428Y-134751619D02*
X129190666Y-134704000D01*
X129190666Y-134704000D02*
X129238285Y-134656380D01*
X129238285Y-134656380D02*
X129285904Y-134561142D01*
X129285904Y-134561142D02*
X129285904Y-134465904D01*
X129285904Y-134465904D02*
X129238285Y-134370666D01*
X129238285Y-134370666D02*
X129190666Y-134323047D01*
X129190666Y-134323047D02*
X129095428Y-134275428D01*
X129095428Y-134275428D02*
X128904952Y-134227809D01*
X128904952Y-134227809D02*
X128809714Y-134180190D01*
X128809714Y-134180190D02*
X128762095Y-134132571D01*
X128762095Y-134132571D02*
X128714476Y-134037333D01*
X128714476Y-134037333D02*
X128714476Y-133942095D01*
X128714476Y-133942095D02*
X128762095Y-133846857D01*
X128762095Y-133846857D02*
X128809714Y-133799238D01*
X128809714Y-133799238D02*
X128904952Y-133751619D01*
X128904952Y-133751619D02*
X129143047Y-133751619D01*
X129143047Y-133751619D02*
X129285904Y-133799238D01*
X130095428Y-134704000D02*
X130000190Y-134751619D01*
X130000190Y-134751619D02*
X129809714Y-134751619D01*
X129809714Y-134751619D02*
X129714476Y-134704000D01*
X129714476Y-134704000D02*
X129666857Y-134608761D01*
X129666857Y-134608761D02*
X129666857Y-134227809D01*
X129666857Y-134227809D02*
X129714476Y-134132571D01*
X129714476Y-134132571D02*
X129809714Y-134084952D01*
X129809714Y-134084952D02*
X130000190Y-134084952D01*
X130000190Y-134084952D02*
X130095428Y-134132571D01*
X130095428Y-134132571D02*
X130143047Y-134227809D01*
X130143047Y-134227809D02*
X130143047Y-134323047D01*
X130143047Y-134323047D02*
X129666857Y-134418285D01*
X130571619Y-134751619D02*
X130571619Y-134084952D01*
X130571619Y-134275428D02*
X130619238Y-134180190D01*
X130619238Y-134180190D02*
X130666857Y-134132571D01*
X130666857Y-134132571D02*
X130762095Y-134084952D01*
X130762095Y-134084952D02*
X130857333Y-134084952D01*
X131190667Y-134751619D02*
X131190667Y-134084952D01*
X131190667Y-133751619D02*
X131143048Y-133799238D01*
X131143048Y-133799238D02*
X131190667Y-133846857D01*
X131190667Y-133846857D02*
X131238286Y-133799238D01*
X131238286Y-133799238D02*
X131190667Y-133751619D01*
X131190667Y-133751619D02*
X131190667Y-133846857D01*
X132095428Y-134751619D02*
X132095428Y-134227809D01*
X132095428Y-134227809D02*
X132047809Y-134132571D01*
X132047809Y-134132571D02*
X131952571Y-134084952D01*
X131952571Y-134084952D02*
X131762095Y-134084952D01*
X131762095Y-134084952D02*
X131666857Y-134132571D01*
X132095428Y-134704000D02*
X132000190Y-134751619D01*
X132000190Y-134751619D02*
X131762095Y-134751619D01*
X131762095Y-134751619D02*
X131666857Y-134704000D01*
X131666857Y-134704000D02*
X131619238Y-134608761D01*
X131619238Y-134608761D02*
X131619238Y-134513523D01*
X131619238Y-134513523D02*
X131666857Y-134418285D01*
X131666857Y-134418285D02*
X131762095Y-134370666D01*
X131762095Y-134370666D02*
X132000190Y-134370666D01*
X132000190Y-134370666D02*
X132095428Y-134323047D01*
X132714476Y-134751619D02*
X132619238Y-134704000D01*
X132619238Y-134704000D02*
X132571619Y-134608761D01*
X132571619Y-134608761D02*
X132571619Y-133751619D01*
D27*
X101672571Y-131769031D02*
X101600000Y-131732745D01*
X101600000Y-131732745D02*
X101491142Y-131732745D01*
X101491142Y-131732745D02*
X101382285Y-131769031D01*
X101382285Y-131769031D02*
X101309714Y-131841602D01*
X101309714Y-131841602D02*
X101273428Y-131914174D01*
X101273428Y-131914174D02*
X101237142Y-132059317D01*
X101237142Y-132059317D02*
X101237142Y-132168174D01*
X101237142Y-132168174D02*
X101273428Y-132313317D01*
X101273428Y-132313317D02*
X101309714Y-132385888D01*
X101309714Y-132385888D02*
X101382285Y-132458460D01*
X101382285Y-132458460D02*
X101491142Y-132494745D01*
X101491142Y-132494745D02*
X101563714Y-132494745D01*
X101563714Y-132494745D02*
X101672571Y-132458460D01*
X101672571Y-132458460D02*
X101708857Y-132422174D01*
X101708857Y-132422174D02*
X101708857Y-132168174D01*
X101708857Y-132168174D02*
X101563714Y-132168174D01*
X102470857Y-132494745D02*
X102216857Y-132131888D01*
X102035428Y-132494745D02*
X102035428Y-131732745D01*
X102035428Y-131732745D02*
X102325714Y-131732745D01*
X102325714Y-131732745D02*
X102398285Y-131769031D01*
X102398285Y-131769031D02*
X102434571Y-131805317D01*
X102434571Y-131805317D02*
X102470857Y-131877888D01*
X102470857Y-131877888D02*
X102470857Y-131986745D01*
X102470857Y-131986745D02*
X102434571Y-132059317D01*
X102434571Y-132059317D02*
X102398285Y-132095602D01*
X102398285Y-132095602D02*
X102325714Y-132131888D01*
X102325714Y-132131888D02*
X102035428Y-132131888D01*
X102942571Y-132131888D02*
X102942571Y-132494745D01*
X102688571Y-131732745D02*
X102942571Y-132131888D01*
X102942571Y-132131888D02*
X103196571Y-131732745D01*
X137740571Y-137103031D02*
X137668000Y-137066745D01*
X137668000Y-137066745D02*
X137559142Y-137066745D01*
X137559142Y-137066745D02*
X137450285Y-137103031D01*
X137450285Y-137103031D02*
X137377714Y-137175602D01*
X137377714Y-137175602D02*
X137341428Y-137248174D01*
X137341428Y-137248174D02*
X137305142Y-137393317D01*
X137305142Y-137393317D02*
X137305142Y-137502174D01*
X137305142Y-137502174D02*
X137341428Y-137647317D01*
X137341428Y-137647317D02*
X137377714Y-137719888D01*
X137377714Y-137719888D02*
X137450285Y-137792460D01*
X137450285Y-137792460D02*
X137559142Y-137828745D01*
X137559142Y-137828745D02*
X137631714Y-137828745D01*
X137631714Y-137828745D02*
X137740571Y-137792460D01*
X137740571Y-137792460D02*
X137776857Y-137756174D01*
X137776857Y-137756174D02*
X137776857Y-137502174D01*
X137776857Y-137502174D02*
X137631714Y-137502174D01*
X138538857Y-137828745D02*
X138284857Y-137465888D01*
X138103428Y-137828745D02*
X138103428Y-137066745D01*
X138103428Y-137066745D02*
X138393714Y-137066745D01*
X138393714Y-137066745D02*
X138466285Y-137103031D01*
X138466285Y-137103031D02*
X138502571Y-137139317D01*
X138502571Y-137139317D02*
X138538857Y-137211888D01*
X138538857Y-137211888D02*
X138538857Y-137320745D01*
X138538857Y-137320745D02*
X138502571Y-137393317D01*
X138502571Y-137393317D02*
X138466285Y-137429602D01*
X138466285Y-137429602D02*
X138393714Y-137465888D01*
X138393714Y-137465888D02*
X138103428Y-137465888D01*
X138865428Y-137828745D02*
X138865428Y-137066745D01*
X138865428Y-137066745D02*
X139300857Y-137828745D01*
X139300857Y-137828745D02*
X139300857Y-137066745D01*
X116767428Y-137683602D02*
X116876285Y-137719888D01*
X116876285Y-137719888D02*
X116912571Y-137756174D01*
X116912571Y-137756174D02*
X116948857Y-137828745D01*
X116948857Y-137828745D02*
X116948857Y-137937602D01*
X116948857Y-137937602D02*
X116912571Y-138010174D01*
X116912571Y-138010174D02*
X116876285Y-138046460D01*
X116876285Y-138046460D02*
X116803714Y-138082745D01*
X116803714Y-138082745D02*
X116513428Y-138082745D01*
X116513428Y-138082745D02*
X116513428Y-137320745D01*
X116513428Y-137320745D02*
X116767428Y-137320745D01*
X116767428Y-137320745D02*
X116840000Y-137357031D01*
X116840000Y-137357031D02*
X116876285Y-137393317D01*
X116876285Y-137393317D02*
X116912571Y-137465888D01*
X116912571Y-137465888D02*
X116912571Y-137538460D01*
X116912571Y-137538460D02*
X116876285Y-137611031D01*
X116876285Y-137611031D02*
X116840000Y-137647317D01*
X116840000Y-137647317D02*
X116767428Y-137683602D01*
X116767428Y-137683602D02*
X116513428Y-137683602D01*
X117638285Y-138082745D02*
X117275428Y-138082745D01*
X117275428Y-138082745D02*
X117275428Y-137320745D01*
X117892285Y-138082745D02*
X117892285Y-137320745D01*
X118327714Y-138082745D02*
X118001142Y-137647317D01*
X118327714Y-137320745D02*
X117892285Y-137756174D01*
D28*
%TO.C,J4*%
X144974666Y-133828619D02*
X144974666Y-134542904D01*
X144974666Y-134542904D02*
X144927047Y-134685761D01*
X144927047Y-134685761D02*
X144831809Y-134781000D01*
X144831809Y-134781000D02*
X144688952Y-134828619D01*
X144688952Y-134828619D02*
X144593714Y-134828619D01*
X145879428Y-134161952D02*
X145879428Y-134828619D01*
X145641333Y-133781000D02*
X145403238Y-134495285D01*
X145403238Y-134495285D02*
X146022285Y-134495285D01*
%TO.C,Q1*%
X111207561Y-111251057D02*
X111112323Y-111203438D01*
X111112323Y-111203438D02*
X111017085Y-111108200D01*
X111017085Y-111108200D02*
X110874228Y-110965342D01*
X110874228Y-110965342D02*
X110778990Y-110917723D01*
X110778990Y-110917723D02*
X110683752Y-110917723D01*
X110731371Y-111155819D02*
X110636133Y-111108200D01*
X110636133Y-111108200D02*
X110540895Y-111012961D01*
X110540895Y-111012961D02*
X110493276Y-110822485D01*
X110493276Y-110822485D02*
X110493276Y-110489152D01*
X110493276Y-110489152D02*
X110540895Y-110298676D01*
X110540895Y-110298676D02*
X110636133Y-110203438D01*
X110636133Y-110203438D02*
X110731371Y-110155819D01*
X110731371Y-110155819D02*
X110921847Y-110155819D01*
X110921847Y-110155819D02*
X111017085Y-110203438D01*
X111017085Y-110203438D02*
X111112323Y-110298676D01*
X111112323Y-110298676D02*
X111159942Y-110489152D01*
X111159942Y-110489152D02*
X111159942Y-110822485D01*
X111159942Y-110822485D02*
X111112323Y-111012961D01*
X111112323Y-111012961D02*
X111017085Y-111108200D01*
X111017085Y-111108200D02*
X110921847Y-111155819D01*
X110921847Y-111155819D02*
X110731371Y-111155819D01*
X112112323Y-111155819D02*
X111540895Y-111155819D01*
X111826609Y-111155819D02*
X111826609Y-110155819D01*
X111826609Y-110155819D02*
X111731371Y-110298676D01*
X111731371Y-110298676D02*
X111636133Y-110393914D01*
X111636133Y-110393914D02*
X111540895Y-110441533D01*
%TO.C,C2*%
X112863333Y-139138380D02*
X112815714Y-139186000D01*
X112815714Y-139186000D02*
X112672857Y-139233619D01*
X112672857Y-139233619D02*
X112577619Y-139233619D01*
X112577619Y-139233619D02*
X112434762Y-139186000D01*
X112434762Y-139186000D02*
X112339524Y-139090761D01*
X112339524Y-139090761D02*
X112291905Y-138995523D01*
X112291905Y-138995523D02*
X112244286Y-138805047D01*
X112244286Y-138805047D02*
X112244286Y-138662190D01*
X112244286Y-138662190D02*
X112291905Y-138471714D01*
X112291905Y-138471714D02*
X112339524Y-138376476D01*
X112339524Y-138376476D02*
X112434762Y-138281238D01*
X112434762Y-138281238D02*
X112577619Y-138233619D01*
X112577619Y-138233619D02*
X112672857Y-138233619D01*
X112672857Y-138233619D02*
X112815714Y-138281238D01*
X112815714Y-138281238D02*
X112863333Y-138328857D01*
X113244286Y-138328857D02*
X113291905Y-138281238D01*
X113291905Y-138281238D02*
X113387143Y-138233619D01*
X113387143Y-138233619D02*
X113625238Y-138233619D01*
X113625238Y-138233619D02*
X113720476Y-138281238D01*
X113720476Y-138281238D02*
X113768095Y-138328857D01*
X113768095Y-138328857D02*
X113815714Y-138424095D01*
X113815714Y-138424095D02*
X113815714Y-138519333D01*
X113815714Y-138519333D02*
X113768095Y-138662190D01*
X113768095Y-138662190D02*
X113196667Y-139233619D01*
X113196667Y-139233619D02*
X113815714Y-139233619D01*
%TO.C,C4*%
X114117133Y-101270780D02*
X114069514Y-101318400D01*
X114069514Y-101318400D02*
X113926657Y-101366019D01*
X113926657Y-101366019D02*
X113831419Y-101366019D01*
X113831419Y-101366019D02*
X113688562Y-101318400D01*
X113688562Y-101318400D02*
X113593324Y-101223161D01*
X113593324Y-101223161D02*
X113545705Y-101127923D01*
X113545705Y-101127923D02*
X113498086Y-100937447D01*
X113498086Y-100937447D02*
X113498086Y-100794590D01*
X113498086Y-100794590D02*
X113545705Y-100604114D01*
X113545705Y-100604114D02*
X113593324Y-100508876D01*
X113593324Y-100508876D02*
X113688562Y-100413638D01*
X113688562Y-100413638D02*
X113831419Y-100366019D01*
X113831419Y-100366019D02*
X113926657Y-100366019D01*
X113926657Y-100366019D02*
X114069514Y-100413638D01*
X114069514Y-100413638D02*
X114117133Y-100461257D01*
X114974276Y-100699352D02*
X114974276Y-101366019D01*
X114736181Y-100318400D02*
X114498086Y-101032685D01*
X114498086Y-101032685D02*
X115117133Y-101032685D01*
%TO.C,C5*%
X151649133Y-130832580D02*
X151601514Y-130880200D01*
X151601514Y-130880200D02*
X151458657Y-130927819D01*
X151458657Y-130927819D02*
X151363419Y-130927819D01*
X151363419Y-130927819D02*
X151220562Y-130880200D01*
X151220562Y-130880200D02*
X151125324Y-130784961D01*
X151125324Y-130784961D02*
X151077705Y-130689723D01*
X151077705Y-130689723D02*
X151030086Y-130499247D01*
X151030086Y-130499247D02*
X151030086Y-130356390D01*
X151030086Y-130356390D02*
X151077705Y-130165914D01*
X151077705Y-130165914D02*
X151125324Y-130070676D01*
X151125324Y-130070676D02*
X151220562Y-129975438D01*
X151220562Y-129975438D02*
X151363419Y-129927819D01*
X151363419Y-129927819D02*
X151458657Y-129927819D01*
X151458657Y-129927819D02*
X151601514Y-129975438D01*
X151601514Y-129975438D02*
X151649133Y-130023057D01*
X152553895Y-129927819D02*
X152077705Y-129927819D01*
X152077705Y-129927819D02*
X152030086Y-130404009D01*
X152030086Y-130404009D02*
X152077705Y-130356390D01*
X152077705Y-130356390D02*
X152172943Y-130308771D01*
X152172943Y-130308771D02*
X152411038Y-130308771D01*
X152411038Y-130308771D02*
X152506276Y-130356390D01*
X152506276Y-130356390D02*
X152553895Y-130404009D01*
X152553895Y-130404009D02*
X152601514Y-130499247D01*
X152601514Y-130499247D02*
X152601514Y-130737342D01*
X152601514Y-130737342D02*
X152553895Y-130832580D01*
X152553895Y-130832580D02*
X152506276Y-130880200D01*
X152506276Y-130880200D02*
X152411038Y-130927819D01*
X152411038Y-130927819D02*
X152172943Y-130927819D01*
X152172943Y-130927819D02*
X152077705Y-130880200D01*
X152077705Y-130880200D02*
X152030086Y-130832580D01*
%TO.C,U1*%
X107317819Y-120370504D02*
X108127342Y-120370504D01*
X108127342Y-120370504D02*
X108222580Y-120322885D01*
X108222580Y-120322885D02*
X108270200Y-120275266D01*
X108270200Y-120275266D02*
X108317819Y-120180028D01*
X108317819Y-120180028D02*
X108317819Y-119989552D01*
X108317819Y-119989552D02*
X108270200Y-119894314D01*
X108270200Y-119894314D02*
X108222580Y-119846695D01*
X108222580Y-119846695D02*
X108127342Y-119799076D01*
X108127342Y-119799076D02*
X107317819Y-119799076D01*
X108317819Y-118799076D02*
X108317819Y-119370504D01*
X108317819Y-119084790D02*
X107317819Y-119084790D01*
X107317819Y-119084790D02*
X107460676Y-119180028D01*
X107460676Y-119180028D02*
X107555914Y-119275266D01*
X107555914Y-119275266D02*
X107603533Y-119370504D01*
%TO.C,C1*%
X112863333Y-132356580D02*
X112815714Y-132404200D01*
X112815714Y-132404200D02*
X112672857Y-132451819D01*
X112672857Y-132451819D02*
X112577619Y-132451819D01*
X112577619Y-132451819D02*
X112434762Y-132404200D01*
X112434762Y-132404200D02*
X112339524Y-132308961D01*
X112339524Y-132308961D02*
X112291905Y-132213723D01*
X112291905Y-132213723D02*
X112244286Y-132023247D01*
X112244286Y-132023247D02*
X112244286Y-131880390D01*
X112244286Y-131880390D02*
X112291905Y-131689914D01*
X112291905Y-131689914D02*
X112339524Y-131594676D01*
X112339524Y-131594676D02*
X112434762Y-131499438D01*
X112434762Y-131499438D02*
X112577619Y-131451819D01*
X112577619Y-131451819D02*
X112672857Y-131451819D01*
X112672857Y-131451819D02*
X112815714Y-131499438D01*
X112815714Y-131499438D02*
X112863333Y-131547057D01*
X113815714Y-132451819D02*
X113244286Y-132451819D01*
X113530000Y-132451819D02*
X113530000Y-131451819D01*
X113530000Y-131451819D02*
X113434762Y-131594676D01*
X113434762Y-131594676D02*
X113339524Y-131689914D01*
X113339524Y-131689914D02*
X113244286Y-131737533D01*
%TO.C,R2*%
X126579333Y-113576619D02*
X126246000Y-113100428D01*
X126007905Y-113576619D02*
X126007905Y-112576619D01*
X126007905Y-112576619D02*
X126388857Y-112576619D01*
X126388857Y-112576619D02*
X126484095Y-112624238D01*
X126484095Y-112624238D02*
X126531714Y-112671857D01*
X126531714Y-112671857D02*
X126579333Y-112767095D01*
X126579333Y-112767095D02*
X126579333Y-112909952D01*
X126579333Y-112909952D02*
X126531714Y-113005190D01*
X126531714Y-113005190D02*
X126484095Y-113052809D01*
X126484095Y-113052809D02*
X126388857Y-113100428D01*
X126388857Y-113100428D02*
X126007905Y-113100428D01*
X126960286Y-112671857D02*
X127007905Y-112624238D01*
X127007905Y-112624238D02*
X127103143Y-112576619D01*
X127103143Y-112576619D02*
X127341238Y-112576619D01*
X127341238Y-112576619D02*
X127436476Y-112624238D01*
X127436476Y-112624238D02*
X127484095Y-112671857D01*
X127484095Y-112671857D02*
X127531714Y-112767095D01*
X127531714Y-112767095D02*
X127531714Y-112862333D01*
X127531714Y-112862333D02*
X127484095Y-113005190D01*
X127484095Y-113005190D02*
X126912667Y-113576619D01*
X126912667Y-113576619D02*
X127531714Y-113576619D01*
%TO.C,R1*%
X126579333Y-108242619D02*
X126246000Y-107766428D01*
X126007905Y-108242619D02*
X126007905Y-107242619D01*
X126007905Y-107242619D02*
X126388857Y-107242619D01*
X126388857Y-107242619D02*
X126484095Y-107290238D01*
X126484095Y-107290238D02*
X126531714Y-107337857D01*
X126531714Y-107337857D02*
X126579333Y-107433095D01*
X126579333Y-107433095D02*
X126579333Y-107575952D01*
X126579333Y-107575952D02*
X126531714Y-107671190D01*
X126531714Y-107671190D02*
X126484095Y-107718809D01*
X126484095Y-107718809D02*
X126388857Y-107766428D01*
X126388857Y-107766428D02*
X126007905Y-107766428D01*
X127531714Y-108242619D02*
X126960286Y-108242619D01*
X127246000Y-108242619D02*
X127246000Y-107242619D01*
X127246000Y-107242619D02*
X127150762Y-107385476D01*
X127150762Y-107385476D02*
X127055524Y-107480714D01*
X127055524Y-107480714D02*
X126960286Y-107528333D01*
%TO.C,J3*%
X105126619Y-123777333D02*
X105840904Y-123777333D01*
X105840904Y-123777333D02*
X105983761Y-123824952D01*
X105983761Y-123824952D02*
X106079000Y-123920190D01*
X106079000Y-123920190D02*
X106126619Y-124063047D01*
X106126619Y-124063047D02*
X106126619Y-124158285D01*
X105126619Y-123396380D02*
X105126619Y-122777333D01*
X105126619Y-122777333D02*
X105507571Y-123110666D01*
X105507571Y-123110666D02*
X105507571Y-122967809D01*
X105507571Y-122967809D02*
X105555190Y-122872571D01*
X105555190Y-122872571D02*
X105602809Y-122824952D01*
X105602809Y-122824952D02*
X105698047Y-122777333D01*
X105698047Y-122777333D02*
X105936142Y-122777333D01*
X105936142Y-122777333D02*
X106031380Y-122824952D01*
X106031380Y-122824952D02*
X106079000Y-122872571D01*
X106079000Y-122872571D02*
X106126619Y-122967809D01*
X106126619Y-122967809D02*
X106126619Y-123253523D01*
X106126619Y-123253523D02*
X106079000Y-123348761D01*
X106079000Y-123348761D02*
X106031380Y-123396380D01*
%TO.C,SW1*%
X151320667Y-116747000D02*
X151463524Y-116794619D01*
X151463524Y-116794619D02*
X151701619Y-116794619D01*
X151701619Y-116794619D02*
X151796857Y-116747000D01*
X151796857Y-116747000D02*
X151844476Y-116699380D01*
X151844476Y-116699380D02*
X151892095Y-116604142D01*
X151892095Y-116604142D02*
X151892095Y-116508904D01*
X151892095Y-116508904D02*
X151844476Y-116413666D01*
X151844476Y-116413666D02*
X151796857Y-116366047D01*
X151796857Y-116366047D02*
X151701619Y-116318428D01*
X151701619Y-116318428D02*
X151511143Y-116270809D01*
X151511143Y-116270809D02*
X151415905Y-116223190D01*
X151415905Y-116223190D02*
X151368286Y-116175571D01*
X151368286Y-116175571D02*
X151320667Y-116080333D01*
X151320667Y-116080333D02*
X151320667Y-115985095D01*
X151320667Y-115985095D02*
X151368286Y-115889857D01*
X151368286Y-115889857D02*
X151415905Y-115842238D01*
X151415905Y-115842238D02*
X151511143Y-115794619D01*
X151511143Y-115794619D02*
X151749238Y-115794619D01*
X151749238Y-115794619D02*
X151892095Y-115842238D01*
X152225429Y-115794619D02*
X152463524Y-116794619D01*
X152463524Y-116794619D02*
X152654000Y-116080333D01*
X152654000Y-116080333D02*
X152844476Y-116794619D01*
X152844476Y-116794619D02*
X153082572Y-115794619D01*
X153987333Y-116794619D02*
X153415905Y-116794619D01*
X153701619Y-116794619D02*
X153701619Y-115794619D01*
X153701619Y-115794619D02*
X153606381Y-115937476D01*
X153606381Y-115937476D02*
X153511143Y-116032714D01*
X153511143Y-116032714D02*
X153415905Y-116080333D01*
%TO.C,C3*%
X147915333Y-108357380D02*
X147867714Y-108405000D01*
X147867714Y-108405000D02*
X147724857Y-108452619D01*
X147724857Y-108452619D02*
X147629619Y-108452619D01*
X147629619Y-108452619D02*
X147486762Y-108405000D01*
X147486762Y-108405000D02*
X147391524Y-108309761D01*
X147391524Y-108309761D02*
X147343905Y-108214523D01*
X147343905Y-108214523D02*
X147296286Y-108024047D01*
X147296286Y-108024047D02*
X147296286Y-107881190D01*
X147296286Y-107881190D02*
X147343905Y-107690714D01*
X147343905Y-107690714D02*
X147391524Y-107595476D01*
X147391524Y-107595476D02*
X147486762Y-107500238D01*
X147486762Y-107500238D02*
X147629619Y-107452619D01*
X147629619Y-107452619D02*
X147724857Y-107452619D01*
X147724857Y-107452619D02*
X147867714Y-107500238D01*
X147867714Y-107500238D02*
X147915333Y-107547857D01*
X148248667Y-107452619D02*
X148867714Y-107452619D01*
X148867714Y-107452619D02*
X148534381Y-107833571D01*
X148534381Y-107833571D02*
X148677238Y-107833571D01*
X148677238Y-107833571D02*
X148772476Y-107881190D01*
X148772476Y-107881190D02*
X148820095Y-107928809D01*
X148820095Y-107928809D02*
X148867714Y-108024047D01*
X148867714Y-108024047D02*
X148867714Y-108262142D01*
X148867714Y-108262142D02*
X148820095Y-108357380D01*
X148820095Y-108357380D02*
X148772476Y-108405000D01*
X148772476Y-108405000D02*
X148677238Y-108452619D01*
X148677238Y-108452619D02*
X148391524Y-108452619D01*
X148391524Y-108452619D02*
X148296286Y-108405000D01*
X148296286Y-108405000D02*
X148248667Y-108357380D01*
%TO.C,R3*%
X133513533Y-131806019D02*
X133180200Y-131329828D01*
X132942105Y-131806019D02*
X132942105Y-130806019D01*
X132942105Y-130806019D02*
X133323057Y-130806019D01*
X133323057Y-130806019D02*
X133418295Y-130853638D01*
X133418295Y-130853638D02*
X133465914Y-130901257D01*
X133465914Y-130901257D02*
X133513533Y-130996495D01*
X133513533Y-130996495D02*
X133513533Y-131139352D01*
X133513533Y-131139352D02*
X133465914Y-131234590D01*
X133465914Y-131234590D02*
X133418295Y-131282209D01*
X133418295Y-131282209D02*
X133323057Y-131329828D01*
X133323057Y-131329828D02*
X132942105Y-131329828D01*
X133846867Y-130806019D02*
X134465914Y-130806019D01*
X134465914Y-130806019D02*
X134132581Y-131186971D01*
X134132581Y-131186971D02*
X134275438Y-131186971D01*
X134275438Y-131186971D02*
X134370676Y-131234590D01*
X134370676Y-131234590D02*
X134418295Y-131282209D01*
X134418295Y-131282209D02*
X134465914Y-131377447D01*
X134465914Y-131377447D02*
X134465914Y-131615542D01*
X134465914Y-131615542D02*
X134418295Y-131710780D01*
X134418295Y-131710780D02*
X134370676Y-131758400D01*
X134370676Y-131758400D02*
X134275438Y-131806019D01*
X134275438Y-131806019D02*
X133989724Y-131806019D01*
X133989724Y-131806019D02*
X133894486Y-131758400D01*
X133894486Y-131758400D02*
X133846867Y-131710780D01*
%TO.C,J1*%
X125505266Y-133828619D02*
X125505266Y-134542904D01*
X125505266Y-134542904D02*
X125457647Y-134685761D01*
X125457647Y-134685761D02*
X125362409Y-134781000D01*
X125362409Y-134781000D02*
X125219552Y-134828619D01*
X125219552Y-134828619D02*
X125124314Y-134828619D01*
X126505266Y-134828619D02*
X125933838Y-134828619D01*
X126219552Y-134828619D02*
X126219552Y-133828619D01*
X126219552Y-133828619D02*
X126124314Y-133971476D01*
X126124314Y-133971476D02*
X126029076Y-134066714D01*
X126029076Y-134066714D02*
X125933838Y-134114333D01*
%TO.C,Y1*%
X125761809Y-125970428D02*
X125761809Y-126446619D01*
X125428476Y-125446619D02*
X125761809Y-125970428D01*
X125761809Y-125970428D02*
X126095142Y-125446619D01*
X126952285Y-126446619D02*
X126380857Y-126446619D01*
X126666571Y-126446619D02*
X126666571Y-125446619D01*
X126666571Y-125446619D02*
X126571333Y-125589476D01*
X126571333Y-125589476D02*
X126476095Y-125684714D01*
X126476095Y-125684714D02*
X126380857Y-125732333D01*
%TO.C,J2*%
X132305466Y-101900819D02*
X132305466Y-102615104D01*
X132305466Y-102615104D02*
X132257847Y-102757961D01*
X132257847Y-102757961D02*
X132162609Y-102853200D01*
X132162609Y-102853200D02*
X132019752Y-102900819D01*
X132019752Y-102900819D02*
X131924514Y-102900819D01*
X132734038Y-101996057D02*
X132781657Y-101948438D01*
X132781657Y-101948438D02*
X132876895Y-101900819D01*
X132876895Y-101900819D02*
X133114990Y-101900819D01*
X133114990Y-101900819D02*
X133210228Y-101948438D01*
X133210228Y-101948438D02*
X133257847Y-101996057D01*
X133257847Y-101996057D02*
X133305466Y-102091295D01*
X133305466Y-102091295D02*
X133305466Y-102186533D01*
X133305466Y-102186533D02*
X133257847Y-102329390D01*
X133257847Y-102329390D02*
X132686419Y-102900819D01*
X132686419Y-102900819D02*
X133305466Y-102900819D01*
%TO.C,D1*%
X140536705Y-126116419D02*
X140536705Y-125116419D01*
X140536705Y-125116419D02*
X140774800Y-125116419D01*
X140774800Y-125116419D02*
X140917657Y-125164038D01*
X140917657Y-125164038D02*
X141012895Y-125259276D01*
X141012895Y-125259276D02*
X141060514Y-125354514D01*
X141060514Y-125354514D02*
X141108133Y-125544990D01*
X141108133Y-125544990D02*
X141108133Y-125687847D01*
X141108133Y-125687847D02*
X141060514Y-125878323D01*
X141060514Y-125878323D02*
X141012895Y-125973561D01*
X141012895Y-125973561D02*
X140917657Y-126068800D01*
X140917657Y-126068800D02*
X140774800Y-126116419D01*
X140774800Y-126116419D02*
X140536705Y-126116419D01*
X142060514Y-126116419D02*
X141489086Y-126116419D01*
X141774800Y-126116419D02*
X141774800Y-125116419D01*
X141774800Y-125116419D02*
X141679562Y-125259276D01*
X141679562Y-125259276D02*
X141584324Y-125354514D01*
X141584324Y-125354514D02*
X141489086Y-125402133D01*
X135856695Y-126551619D02*
X135856695Y-125551619D01*
X136428123Y-126551619D02*
X135999552Y-125980190D01*
X136428123Y-125551619D02*
X135856695Y-126123047D01*
D29*
%TO.C,J4*%
X142418000Y-137371600D02*
X142418000Y-139871600D01*
X142418000Y-139871600D02*
X144918000Y-139871600D01*
X142718000Y-135551600D02*
X142718000Y-139571600D01*
X142718000Y-137261600D02*
X143218000Y-137261600D01*
X142718000Y-138071600D02*
X143718000Y-138071600D01*
X142718000Y-139571600D02*
X150438000Y-139571600D01*
X143218000Y-136051600D02*
X149938000Y-136051600D01*
X143218000Y-137261600D02*
X143218000Y-136051600D01*
X143718000Y-138071600D02*
X143718000Y-139571600D01*
X149438000Y-138071600D02*
X149438000Y-139571600D01*
X149938000Y-136051600D02*
X149938000Y-137261600D01*
X149938000Y-137261600D02*
X150438000Y-137261600D01*
X150438000Y-135551600D02*
X142718000Y-135551600D01*
X150438000Y-138071600D02*
X149438000Y-138071600D01*
X150438000Y-139571600D02*
X150438000Y-135551600D01*
%TO.C,Q1*%
X117522400Y-108614600D02*
X113922400Y-108614600D01*
X115722400Y-113064600D02*
G75*
G03*
X117560878Y-108626122I0J2600000D01*
G01*
X113883922Y-108626122D02*
G75*
G03*
X115722400Y-113064600I1838478J-1838478D01*
G01*
%TO.C,C2*%
X115650000Y-137641000D02*
X115650000Y-134901000D01*
X115650000Y-137641000D02*
X110410000Y-137641000D01*
X115650000Y-134901000D02*
X110410000Y-134901000D01*
X110410000Y-137641000D02*
X110410000Y-134901000D01*
%TO.C,C4*%
X111663800Y-102033400D02*
X111663800Y-104773400D01*
X111663800Y-102033400D02*
X116903800Y-102033400D01*
X111663800Y-104773400D02*
X116903800Y-104773400D01*
X116903800Y-102033400D02*
X116903800Y-104773400D01*
%TO.C,C5*%
X154435800Y-129335200D02*
X154435800Y-126595200D01*
X154435800Y-129335200D02*
X149195800Y-129335200D01*
X154435800Y-126595200D02*
X149195800Y-126595200D01*
X149195800Y-129335200D02*
X149195800Y-126595200D01*
%TO.C,U1*%
X108855200Y-122258600D02*
X144535200Y-122258600D01*
X144535200Y-122258600D02*
X144535200Y-116958600D01*
X108855200Y-120608600D02*
X108855200Y-122258600D01*
X108855200Y-116958600D02*
X108855200Y-118608600D01*
X144535200Y-116958600D02*
X108855200Y-116958600D01*
X108855200Y-120608600D02*
G75*
G03*
X108855200Y-118608600I0J1000000D01*
G01*
%TO.C,C1*%
X115650000Y-130859200D02*
X115650000Y-128119200D01*
X115650000Y-130859200D02*
X110410000Y-130859200D01*
X115650000Y-128119200D02*
X110410000Y-128119200D01*
X110410000Y-130859200D02*
X110410000Y-128119200D01*
%TO.C,R2*%
X130786000Y-110744000D02*
X130016000Y-110744000D01*
X130016000Y-112114000D02*
X130016000Y-109374000D01*
X130016000Y-109374000D02*
X123476000Y-109374000D01*
X123476000Y-112114000D02*
X130016000Y-112114000D01*
X123476000Y-109374000D02*
X123476000Y-112114000D01*
X122706000Y-110744000D02*
X123476000Y-110744000D01*
%TO.C,R1*%
X130786000Y-105410000D02*
X130016000Y-105410000D01*
X130016000Y-106780000D02*
X130016000Y-104040000D01*
X130016000Y-104040000D02*
X123476000Y-104040000D01*
X123476000Y-106780000D02*
X130016000Y-106780000D01*
X123476000Y-104040000D02*
X123476000Y-106780000D01*
X122706000Y-105410000D02*
X123476000Y-105410000D01*
%TO.C,J3*%
X102243400Y-131284800D02*
X104743400Y-131284800D01*
X104743400Y-131284800D02*
X104743400Y-128784800D01*
X100423400Y-130984800D02*
X104443400Y-130984800D01*
X102133400Y-130984800D02*
X102133400Y-130484800D01*
X102943400Y-130984800D02*
X102943400Y-129984800D01*
X104443400Y-130984800D02*
X104443400Y-108264800D01*
X100923400Y-130484800D02*
X100923400Y-108764800D01*
X102133400Y-130484800D02*
X100923400Y-130484800D01*
X102943400Y-129984800D02*
X104443400Y-129984800D01*
X102943400Y-109264800D02*
X104443400Y-109264800D01*
X100923400Y-108764800D02*
X102133400Y-108764800D01*
X102133400Y-108764800D02*
X102133400Y-108264800D01*
X100423400Y-108264800D02*
X100423400Y-130984800D01*
X102943400Y-108264800D02*
X102943400Y-109264800D01*
X104443400Y-108264800D02*
X100423400Y-108264800D01*
%TO.C,SW1*%
X156250000Y-121500000D02*
X156250000Y-120000000D01*
X155000000Y-117500000D02*
X150500000Y-117500000D01*
X150500000Y-124000000D02*
X155000000Y-124000000D01*
X149250000Y-120000000D02*
X149250000Y-121500000D01*
%TO.C,C3*%
X145462000Y-109120000D02*
X145462000Y-111860000D01*
X145462000Y-109120000D02*
X150702000Y-109120000D01*
X145462000Y-111860000D02*
X150702000Y-111860000D01*
X150702000Y-109120000D02*
X150702000Y-111860000D01*
%TO.C,R3*%
X137158600Y-131419600D02*
X137928600Y-131419600D01*
X137928600Y-130049600D02*
X137928600Y-132789600D01*
X137928600Y-132789600D02*
X144468600Y-132789600D01*
X144468600Y-130049600D02*
X137928600Y-130049600D01*
X144468600Y-132789600D02*
X144468600Y-130049600D01*
X145238600Y-131419600D02*
X144468600Y-131419600D01*
%TO.C,J1*%
X118582000Y-137346200D02*
X118582000Y-139846200D01*
X118582000Y-139846200D02*
X121082000Y-139846200D01*
X118882000Y-135526200D02*
X118882000Y-139546200D01*
X118882000Y-137236200D02*
X119382000Y-137236200D01*
X118882000Y-138046200D02*
X119882000Y-138046200D01*
X118882000Y-139546200D02*
X136602000Y-139546200D01*
X119382000Y-136026200D02*
X136102000Y-136026200D01*
X119382000Y-137236200D02*
X119382000Y-136026200D01*
X119882000Y-138046200D02*
X119882000Y-139546200D01*
X135602000Y-138046200D02*
X135602000Y-139546200D01*
X136102000Y-136026200D02*
X136102000Y-137236200D01*
X136102000Y-137236200D02*
X136602000Y-137236200D01*
X136602000Y-135526200D02*
X118882000Y-135526200D01*
X136602000Y-138046200D02*
X135602000Y-138046200D01*
X136602000Y-139546200D02*
X136602000Y-135526200D01*
%TO.C,Y1*%
X129538000Y-132065000D02*
X123138000Y-132065000D01*
X129538000Y-127015000D02*
X123138000Y-127015000D01*
X129538000Y-132065000D02*
G75*
G03*
X129538000Y-127015000I0J2525000D01*
G01*
X123138000Y-127015000D02*
G75*
G03*
X123138000Y-132065000I0J-2525000D01*
G01*
%TO.C,J2*%
X133691200Y-102243400D02*
X133691200Y-104743400D01*
X133691200Y-104743400D02*
X136191200Y-104743400D01*
X133991200Y-100423400D02*
X133991200Y-104443400D01*
X133991200Y-102133400D02*
X134491200Y-102133400D01*
X133991200Y-102943400D02*
X134991200Y-102943400D01*
X133991200Y-104443400D02*
X151711200Y-104443400D01*
X134491200Y-100923400D02*
X151211200Y-100923400D01*
X134491200Y-102133400D02*
X134491200Y-100923400D01*
X134991200Y-102943400D02*
X134991200Y-104443400D01*
X150711200Y-102943400D02*
X150711200Y-104443400D01*
X151211200Y-100923400D02*
X151211200Y-102133400D01*
X151211200Y-102133400D02*
X151711200Y-102133400D01*
X151711200Y-100423400D02*
X133991200Y-100423400D01*
X151711200Y-102943400D02*
X150711200Y-102943400D01*
X151711200Y-104443400D02*
X151711200Y-100423400D01*
%TO.C,D1*%
X137158600Y-127889000D02*
X139078600Y-127889000D01*
X139078600Y-126769000D02*
X139078600Y-129009000D01*
X139078600Y-129009000D02*
X143318600Y-129009000D01*
X139678600Y-126769000D02*
X139678600Y-129009000D01*
X139798600Y-126769000D02*
X139798600Y-129009000D01*
X139918600Y-126769000D02*
X139918600Y-129009000D01*
X143318600Y-126769000D02*
X139078600Y-126769000D01*
X143318600Y-129009000D02*
X143318600Y-126769000D01*
X145238600Y-127889000D02*
X143318600Y-127889000D01*
%TD*%
D30*
%TO.C,J4*%
X145328000Y-137261600D03*
D31*
X147828000Y-137261600D03*
%TD*%
D32*
%TO.C,REF\u002A\u002A*%
X102750000Y-137250000D03*
%TD*%
D33*
%TO.C,Q1*%
X116992400Y-110464600D03*
D34*
X115722400Y-111734600D03*
X114452400Y-110464600D03*
%TD*%
D35*
%TO.C,C2*%
X114280000Y-136271000D03*
X111780000Y-136271000D03*
%TD*%
%TO.C,C4*%
X113033800Y-103403400D03*
X115533800Y-103403400D03*
%TD*%
%TO.C,C5*%
X153065800Y-127965200D03*
X150565800Y-127965200D03*
%TD*%
D36*
%TO.C,U1*%
X110185200Y-123418600D03*
D37*
X112725200Y-123418600D03*
X115265200Y-123418600D03*
X117805200Y-123418600D03*
X120345200Y-123418600D03*
X122885200Y-123418600D03*
X125425200Y-123418600D03*
X127965200Y-123418600D03*
X130505200Y-123418600D03*
X133045200Y-123418600D03*
X135585200Y-123418600D03*
X138125200Y-123418600D03*
X140665200Y-123418600D03*
X143205200Y-123418600D03*
X143205200Y-115798600D03*
X140665200Y-115798600D03*
X138125200Y-115798600D03*
X135585200Y-115798600D03*
X133045200Y-115798600D03*
X130505200Y-115798600D03*
X127965200Y-115798600D03*
X125425200Y-115798600D03*
X122885200Y-115798600D03*
X120345200Y-115798600D03*
X117805200Y-115798600D03*
X115265200Y-115798600D03*
X112725200Y-115798600D03*
X110185200Y-115798600D03*
%TD*%
D35*
%TO.C,C1*%
X114280000Y-129489200D03*
X111780000Y-129489200D03*
%TD*%
%TO.C,R2*%
X131826000Y-110744000D03*
D37*
X121666000Y-110744000D03*
%TD*%
D35*
%TO.C,R1*%
X131826000Y-105410000D03*
D37*
X121666000Y-105410000D03*
%TD*%
D38*
%TO.C,J3*%
X102133400Y-128374800D03*
D39*
X102133400Y-125874800D03*
X102133400Y-123374800D03*
X102133400Y-120874800D03*
X102133400Y-118374800D03*
X102133400Y-115874800D03*
X102133400Y-113374800D03*
X102133400Y-110874800D03*
%TD*%
D32*
%TO.C,REF\u002A\u002A*%
X157250000Y-102750000D03*
%TD*%
D40*
%TO.C,SW1*%
X156000000Y-123000000D03*
X149500000Y-123000000D03*
X156000000Y-118500000D03*
X149500000Y-118500000D03*
%TD*%
D32*
%TO.C,REF\u002A\u002A*%
X157250000Y-137250000D03*
%TD*%
D35*
%TO.C,C3*%
X146832000Y-110490000D03*
X149332000Y-110490000D03*
%TD*%
%TO.C,R3*%
X136118600Y-131419600D03*
D37*
X146278600Y-131419600D03*
%TD*%
D41*
%TO.C,J1*%
X121492000Y-137236200D03*
D42*
X123992000Y-137236200D03*
X126492000Y-137236200D03*
X128992000Y-137236200D03*
X131492000Y-137236200D03*
X133992000Y-137236200D03*
%TD*%
D43*
%TO.C,Y1*%
X128778000Y-129540000D03*
X123898000Y-129540000D03*
%TD*%
D41*
%TO.C,J2*%
X136601200Y-102133400D03*
D42*
X139101200Y-102133400D03*
X141601200Y-102133400D03*
X144101200Y-102133400D03*
X146601200Y-102133400D03*
X149101200Y-102133400D03*
%TD*%
D32*
%TO.C,REF\u002A\u002A*%
X102750000Y-102750000D03*
%TD*%
D44*
%TO.C,D1*%
X136118600Y-127889000D03*
D37*
X146278600Y-127889000D03*
%TD*%
D30*
%TO.C,J4*%
X145328000Y-137261600D03*
D31*
X147828000Y-137261600D03*
%TD*%
D32*
%TO.C,REF\u002A\u002A*%
X102750000Y-137250000D03*
%TD*%
D33*
%TO.C,Q1*%
X116992400Y-110464600D03*
D34*
X115722400Y-111734600D03*
X114452400Y-110464600D03*
%TD*%
D35*
%TO.C,C2*%
X114280000Y-136271000D03*
X111780000Y-136271000D03*
%TD*%
%TO.C,C4*%
X113033800Y-103403400D03*
X115533800Y-103403400D03*
%TD*%
%TO.C,C5*%
X153065800Y-127965200D03*
X150565800Y-127965200D03*
%TD*%
D36*
%TO.C,U1*%
X110185200Y-123418600D03*
D37*
X112725200Y-123418600D03*
X115265200Y-123418600D03*
X117805200Y-123418600D03*
X120345200Y-123418600D03*
X122885200Y-123418600D03*
X125425200Y-123418600D03*
X127965200Y-123418600D03*
X130505200Y-123418600D03*
X133045200Y-123418600D03*
X135585200Y-123418600D03*
X138125200Y-123418600D03*
X140665200Y-123418600D03*
X143205200Y-123418600D03*
X143205200Y-115798600D03*
X140665200Y-115798600D03*
X138125200Y-115798600D03*
X135585200Y-115798600D03*
X133045200Y-115798600D03*
X130505200Y-115798600D03*
X127965200Y-115798600D03*
X125425200Y-115798600D03*
X122885200Y-115798600D03*
X120345200Y-115798600D03*
X117805200Y-115798600D03*
X115265200Y-115798600D03*
X112725200Y-115798600D03*
X110185200Y-115798600D03*
%TD*%
D35*
%TO.C,C1*%
X114280000Y-129489200D03*
X111780000Y-129489200D03*
%TD*%
%TO.C,R2*%
X131826000Y-110744000D03*
D37*
X121666000Y-110744000D03*
%TD*%
D35*
%TO.C,R1*%
X131826000Y-105410000D03*
D37*
X121666000Y-105410000D03*
%TD*%
D38*
%TO.C,J3*%
X102133400Y-128374800D03*
D39*
X102133400Y-125874800D03*
X102133400Y-123374800D03*
X102133400Y-120874800D03*
X102133400Y-118374800D03*
X102133400Y-115874800D03*
X102133400Y-113374800D03*
X102133400Y-110874800D03*
%TD*%
D32*
%TO.C,REF\u002A\u002A*%
X157250000Y-102750000D03*
%TD*%
D40*
%TO.C,SW1*%
X156000000Y-123000000D03*
X149500000Y-123000000D03*
X156000000Y-118500000D03*
X149500000Y-118500000D03*
%TD*%
D32*
%TO.C,REF\u002A\u002A*%
X157250000Y-137250000D03*
%TD*%
D35*
%TO.C,C3*%
X146832000Y-110490000D03*
X149332000Y-110490000D03*
%TD*%
%TO.C,R3*%
X136118600Y-131419600D03*
D37*
X146278600Y-131419600D03*
%TD*%
D41*
%TO.C,J1*%
X121492000Y-137236200D03*
D42*
X123992000Y-137236200D03*
X126492000Y-137236200D03*
X128992000Y-137236200D03*
X131492000Y-137236200D03*
X133992000Y-137236200D03*
%TD*%
D43*
%TO.C,Y1*%
X128778000Y-129540000D03*
X123898000Y-129540000D03*
%TD*%
D41*
%TO.C,J2*%
X136601200Y-102133400D03*
D42*
X139101200Y-102133400D03*
X141601200Y-102133400D03*
X144101200Y-102133400D03*
X146601200Y-102133400D03*
X149101200Y-102133400D03*
%TD*%
D32*
%TO.C,REF\u002A\u002A*%
X102750000Y-102750000D03*
%TD*%
D44*
%TO.C,D1*%
X136118600Y-127889000D03*
D37*
X146278600Y-127889000D03*
%TD*%
D45*
X100000000Y-100000000D02*
X160000000Y-100000000D01*
X160000000Y-140000000D01*
X100000000Y-140000000D01*
X100000000Y-100000000D01*
D46*
%TO.C,J4*%
X142328000Y-135161600D02*
X142328000Y-139961600D01*
X142328000Y-139961600D02*
X150828000Y-139961600D01*
X150828000Y-135161600D02*
X142328000Y-135161600D01*
X150828000Y-139961600D02*
X150828000Y-135161600D01*
%TO.C,REF\u002A\u002A*%
X105200000Y-137250000D02*
G75*
G03*
X105200000Y-137250000I-2450000J0D01*
G01*
%TO.C,Q1*%
X118452400Y-113194600D02*
X118452400Y-108454600D01*
X118452400Y-113194600D02*
X112992400Y-113194600D01*
X112992400Y-108454600D02*
X118452400Y-108454600D01*
X112992400Y-108454600D02*
X112992400Y-113194600D01*
%TO.C,C2*%
X115780000Y-137771000D02*
X115780000Y-134771000D01*
X115780000Y-134771000D02*
X110280000Y-134771000D01*
X110280000Y-137771000D02*
X115780000Y-137771000D01*
X110280000Y-134771000D02*
X110280000Y-137771000D01*
%TO.C,C4*%
X111533800Y-101903400D02*
X111533800Y-104903400D01*
X111533800Y-104903400D02*
X117033800Y-104903400D01*
X117033800Y-101903400D02*
X111533800Y-101903400D01*
X117033800Y-104903400D02*
X117033800Y-101903400D01*
%TO.C,C5*%
X154565800Y-129465200D02*
X154565800Y-126465200D01*
X154565800Y-126465200D02*
X149065800Y-126465200D01*
X149065800Y-129465200D02*
X154565800Y-129465200D01*
X149065800Y-126465200D02*
X149065800Y-129465200D01*
%TO.C,U1*%
X108635200Y-124518600D02*
X144735200Y-124518600D01*
X144735200Y-124518600D02*
X144735200Y-114718600D01*
X108635200Y-114718600D02*
X108635200Y-124518600D01*
X144735200Y-114718600D02*
X108635200Y-114718600D01*
%TO.C,C1*%
X115780000Y-130989200D02*
X115780000Y-127989200D01*
X115780000Y-127989200D02*
X110280000Y-127989200D01*
X110280000Y-130989200D02*
X115780000Y-130989200D01*
X110280000Y-127989200D02*
X110280000Y-130989200D01*
%TO.C,R2*%
X132876000Y-112244000D02*
X132876000Y-109244000D01*
X132876000Y-109244000D02*
X120616000Y-109244000D01*
X120616000Y-112244000D02*
X132876000Y-112244000D01*
X120616000Y-109244000D02*
X120616000Y-112244000D01*
%TO.C,R1*%
X132876000Y-106910000D02*
X132876000Y-103910000D01*
X132876000Y-103910000D02*
X120616000Y-103910000D01*
X120616000Y-106910000D02*
X132876000Y-106910000D01*
X120616000Y-103910000D02*
X120616000Y-106910000D01*
%TO.C,J3*%
X100033400Y-131374800D02*
X104833400Y-131374800D01*
X104833400Y-131374800D02*
X104833400Y-107874800D01*
X100033400Y-107874800D02*
X100033400Y-131374800D01*
X104833400Y-107874800D02*
X100033400Y-107874800D01*
%TO.C,REF\u002A\u002A*%
X159700000Y-102750000D02*
G75*
G03*
X159700000Y-102750000I-2450000J0D01*
G01*
%TO.C,SW1*%
X157500000Y-124500000D02*
X157250000Y-124500000D01*
X157500000Y-124250000D02*
X157500000Y-124500000D01*
X157500000Y-117250000D02*
X157500000Y-124250000D01*
X157500000Y-117250000D02*
X157500000Y-117000000D01*
X157500000Y-117000000D02*
X157250000Y-117000000D01*
X157250000Y-124500000D02*
X148250000Y-124500000D01*
X148250000Y-124500000D02*
X148000000Y-124500000D01*
X148250000Y-117000000D02*
X157250000Y-117000000D01*
X148250000Y-117000000D02*
X148000000Y-117000000D01*
X148000000Y-124500000D02*
X148000000Y-124250000D01*
X148000000Y-124250000D02*
X148000000Y-117250000D01*
X148000000Y-117000000D02*
X148000000Y-117250000D01*
%TO.C,REF\u002A\u002A*%
X159700000Y-137250000D02*
G75*
G03*
X159700000Y-137250000I-2450000J0D01*
G01*
%TO.C,C3*%
X145332000Y-108990000D02*
X145332000Y-111990000D01*
X145332000Y-111990000D02*
X150832000Y-111990000D01*
X150832000Y-108990000D02*
X145332000Y-108990000D01*
X150832000Y-111990000D02*
X150832000Y-108990000D01*
%TO.C,R3*%
X135068600Y-129919600D02*
X135068600Y-132919600D01*
X135068600Y-132919600D02*
X147328600Y-132919600D01*
X147328600Y-129919600D02*
X135068600Y-129919600D01*
X147328600Y-132919600D02*
X147328600Y-129919600D01*
%TO.C,J1*%
X118492000Y-135136200D02*
X118492000Y-139936200D01*
X118492000Y-139936200D02*
X136992000Y-139936200D01*
X136992000Y-135136200D02*
X118492000Y-135136200D01*
X136992000Y-139936200D02*
X136992000Y-135136200D01*
%TO.C,Y1*%
X132378000Y-132340000D02*
X132378000Y-126740000D01*
X132378000Y-126740000D02*
X120278000Y-126740000D01*
X120278000Y-132340000D02*
X132378000Y-132340000D01*
X120278000Y-126740000D02*
X120278000Y-132340000D01*
%TO.C,J2*%
X133601200Y-100033400D02*
X133601200Y-104833400D01*
X133601200Y-104833400D02*
X152101200Y-104833400D01*
X152101200Y-100033400D02*
X133601200Y-100033400D01*
X152101200Y-104833400D02*
X152101200Y-100033400D01*
%TO.C,REF\u002A\u002A*%
X105200000Y-102750000D02*
G75*
G03*
X105200000Y-102750000I-2450000J0D01*
G01*
%TO.C,D1*%
X135068600Y-126639000D02*
X135068600Y-129139000D01*
X135068600Y-129139000D02*
X147328600Y-129139000D01*
X147328600Y-126639000D02*
X135068600Y-126639000D01*
X147328600Y-129139000D02*
X147328600Y-126639000D01*
%TD*%
M02*
